<?xml version="1.0" encoding="UTF-8" standalone="no"?><svg xmlns="http://www.w3.org/2000/svg" xmlns:xlink="http://www.w3.org/1999/xlink" contentStyleType="text/css" height="1080px" preserveAspectRatio="none" style="width:2403px;height:1080px;background:#FFFFFF;" version="1.1" viewBox="0 0 2403 1080" width="2403px" zoomAndPan="magnify"><defs/><g><!--MD5=[cde879ab447b042cc942523712f6004f]
class Fundamentals--><g id="elem_Fundamentals"><rect codeLine="5" fill="#F1F1F1" height="48" id="Fundamentals" rx="2.5" ry="2.5" style="stroke:#181818;stroke-width:0.5;" width="130" x="806" y="237"/><ellipse cx="821" cy="253" fill="#F1F1F1" rx="11" ry="11" style="stroke:#181818;stroke-width:1.0;"/><path d="M820.4844,253.5625 Q818.625,252.8594 817.9688,252.0938 Q817.3281,251.3125 817.3281,250 Q817.3281,248.3125 818.4063,247.3438 Q819.4844,246.375 821.3594,246.375 Q822.2188,246.375 823.0625,246.5781 Q823.9219,246.7656 824.7656,247.1563 L824.7656,249.5469 Q823.9844,248.9844 823.1563,248.7031 Q822.3438,248.4063 821.5469,248.4063 Q820.6719,248.4063 820.1875,248.7656 Q819.7188,249.125 819.7188,249.7813 Q819.7188,250.2969 820.0625,250.6406 Q820.4063,250.9688 821.5,251.375 L822.5625,251.7813 Q824.0469,252.3281 824.75,253.2344 Q825.4688,254.1406 825.4688,255.5156 Q825.4688,257.3906 824.3594,258.3125 Q823.25,259.2344 821,259.2344 Q820.0781,259.2344 819.1563,259.0156 Q818.2344,258.7969 817.375,258.375 L817.375,255.8438 Q818.3438,256.5313 819.2656,256.875 Q820.1875,257.2188 821.0781,257.2188 Q821.9844,257.2188 822.4844,256.8125 Q822.9844,256.3906 822.9844,255.6563 Q822.9844,255.0938 822.6406,254.6875 Q822.3125,254.2656 821.6875,254.0156 L820.4844,253.5625 Z " fill="#000000"/><text fill="#000000" font-family="sans-serif" font-size="14" lengthAdjust="spacing" textLength="98" x="835" y="257.8467">Fundamentals</text><line style="stroke:#181818;stroke-width:0.5;" x1="807" x2="935" y1="269" y2="269"/><line style="stroke:#181818;stroke-width:0.5;" x1="807" x2="935" y1="277" y2="277"/></g><!--MD5=[95fcf9f26be6eef34015cce5b5fce02b]
class data_algo--><g id="elem_data_algo"><rect codeLine="9" fill="#F1F1F1" height="162.0781" id="data_algo" rx="2.5" ry="2.5" style="stroke:#181818;stroke-width:0.5;" width="293" x="971.5" y="180"/><ellipse cx="1007.65" cy="196" fill="#ADD1B2" rx="11" ry="11" style="stroke:#181818;stroke-width:1.0;"/><path d="M1010.6188,201.6406 Q1010.0406,201.9375 1009.4,202.0781 Q1008.7594,202.2344 1008.0563,202.2344 Q1005.5563,202.2344 1004.2281,200.5938 Q1002.9156,198.9375 1002.9156,195.8125 Q1002.9156,192.6875 1004.2281,191.0313 Q1005.5563,189.375 1008.0563,189.375 Q1008.7594,189.375 1009.4,189.5313 Q1010.0563,189.6875 1010.6188,189.9844 L1010.6188,192.7031 Q1009.9938,192.125 1009.4,191.8594 Q1008.8063,191.5781 1008.1813,191.5781 Q1006.8375,191.5781 1006.15,192.6563 Q1005.4625,193.7188 1005.4625,195.8125 Q1005.4625,197.9063 1006.15,198.9844 Q1006.8375,200.0469 1008.1813,200.0469 Q1008.8063,200.0469 1009.4,199.7813 Q1009.9938,199.5 1010.6188,198.9219 L1010.6188,201.6406 Z " fill="#000000"/><text fill="#000000" font-family="sans-serif" font-size="14" lengthAdjust="spacing" textLength="214" x="1026.35" y="200.8467">Data structures and Algorithms</text><line style="stroke:#181818;stroke-width:0.5;" x1="972.5" x2="1263.5" y1="212" y2="212"/><ellipse cx="982.5" cy="233.7969" fill="none" rx="3" ry="3" style="stroke:#038048;stroke-width:1.0;"/><text fill="#000000" font-family="sans-serif" font-size="14" lengthAdjust="spacing" textLength="263" x="991.5" y="228.9951">Collections: Linked list, stack, queues,</text><text fill="#000000" font-family="sans-serif" font-size="14" lengthAdjust="spacing" textLength="4" x="991.5" y="245.292"> </text><text fill="#000000" font-family="sans-serif" font-size="14" lengthAdjust="spacing" textLength="220" x="991.5" y="261.5889">hash tables, heaps, binary trees</text><ellipse cx="982.5" cy="274.5391" fill="none" rx="3" ry="3" style="stroke:#038048;stroke-width:1.0;"/><text fill="#000000" font-family="sans-serif" font-size="14" lengthAdjust="spacing" textLength="68" x="991.5" y="277.8857">Interfaces</text><ellipse cx="982.5" cy="290.8359" fill="none" rx="3" ry="3" style="stroke:#038048;stroke-width:1.0;"/><text fill="#000000" font-family="sans-serif" font-size="14" lengthAdjust="spacing" textLength="65" x="991.5" y="294.1826">recursion</text><ellipse cx="982.5" cy="307.1328" fill="none" rx="3" ry="3" style="stroke:#038048;stroke-width:1.0;"/><text fill="#000000" font-family="sans-serif" font-size="14" lengthAdjust="spacing" textLength="49" x="991.5" y="310.4795">Sorting</text><ellipse cx="982.5" cy="323.4297" fill="none" rx="3" ry="3" style="stroke:#038048;stroke-width:1.0;"/><text fill="#000000" font-family="sans-serif" font-size="14" lengthAdjust="spacing" textLength="50" x="991.5" y="326.7764">Graphs</text><line style="stroke:#181818;stroke-width:0.5;" x1="972.5" x2="1263.5" y1="334.0781" y2="334.0781"/></g><!--MD5=[d4dd7553ee4fc946ab868ca435bd290b]
class math--><g id="elem_math"><rect codeLine="18" fill="#F1F1F1" height="145.7813" id="math" rx="2.5" ry="2.5" style="stroke:#181818;stroke-width:0.5;" width="466" x="305" y="188"/><ellipse cx="489.75" cy="204" fill="#ADD1B2" rx="11" ry="11" style="stroke:#181818;stroke-width:1.0;"/><path d="M492.7188,209.6406 Q492.1406,209.9375 491.5,210.0781 Q490.8594,210.2344 490.1563,210.2344 Q487.6563,210.2344 486.3281,208.5938 Q485.0156,206.9375 485.0156,203.8125 Q485.0156,200.6875 486.3281,199.0313 Q487.6563,197.375 490.1563,197.375 Q490.8594,197.375 491.5,197.5313 Q492.1563,197.6875 492.7188,197.9844 L492.7188,200.7031 Q492.0938,200.125 491.5,199.8594 Q490.9063,199.5781 490.2813,199.5781 Q488.9375,199.5781 488.25,200.6563 Q487.5625,201.7188 487.5625,203.8125 Q487.5625,205.9063 488.25,206.9844 Q488.9375,208.0469 490.2813,208.0469 Q490.9063,208.0469 491.5,207.7813 Q492.0938,207.5 492.7188,206.9219 L492.7188,209.6406 Z " fill="#000000"/><text fill="#000000" font-family="sans-serif" font-size="14" lengthAdjust="spacing" textLength="88" x="510.25" y="208.8467">Mathematics</text><line style="stroke:#181818;stroke-width:0.5;" x1="306" x2="770" y1="220" y2="220"/><ellipse cx="316" cy="241.7969" fill="none" rx="3" ry="3" style="stroke:#038048;stroke-width:1.0;"/><text fill="#000000" font-family="sans-serif" font-size="14" lengthAdjust="spacing" textLength="436" x="325" y="236.9951">Linear Algebra: Factoring, Quadratic formula, Binomial Theorem,</text><text fill="#000000" font-family="sans-serif" font-size="14" lengthAdjust="spacing" textLength="4" x="325" y="253.292"> </text><text fill="#000000" font-family="sans-serif" font-size="14" lengthAdjust="spacing" textLength="82" x="325" y="269.5889">Inequalities.</text><ellipse cx="316" cy="282.5391" fill="none" rx="3" ry="3" style="stroke:#038048;stroke-width:1.0;"/><text fill="#000000" font-family="sans-serif" font-size="14" lengthAdjust="spacing" textLength="96" x="325" y="285.8857">Trigonometry.</text><ellipse cx="316" cy="298.8359" fill="none" rx="3" ry="3" style="stroke:#038048;stroke-width:1.0;"/><text fill="#000000" font-family="sans-serif" font-size="14" lengthAdjust="spacing" textLength="289" x="325" y="302.1826">Geometry: Distance formula, circles, lines,</text><ellipse cx="316" cy="315.1328" fill="none" rx="3" ry="3" style="stroke:#038048;stroke-width:1.0;"/><text fill="#000000" font-family="sans-serif" font-size="14" lengthAdjust="spacing" textLength="322" x="325" y="318.4795">Calculus: limits, functions, derivatives, integrals</text><line style="stroke:#181818;stroke-width:0.5;" x1="306" x2="770" y1="325.7813" y2="325.7813"/></g><!--MD5=[5662f07f23b655411764d98b0b3552de]
class digital_sys--><g id="elem_digital_sys"><rect codeLine="27" fill="#F1F1F1" height="145.7813" id="digital_sys" rx="2.5" ry="2.5" style="stroke:#181818;stroke-width:0.5;" width="500" x="1300" y="188"/><ellipse cx="1493.25" cy="204" fill="#ADD1B2" rx="11" ry="11" style="stroke:#181818;stroke-width:1.0;"/><path d="M1496.2188,209.6406 Q1495.6406,209.9375 1495,210.0781 Q1494.3594,210.2344 1493.6563,210.2344 Q1491.1563,210.2344 1489.8281,208.5938 Q1488.5156,206.9375 1488.5156,203.8125 Q1488.5156,200.6875 1489.8281,199.0313 Q1491.1563,197.375 1493.6563,197.375 Q1494.3594,197.375 1495,197.5313 Q1495.6563,197.6875 1496.2188,197.9844 L1496.2188,200.7031 Q1495.5938,200.125 1495,199.8594 Q1494.4063,199.5781 1493.7813,199.5781 Q1492.4375,199.5781 1491.75,200.6563 Q1491.0625,201.7188 1491.0625,203.8125 Q1491.0625,205.9063 1491.75,206.9844 Q1492.4375,208.0469 1493.7813,208.0469 Q1494.4063,208.0469 1495,207.7813 Q1495.5938,207.5 1496.2188,206.9219 L1496.2188,209.6406 Z " fill="#000000"/><text fill="#000000" font-family="sans-serif" font-size="14" lengthAdjust="spacing" textLength="105" x="1513.75" y="208.8467">Digital Systems</text><line style="stroke:#181818;stroke-width:0.5;" x1="1301" x2="1799" y1="220" y2="220"/><ellipse cx="1311" cy="241.7969" fill="none" rx="3" ry="3" style="stroke:#038048;stroke-width:1.0;"/><text fill="#000000" font-family="sans-serif" font-size="14" lengthAdjust="spacing" textLength="447" x="1320" y="236.9951">Continuous vs discrete systems: Analog vs digital, binary system,</text><text fill="#000000" font-family="sans-serif" font-size="14" lengthAdjust="spacing" textLength="4" x="1320" y="253.292"> </text><text fill="#000000" font-family="sans-serif" font-size="14" lengthAdjust="spacing" textLength="432" x="1320" y="269.5889">logic functions, boolean algebra digital waveform, data transfer,</text><text fill="#000000" font-family="sans-serif" font-size="14" lengthAdjust="spacing" textLength="4" x="1320" y="285.8857"> </text><text fill="#000000" font-family="sans-serif" font-size="14" lengthAdjust="spacing" textLength="474" x="1320" y="302.1826">combinational and sequential logic, memories, Finite state machines.</text><ellipse cx="1311" cy="315.1328" fill="none" rx="3" ry="3" style="stroke:#038048;stroke-width:1.0;"/><text fill="#000000" font-family="sans-serif" font-size="14" lengthAdjust="spacing" textLength="322" x="1320" y="318.4795">Build an 8bit computer on FPGA : memory, ALU</text><line style="stroke:#181818;stroke-width:0.5;" x1="1301" x2="1799" y1="325.7813" y2="325.7813"/></g><!--MD5=[4e64d489fe40c3619fae3517a4f095f7]
class control_eng--><g id="elem_control_eng"><rect codeLine="35" fill="#F1F1F1" height="64.2969" id="control_eng" rx="2.5" ry="2.5" style="stroke:#181818;stroke-width:0.5;" width="169" x="101.5" y="229"/><ellipse cx="116.5" cy="245" fill="#ADD1B2" rx="11" ry="11" style="stroke:#181818;stroke-width:1.0;"/><path d="M119.4688,250.6406 Q118.8906,250.9375 118.25,251.0781 Q117.6094,251.2344 116.9063,251.2344 Q114.4063,251.2344 113.0781,249.5938 Q111.7656,247.9375 111.7656,244.8125 Q111.7656,241.6875 113.0781,240.0313 Q114.4063,238.375 116.9063,238.375 Q117.6094,238.375 118.25,238.5313 Q118.9063,238.6875 119.4688,238.9844 L119.4688,241.7031 Q118.8438,241.125 118.25,240.8594 Q117.6563,240.5781 117.0313,240.5781 Q115.6875,240.5781 115,241.6563 Q114.3125,242.7188 114.3125,244.8125 Q114.3125,246.9063 115,247.9844 Q115.6875,249.0469 117.0313,249.0469 Q117.6563,249.0469 118.25,248.7813 Q118.8438,248.5 119.4688,247.9219 L119.4688,250.6406 Z " fill="#000000"/><text fill="#000000" font-family="sans-serif" font-size="14" lengthAdjust="spacing" textLength="137" x="130.5" y="249.8467">Control Engineering</text><line style="stroke:#181818;stroke-width:0.5;" x1="102.5" x2="269.5" y1="261" y2="261"/><ellipse cx="112.5" cy="274.6484" fill="none" rx="3" ry="3" style="stroke:#038048;stroke-width:1.0;"/><text fill="#000000" font-family="sans-serif" font-size="14" lengthAdjust="spacing" textLength="98" x="121.5" y="277.9951">Fundamentals</text><line style="stroke:#181818;stroke-width:0.5;" x1="102.5" x2="269.5" y1="285.2969" y2="285.2969"/></g><!--MD5=[841da8a3cf140ff232746b4ae7422aea]
class comp_arch--><g id="elem_comp_arch"><rect codeLine="41" fill="#F1F1F1" height="80.5938" id="comp_arch" rx="2.5" ry="2.5" style="stroke:#181818;stroke-width:0.5;" width="189" x="1455.5" y="402"/><ellipse cx="1470.5" cy="418" fill="#ADD1B2" rx="11" ry="11" style="stroke:#181818;stroke-width:1.0;"/><path d="M1473.4688,423.6406 Q1472.8906,423.9375 1472.25,424.0781 Q1471.6094,424.2344 1470.9063,424.2344 Q1468.4063,424.2344 1467.0781,422.5938 Q1465.7656,420.9375 1465.7656,417.8125 Q1465.7656,414.6875 1467.0781,413.0313 Q1468.4063,411.375 1470.9063,411.375 Q1471.6094,411.375 1472.25,411.5313 Q1472.9063,411.6875 1473.4688,411.9844 L1473.4688,414.7031 Q1472.8438,414.125 1472.25,413.8594 Q1471.6563,413.5781 1471.0313,413.5781 Q1469.6875,413.5781 1469,414.6563 Q1468.3125,415.7188 1468.3125,417.8125 Q1468.3125,419.9063 1469,420.9844 Q1469.6875,422.0469 1471.0313,422.0469 Q1471.6563,422.0469 1472.25,421.7813 Q1472.8438,421.5 1473.4688,420.9219 L1473.4688,423.6406 Z " fill="#000000"/><text fill="#000000" font-family="sans-serif" font-size="14" lengthAdjust="spacing" textLength="157" x="1484.5" y="422.8467">Computer Architecture</text><line style="stroke:#181818;stroke-width:0.5;" x1="1456.5" x2="1643.5" y1="434" y2="434"/><line style="stroke:#181818;stroke-width:0.5;" x1="1456.5" x2="1643.5" y1="442" y2="442"/><ellipse cx="1466.5" cy="455.6484" fill="#84BE84" rx="3" ry="3" style="stroke:#038048;stroke-width:1.0;"/><text fill="#000000" font-family="sans-serif" font-size="14" lengthAdjust="spacing" textLength="114" x="1475.5" y="458.9951">Memory Layout()</text><ellipse cx="1466.5" cy="471.9453" fill="#84BE84" rx="3" ry="3" style="stroke:#038048;stroke-width:1.0;"/><text fill="#000000" font-family="sans-serif" font-size="14" lengthAdjust="spacing" textLength="31" x="1475.5" y="475.292">ISA()</text></g><!--MD5=[9938913ac0b9723d577c1bb4b693d11a]
class os--><g id="elem_os"><rect codeLine="46" fill="#F1F1F1" height="113.1875" id="os" rx="2.5" ry="2.5" style="stroke:#181818;stroke-width:0.5;" width="186" x="1835" y="204.5"/><ellipse cx="1860.35" cy="220.5" fill="#ADD1B2" rx="11" ry="11" style="stroke:#181818;stroke-width:1.0;"/><path d="M1863.3188,226.1406 Q1862.7406,226.4375 1862.1,226.5781 Q1861.4594,226.7344 1860.7563,226.7344 Q1858.2563,226.7344 1856.9281,225.0938 Q1855.6156,223.4375 1855.6156,220.3125 Q1855.6156,217.1875 1856.9281,215.5313 Q1858.2563,213.875 1860.7563,213.875 Q1861.4594,213.875 1862.1,214.0313 Q1862.7563,214.1875 1863.3188,214.4844 L1863.3188,217.2031 Q1862.6938,216.625 1862.1,216.3594 Q1861.5063,216.0781 1860.8813,216.0781 Q1859.5375,216.0781 1858.85,217.1563 Q1858.1625,218.2188 1858.1625,220.3125 Q1858.1625,222.4063 1858.85,223.4844 Q1859.5375,224.5469 1860.8813,224.5469 Q1861.5063,224.5469 1862.1,224.2813 Q1862.6938,224 1863.3188,223.4219 L1863.3188,226.1406 Z " fill="#000000"/><text fill="#000000" font-family="sans-serif" font-size="14" lengthAdjust="spacing" textLength="131" x="1876.65" y="225.3467">Operating Systems</text><line style="stroke:#181818;stroke-width:0.5;" x1="1836" x2="2020" y1="236.5" y2="236.5"/><ellipse cx="1846" cy="250.1484" fill="none" rx="3" ry="3" style="stroke:#038048;stroke-width:1.0;"/><text fill="#000000" font-family="sans-serif" font-size="14" lengthAdjust="spacing" textLength="160" x="1855" y="253.4951">Programming language</text><ellipse cx="1846" cy="266.4453" fill="none" rx="3" ry="3" style="stroke:#038048;stroke-width:1.0;"/><text fill="#000000" font-family="sans-serif" font-size="14" lengthAdjust="spacing" textLength="86" x="1855" y="269.792">concurrency</text><line style="stroke:#181818;stroke-width:0.5;" x1="1836" x2="2020" y1="277.0938" y2="277.0938"/><ellipse cx="1846" cy="290.7422" fill="#84BE84" rx="3" ry="3" style="stroke:#038048;stroke-width:1.0;"/><text fill="#000000" font-family="sans-serif" font-size="14" lengthAdjust="spacing" textLength="48" x="1855" y="294.0889">pipes()</text><ellipse cx="1846" cy="307.0391" fill="#84BE84" rx="3" ry="3" style="stroke:#038048;stroke-width:1.0;"/><text fill="#000000" font-family="sans-serif" font-size="14" lengthAdjust="spacing" textLength="153" x="1855" y="310.3857">process and threads()</text></g><!--MD5=[9b92be28fcc82b4724bebf169d1b270c]
class sys_int--><g id="elem_sys_int"><rect codeLine="54" fill="#F1F1F1" height="80.5938" id="sys_int" rx="2.5" ry="2.5" style="stroke:#181818;stroke-width:0.5;" width="155" x="2093.5" y="23"/><ellipse cx="2108.5" cy="39" fill="#ADD1B2" rx="11" ry="11" style="stroke:#181818;stroke-width:1.0;"/><path d="M2111.4688,44.6406 Q2110.8906,44.9375 2110.25,45.0781 Q2109.6094,45.2344 2108.9063,45.2344 Q2106.4063,45.2344 2105.0781,43.5938 Q2103.7656,41.9375 2103.7656,38.8125 Q2103.7656,35.6875 2105.0781,34.0313 Q2106.4063,32.375 2108.9063,32.375 Q2109.6094,32.375 2110.25,32.5313 Q2110.9063,32.6875 2111.4688,32.9844 L2111.4688,35.7031 Q2110.8438,35.125 2110.25,34.8594 Q2109.6563,34.5781 2109.0313,34.5781 Q2107.6875,34.5781 2107,35.6563 Q2106.3125,36.7188 2106.3125,38.8125 Q2106.3125,40.9063 2107,41.9844 Q2107.6875,43.0469 2109.0313,43.0469 Q2109.6563,43.0469 2110.25,42.7813 Q2110.8438,42.5 2111.4688,41.9219 L2111.4688,44.6406 Z " fill="#000000"/><text fill="#000000" font-family="sans-serif" font-size="14" lengthAdjust="spacing" textLength="123" x="2122.5" y="43.8467">System Interfaces</text><line style="stroke:#181818;stroke-width:0.5;" x1="2094.5" x2="2247.5" y1="55" y2="55"/><line style="stroke:#181818;stroke-width:0.5;" x1="2094.5" x2="2247.5" y1="63" y2="63"/><ellipse cx="2104.5" cy="76.6484" fill="#84BE84" rx="3" ry="3" style="stroke:#038048;stroke-width:1.0;"/><text fill="#000000" font-family="sans-serif" font-size="14" lengthAdjust="spacing" textLength="68" x="2113.5" y="79.9951">Register()</text><ellipse cx="2104.5" cy="92.9453" fill="#84BE84" rx="3" ry="3" style="stroke:#038048;stroke-width:1.0;"/><text fill="#000000" font-family="sans-serif" font-size="14" lengthAdjust="spacing" textLength="107" x="2113.5" y="96.292">Memory maps()</text></g><!--MD5=[19e7a66b79e3029c437977be7cd7140c]
class circuits--><g id="elem_circuits"><rect codeLine="59" fill="#F1F1F1" height="113.1875" id="circuits" rx="2.5" ry="2.5" style="stroke:#181818;stroke-width:0.5;" width="398" x="672" y="7"/><ellipse cx="841.25" cy="23" fill="#ADD1B2" rx="11" ry="11" style="stroke:#181818;stroke-width:1.0;"/><path d="M844.2188,28.6406 Q843.6406,28.9375 843,29.0781 Q842.3594,29.2344 841.6563,29.2344 Q839.1563,29.2344 837.8281,27.5938 Q836.5156,25.9375 836.5156,22.8125 Q836.5156,19.6875 837.8281,18.0313 Q839.1563,16.375 841.6563,16.375 Q842.3594,16.375 843,16.5313 Q843.6563,16.6875 844.2188,16.9844 L844.2188,19.7031 Q843.5938,19.125 843,18.8594 Q842.4063,18.5781 841.7813,18.5781 Q840.4375,18.5781 839.75,19.6563 Q839.0625,20.7188 839.0625,22.8125 Q839.0625,24.9063 839.75,25.9844 Q840.4375,27.0469 841.7813,27.0469 Q842.4063,27.0469 843,26.7813 Q843.5938,26.5 844.2188,25.9219 L844.2188,28.6406 Z " fill="#000000"/><text fill="#000000" font-family="sans-serif" font-size="14" lengthAdjust="spacing" textLength="51" x="861.75" y="27.8467">Circuits</text><line style="stroke:#181818;stroke-width:0.5;" x1="673" x2="1069" y1="39" y2="39"/><ellipse cx="683" cy="60.7969" fill="none" rx="3" ry="3" style="stroke:#038048;stroke-width:1.0;"/><text fill="#000000" font-family="sans-serif" font-size="14" lengthAdjust="spacing" textLength="372" x="692" y="55.9951">Circuit analysis : current flow, voltage drop, capacitors,</text><text fill="#000000" font-family="sans-serif" font-size="14" lengthAdjust="spacing" textLength="4" x="692" y="72.292"> </text><text fill="#000000" font-family="sans-serif" font-size="14" lengthAdjust="spacing" textLength="201" x="692" y="88.5889">op-amps, diodes, transistors.</text><line style="stroke:#181818;stroke-width:0.5;" x1="673" x2="1069" y1="95.8906" y2="95.8906"/><ellipse cx="683" cy="109.5391" fill="#84BE84" rx="3" ry="3" style="stroke:#038048;stroke-width:1.0;"/><text fill="#000000" font-family="sans-serif" font-size="14" lengthAdjust="spacing" textLength="360" x="692" y="112.8857">Sound system() : filters and amplifiers, power sypply.</text></g><!--MD5=[58a5b792d0a165e9e333eabc38b4cd9a]
class Tracks--><g id="elem_Tracks"><rect codeLine="72" fill="#F1F1F1" height="48" id="Tracks" rx="2.5" ry="2.5" style="stroke:#181818;stroke-width:0.5;" width="78" x="832" y="551"/><ellipse cx="847" cy="567" fill="#F1F1F1" rx="11" ry="11" style="stroke:#181818;stroke-width:1.0;"/><path d="M846.4844,567.5625 Q844.625,566.8594 843.9688,566.0938 Q843.3281,565.3125 843.3281,564 Q843.3281,562.3125 844.4063,561.3438 Q845.4844,560.375 847.3594,560.375 Q848.2188,560.375 849.0625,560.5781 Q849.9219,560.7656 850.7656,561.1563 L850.7656,563.5469 Q849.9844,562.9844 849.1563,562.7031 Q848.3438,562.4063 847.5469,562.4063 Q846.6719,562.4063 846.1875,562.7656 Q845.7188,563.125 845.7188,563.7813 Q845.7188,564.2969 846.0625,564.6406 Q846.4063,564.9688 847.5,565.375 L848.5625,565.7813 Q850.0469,566.3281 850.75,567.2344 Q851.4688,568.1406 851.4688,569.5156 Q851.4688,571.3906 850.3594,572.3125 Q849.25,573.2344 847,573.2344 Q846.0781,573.2344 845.1563,573.0156 Q844.2344,572.7969 843.375,572.375 L843.375,569.8438 Q844.3438,570.5313 845.2656,570.875 Q846.1875,571.2188 847.0781,571.2188 Q847.9844,571.2188 848.4844,570.8125 Q848.9844,570.3906 848.9844,569.6563 Q848.9844,569.0938 848.6406,568.6875 Q848.3125,568.2656 847.6875,568.0156 L846.4844,567.5625 Z " fill="#000000"/><text fill="#000000" font-family="sans-serif" font-size="14" lengthAdjust="spacing" textLength="46" x="861" y="571.8467">Tracks</text><line style="stroke:#181818;stroke-width:0.5;" x1="833" x2="909" y1="583" y2="583"/><line style="stroke:#181818;stroke-width:0.5;" x1="833" x2="909" y1="591" y2="591"/></g><!--MD5=[cc87baed032be68acb8ffcaec3df4de7]
class compiler--><g id="elem_compiler"><rect codeLine="77" fill="#F1F1F1" height="64.2969" id="compiler" rx="2.5" ry="2.5" style="stroke:#181818;stroke-width:0.5;" width="112" x="2284" y="31.5"/><ellipse cx="2307.55" cy="47.5" fill="#ADD1B2" rx="11" ry="11" style="stroke:#181818;stroke-width:1.0;"/><path d="M2310.5188,53.1406 Q2309.9406,53.4375 2309.3,53.5781 Q2308.6594,53.7344 2307.9563,53.7344 Q2305.4563,53.7344 2304.1281,52.0938 Q2302.8156,50.4375 2302.8156,47.3125 Q2302.8156,44.1875 2304.1281,42.5313 Q2305.4563,40.875 2307.9563,40.875 Q2308.6594,40.875 2309.3,41.0313 Q2309.9563,41.1875 2310.5188,41.4844 L2310.5188,44.2031 Q2309.8938,43.625 2309.3,43.3594 Q2308.7063,43.0781 2308.0813,43.0781 Q2306.7375,43.0781 2306.05,44.1563 Q2305.3625,45.2188 2305.3625,47.3125 Q2305.3625,49.4063 2306.05,50.4844 Q2306.7375,51.5469 2308.0813,51.5469 Q2308.7063,51.5469 2309.3,51.2813 Q2309.8938,51 2310.5188,50.4219 L2310.5188,53.1406 Z " fill="#000000"/><text fill="#000000" font-family="sans-serif" font-size="14" lengthAdjust="spacing" textLength="61" x="2323.45" y="52.3467">Compiler</text><line style="stroke:#181818;stroke-width:0.5;" x1="2285" x2="2395" y1="63.5" y2="63.5"/><line style="stroke:#181818;stroke-width:0.5;" x1="2285" x2="2395" y1="71.5" y2="71.5"/><ellipse cx="2295" cy="85.1484" fill="#84BE84" rx="3" ry="3" style="stroke:#038048;stroke-width:1.0;"/><text fill="#000000" font-family="sans-serif" font-size="14" lengthAdjust="spacing" textLength="86" x="2304" y="88.4951">Bootloader()</text></g><!--MD5=[f33d155e3c60ec1f824818ad01704336]
class hw_emulator--><g id="elem_hw_emulator"><rect codeLine="82" fill="#F1F1F1" height="64.2969" id="hw_emulator" rx="2.5" ry="2.5" style="stroke:#181818;stroke-width:0.5;" width="230" x="2056" y="229"/><ellipse cx="2098" cy="245" fill="#ADD1B2" rx="11" ry="11" style="stroke:#181818;stroke-width:1.0;"/><path d="M2100.9688,250.6406 Q2100.3906,250.9375 2099.75,251.0781 Q2099.1094,251.2344 2098.4063,251.2344 Q2095.9063,251.2344 2094.5781,249.5938 Q2093.2656,247.9375 2093.2656,244.8125 Q2093.2656,241.6875 2094.5781,240.0313 Q2095.9063,238.375 2098.4063,238.375 Q2099.1094,238.375 2099.75,238.5313 Q2100.4063,238.6875 2100.9688,238.9844 L2100.9688,241.7031 Q2100.3438,241.125 2099.75,240.8594 Q2099.1563,240.5781 2098.5313,240.5781 Q2097.1875,240.5781 2096.5,241.6563 Q2095.8125,242.7188 2095.8125,244.8125 Q2095.8125,246.9063 2096.5,247.9844 Q2097.1875,249.0469 2098.5313,249.0469 Q2099.1563,249.0469 2099.75,248.7813 Q2100.3438,248.5 2100.9688,247.9219 L2100.9688,250.6406 Z " fill="#000000"/><text fill="#000000" font-family="sans-serif" font-size="14" lengthAdjust="spacing" textLength="138" x="2118" y="249.8467">Hardware emulators</text><line style="stroke:#181818;stroke-width:0.5;" x1="2057" x2="2285" y1="261" y2="261"/><ellipse cx="2067" cy="274.6484" fill="none" rx="3" ry="3" style="stroke:#038048;stroke-width:1.0;"/><text fill="#000000" font-family="sans-serif" font-size="14" lengthAdjust="spacing" textLength="204" x="2076" y="277.9951">Fundamentals : NES emulator</text><line style="stroke:#181818;stroke-width:0.5;" x1="2057" x2="2285" y1="285.2969" y2="285.2969"/></g><!--MD5=[634ae3a3a2992b90378b51755d1d1aac]
class machine_learning--><g id="elem_machine_learning"><rect codeLine="88" fill="#F1F1F1" height="64.2969" id="machine_learning" rx="2.5" ry="2.5" style="stroke:#181818;stroke-width:0.5;" width="157" x="1627.5" y="543"/><ellipse cx="1642.5" cy="559" fill="#ADD1B2" rx="11" ry="11" style="stroke:#181818;stroke-width:1.0;"/><path d="M1645.4688,564.6406 Q1644.8906,564.9375 1644.25,565.0781 Q1643.6094,565.2344 1642.9063,565.2344 Q1640.4063,565.2344 1639.0781,563.5938 Q1637.7656,561.9375 1637.7656,558.8125 Q1637.7656,555.6875 1639.0781,554.0313 Q1640.4063,552.375 1642.9063,552.375 Q1643.6094,552.375 1644.25,552.5313 Q1644.9063,552.6875 1645.4688,552.9844 L1645.4688,555.7031 Q1644.8438,555.125 1644.25,554.8594 Q1643.6563,554.5781 1643.0313,554.5781 Q1641.6875,554.5781 1641,555.6563 Q1640.3125,556.7188 1640.3125,558.8125 Q1640.3125,560.9063 1641,561.9844 Q1641.6875,563.0469 1643.0313,563.0469 Q1643.6563,563.0469 1644.25,562.7813 Q1644.8438,562.5 1645.4688,561.9219 L1645.4688,564.6406 Z " fill="#000000"/><text fill="#000000" font-family="sans-serif" font-size="14" lengthAdjust="spacing" textLength="121" x="1656.5" y="563.8467">Machine Learning</text><line style="stroke:#181818;stroke-width:0.5;" x1="1628.5" x2="1783.5" y1="575" y2="575"/><ellipse cx="1638.5" cy="588.6484" fill="none" rx="3" ry="3" style="stroke:#038048;stroke-width:1.0;"/><text fill="#000000" font-family="sans-serif" font-size="14" lengthAdjust="spacing" textLength="98" x="1647.5" y="591.9951">Fundamentals</text><line style="stroke:#181818;stroke-width:0.5;" x1="1628.5" x2="1783.5" y1="599.2969" y2="599.2969"/></g><!--MD5=[4c33a3c84ae9095521d8aa1a98e8f116]
class cybersecurity--><g id="elem_cybersecurity"><rect codeLine="94" fill="#F1F1F1" height="64.2969" id="cybersecurity" rx="2.5" ry="2.5" style="stroke:#181818;stroke-width:0.5;" width="130" x="508" y="543"/><ellipse cx="523" cy="559" fill="#ADD1B2" rx="11" ry="11" style="stroke:#181818;stroke-width:1.0;"/><path d="M525.9688,564.6406 Q525.3906,564.9375 524.75,565.0781 Q524.1094,565.2344 523.4063,565.2344 Q520.9063,565.2344 519.5781,563.5938 Q518.2656,561.9375 518.2656,558.8125 Q518.2656,555.6875 519.5781,554.0313 Q520.9063,552.375 523.4063,552.375 Q524.1094,552.375 524.75,552.5313 Q525.4063,552.6875 525.9688,552.9844 L525.9688,555.7031 Q525.3438,555.125 524.75,554.8594 Q524.1563,554.5781 523.5313,554.5781 Q522.1875,554.5781 521.5,555.6563 Q520.8125,556.7188 520.8125,558.8125 Q520.8125,560.9063 521.5,561.9844 Q522.1875,563.0469 523.5313,563.0469 Q524.1563,563.0469 524.75,562.7813 Q525.3438,562.5 525.9688,561.9219 L525.9688,564.6406 Z " fill="#000000"/><text fill="#000000" font-family="sans-serif" font-size="14" lengthAdjust="spacing" textLength="94" x="537" y="563.8467">Cybersecurity</text><line style="stroke:#181818;stroke-width:0.5;" x1="509" x2="637" y1="575" y2="575"/><ellipse cx="519" cy="588.6484" fill="none" rx="3" ry="3" style="stroke:#038048;stroke-width:1.0;"/><text fill="#000000" font-family="sans-serif" font-size="14" lengthAdjust="spacing" textLength="98" x="528" y="591.9951">Fundamentals</text><line style="stroke:#181818;stroke-width:0.5;" x1="509" x2="637" y1="599.2969" y2="599.2969"/></g><!--MD5=[2e80c468e8c902c8e00fdf90d39643e8]
class firmware--><g id="elem_firmware"><rect codeLine="99" fill="#F1F1F1" height="64.2969" id="firmware" rx="2.5" ry="2.5" style="stroke:#181818;stroke-width:0.5;" width="124" x="7" y="543"/><ellipse cx="33.7" cy="559" fill="#ADD1B2" rx="11" ry="11" style="stroke:#181818;stroke-width:1.0;"/><path d="M36.6688,564.6406 Q36.0906,564.9375 35.45,565.0781 Q34.8094,565.2344 34.1063,565.2344 Q31.6063,565.2344 30.2781,563.5938 Q28.9656,561.9375 28.9656,558.8125 Q28.9656,555.6875 30.2781,554.0313 Q31.6063,552.375 34.1063,552.375 Q34.8094,552.375 35.45,552.5313 Q36.1063,552.6875 36.6688,552.9844 L36.6688,555.7031 Q36.0438,555.125 35.45,554.8594 Q34.8563,554.5781 34.2313,554.5781 Q32.8875,554.5781 32.2,555.6563 Q31.5125,556.7188 31.5125,558.8125 Q31.5125,560.9063 32.2,561.9844 Q32.8875,563.0469 34.2313,563.0469 Q34.8563,563.0469 35.45,562.7813 Q36.0438,562.5 36.6688,561.9219 L36.6688,564.6406 Z " fill="#000000"/><text fill="#000000" font-family="sans-serif" font-size="14" lengthAdjust="spacing" textLength="62" x="50.3" y="563.8467">Firmware</text><line style="stroke:#181818;stroke-width:0.5;" x1="8" x2="130" y1="575" y2="575"/><ellipse cx="18" cy="588.6484" fill="none" rx="3" ry="3" style="stroke:#038048;stroke-width:1.0;"/><text fill="#000000" font-family="sans-serif" font-size="14" lengthAdjust="spacing" textLength="98" x="27" y="591.9951">Fundamentals</text><line style="stroke:#181818;stroke-width:0.5;" x1="8" x2="130" y1="599.2969" y2="599.2969"/></g><!--MD5=[6d4a9c7bb4a172a1034497390f076078]
class iot--><g id="elem_iot"><rect codeLine="105" fill="#F1F1F1" height="64.2969" id="iot" rx="2.5" ry="2.5" style="stroke:#181818;stroke-width:0.5;" width="160" x="1820" y="543"/><ellipse cx="1835" cy="559" fill="#ADD1B2" rx="11" ry="11" style="stroke:#181818;stroke-width:1.0;"/><path d="M1837.9688,564.6406 Q1837.3906,564.9375 1836.75,565.0781 Q1836.1094,565.2344 1835.4063,565.2344 Q1832.9063,565.2344 1831.5781,563.5938 Q1830.2656,561.9375 1830.2656,558.8125 Q1830.2656,555.6875 1831.5781,554.0313 Q1832.9063,552.375 1835.4063,552.375 Q1836.1094,552.375 1836.75,552.5313 Q1837.4063,552.6875 1837.9688,552.9844 L1837.9688,555.7031 Q1837.3438,555.125 1836.75,554.8594 Q1836.1563,554.5781 1835.5313,554.5781 Q1834.1875,554.5781 1833.5,555.6563 Q1832.8125,556.7188 1832.8125,558.8125 Q1832.8125,560.9063 1833.5,561.9844 Q1834.1875,563.0469 1835.5313,563.0469 Q1836.1563,563.0469 1836.75,562.7813 Q1837.3438,562.5 1837.9688,561.9219 L1837.9688,564.6406 Z " fill="#000000"/><text fill="#000000" font-family="sans-serif" font-size="14" lengthAdjust="spacing" textLength="124" x="1849" y="563.8467">Internet Of Things</text><line style="stroke:#181818;stroke-width:0.5;" x1="1821" x2="1979" y1="575" y2="575"/><ellipse cx="1831" cy="588.6484" fill="none" rx="3" ry="3" style="stroke:#038048;stroke-width:1.0;"/><text fill="#000000" font-family="sans-serif" font-size="14" lengthAdjust="spacing" textLength="98" x="1840" y="591.9951">Fundamentals</text><line style="stroke:#181818;stroke-width:0.5;" x1="1821" x2="1979" y1="599.2969" y2="599.2969"/></g><!--MD5=[9f7b80dbbeb7f074a486108e388969be]
class sys_control--><g id="elem_sys_control"><rect codeLine="111" fill="#F1F1F1" height="64.2969" id="sys_control" rx="2.5" ry="2.5" style="stroke:#181818;stroke-width:0.5;" width="145" x="1263.5" y="543"/><ellipse cx="1278.5" cy="559" fill="#ADD1B2" rx="11" ry="11" style="stroke:#181818;stroke-width:1.0;"/><path d="M1281.4688,564.6406 Q1280.8906,564.9375 1280.25,565.0781 Q1279.6094,565.2344 1278.9063,565.2344 Q1276.4063,565.2344 1275.0781,563.5938 Q1273.7656,561.9375 1273.7656,558.8125 Q1273.7656,555.6875 1275.0781,554.0313 Q1276.4063,552.375 1278.9063,552.375 Q1279.6094,552.375 1280.25,552.5313 Q1280.9063,552.6875 1281.4688,552.9844 L1281.4688,555.7031 Q1280.8438,555.125 1280.25,554.8594 Q1279.6563,554.5781 1279.0313,554.5781 Q1277.6875,554.5781 1277,555.6563 Q1276.3125,556.7188 1276.3125,558.8125 Q1276.3125,560.9063 1277,561.9844 Q1277.6875,563.0469 1279.0313,563.0469 Q1279.6563,563.0469 1280.25,562.7813 Q1280.8438,562.5 1281.4688,561.9219 L1281.4688,564.6406 Z " fill="#000000"/><text fill="#000000" font-family="sans-serif" font-size="14" lengthAdjust="spacing" textLength="113" x="1292.5" y="563.8467">Systems Control</text><line style="stroke:#181818;stroke-width:0.5;" x1="1264.5" x2="1407.5" y1="575" y2="575"/><ellipse cx="1274.5" cy="588.6484" fill="none" rx="3" ry="3" style="stroke:#038048;stroke-width:1.0;"/><text fill="#000000" font-family="sans-serif" font-size="14" lengthAdjust="spacing" textLength="98" x="1283.5" y="591.9951">Fundamentals</text><line style="stroke:#181818;stroke-width:0.5;" x1="1264.5" x2="1407.5" y1="599.2969" y2="599.2969"/></g><!--MD5=[c80cc275215ba0955fdd4542fd48feb0]
class embedded_linux--><g id="elem_embedded_linux"><rect codeLine="116" fill="#F1F1F1" height="64.2969" id="embedded_linux" rx="2.5" ry="2.5" style="stroke:#181818;stroke-width:0.5;" width="147" x="325.5" y="543"/><ellipse cx="340.5" cy="559" fill="#ADD1B2" rx="11" ry="11" style="stroke:#181818;stroke-width:1.0;"/><path d="M343.4688,564.6406 Q342.8906,564.9375 342.25,565.0781 Q341.6094,565.2344 340.9063,565.2344 Q338.4063,565.2344 337.0781,563.5938 Q335.7656,561.9375 335.7656,558.8125 Q335.7656,555.6875 337.0781,554.0313 Q338.4063,552.375 340.9063,552.375 Q341.6094,552.375 342.25,552.5313 Q342.9063,552.6875 343.4688,552.9844 L343.4688,555.7031 Q342.8438,555.125 342.25,554.8594 Q341.6563,554.5781 341.0313,554.5781 Q339.6875,554.5781 339,555.6563 Q338.3125,556.7188 338.3125,558.8125 Q338.3125,560.9063 339,561.9844 Q339.6875,563.0469 341.0313,563.0469 Q341.6563,563.0469 342.25,562.7813 Q342.8438,562.5 343.4688,561.9219 L343.4688,564.6406 Z " fill="#000000"/><text fill="#000000" font-family="sans-serif" font-size="14" lengthAdjust="spacing" textLength="115" x="354.5" y="563.8467">Embedded Linux</text><line style="stroke:#181818;stroke-width:0.5;" x1="326.5" x2="471.5" y1="575" y2="575"/><ellipse cx="336.5" cy="588.6484" fill="none" rx="3" ry="3" style="stroke:#038048;stroke-width:1.0;"/><text fill="#000000" font-family="sans-serif" font-size="14" lengthAdjust="spacing" textLength="98" x="345.5" y="591.9951">Fundamentals</text><line style="stroke:#181818;stroke-width:0.5;" x1="326.5" x2="471.5" y1="599.2969" y2="599.2969"/></g><!--MD5=[1d8be22ded7752054a87f444fa54132d]
class audio--><g id="elem_audio"><rect codeLine="123" fill="#F1F1F1" height="64.2969" id="audio" rx="2.5" ry="2.5" style="stroke:#181818;stroke-width:0.5;" width="124" x="673" y="543"/><ellipse cx="711.85" cy="559" fill="#ADD1B2" rx="11" ry="11" style="stroke:#181818;stroke-width:1.0;"/><path d="M714.8188,564.6406 Q714.2406,564.9375 713.6,565.0781 Q712.9594,565.2344 712.2563,565.2344 Q709.7563,565.2344 708.4281,563.5938 Q707.1156,561.9375 707.1156,558.8125 Q707.1156,555.6875 708.4281,554.0313 Q709.7563,552.375 712.2563,552.375 Q712.9594,552.375 713.6,552.5313 Q714.2563,552.6875 714.8188,552.9844 L714.8188,555.7031 Q714.1938,555.125 713.6,554.8594 Q713.0063,554.5781 712.3813,554.5781 Q711.0375,554.5781 710.35,555.6563 Q709.6625,556.7188 709.6625,558.8125 Q709.6625,560.9063 710.35,561.9844 Q711.0375,563.0469 712.3813,563.0469 Q713.0063,563.0469 713.6,562.7813 Q714.1938,562.5 714.8188,561.9219 L714.8188,564.6406 Z " fill="#000000"/><text fill="#000000" font-family="sans-serif" font-size="14" lengthAdjust="spacing" textLength="39" x="731.15" y="563.8467">Audio</text><line style="stroke:#181818;stroke-width:0.5;" x1="674" x2="796" y1="575" y2="575"/><ellipse cx="684" cy="588.6484" fill="none" rx="3" ry="3" style="stroke:#038048;stroke-width:1.0;"/><text fill="#000000" font-family="sans-serif" font-size="14" lengthAdjust="spacing" textLength="98" x="693" y="591.9951">Fundamentals</text><line style="stroke:#181818;stroke-width:0.5;" x1="674" x2="796" y1="599.2969" y2="599.2969"/></g><!--MD5=[b14acb90230e224b52809523fbe9ead9]
class radio_frequency--><g id="elem_radio_frequency"><rect codeLine="129" fill="#F1F1F1" height="64.2969" id="radio_frequency" rx="2.5" ry="2.5" style="stroke:#181818;stroke-width:0.5;" width="148" x="1444" y="543"/><ellipse cx="1459" cy="559" fill="#ADD1B2" rx="11" ry="11" style="stroke:#181818;stroke-width:1.0;"/><path d="M1461.9688,564.6406 Q1461.3906,564.9375 1460.75,565.0781 Q1460.1094,565.2344 1459.4063,565.2344 Q1456.9063,565.2344 1455.5781,563.5938 Q1454.2656,561.9375 1454.2656,558.8125 Q1454.2656,555.6875 1455.5781,554.0313 Q1456.9063,552.375 1459.4063,552.375 Q1460.1094,552.375 1460.75,552.5313 Q1461.4063,552.6875 1461.9688,552.9844 L1461.9688,555.7031 Q1461.3438,555.125 1460.75,554.8594 Q1460.1563,554.5781 1459.5313,554.5781 Q1458.1875,554.5781 1457.5,555.6563 Q1456.8125,556.7188 1456.8125,558.8125 Q1456.8125,560.9063 1457.5,561.9844 Q1458.1875,563.0469 1459.5313,563.0469 Q1460.1563,563.0469 1460.75,562.7813 Q1461.3438,562.5 1461.9688,561.9219 L1461.9688,564.6406 Z " fill="#000000"/><text fill="#000000" font-family="sans-serif" font-size="14" lengthAdjust="spacing" textLength="116" x="1473" y="563.8467">Radio Frequency</text><line style="stroke:#181818;stroke-width:0.5;" x1="1445" x2="1591" y1="575" y2="575"/><ellipse cx="1455" cy="588.6484" fill="none" rx="3" ry="3" style="stroke:#038048;stroke-width:1.0;"/><text fill="#000000" font-family="sans-serif" font-size="14" lengthAdjust="spacing" textLength="98" x="1464" y="591.9951">Fundamentals</text><line style="stroke:#181818;stroke-width:0.5;" x1="1445" x2="1591" y1="599.2969" y2="599.2969"/></g><!--MD5=[8a0b9bb0c270f316377319bfc4abd4ac]
class embedded_software--><g id="elem_embedded_software"><rect codeLine="134" fill="#F1F1F1" height="64.2969" id="embedded_software" rx="2.5" ry="2.5" style="stroke:#181818;stroke-width:0.5;" width="124" x="166" y="543"/><ellipse cx="195.4" cy="559" fill="#ADD1B2" rx="11" ry="11" style="stroke:#181818;stroke-width:1.0;"/><path d="M198.3688,564.6406 Q197.7906,564.9375 197.15,565.0781 Q196.5094,565.2344 195.8063,565.2344 Q193.3063,565.2344 191.9781,563.5938 Q190.6656,561.9375 190.6656,558.8125 Q190.6656,555.6875 191.9781,554.0313 Q193.3063,552.375 195.8063,552.375 Q196.5094,552.375 197.15,552.5313 Q197.8063,552.6875 198.3688,552.9844 L198.3688,555.7031 Q197.7438,555.125 197.15,554.8594 Q196.5563,554.5781 195.9313,554.5781 Q194.5875,554.5781 193.9,555.6563 Q193.2125,556.7188 193.2125,558.8125 Q193.2125,560.9063 193.9,561.9844 Q194.5875,563.0469 195.9313,563.0469 Q196.5563,563.0469 197.15,562.7813 Q197.7438,562.5 198.3688,561.9219 L198.3688,564.6406 Z " fill="#000000"/><text fill="#000000" font-family="sans-serif" font-size="14" lengthAdjust="spacing" textLength="60" x="212.6" y="563.8467">Software</text><line style="stroke:#181818;stroke-width:0.5;" x1="167" x2="289" y1="575" y2="575"/><ellipse cx="177" cy="588.6484" fill="none" rx="3" ry="3" style="stroke:#038048;stroke-width:1.0;"/><text fill="#000000" font-family="sans-serif" font-size="14" lengthAdjust="spacing" textLength="98" x="186" y="591.9951">Fundamentals</text><line style="stroke:#181818;stroke-width:0.5;" x1="167" x2="289" y1="599.2969" y2="599.2969"/></g><!--MD5=[4f126e13281f29ac4ec68ad2ea50a0fb]
class tester--><g id="elem_tester"><rect codeLine="138" fill="#F1F1F1" height="64.2969" id="tester" rx="2.5" ry="2.5" style="stroke:#181818;stroke-width:0.5;" width="124" x="1104" y="543"/><ellipse cx="1140.15" cy="559" fill="#ADD1B2" rx="11" ry="11" style="stroke:#181818;stroke-width:1.0;"/><path d="M1143.1188,564.6406 Q1142.5406,564.9375 1141.9,565.0781 Q1141.2594,565.2344 1140.5563,565.2344 Q1138.0563,565.2344 1136.7281,563.5938 Q1135.4156,561.9375 1135.4156,558.8125 Q1135.4156,555.6875 1136.7281,554.0313 Q1138.0563,552.375 1140.5563,552.375 Q1141.2594,552.375 1141.9,552.5313 Q1142.5563,552.6875 1143.1188,552.9844 L1143.1188,555.7031 Q1142.4938,555.125 1141.9,554.8594 Q1141.3063,554.5781 1140.6813,554.5781 Q1139.3375,554.5781 1138.65,555.6563 Q1137.9625,556.7188 1137.9625,558.8125 Q1137.9625,560.9063 1138.65,561.9844 Q1139.3375,563.0469 1140.6813,563.0469 Q1141.3063,563.0469 1141.9,562.7813 Q1142.4938,562.5 1143.1188,561.9219 L1143.1188,564.6406 Z " fill="#000000"/><text fill="#000000" font-family="sans-serif" font-size="14" lengthAdjust="spacing" textLength="45" x="1158.85" y="563.8467">Tester</text><line style="stroke:#181818;stroke-width:0.5;" x1="1105" x2="1227" y1="575" y2="575"/><ellipse cx="1115" cy="588.6484" fill="none" rx="3" ry="3" style="stroke:#038048;stroke-width:1.0;"/><text fill="#000000" font-family="sans-serif" font-size="14" lengthAdjust="spacing" textLength="98" x="1124" y="591.9951">Fundamentals</text><line style="stroke:#181818;stroke-width:0.5;" x1="1105" x2="1227" y1="599.2969" y2="599.2969"/></g><!--MD5=[e6a6e2685a5380265e6d787ca29965cc]
class validation--><g id="elem_validation"><rect codeLine="142" fill="#F1F1F1" height="64.2969" id="validation" rx="2.5" ry="2.5" style="stroke:#181818;stroke-width:0.5;" width="124" x="945" y="543"/><ellipse cx="971.7" cy="559" fill="#ADD1B2" rx="11" ry="11" style="stroke:#181818;stroke-width:1.0;"/><path d="M974.6688,564.6406 Q974.0906,564.9375 973.45,565.0781 Q972.8094,565.2344 972.1063,565.2344 Q969.6063,565.2344 968.2781,563.5938 Q966.9656,561.9375 966.9656,558.8125 Q966.9656,555.6875 968.2781,554.0313 Q969.6063,552.375 972.1063,552.375 Q972.8094,552.375 973.45,552.5313 Q974.1063,552.6875 974.6688,552.9844 L974.6688,555.7031 Q974.0438,555.125 973.45,554.8594 Q972.8563,554.5781 972.2313,554.5781 Q970.8875,554.5781 970.2,555.6563 Q969.5125,556.7188 969.5125,558.8125 Q969.5125,560.9063 970.2,561.9844 Q970.8875,563.0469 972.2313,563.0469 Q972.8563,563.0469 973.45,562.7813 Q974.0438,562.5 974.6688,561.9219 L974.6688,564.6406 Z " fill="#000000"/><text fill="#000000" font-family="sans-serif" font-size="14" lengthAdjust="spacing" textLength="66" x="988.3" y="563.8467">Validation</text><line style="stroke:#181818;stroke-width:0.5;" x1="946" x2="1068" y1="575" y2="575"/><ellipse cx="956" cy="588.6484" fill="none" rx="3" ry="3" style="stroke:#038048;stroke-width:1.0;"/><text fill="#000000" font-family="sans-serif" font-size="14" lengthAdjust="spacing" textLength="98" x="965" y="591.9951">Fundamentals</text><line style="stroke:#181818;stroke-width:0.5;" x1="946" x2="1068" y1="599.2969" y2="599.2969"/></g><!--MD5=[2e9c6ef7d60df07eb1342d35d85286c0]
class Industry_applications--><g id="elem_Industry_applications"><rect codeLine="153" fill="#F1F1F1" height="48" id="Industry_applications" rx="2.5" ry="2.5" style="stroke:#181818;stroke-width:0.5;" width="173" x="784.5" y="728"/><ellipse cx="799.5" cy="744" fill="#F1F1F1" rx="11" ry="11" style="stroke:#181818;stroke-width:1.0;"/><path d="M798.9844,744.5625 Q797.125,743.8594 796.4688,743.0938 Q795.8281,742.3125 795.8281,741 Q795.8281,739.3125 796.9063,738.3438 Q797.9844,737.375 799.8594,737.375 Q800.7188,737.375 801.5625,737.5781 Q802.4219,737.7656 803.2656,738.1563 L803.2656,740.5469 Q802.4844,739.9844 801.6563,739.7031 Q800.8438,739.4063 800.0469,739.4063 Q799.1719,739.4063 798.6875,739.7656 Q798.2188,740.125 798.2188,740.7813 Q798.2188,741.2969 798.5625,741.6406 Q798.9063,741.9688 800,742.375 L801.0625,742.7813 Q802.5469,743.3281 803.25,744.2344 Q803.9688,745.1406 803.9688,746.5156 Q803.9688,748.3906 802.8594,749.3125 Q801.75,750.2344 799.5,750.2344 Q798.5781,750.2344 797.6563,750.0156 Q796.7344,749.7969 795.875,749.375 L795.875,746.8438 Q796.8438,747.5313 797.7656,747.875 Q798.6875,748.2188 799.5781,748.2188 Q800.4844,748.2188 800.9844,747.8125 Q801.4844,747.3906 801.4844,746.6563 Q801.4844,746.0938 801.1406,745.6875 Q800.8125,745.2656 800.1875,745.0156 L798.9844,744.5625 Z " fill="#000000"/><text fill="#000000" font-family="sans-serif" font-size="14" lengthAdjust="spacing" textLength="141" x="813.5" y="748.8467">Industry applications</text><line style="stroke:#181818;stroke-width:0.5;" x1="785.5" x2="956.5" y1="760" y2="760"/><line style="stroke:#181818;stroke-width:0.5;" x1="785.5" x2="956.5" y1="768" y2="768"/></g><!--MD5=[45e6db43baa2f5433acd553fd7048985]
class Automotive--><g id="elem_Automotive"><rect codeLine="160" fill="#F1F1F1" height="80.5938" id="Automotive" rx="2.5" ry="2.5" style="stroke:#181818;stroke-width:0.5;" width="110" x="397" y="836"/><ellipse cx="412" cy="852" fill="#F1F1F1" rx="11" ry="11" style="stroke:#181818;stroke-width:1.0;"/><path d="M411.4844,852.5625 Q409.625,851.8594 408.9688,851.0938 Q408.3281,850.3125 408.3281,849 Q408.3281,847.3125 409.4063,846.3438 Q410.4844,845.375 412.3594,845.375 Q413.2188,845.375 414.0625,845.5781 Q414.9219,845.7656 415.7656,846.1563 L415.7656,848.5469 Q414.9844,847.9844 414.1563,847.7031 Q413.3438,847.4063 412.5469,847.4063 Q411.6719,847.4063 411.1875,847.7656 Q410.7188,848.125 410.7188,848.7813 Q410.7188,849.2969 411.0625,849.6406 Q411.4063,849.9688 412.5,850.375 L413.5625,850.7813 Q415.0469,851.3281 415.75,852.2344 Q416.4688,853.1406 416.4688,854.5156 Q416.4688,856.3906 415.3594,857.3125 Q414.25,858.2344 412,858.2344 Q411.0781,858.2344 410.1563,858.0156 Q409.2344,857.7969 408.375,857.375 L408.375,854.8438 Q409.3438,855.5313 410.2656,855.875 Q411.1875,856.2188 412.0781,856.2188 Q412.9844,856.2188 413.4844,855.8125 Q413.9844,855.3906 413.9844,854.6563 Q413.9844,854.0938 413.6406,853.6875 Q413.3125,853.2656 412.6875,853.0156 L411.4844,852.5625 Z " fill="#000000"/><text fill="#000000" font-family="sans-serif" font-size="14" lengthAdjust="spacing" textLength="78" x="426" y="856.8467">Automotive</text><line style="stroke:#181818;stroke-width:0.5;" x1="398" x2="506" y1="868" y2="868"/><ellipse cx="408" cy="881.6484" fill="none" rx="3" ry="3" style="stroke:#038048;stroke-width:1.0;"/><text fill="#000000" font-family="sans-serif" font-size="14" lengthAdjust="spacing" textLength="43" x="417" y="884.9951">MISRA</text><ellipse cx="408" cy="897.9453" fill="none" rx="3" ry="3" style="stroke:#038048;stroke-width:1.0;"/><text fill="#000000" font-family="sans-serif" font-size="14" lengthAdjust="spacing" textLength="29" x="417" y="901.292">CAN</text><line style="stroke:#181818;stroke-width:0.5;" x1="398" x2="506" y1="908.5938" y2="908.5938"/></g><!--MD5=[4ec69182b6251e906d721d4a4277d128]
class gateways--><g id="elem_gateways"><rect codeLine="168" fill="#F1F1F1" height="48" id="gateways" rx="2.5" ry="2.5" style="stroke:#181818;stroke-width:0.5;" width="99" x="182.5" y="1001.5"/><ellipse cx="197.5" cy="1017.5" fill="#ADD1B2" rx="11" ry="11" style="stroke:#181818;stroke-width:1.0;"/><path d="M200.4688,1023.1406 Q199.8906,1023.4375 199.25,1023.5781 Q198.6094,1023.7344 197.9063,1023.7344 Q195.4063,1023.7344 194.0781,1022.0938 Q192.7656,1020.4375 192.7656,1017.3125 Q192.7656,1014.1875 194.0781,1012.5313 Q195.4063,1010.875 197.9063,1010.875 Q198.6094,1010.875 199.25,1011.0313 Q199.9063,1011.1875 200.4688,1011.4844 L200.4688,1014.2031 Q199.8438,1013.625 199.25,1013.3594 Q198.6563,1013.0781 198.0313,1013.0781 Q196.6875,1013.0781 196,1014.1563 Q195.3125,1015.2188 195.3125,1017.3125 Q195.3125,1019.4063 196,1020.4844 Q196.6875,1021.5469 198.0313,1021.5469 Q198.6563,1021.5469 199.25,1021.2813 Q199.8438,1021 200.4688,1020.4219 L200.4688,1023.1406 Z " fill="#000000"/><text fill="#000000" font-family="sans-serif" font-size="14" lengthAdjust="spacing" textLength="67" x="211.5" y="1022.3467">Gateways</text><line style="stroke:#181818;stroke-width:0.5;" x1="183.5" x2="280.5" y1="1033.5" y2="1033.5"/><line style="stroke:#181818;stroke-width:0.5;" x1="183.5" x2="280.5" y1="1041.5" y2="1041.5"/></g><!--MD5=[615c2ccd1649c3c43f8cbd5a4d37cf1e]
class infotaiment--><g id="elem_infotaiment"><rect codeLine="171" fill="#F1F1F1" height="48" id="infotaiment" rx="2.5" ry="2.5" style="stroke:#181818;stroke-width:0.5;" width="109" x="316.5" y="1001.5"/><ellipse cx="331.5" cy="1017.5" fill="#ADD1B2" rx="11" ry="11" style="stroke:#181818;stroke-width:1.0;"/><path d="M334.4688,1023.1406 Q333.8906,1023.4375 333.25,1023.5781 Q332.6094,1023.7344 331.9063,1023.7344 Q329.4063,1023.7344 328.0781,1022.0938 Q326.7656,1020.4375 326.7656,1017.3125 Q326.7656,1014.1875 328.0781,1012.5313 Q329.4063,1010.875 331.9063,1010.875 Q332.6094,1010.875 333.25,1011.0313 Q333.9063,1011.1875 334.4688,1011.4844 L334.4688,1014.2031 Q333.8438,1013.625 333.25,1013.3594 Q332.6563,1013.0781 332.0313,1013.0781 Q330.6875,1013.0781 330,1014.1563 Q329.3125,1015.2188 329.3125,1017.3125 Q329.3125,1019.4063 330,1020.4844 Q330.6875,1021.5469 332.0313,1021.5469 Q332.6563,1021.5469 333.25,1021.2813 Q333.8438,1021 334.4688,1020.4219 L334.4688,1023.1406 Z " fill="#000000"/><text fill="#000000" font-family="sans-serif" font-size="14" lengthAdjust="spacing" textLength="77" x="345.5" y="1022.3467">Infotaiment</text><line style="stroke:#181818;stroke-width:0.5;" x1="317.5" x2="424.5" y1="1033.5" y2="1033.5"/><line style="stroke:#181818;stroke-width:0.5;" x1="317.5" x2="424.5" y1="1041.5" y2="1041.5"/></g><!--MD5=[80f4c98420784c84293eea48cb1f84e2]
class driver_assistance--><g id="elem_driver_assistance"><rect codeLine="174" fill="#F1F1F1" height="48" id="driver_assistance" rx="2.5" ry="2.5" style="stroke:#181818;stroke-width:0.5;" width="143" x="460.5" y="1001.5"/><ellipse cx="475.5" cy="1017.5" fill="#ADD1B2" rx="11" ry="11" style="stroke:#181818;stroke-width:1.0;"/><path d="M478.4688,1023.1406 Q477.8906,1023.4375 477.25,1023.5781 Q476.6094,1023.7344 475.9063,1023.7344 Q473.4063,1023.7344 472.0781,1022.0938 Q470.7656,1020.4375 470.7656,1017.3125 Q470.7656,1014.1875 472.0781,1012.5313 Q473.4063,1010.875 475.9063,1010.875 Q476.6094,1010.875 477.25,1011.0313 Q477.9063,1011.1875 478.4688,1011.4844 L478.4688,1014.2031 Q477.8438,1013.625 477.25,1013.3594 Q476.6563,1013.0781 476.0313,1013.0781 Q474.6875,1013.0781 474,1014.1563 Q473.3125,1015.2188 473.3125,1017.3125 Q473.3125,1019.4063 474,1020.4844 Q474.6875,1021.5469 476.0313,1021.5469 Q476.6563,1021.5469 477.25,1021.2813 Q477.8438,1021 478.4688,1020.4219 L478.4688,1023.1406 Z " fill="#000000"/><text fill="#000000" font-family="sans-serif" font-size="14" lengthAdjust="spacing" textLength="111" x="489.5" y="1022.3467">Driver Asistance</text><line style="stroke:#181818;stroke-width:0.5;" x1="461.5" x2="602.5" y1="1033.5" y2="1033.5"/><line style="stroke:#181818;stroke-width:0.5;" x1="461.5" x2="602.5" y1="1041.5" y2="1041.5"/></g><!--MD5=[5d2282d317d42898064fa1f748faad5d]
class Aerospace--><g id="elem_Aerospace"><rect codeLine="178" fill="#F1F1F1" height="48" id="Aerospace" rx="2.5" ry="2.5" style="stroke:#181818;stroke-width:0.5;" width="106" x="676" y="852.5"/><ellipse cx="691" cy="868.5" fill="#F1F1F1" rx="11" ry="11" style="stroke:#181818;stroke-width:1.0;"/><path d="M690.4844,869.0625 Q688.625,868.3594 687.9688,867.5938 Q687.3281,866.8125 687.3281,865.5 Q687.3281,863.8125 688.4063,862.8438 Q689.4844,861.875 691.3594,861.875 Q692.2188,861.875 693.0625,862.0781 Q693.9219,862.2656 694.7656,862.6563 L694.7656,865.0469 Q693.9844,864.4844 693.1563,864.2031 Q692.3438,863.9063 691.5469,863.9063 Q690.6719,863.9063 690.1875,864.2656 Q689.7188,864.625 689.7188,865.2813 Q689.7188,865.7969 690.0625,866.1406 Q690.4063,866.4688 691.5,866.875 L692.5625,867.2813 Q694.0469,867.8281 694.75,868.7344 Q695.4688,869.6406 695.4688,871.0156 Q695.4688,872.8906 694.3594,873.8125 Q693.25,874.7344 691,874.7344 Q690.0781,874.7344 689.1563,874.5156 Q688.2344,874.2969 687.375,873.875 L687.375,871.3438 Q688.3438,872.0313 689.2656,872.375 Q690.1875,872.7188 691.0781,872.7188 Q691.9844,872.7188 692.4844,872.3125 Q692.9844,871.8906 692.9844,871.1563 Q692.9844,870.5938 692.6406,870.1875 Q692.3125,869.7656 691.6875,869.5156 L690.4844,869.0625 Z " fill="#000000"/><text fill="#000000" font-family="sans-serif" font-size="14" lengthAdjust="spacing" textLength="74" x="705" y="873.3467">Aerospace</text><line style="stroke:#181818;stroke-width:0.5;" x1="677" x2="781" y1="884.5" y2="884.5"/><line style="stroke:#181818;stroke-width:0.5;" x1="677" x2="781" y1="892.5" y2="892.5"/></g><!--MD5=[f9fa48aebf6b560a9768116d09d00838]
class coordinated_systems--><g id="elem_coordinated_systems"><rect codeLine="184" fill="#F1F1F1" height="48" id="coordinated_systems" rx="2.5" ry="2.5" style="stroke:#181818;stroke-width:0.5;" width="180" x="639" y="1001.5"/><ellipse cx="654" cy="1017.5" fill="#ADD1B2" rx="11" ry="11" style="stroke:#181818;stroke-width:1.0;"/><path d="M656.9688,1023.1406 Q656.3906,1023.4375 655.75,1023.5781 Q655.1094,1023.7344 654.4063,1023.7344 Q651.9063,1023.7344 650.5781,1022.0938 Q649.2656,1020.4375 649.2656,1017.3125 Q649.2656,1014.1875 650.5781,1012.5313 Q651.9063,1010.875 654.4063,1010.875 Q655.1094,1010.875 655.75,1011.0313 Q656.4063,1011.1875 656.9688,1011.4844 L656.9688,1014.2031 Q656.3438,1013.625 655.75,1013.3594 Q655.1563,1013.0781 654.5313,1013.0781 Q653.1875,1013.0781 652.5,1014.1563 Q651.8125,1015.2188 651.8125,1017.3125 Q651.8125,1019.4063 652.5,1020.4844 Q653.1875,1021.5469 654.5313,1021.5469 Q655.1563,1021.5469 655.75,1021.2813 Q656.3438,1021 656.9688,1020.4219 L656.9688,1023.1406 Z " fill="#000000"/><text fill="#000000" font-family="sans-serif" font-size="14" lengthAdjust="spacing" textLength="148" x="668" y="1022.3467">Coordinated Systems</text><line style="stroke:#181818;stroke-width:0.5;" x1="640" x2="818" y1="1033.5" y2="1033.5"/><line style="stroke:#181818;stroke-width:0.5;" x1="640" x2="818" y1="1041.5" y2="1041.5"/></g><!--MD5=[fc45f521f025cc9bae87f02ab4809ed2]
class Biomedical--><g id="elem_Biomedical"><rect codeLine="188" fill="#F1F1F1" height="48" id="Biomedical" rx="2.5" ry="2.5" style="stroke:#181818;stroke-width:0.5;" width="107" x="817.5" y="852.5"/><ellipse cx="832.5" cy="868.5" fill="#F1F1F1" rx="11" ry="11" style="stroke:#181818;stroke-width:1.0;"/><path d="M831.9844,869.0625 Q830.125,868.3594 829.4688,867.5938 Q828.8281,866.8125 828.8281,865.5 Q828.8281,863.8125 829.9063,862.8438 Q830.9844,861.875 832.8594,861.875 Q833.7188,861.875 834.5625,862.0781 Q835.4219,862.2656 836.2656,862.6563 L836.2656,865.0469 Q835.4844,864.4844 834.6563,864.2031 Q833.8438,863.9063 833.0469,863.9063 Q832.1719,863.9063 831.6875,864.2656 Q831.2188,864.625 831.2188,865.2813 Q831.2188,865.7969 831.5625,866.1406 Q831.9063,866.4688 833,866.875 L834.0625,867.2813 Q835.5469,867.8281 836.25,868.7344 Q836.9688,869.6406 836.9688,871.0156 Q836.9688,872.8906 835.8594,873.8125 Q834.75,874.7344 832.5,874.7344 Q831.5781,874.7344 830.6563,874.5156 Q829.7344,874.2969 828.875,873.875 L828.875,871.3438 Q829.8438,872.0313 830.7656,872.375 Q831.6875,872.7188 832.5781,872.7188 Q833.4844,872.7188 833.9844,872.3125 Q834.4844,871.8906 834.4844,871.1563 Q834.4844,870.5938 834.1406,870.1875 Q833.8125,869.7656 833.1875,869.5156 L831.9844,869.0625 Z " fill="#000000"/><text fill="#000000" font-family="sans-serif" font-size="14" lengthAdjust="spacing" textLength="75" x="846.5" y="873.3467">Biomedical</text><line style="stroke:#181818;stroke-width:0.5;" x1="818.5" x2="923.5" y1="884.5" y2="884.5"/><line style="stroke:#181818;stroke-width:0.5;" x1="818.5" x2="923.5" y1="892.5" y2="892.5"/></g><!--MD5=[08f55119b864267fb31cf866dfc0b8ac]
class medical_devices--><g id="elem_medical_devices"><rect codeLine="194" fill="#F1F1F1" height="96.8906" id="medical_devices" rx="2.5" ry="2.5" style="stroke:#181818;stroke-width:0.5;" width="465" x="854.5" y="977"/><ellipse cx="1006.25" cy="993" fill="#ADD1B2" rx="11" ry="11" style="stroke:#181818;stroke-width:1.0;"/><path d="M1009.2188,998.6406 Q1008.6406,998.9375 1008,999.0781 Q1007.3594,999.2344 1006.6563,999.2344 Q1004.1563,999.2344 1002.8281,997.5938 Q1001.5156,995.9375 1001.5156,992.8125 Q1001.5156,989.6875 1002.8281,988.0313 Q1004.1563,986.375 1006.6563,986.375 Q1007.3594,986.375 1008,986.5313 Q1008.6563,986.6875 1009.2188,986.9844 L1009.2188,989.7031 Q1008.5938,989.125 1008,988.8594 Q1007.4063,988.5781 1006.7813,988.5781 Q1005.4375,988.5781 1004.75,989.6563 Q1004.0625,990.7188 1004.0625,992.8125 Q1004.0625,994.9063 1004.75,995.9844 Q1005.4375,997.0469 1006.7813,997.0469 Q1007.4063,997.0469 1008,996.7813 Q1008.5938,996.5 1009.2188,995.9219 L1009.2188,998.6406 Z " fill="#000000"/><text fill="#000000" font-family="sans-serif" font-size="14" lengthAdjust="spacing" textLength="153" x="1026.75" y="997.8467">Medical grade devices</text><line style="stroke:#181818;stroke-width:0.5;" x1="855.5" x2="1318.5" y1="1009" y2="1009"/><ellipse cx="865.5" cy="1022.6484" fill="none" rx="3" ry="3" style="stroke:#038048;stroke-width:1.0;"/><text fill="#000000" font-family="sans-serif" font-size="14" lengthAdjust="spacing" textLength="92" x="874.5" y="1025.9951">X-ray imaging</text><ellipse cx="865.5" cy="1038.9453" fill="none" rx="3" ry="3" style="stroke:#038048;stroke-width:1.0;"/><text fill="#000000" font-family="sans-serif" font-size="14" lengthAdjust="spacing" textLength="99" x="874.5" y="1042.292">Wearable tech</text><line style="stroke:#181818;stroke-width:0.5;" x1="855.5" x2="1318.5" y1="1049.5938" y2="1049.5938"/><ellipse cx="865.5" cy="1063.2422" fill="#84BE84" rx="3" ry="3" style="stroke:#038048;stroke-width:1.0;"/><text fill="#000000" font-family="sans-serif" font-size="14" lengthAdjust="spacing" textLength="439" x="874.5" y="1066.5889">QNX() : create a medical grade device with real time constraints.</text></g><!--MD5=[65a89217e9d85fd38eff4ada9c8f3317]
class Consumer_Electronics--><g id="elem_Consumer_Electronics"><rect codeLine="202" fill="#F1F1F1" height="64.2969" id="Consumer_Electronics" rx="2.5" ry="2.5" style="stroke:#181818;stroke-width:0.5;" width="184" x="960" y="844.5"/><ellipse cx="975" cy="860.5" fill="#F1F1F1" rx="11" ry="11" style="stroke:#181818;stroke-width:1.0;"/><path d="M974.4844,861.0625 Q972.625,860.3594 971.9688,859.5938 Q971.3281,858.8125 971.3281,857.5 Q971.3281,855.8125 972.4063,854.8438 Q973.4844,853.875 975.3594,853.875 Q976.2188,853.875 977.0625,854.0781 Q977.9219,854.2656 978.7656,854.6563 L978.7656,857.0469 Q977.9844,856.4844 977.1563,856.2031 Q976.3438,855.9063 975.5469,855.9063 Q974.6719,855.9063 974.1875,856.2656 Q973.7188,856.625 973.7188,857.2813 Q973.7188,857.7969 974.0625,858.1406 Q974.4063,858.4688 975.5,858.875 L976.5625,859.2813 Q978.0469,859.8281 978.75,860.7344 Q979.4688,861.6406 979.4688,863.0156 Q979.4688,864.8906 978.3594,865.8125 Q977.25,866.7344 975,866.7344 Q974.0781,866.7344 973.1563,866.5156 Q972.2344,866.2969 971.375,865.875 L971.375,863.3438 Q972.3438,864.0313 973.2656,864.375 Q974.1875,864.7188 975.0781,864.7188 Q975.9844,864.7188 976.4844,864.3125 Q976.9844,863.8906 976.9844,863.1563 Q976.9844,862.5938 976.6406,862.1875 Q976.3125,861.7656 975.6875,861.5156 L974.4844,861.0625 Z " fill="#000000"/><text fill="#000000" font-family="sans-serif" font-size="14" lengthAdjust="spacing" textLength="152" x="989" y="865.3467">Consumer Electronics</text><line style="stroke:#181818;stroke-width:0.5;" x1="961" x2="1143" y1="876.5" y2="876.5"/><ellipse cx="971" cy="890.1484" fill="none" rx="3" ry="3" style="stroke:#038048;stroke-width:1.0;"/><text fill="#000000" font-family="sans-serif" font-size="14" lengthAdjust="spacing" textLength="119" x="980" y="893.4951">Home appliances</text><line style="stroke:#181818;stroke-width:0.5;" x1="961" x2="1143" y1="900.7969" y2="900.7969"/></g><!--MD5=[fca3bd940cfa43daf701fb146735ea0c]
class Communications--><g id="elem_Communications"><rect codeLine="206" fill="#F1F1F1" height="64.2969" id="Communications" rx="2.5" ry="2.5" style="stroke:#181818;stroke-width:0.5;" width="148" x="1179" y="844.5"/><ellipse cx="1194" cy="860.5" fill="#F1F1F1" rx="11" ry="11" style="stroke:#181818;stroke-width:1.0;"/><path d="M1193.4844,861.0625 Q1191.625,860.3594 1190.9688,859.5938 Q1190.3281,858.8125 1190.3281,857.5 Q1190.3281,855.8125 1191.4063,854.8438 Q1192.4844,853.875 1194.3594,853.875 Q1195.2188,853.875 1196.0625,854.0781 Q1196.9219,854.2656 1197.7656,854.6563 L1197.7656,857.0469 Q1196.9844,856.4844 1196.1563,856.2031 Q1195.3438,855.9063 1194.5469,855.9063 Q1193.6719,855.9063 1193.1875,856.2656 Q1192.7188,856.625 1192.7188,857.2813 Q1192.7188,857.7969 1193.0625,858.1406 Q1193.4063,858.4688 1194.5,858.875 L1195.5625,859.2813 Q1197.0469,859.8281 1197.75,860.7344 Q1198.4688,861.6406 1198.4688,863.0156 Q1198.4688,864.8906 1197.3594,865.8125 Q1196.25,866.7344 1194,866.7344 Q1193.0781,866.7344 1192.1563,866.5156 Q1191.2344,866.2969 1190.375,865.875 L1190.375,863.3438 Q1191.3438,864.0313 1192.2656,864.375 Q1193.1875,864.7188 1194.0781,864.7188 Q1194.9844,864.7188 1195.4844,864.3125 Q1195.9844,863.8906 1195.9844,863.1563 Q1195.9844,862.5938 1195.6406,862.1875 Q1195.3125,861.7656 1194.6875,861.5156 L1193.4844,861.0625 Z " fill="#000000"/><text fill="#000000" font-family="sans-serif" font-size="14" lengthAdjust="spacing" textLength="116" x="1208" y="865.3467">Communications</text><line style="stroke:#181818;stroke-width:0.5;" x1="1180" x2="1326" y1="876.5" y2="876.5"/><ellipse cx="1190" cy="890.1484" fill="none" rx="3" ry="3" style="stroke:#038048;stroke-width:1.0;"/><text fill="#000000" font-family="sans-serif" font-size="14" lengthAdjust="spacing" textLength="18" x="1199" y="893.4951">RF</text><line style="stroke:#181818;stroke-width:0.5;" x1="1180" x2="1326" y1="900.7969" y2="900.7969"/></g><!--MD5=[a6e69ebde752962da01903e5afde084a]
reverse link circuits to Fundamentals--><g id="link_circuits_Fundamentals"><path codeLine="214" d="M871,125.29 C871,163.06 871,209.47 871,236.78 " fill="none" id="circuits-backto-Fundamentals" style="stroke:#181818;stroke-width:1.0;"/><polygon fill="#181818" points="871,120.26,867,129.26,871,125.26,875,129.26,871,120.26" style="stroke:#181818;stroke-width:1.0;"/></g><!--MD5=[7a54f239a12d4b756a40b985fca80f34]
reverse link math to Fundamentals--><g id="link_math_Fundamentals"><path codeLine="215" d="M776.3,261 C784.46,261 794.92,261 805.9,261 " fill="none" id="math-backto-Fundamentals" style="stroke:#181818;stroke-width:1.0;"/><polygon fill="#181818" points="771.05,261,780.05,265,776.05,261,780.05,257,771.05,261" style="stroke:#181818;stroke-width:1.0;"/></g><!--MD5=[5e4b160b8ab9d2503c046e37eab76d4e]
link Fundamentals to digital_sys--><g id="link_Fundamentals_digital_sys"><path codeLine="216" d="M892.81,236.91 C922.36,204.27 971.5,150 971.5,150 C971.5,150 1264.5,150 1264.5,150 C1264.5,150 1305.96,166.12 1357.28,186.07 " fill="none" id="Fundamentals-to-digital_sys" style="stroke:#181818;stroke-width:1.0;"/><polygon fill="#181818" points="1361.95,187.89,1355.0159,180.8959,1357.2911,186.075,1352.1119,188.3502,1361.95,187.89" style="stroke:#181818;stroke-width:1.0;"/></g><!--MD5=[58f3e5a646adcdc32a5f39e1884a7b30]
link Fundamentals to data_algo--><g id="link_Fundamentals_data_algo"><path codeLine="217" d="M936.27,261 C946.27,261 953.33,261 953.33,261 C953.33,261 958.44,261 966.11,261 " fill="none" id="Fundamentals-to-data_algo" style="stroke:#181818;stroke-width:1.0;"/><polygon fill="#181818" points="971.2,261,962.2,257,966.2,261,962.2,265,971.2,261" style="stroke:#181818;stroke-width:1.0;"/></g><!--MD5=[f0c3ca8103f0f4de821b9c1284557c42]
link digital_sys to os--><g id="link_digital_sys_os"><path codeLine="218" d="M1800.22,261 C1801.38,261 1802,261 1802,261 C1802,261 1813.54,261 1829.64,261 " fill="none" id="digital_sys-to-os" style="stroke:#181818;stroke-width:1.0;"/><polygon fill="#181818" points="1834.78,261,1825.78,257,1829.78,261,1825.78,265,1834.78,261" style="stroke:#181818;stroke-width:1.0;"/></g><!--MD5=[548c82bf7114d6157e5ab6a39ae3700a]
link digital_sys to comp_arch--><g id="link_digital_sys_comp_arch"><path codeLine="219" d="M1550,334.23 C1550,355.34 1550,377.79 1550,396.66 " fill="none" id="digital_sys-to-comp_arch" style="stroke:#181818;stroke-width:1.0;"/><polygon fill="#181818" points="1550,401.89,1554,392.89,1550,396.89,1546,392.89,1550,401.89" style="stroke:#181818;stroke-width:1.0;"/></g><!--MD5=[2fb525b28e1b11b3abf12030fff3688e]
reverse link control_eng to math--><g id="link_control_eng_math"><path codeLine="220" d="M275.73,261 C291.69,261 303.33,261 303.33,261 C303.33,261 303.91,261 304.99,261 " fill="none" id="control_eng-backto-math" style="stroke:#181818;stroke-width:1.0;"/><polygon fill="#181818" points="270.65,261,279.65,265,275.65,261,279.65,257,270.65,261" style="stroke:#181818;stroke-width:1.0;"/></g><!--MD5=[ad927ebf699497817d97fc378c80086d]
link Fundamentals to Tracks--><g id="link_Fundamentals_Tracks"><path codeLine="222" d="M871,285.2 C871,341.26 871,484.03 871,545.33 " fill="none" id="Fundamentals-to-Tracks" style="stroke:#181818;stroke-width:1.0;"/><polygon fill="#181818" points="871,550.65,875,541.65,871,545.65,867,541.65,871,550.65" style="stroke:#181818;stroke-width:1.0;"/></g><!--MD5=[a7dd273f9ab7e8e63206ee53860a7d88]
reverse link audio to Tracks--><g id="link_audio_Tracks"><path codeLine="224" d="M802.45,575 C813.96,575 825.67,575 825.67,575 C825.67,575 828.16,575 831.97,575 " fill="none" id="audio-backto-Tracks" style="stroke:#181818;stroke-width:1.0;"/><polygon fill="#181818" points="797.21,575,806.21,579,802.21,575,806.21,571,797.21,575" style="stroke:#181818;stroke-width:1.0;"/></g><!--MD5=[701a2d9d6f07d355c375e22f3bee5cc8]
reverse link cybersecurity to Tracks--><g id="link_cybersecurity_Tracks"><path codeLine="225" d="M628.76,540.26 C651.48,526.1 672.5,513 672.5,513 C672.5,513 796.5,513 796.5,513 C796.5,513 821.06,533.44 841.98,550.85 " fill="none" id="cybersecurity-backto-Tracks" style="stroke:#181818;stroke-width:1.0;"/><polygon fill="#181818" points="624.5,542.91,634.2541,541.5468,628.744,540.2664,630.0243,534.7564,624.5,542.91" style="stroke:#181818;stroke-width:1.0;"/></g><!--MD5=[57a39c7ff479ae5fc129123cc70d8cfe]
reverse link embedded_linux to Tracks--><g id="link_embedded_linux_Tracks"><path codeLine="226" d="M459.8,540.26 C484.57,526.1 507.5,513 507.5,513 C507.5,513 796.5,513 796.5,513 C796.5,513 821.06,533.44 841.98,550.85 " fill="none" id="embedded_linux-backto-Tracks" style="stroke:#181818;stroke-width:1.0;"/><polygon fill="#181818" points="455.16,542.91,464.958,541.9108,459.4995,540.4262,460.984,534.9677,455.16,542.91" style="stroke:#181818;stroke-width:1.0;"/></g><!--MD5=[0954f9e7ecd03192864eeccf59e180f9]
reverse link embedded_software to Tracks--><g id="link_embedded_software_Tracks"><path codeLine="227" d="M282.91,540.08 C305.07,525.99 325.5,513 325.5,513 C325.5,513 796.5,513 796.5,513 C796.5,513 821.06,533.44 841.98,550.85 " fill="none" id="embedded_software-backto-Tracks" style="stroke:#181818;stroke-width:1.0;"/><polygon fill="#181818" points="278.46,542.91,288.1995,541.4464,282.6765,540.2228,283.9001,534.6999,278.46,542.91" style="stroke:#181818;stroke-width:1.0;"/></g><!--MD5=[a8446a1b7ea3e69206895ea6b3e8eb67]
reverse link firmware to Tracks--><g id="link_firmware_Tracks"><path codeLine="228" d="M123.35,540.08 C145.28,525.99 165.5,513 165.5,513 C165.5,513 796.5,513 796.5,513 C796.5,513 821.06,533.44 841.98,550.85 " fill="none" id="firmware-backto-Tracks" style="stroke:#181818;stroke-width:1.0;"/><polygon fill="#181818" points="118.95,542.91,128.6836,541.4079,123.1559,540.2062,124.3576,534.6785,118.95,542.91" style="stroke:#181818;stroke-width:1.0;"/></g><!--MD5=[36b2adcde90194628949531846ec27b9]
link Tracks to iot--><g id="link_Tracks_iot"><path codeLine="229" d="M899.63,550.85 C920.27,533.44 944.5,513 944.5,513 C944.5,513 1784.5,513 1784.5,513 C1784.5,513 1809.11,526.21 1835.61,540.43 " fill="none" id="Tracks-to-iot" style="stroke:#181818;stroke-width:1.0;"/><polygon fill="#181818" points="1840.22,542.91,1834.1651,535.1422,1835.8094,540.5548,1830.3968,542.1992,1840.22,542.91" style="stroke:#181818;stroke-width:1.0;"/></g><!--MD5=[22e46174688435927ce28a756ef0c0dc]
link Tracks to machine_learning--><g id="link_Tracks_machine_learning"><path codeLine="230" d="M899.63,550.85 C920.27,533.44 944.5,513 944.5,513 C944.5,513 1591.5,513 1591.5,513 C1591.5,513 1615.89,526.21 1642.16,540.43 " fill="none" id="Tracks-to-machine_learning" style="stroke:#181818;stroke-width:1.0;"/><polygon fill="#181818" points="1646.74,542.91,1640.7152,535.1189,1642.3386,540.5378,1636.9196,542.1612,1646.74,542.91" style="stroke:#181818;stroke-width:1.0;"/></g><!--MD5=[ba40265331025f467f5ef2ca8bdf3bd2]
link Tracks to radio_frequency--><g id="link_Tracks_radio_frequency"><path codeLine="231" d="M899.63,550.85 C920.27,533.44 944.5,513 944.5,513 C944.5,513 1408.5,513 1408.5,513 C1408.5,513 1431.83,526.21 1456.95,540.43 " fill="none" id="Tracks-to-radio_frequency" style="stroke:#181818;stroke-width:1.0;"/><polygon fill="#181818" points="1461.33,542.91,1455.4751,534.9904,1456.9809,540.4431,1451.5281,541.9489,1461.33,542.91" style="stroke:#181818;stroke-width:1.0;"/></g><!--MD5=[079e00593e6350efb9b43658c47a9990]
link Tracks to sys_control--><g id="link_Tracks_sys_control"><path codeLine="232" d="M899.63,550.85 C920.27,533.44 944.5,513 944.5,513 C944.5,513 1227.5,513 1227.5,513 C1227.5,513 1250.43,526.1 1275.2,540.26 " fill="none" id="Tracks-to-sys_control" style="stroke:#181818;stroke-width:1.0;"/><polygon fill="#181818" points="1279.84,542.91,1274.016,534.9677,1275.5005,540.4262,1270.042,541.9108,1279.84,542.91" style="stroke:#181818;stroke-width:1.0;"/></g><!--MD5=[da09cce28425274804b3302eca4bce94]
link Tracks to tester--><g id="link_Tracks_tester"><path codeLine="233" d="M899.63,550.85 C920.27,533.44 944.5,513 944.5,513 C944.5,513 1068.5,513 1068.5,513 C1068.5,513 1088.93,525.99 1111.09,540.08 " fill="none" id="Tracks-to-tester" style="stroke:#181818;stroke-width:1.0;"/><polygon fill="#181818" points="1115.54,542.91,1110.0999,534.6999,1111.3235,540.2228,1105.8005,541.4464,1115.54,542.91" style="stroke:#181818;stroke-width:1.0;"/></g><!--MD5=[b5ef99b6192556605c55b3a4db2f6e3d]
link Tracks to validation--><g id="link_Tracks_validation"><path codeLine="234" d="M910.03,575 C913.84,575 916.33,575 916.33,575 C916.33,575 928.04,575 939.55,575 " fill="none" id="Tracks-to-validation" style="stroke:#181818;stroke-width:1.0;"/><polygon fill="#181818" points="944.79,575,935.79,571,939.79,575,935.79,579,944.79,575" style="stroke:#181818;stroke-width:1.0;"/></g><!--MD5=[a1294d39d8c795edaf44f60be6d5bfcc]
link Tracks to Industry_applications--><g id="link_Tracks_Industry_applications"><path codeLine="236" d="M871,599.24 C871,631.1 871,688.29 871,722.64 " fill="none" id="Tracks-to-Industry_applications" style="stroke:#181818;stroke-width:1.0;"/><polygon fill="#181818" points="871,727.94,875,718.94,871,722.94,867,718.94,871,727.94" style="stroke:#181818;stroke-width:1.0;"/></g><!--MD5=[4bf87856bec712e4ac547df378b7ffaa]
link Industry_applications to Automotive--><g id="link_Industry_applications_Automotive"><path codeLine="238" d="M792.19,776.04 C710.93,799.8 586,836.32 512.29,857.87 " fill="none" id="Industry_applications-to-Automotive" style="stroke:#181818;stroke-width:1.0;"/><polygon fill="#181818" points="507.08,859.4,516.8436,860.6932,511.8761,857.9869,514.5825,853.0194,507.08,859.4" style="stroke:#181818;stroke-width:1.0;"/></g><!--MD5=[fed98a93e9c0456df391920faae9c36a]
link Industry_applications to Aerospace--><g id="link_Industry_applications_Aerospace"><path codeLine="239" d="M844.29,776.04 C820.35,796.7 785.21,827.01 760.03,848.74 " fill="none" id="Industry_applications-to-Aerospace" style="stroke:#181818;stroke-width:1.0;"/><polygon fill="#181818" points="756.07,852.15,765.495,849.2919,759.8532,848.8808,760.2643,843.2389,756.07,852.15" style="stroke:#181818;stroke-width:1.0;"/></g><!--MD5=[b51fe47a4f9474c8184aac61251c2012]
link Industry_applications to Biomedical--><g id="link_Industry_applications_Biomedical"><path codeLine="240" d="M871,776.04 C871,796.19 871,825.52 871,847.11 " fill="none" id="Industry_applications-to-Biomedical" style="stroke:#181818;stroke-width:1.0;"/><polygon fill="#181818" points="871,852.15,875,843.15,871,847.15,867,843.15,871,852.15" style="stroke:#181818;stroke-width:1.0;"/></g><!--MD5=[a83271c71b9bf516a7790f4de6de5f75]
link Industry_applications to Consumer_Electronics--><g id="link_Industry_applications_Consumer_Electronics"><path codeLine="241" d="M905.04,776.04 C932.28,794.47 970.86,820.59 1001.66,841.43 " fill="none" id="Industry_applications-to-Consumer_Electronics" style="stroke:#181818;stroke-width:1.0;"/><polygon fill="#181818" points="1006.15,844.47,1000.9466,836.1079,1002.0119,841.6635,996.4563,842.7289,1006.15,844.47" style="stroke:#181818;stroke-width:1.0;"/></g><!--MD5=[ff2647b0704faf7bc7d8b326bdfa2cb0]
link Industry_applications to Communications--><g id="link_Industry_applications_Communications"><path codeLine="242" d="M951.4,776.01 C1037.22,800.57 1161,836 1161,836 C1161,836 1166.99,838.57 1175.91,842.4 " fill="none" id="Industry_applications-to-Communications" style="stroke:#181818;stroke-width:1.0;"/><polygon fill="#181818" points="1180.51,844.38,1173.8215,837.1506,1175.9165,842.4052,1170.6619,844.5002,1180.51,844.38" style="stroke:#181818;stroke-width:1.0;"/></g><!--MD5=[ab92c0aff8fc98531f3d43c55c716f7a]
link Aerospace to coordinated_systems--><g id="link_Aerospace_coordinated_systems"><path codeLine="243" d="M729,900.79 C729,926.71 729,968.57 729,996.31 " fill="none" id="Aerospace-to-coordinated_systems" style="stroke:#181818;stroke-width:1.0;"/><polygon fill="#181818" points="729,1001.32,733,992.32,729,996.32,725,992.32,729,1001.32" style="stroke:#181818;stroke-width:1.0;"/></g><!--MD5=[d293778d9f2e66694b7f751faca6c1c8]
link Automotive to gateways--><g id="link_Automotive_gateways"><path codeLine="244" d="M396.76,913.42 C352.94,941.92 299,977 299,977 C299,977 284.56,987.23 269.09,998.2 " fill="none" id="Automotive-to-gateways" style="stroke:#181818;stroke-width:1.0;"/><polygon fill="#181818" points="264.71,1001.31,274.3612,999.3466,268.7825,998.4092,269.7199,992.8306,264.71,1001.31" style="stroke:#181818;stroke-width:1.0;"/></g><!--MD5=[e2500c4139c1b6cd53b5db118c32d363]
link Automotive to infotaiment--><g id="link_Automotive_infotaiment"><path codeLine="245" d="M430.08,917.28 C416.26,942.37 398.75,974.14 386.39,996.57 " fill="none" id="Automotive-to-infotaiment" style="stroke:#181818;stroke-width:1.0;"/><polygon fill="#181818" points="383.84,1001.2,391.6926,995.2555,386.2573,996.8232,384.6896,991.3879,383.84,1001.2" style="stroke:#181818;stroke-width:1.0;"/></g><!--MD5=[6c73b97cf16fdfc4197e0926d544ef6e]
link Automotive to driver_assistance--><g id="link_Automotive_driver_assistance"><path codeLine="246" d="M473.65,917.28 C487.3,942.37 504.59,974.14 516.8,996.57 " fill="none" id="Automotive-to-driver_assistance" style="stroke:#181818;stroke-width:1.0;"/><polygon fill="#181818" points="519.32,1001.2,518.5331,991.3826,516.9308,996.8078,511.5056,995.2054,519.32,1001.2" style="stroke:#181818;stroke-width:1.0;"/></g><!--MD5=[0634a86b93c9abe008d6d4ddc5bb40c9]
link Biomedical to medical_devices--><g id="link_Biomedical_medical_devices"><path codeLine="247" d="M905.23,900.79 C934.03,920.4 976.25,949.13 1012.75,973.97 " fill="none" id="Biomedical-to-medical_devices" style="stroke:#181818;stroke-width:1.0;"/><polygon fill="#181818" points="1017.17,976.98,1011.9666,968.6179,1013.0319,974.1735,1007.4763,975.2389,1017.17,976.98" style="stroke:#181818;stroke-width:1.0;"/></g></g></svg>