<?xml version="1.0" encoding="UTF-8" standalone="no"?><svg xmlns="http://www.w3.org/2000/svg" xmlns:xlink="http://www.w3.org/1999/xlink" contentStyleType="text/css" height="960px" preserveAspectRatio="none" style="width:2005px;height:960px;background:#FFFFFF;" version="1.1" viewBox="0 0 2005 960" width="2005px" zoomAndPan="magnify"><defs/><g><!--MD5=[cde879ab447b042cc942523712f6004f]
class Fundamentals--><g id="elem_Fundamentals"><rect codeLine="4" fill="#F1F1F1" height="48" id="Fundamentals" rx="2.5" ry="2.5" style="stroke:#181818;stroke-width:0.5;" width="130" x="688.5" y="229"/><ellipse cx="703.5" cy="245" fill="#F1F1F1" rx="11" ry="11" style="stroke:#181818;stroke-width:1.0;"/><path d="M702.9844,245.5625 Q701.125,244.8594 700.4688,244.0938 Q699.8281,243.3125 699.8281,242 Q699.8281,240.3125 700.9063,239.3438 Q701.9844,238.375 703.8594,238.375 Q704.7188,238.375 705.5625,238.5781 Q706.4219,238.7656 707.2656,239.1563 L707.2656,241.5469 Q706.4844,240.9844 705.6563,240.7031 Q704.8438,240.4063 704.0469,240.4063 Q703.1719,240.4063 702.6875,240.7656 Q702.2188,241.125 702.2188,241.7813 Q702.2188,242.2969 702.5625,242.6406 Q702.9063,242.9688 704,243.375 L705.0625,243.7813 Q706.5469,244.3281 707.25,245.2344 Q707.9688,246.1406 707.9688,247.5156 Q707.9688,249.3906 706.8594,250.3125 Q705.75,251.2344 703.5,251.2344 Q702.5781,251.2344 701.6563,251.0156 Q700.7344,250.7969 699.875,250.375 L699.875,247.8438 Q700.8438,248.5313 701.7656,248.875 Q702.6875,249.2188 703.5781,249.2188 Q704.4844,249.2188 704.9844,248.8125 Q705.4844,248.3906 705.4844,247.6563 Q705.4844,247.0938 705.1406,246.6875 Q704.8125,246.2656 704.1875,246.0156 L702.9844,245.5625 Z " fill="#000000"/><text fill="#000000" font-family="sans-serif" font-size="14" lengthAdjust="spacing" textLength="98" x="717.5" y="249.8467">Fundamentals</text><line style="stroke:#181818;stroke-width:0.5;" x1="689.5" x2="817.5" y1="261" y2="261"/><line style="stroke:#181818;stroke-width:0.5;" x1="689.5" x2="817.5" y1="269" y2="269"/></g><!--MD5=[95fcf9f26be6eef34015cce5b5fce02b]
class data_algo--><g id="elem_data_algo"><rect codeLine="8" fill="#F1F1F1" height="162.0781" id="data_algo" rx="2.5" ry="2.5" style="stroke:#181818;stroke-width:0.5;" width="293" x="477" y="386"/><ellipse cx="513.15" cy="402" fill="#ADD1B2" rx="11" ry="11" style="stroke:#181818;stroke-width:1.0;"/><path d="M516.1188,407.6406 Q515.5406,407.9375 514.9,408.0781 Q514.2594,408.2344 513.5563,408.2344 Q511.0563,408.2344 509.7281,406.5938 Q508.4156,404.9375 508.4156,401.8125 Q508.4156,398.6875 509.7281,397.0313 Q511.0563,395.375 513.5563,395.375 Q514.2594,395.375 514.9,395.5313 Q515.5563,395.6875 516.1188,395.9844 L516.1188,398.7031 Q515.4938,398.125 514.9,397.8594 Q514.3063,397.5781 513.6813,397.5781 Q512.3375,397.5781 511.65,398.6563 Q510.9625,399.7188 510.9625,401.8125 Q510.9625,403.9063 511.65,404.9844 Q512.3375,406.0469 513.6813,406.0469 Q514.3063,406.0469 514.9,405.7813 Q515.4938,405.5 516.1188,404.9219 L516.1188,407.6406 Z " fill="#000000"/><text fill="#000000" font-family="sans-serif" font-size="14" lengthAdjust="spacing" textLength="214" x="531.85" y="406.8467">Data structures and Algorithms</text><line style="stroke:#181818;stroke-width:0.5;" x1="478" x2="769" y1="418" y2="418"/><ellipse cx="488" cy="439.7969" fill="none" rx="3" ry="3" style="stroke:#038048;stroke-width:1.0;"/><text fill="#000000" font-family="sans-serif" font-size="14" lengthAdjust="spacing" textLength="263" x="497" y="434.9951">Collections: Linked list, stack, queues,</text><text fill="#000000" font-family="sans-serif" font-size="14" lengthAdjust="spacing" textLength="4" x="497" y="451.292"> </text><text fill="#000000" font-family="sans-serif" font-size="14" lengthAdjust="spacing" textLength="220" x="497" y="467.5889">hash tables, heaps, binary trees</text><ellipse cx="488" cy="480.5391" fill="none" rx="3" ry="3" style="stroke:#038048;stroke-width:1.0;"/><text fill="#000000" font-family="sans-serif" font-size="14" lengthAdjust="spacing" textLength="68" x="497" y="483.8857">Interfaces</text><ellipse cx="488" cy="496.8359" fill="none" rx="3" ry="3" style="stroke:#038048;stroke-width:1.0;"/><text fill="#000000" font-family="sans-serif" font-size="14" lengthAdjust="spacing" textLength="65" x="497" y="500.1826">recursion</text><ellipse cx="488" cy="513.1328" fill="none" rx="3" ry="3" style="stroke:#038048;stroke-width:1.0;"/><text fill="#000000" font-family="sans-serif" font-size="14" lengthAdjust="spacing" textLength="49" x="497" y="516.4795">Sorting</text><ellipse cx="488" cy="529.4297" fill="none" rx="3" ry="3" style="stroke:#038048;stroke-width:1.0;"/><text fill="#000000" font-family="sans-serif" font-size="14" lengthAdjust="spacing" textLength="50" x="497" y="532.7764">Graphs</text><line style="stroke:#181818;stroke-width:0.5;" x1="478" x2="769" y1="540.0781" y2="540.0781"/></g><!--MD5=[d4dd7553ee4fc946ab868ca435bd290b]
class math--><g id="elem_math"><rect codeLine="17" fill="#F1F1F1" height="145.7813" id="math" rx="2.5" ry="2.5" style="stroke:#181818;stroke-width:0.5;" width="466" x="187.5" y="180"/><ellipse cx="372.25" cy="196" fill="#ADD1B2" rx="11" ry="11" style="stroke:#181818;stroke-width:1.0;"/><path d="M375.2188,201.6406 Q374.6406,201.9375 374,202.0781 Q373.3594,202.2344 372.6563,202.2344 Q370.1563,202.2344 368.8281,200.5938 Q367.5156,198.9375 367.5156,195.8125 Q367.5156,192.6875 368.8281,191.0313 Q370.1563,189.375 372.6563,189.375 Q373.3594,189.375 374,189.5313 Q374.6563,189.6875 375.2188,189.9844 L375.2188,192.7031 Q374.5938,192.125 374,191.8594 Q373.4063,191.5781 372.7813,191.5781 Q371.4375,191.5781 370.75,192.6563 Q370.0625,193.7188 370.0625,195.8125 Q370.0625,197.9063 370.75,198.9844 Q371.4375,200.0469 372.7813,200.0469 Q373.4063,200.0469 374,199.7813 Q374.5938,199.5 375.2188,198.9219 L375.2188,201.6406 Z " fill="#000000"/><text fill="#000000" font-family="sans-serif" font-size="14" lengthAdjust="spacing" textLength="88" x="392.75" y="200.8467">Mathematics</text><line style="stroke:#181818;stroke-width:0.5;" x1="188.5" x2="652.5" y1="212" y2="212"/><ellipse cx="198.5" cy="233.7969" fill="none" rx="3" ry="3" style="stroke:#038048;stroke-width:1.0;"/><text fill="#000000" font-family="sans-serif" font-size="14" lengthAdjust="spacing" textLength="436" x="207.5" y="228.9951">Linear Algebra: Factoring, Quadratic formula, Binomial Theorem,</text><text fill="#000000" font-family="sans-serif" font-size="14" lengthAdjust="spacing" textLength="4" x="207.5" y="245.292"> </text><text fill="#000000" font-family="sans-serif" font-size="14" lengthAdjust="spacing" textLength="82" x="207.5" y="261.5889">Inequalities.</text><ellipse cx="198.5" cy="274.5391" fill="none" rx="3" ry="3" style="stroke:#038048;stroke-width:1.0;"/><text fill="#000000" font-family="sans-serif" font-size="14" lengthAdjust="spacing" textLength="96" x="207.5" y="277.8857">Trigonometry.</text><ellipse cx="198.5" cy="290.8359" fill="none" rx="3" ry="3" style="stroke:#038048;stroke-width:1.0;"/><text fill="#000000" font-family="sans-serif" font-size="14" lengthAdjust="spacing" textLength="289" x="207.5" y="294.1826">Geometry: Distance formula, circles, lines,</text><ellipse cx="198.5" cy="307.1328" fill="none" rx="3" ry="3" style="stroke:#038048;stroke-width:1.0;"/><text fill="#000000" font-family="sans-serif" font-size="14" lengthAdjust="spacing" textLength="322" x="207.5" y="310.4795">Calculus: limits, functions, derivatives, integrals</text><line style="stroke:#181818;stroke-width:0.5;" x1="188.5" x2="652.5" y1="317.7813" y2="317.7813"/></g><!--MD5=[5662f07f23b655411764d98b0b3552de]
class digital_sys--><g id="elem_digital_sys"><rect codeLine="26" fill="#F1F1F1" height="145.7813" id="digital_sys" rx="2.5" ry="2.5" style="stroke:#181818;stroke-width:0.5;" width="500" x="853.5" y="180"/><ellipse cx="1046.75" cy="196" fill="#ADD1B2" rx="11" ry="11" style="stroke:#181818;stroke-width:1.0;"/><path d="M1049.7188,201.6406 Q1049.1406,201.9375 1048.5,202.0781 Q1047.8594,202.2344 1047.1563,202.2344 Q1044.6563,202.2344 1043.3281,200.5938 Q1042.0156,198.9375 1042.0156,195.8125 Q1042.0156,192.6875 1043.3281,191.0313 Q1044.6563,189.375 1047.1563,189.375 Q1047.8594,189.375 1048.5,189.5313 Q1049.1563,189.6875 1049.7188,189.9844 L1049.7188,192.7031 Q1049.0938,192.125 1048.5,191.8594 Q1047.9063,191.5781 1047.2813,191.5781 Q1045.9375,191.5781 1045.25,192.6563 Q1044.5625,193.7188 1044.5625,195.8125 Q1044.5625,197.9063 1045.25,198.9844 Q1045.9375,200.0469 1047.2813,200.0469 Q1047.9063,200.0469 1048.5,199.7813 Q1049.0938,199.5 1049.7188,198.9219 L1049.7188,201.6406 Z " fill="#000000"/><text fill="#000000" font-family="sans-serif" font-size="14" lengthAdjust="spacing" textLength="105" x="1067.25" y="200.8467">Digital Systems</text><line style="stroke:#181818;stroke-width:0.5;" x1="854.5" x2="1352.5" y1="212" y2="212"/><ellipse cx="864.5" cy="233.7969" fill="none" rx="3" ry="3" style="stroke:#038048;stroke-width:1.0;"/><text fill="#000000" font-family="sans-serif" font-size="14" lengthAdjust="spacing" textLength="447" x="873.5" y="228.9951">Continuous vs discrete systems: Analog vs digital, binary system,</text><text fill="#000000" font-family="sans-serif" font-size="14" lengthAdjust="spacing" textLength="4" x="873.5" y="245.292"> </text><text fill="#000000" font-family="sans-serif" font-size="14" lengthAdjust="spacing" textLength="432" x="873.5" y="261.5889">logic functions, boolean algebra digital waveform, data transfer,</text><text fill="#000000" font-family="sans-serif" font-size="14" lengthAdjust="spacing" textLength="4" x="873.5" y="277.8857"> </text><text fill="#000000" font-family="sans-serif" font-size="14" lengthAdjust="spacing" textLength="474" x="873.5" y="294.1826">combinational and sequential logic, memories, Finite state machines.</text><ellipse cx="864.5" cy="307.1328" fill="none" rx="3" ry="3" style="stroke:#038048;stroke-width:1.0;"/><text fill="#000000" font-family="sans-serif" font-size="14" lengthAdjust="spacing" textLength="322" x="873.5" y="310.4795">Build an 8bit computer on FPGA : memory, ALU</text><line style="stroke:#181818;stroke-width:0.5;" x1="854.5" x2="1352.5" y1="317.7813" y2="317.7813"/></g><!--MD5=[37c5ebfbdb78eee26551d187cc676e1c]
class control_sys--><g id="elem_control_sys"><rect codeLine="34" fill="#F1F1F1" height="64.2969" id="control_sys" rx="2.5" ry="2.5" style="stroke:#181818;stroke-width:0.5;" width="145" x="7" y="221"/><ellipse cx="22" cy="237" fill="#ADD1B2" rx="11" ry="11" style="stroke:#181818;stroke-width:1.0;"/><path d="M24.9688,242.6406 Q24.3906,242.9375 23.75,243.0781 Q23.1094,243.2344 22.4063,243.2344 Q19.9063,243.2344 18.5781,241.5938 Q17.2656,239.9375 17.2656,236.8125 Q17.2656,233.6875 18.5781,232.0313 Q19.9063,230.375 22.4063,230.375 Q23.1094,230.375 23.75,230.5313 Q24.4063,230.6875 24.9688,230.9844 L24.9688,233.7031 Q24.3438,233.125 23.75,232.8594 Q23.1563,232.5781 22.5313,232.5781 Q21.1875,232.5781 20.5,233.6563 Q19.8125,234.7188 19.8125,236.8125 Q19.8125,238.9063 20.5,239.9844 Q21.1875,241.0469 22.5313,241.0469 Q23.1563,241.0469 23.75,240.7813 Q24.3438,240.5 24.9688,239.9219 L24.9688,242.6406 Z " fill="#000000"/><text fill="#000000" font-family="sans-serif" font-size="14" lengthAdjust="spacing" textLength="113" x="36" y="241.8467">Control Systems</text><line style="stroke:#181818;stroke-width:0.5;" x1="8" x2="151" y1="253" y2="253"/><ellipse cx="18" cy="266.6484" fill="none" rx="3" ry="3" style="stroke:#038048;stroke-width:1.0;"/><text fill="#000000" font-family="sans-serif" font-size="14" lengthAdjust="spacing" textLength="98" x="27" y="269.9951">Fundamentals</text><line style="stroke:#181818;stroke-width:0.5;" x1="8" x2="151" y1="277.2969" y2="277.2969"/></g><!--MD5=[841da8a3cf140ff232746b4ae7422aea]
class comp_arch--><g id="elem_comp_arch"><rect codeLine="40" fill="#F1F1F1" height="80.5938" id="comp_arch" rx="2.5" ry="2.5" style="stroke:#181818;stroke-width:0.5;" width="189" x="1009" y="426.5"/><ellipse cx="1024" cy="442.5" fill="#ADD1B2" rx="11" ry="11" style="stroke:#181818;stroke-width:1.0;"/><path d="M1026.9688,448.1406 Q1026.3906,448.4375 1025.75,448.5781 Q1025.1094,448.7344 1024.4063,448.7344 Q1021.9063,448.7344 1020.5781,447.0938 Q1019.2656,445.4375 1019.2656,442.3125 Q1019.2656,439.1875 1020.5781,437.5313 Q1021.9063,435.875 1024.4063,435.875 Q1025.1094,435.875 1025.75,436.0313 Q1026.4063,436.1875 1026.9688,436.4844 L1026.9688,439.2031 Q1026.3438,438.625 1025.75,438.3594 Q1025.1563,438.0781 1024.5313,438.0781 Q1023.1875,438.0781 1022.5,439.1563 Q1021.8125,440.2188 1021.8125,442.3125 Q1021.8125,444.4063 1022.5,445.4844 Q1023.1875,446.5469 1024.5313,446.5469 Q1025.1563,446.5469 1025.75,446.2813 Q1026.3438,446 1026.9688,445.4219 L1026.9688,448.1406 Z " fill="#000000"/><text fill="#000000" font-family="sans-serif" font-size="14" lengthAdjust="spacing" textLength="157" x="1038" y="447.3467">Computer Architecture</text><line style="stroke:#181818;stroke-width:0.5;" x1="1010" x2="1197" y1="458.5" y2="458.5"/><line style="stroke:#181818;stroke-width:0.5;" x1="1010" x2="1197" y1="466.5" y2="466.5"/><ellipse cx="1020" cy="480.1484" fill="#84BE84" rx="3" ry="3" style="stroke:#038048;stroke-width:1.0;"/><text fill="#000000" font-family="sans-serif" font-size="14" lengthAdjust="spacing" textLength="114" x="1029" y="483.4951">Memory Layout()</text><ellipse cx="1020" cy="496.4453" fill="#84BE84" rx="3" ry="3" style="stroke:#038048;stroke-width:1.0;"/><text fill="#000000" font-family="sans-serif" font-size="14" lengthAdjust="spacing" textLength="31" x="1029" y="499.792">ISA()</text></g><!--MD5=[9938913ac0b9723d577c1bb4b693d11a]
class os--><g id="elem_os"><rect codeLine="45" fill="#F1F1F1" height="113.1875" id="os" rx="2.5" ry="2.5" style="stroke:#181818;stroke-width:0.5;" width="186" x="1388.5" y="196.5"/><ellipse cx="1413.85" cy="212.5" fill="#ADD1B2" rx="11" ry="11" style="stroke:#181818;stroke-width:1.0;"/><path d="M1416.8188,218.1406 Q1416.2406,218.4375 1415.6,218.5781 Q1414.9594,218.7344 1414.2563,218.7344 Q1411.7563,218.7344 1410.4281,217.0938 Q1409.1156,215.4375 1409.1156,212.3125 Q1409.1156,209.1875 1410.4281,207.5313 Q1411.7563,205.875 1414.2563,205.875 Q1414.9594,205.875 1415.6,206.0313 Q1416.2563,206.1875 1416.8188,206.4844 L1416.8188,209.2031 Q1416.1938,208.625 1415.6,208.3594 Q1415.0063,208.0781 1414.3813,208.0781 Q1413.0375,208.0781 1412.35,209.1563 Q1411.6625,210.2188 1411.6625,212.3125 Q1411.6625,214.4063 1412.35,215.4844 Q1413.0375,216.5469 1414.3813,216.5469 Q1415.0063,216.5469 1415.6,216.2813 Q1416.1938,216 1416.8188,215.4219 L1416.8188,218.1406 Z " fill="#000000"/><text fill="#000000" font-family="sans-serif" font-size="14" lengthAdjust="spacing" textLength="131" x="1430.15" y="217.3467">Operating Systems</text><line style="stroke:#181818;stroke-width:0.5;" x1="1389.5" x2="1573.5" y1="228.5" y2="228.5"/><ellipse cx="1399.5" cy="242.1484" fill="none" rx="3" ry="3" style="stroke:#038048;stroke-width:1.0;"/><text fill="#000000" font-family="sans-serif" font-size="14" lengthAdjust="spacing" textLength="160" x="1408.5" y="245.4951">Programming language</text><ellipse cx="1399.5" cy="258.4453" fill="none" rx="3" ry="3" style="stroke:#038048;stroke-width:1.0;"/><text fill="#000000" font-family="sans-serif" font-size="14" lengthAdjust="spacing" textLength="86" x="1408.5" y="261.792">concurrency</text><line style="stroke:#181818;stroke-width:0.5;" x1="1389.5" x2="1573.5" y1="269.0938" y2="269.0938"/><ellipse cx="1399.5" cy="282.7422" fill="#84BE84" rx="3" ry="3" style="stroke:#038048;stroke-width:1.0;"/><text fill="#000000" font-family="sans-serif" font-size="14" lengthAdjust="spacing" textLength="48" x="1408.5" y="286.0889">pipes()</text><ellipse cx="1399.5" cy="299.0391" fill="#84BE84" rx="3" ry="3" style="stroke:#038048;stroke-width:1.0;"/><text fill="#000000" font-family="sans-serif" font-size="14" lengthAdjust="spacing" textLength="153" x="1408.5" y="302.3857">process and threads()</text></g><!--MD5=[9b92be28fcc82b4724bebf169d1b270c]
class sys_int--><g id="elem_sys_int"><rect codeLine="53" fill="#F1F1F1" height="80.5938" id="sys_int" rx="2.5" ry="2.5" style="stroke:#181818;stroke-width:0.5;" width="155" x="1647" y="23"/><ellipse cx="1662" cy="39" fill="#ADD1B2" rx="11" ry="11" style="stroke:#181818;stroke-width:1.0;"/><path d="M1664.9688,44.6406 Q1664.3906,44.9375 1663.75,45.0781 Q1663.1094,45.2344 1662.4063,45.2344 Q1659.9063,45.2344 1658.5781,43.5938 Q1657.2656,41.9375 1657.2656,38.8125 Q1657.2656,35.6875 1658.5781,34.0313 Q1659.9063,32.375 1662.4063,32.375 Q1663.1094,32.375 1663.75,32.5313 Q1664.4063,32.6875 1664.9688,32.9844 L1664.9688,35.7031 Q1664.3438,35.125 1663.75,34.8594 Q1663.1563,34.5781 1662.5313,34.5781 Q1661.1875,34.5781 1660.5,35.6563 Q1659.8125,36.7188 1659.8125,38.8125 Q1659.8125,40.9063 1660.5,41.9844 Q1661.1875,43.0469 1662.5313,43.0469 Q1663.1563,43.0469 1663.75,42.7813 Q1664.3438,42.5 1664.9688,41.9219 L1664.9688,44.6406 Z " fill="#000000"/><text fill="#000000" font-family="sans-serif" font-size="14" lengthAdjust="spacing" textLength="123" x="1676" y="43.8467">System Interfaces</text><line style="stroke:#181818;stroke-width:0.5;" x1="1648" x2="1801" y1="55" y2="55"/><line style="stroke:#181818;stroke-width:0.5;" x1="1648" x2="1801" y1="63" y2="63"/><ellipse cx="1658" cy="76.6484" fill="#84BE84" rx="3" ry="3" style="stroke:#038048;stroke-width:1.0;"/><text fill="#000000" font-family="sans-serif" font-size="14" lengthAdjust="spacing" textLength="68" x="1667" y="79.9951">Register()</text><ellipse cx="1658" cy="92.9453" fill="#84BE84" rx="3" ry="3" style="stroke:#038048;stroke-width:1.0;"/><text fill="#000000" font-family="sans-serif" font-size="14" lengthAdjust="spacing" textLength="107" x="1667" y="96.292">Memory maps()</text></g><!--MD5=[19e7a66b79e3029c437977be7cd7140c]
class circuits--><g id="elem_circuits"><rect codeLine="58" fill="#F1F1F1" height="113.1875" id="circuits" rx="2.5" ry="2.5" style="stroke:#181818;stroke-width:0.5;" width="398" x="554.5" y="7"/><ellipse cx="723.75" cy="23" fill="#ADD1B2" rx="11" ry="11" style="stroke:#181818;stroke-width:1.0;"/><path d="M726.7188,28.6406 Q726.1406,28.9375 725.5,29.0781 Q724.8594,29.2344 724.1563,29.2344 Q721.6563,29.2344 720.3281,27.5938 Q719.0156,25.9375 719.0156,22.8125 Q719.0156,19.6875 720.3281,18.0313 Q721.6563,16.375 724.1563,16.375 Q724.8594,16.375 725.5,16.5313 Q726.1563,16.6875 726.7188,16.9844 L726.7188,19.7031 Q726.0938,19.125 725.5,18.8594 Q724.9063,18.5781 724.2813,18.5781 Q722.9375,18.5781 722.25,19.6563 Q721.5625,20.7188 721.5625,22.8125 Q721.5625,24.9063 722.25,25.9844 Q722.9375,27.0469 724.2813,27.0469 Q724.9063,27.0469 725.5,26.7813 Q726.0938,26.5 726.7188,25.9219 L726.7188,28.6406 Z " fill="#000000"/><text fill="#000000" font-family="sans-serif" font-size="14" lengthAdjust="spacing" textLength="51" x="744.25" y="27.8467">Circuits</text><line style="stroke:#181818;stroke-width:0.5;" x1="555.5" x2="951.5" y1="39" y2="39"/><ellipse cx="565.5" cy="60.7969" fill="none" rx="3" ry="3" style="stroke:#038048;stroke-width:1.0;"/><text fill="#000000" font-family="sans-serif" font-size="14" lengthAdjust="spacing" textLength="372" x="574.5" y="55.9951">Circuit analysis : current flow, voltage drop, capacitors,</text><text fill="#000000" font-family="sans-serif" font-size="14" lengthAdjust="spacing" textLength="4" x="574.5" y="72.292"> </text><text fill="#000000" font-family="sans-serif" font-size="14" lengthAdjust="spacing" textLength="201" x="574.5" y="88.5889">op-amps, diodes, transistors.</text><line style="stroke:#181818;stroke-width:0.5;" x1="555.5" x2="951.5" y1="95.8906" y2="95.8906"/><ellipse cx="565.5" cy="109.5391" fill="#84BE84" rx="3" ry="3" style="stroke:#038048;stroke-width:1.0;"/><text fill="#000000" font-family="sans-serif" font-size="14" lengthAdjust="spacing" textLength="360" x="574.5" y="112.8857">Sound system() : filters and amplifiers, power sypply.</text></g><!--MD5=[58a5b792d0a165e9e333eabc38b4cd9a]
class Tracks--><g id="elem_Tracks"><rect codeLine="73" fill="#F1F1F1" height="48" id="Tracks" rx="2.5" ry="2.5" style="stroke:#181818;stroke-width:0.5;" width="78" x="805.5" y="443"/><ellipse cx="820.5" cy="459" fill="#F1F1F1" rx="11" ry="11" style="stroke:#181818;stroke-width:1.0;"/><path d="M819.9844,459.5625 Q818.125,458.8594 817.4688,458.0938 Q816.8281,457.3125 816.8281,456 Q816.8281,454.3125 817.9063,453.3438 Q818.9844,452.375 820.8594,452.375 Q821.7188,452.375 822.5625,452.5781 Q823.4219,452.7656 824.2656,453.1563 L824.2656,455.5469 Q823.4844,454.9844 822.6563,454.7031 Q821.8438,454.4063 821.0469,454.4063 Q820.1719,454.4063 819.6875,454.7656 Q819.2188,455.125 819.2188,455.7813 Q819.2188,456.2969 819.5625,456.6406 Q819.9063,456.9688 821,457.375 L822.0625,457.7813 Q823.5469,458.3281 824.25,459.2344 Q824.9688,460.1406 824.9688,461.5156 Q824.9688,463.3906 823.8594,464.3125 Q822.75,465.2344 820.5,465.2344 Q819.5781,465.2344 818.6563,465.0156 Q817.7344,464.7969 816.875,464.375 L816.875,461.8438 Q817.8438,462.5313 818.7656,462.875 Q819.6875,463.2188 820.5781,463.2188 Q821.4844,463.2188 821.9844,462.8125 Q822.4844,462.3906 822.4844,461.6563 Q822.4844,461.0938 822.1406,460.6875 Q821.8125,460.2656 821.1875,460.0156 L819.9844,459.5625 Z " fill="#000000"/><text fill="#000000" font-family="sans-serif" font-size="14" lengthAdjust="spacing" textLength="46" x="834.5" y="463.8467">Tracks</text><line style="stroke:#181818;stroke-width:0.5;" x1="806.5" x2="882.5" y1="475" y2="475"/><line style="stroke:#181818;stroke-width:0.5;" x1="806.5" x2="882.5" y1="483" y2="483"/></g><!--MD5=[cc87baed032be68acb8ffcaec3df4de7]
class compiler--><g id="elem_compiler"><rect codeLine="78" fill="#F1F1F1" height="64.2969" id="compiler" rx="2.5" ry="2.5" style="stroke:#181818;stroke-width:0.5;" width="112" x="1837.5" y="31.5"/><ellipse cx="1861.05" cy="47.5" fill="#ADD1B2" rx="11" ry="11" style="stroke:#181818;stroke-width:1.0;"/><path d="M1864.0188,53.1406 Q1863.4406,53.4375 1862.8,53.5781 Q1862.1594,53.7344 1861.4563,53.7344 Q1858.9563,53.7344 1857.6281,52.0938 Q1856.3156,50.4375 1856.3156,47.3125 Q1856.3156,44.1875 1857.6281,42.5313 Q1858.9563,40.875 1861.4563,40.875 Q1862.1594,40.875 1862.8,41.0313 Q1863.4563,41.1875 1864.0188,41.4844 L1864.0188,44.2031 Q1863.3938,43.625 1862.8,43.3594 Q1862.2063,43.0781 1861.5813,43.0781 Q1860.2375,43.0781 1859.55,44.1563 Q1858.8625,45.2188 1858.8625,47.3125 Q1858.8625,49.4063 1859.55,50.4844 Q1860.2375,51.5469 1861.5813,51.5469 Q1862.2063,51.5469 1862.8,51.2813 Q1863.3938,51 1864.0188,50.4219 L1864.0188,53.1406 Z " fill="#000000"/><text fill="#000000" font-family="sans-serif" font-size="14" lengthAdjust="spacing" textLength="61" x="1876.95" y="52.3467">Compiler</text><line style="stroke:#181818;stroke-width:0.5;" x1="1838.5" x2="1948.5" y1="63.5" y2="63.5"/><line style="stroke:#181818;stroke-width:0.5;" x1="1838.5" x2="1948.5" y1="71.5" y2="71.5"/><ellipse cx="1848.5" cy="85.1484" fill="#84BE84" rx="3" ry="3" style="stroke:#038048;stroke-width:1.0;"/><text fill="#000000" font-family="sans-serif" font-size="14" lengthAdjust="spacing" textLength="86" x="1857.5" y="88.4951">Bootloader()</text></g><!--MD5=[f33d155e3c60ec1f824818ad01704336]
class hw_emulator--><g id="elem_hw_emulator"><rect codeLine="83" fill="#F1F1F1" height="64.2969" id="hw_emulator" rx="2.5" ry="2.5" style="stroke:#181818;stroke-width:0.5;" width="230" x="1609.5" y="221"/><ellipse cx="1651.5" cy="237" fill="#ADD1B2" rx="11" ry="11" style="stroke:#181818;stroke-width:1.0;"/><path d="M1654.4688,242.6406 Q1653.8906,242.9375 1653.25,243.0781 Q1652.6094,243.2344 1651.9063,243.2344 Q1649.4063,243.2344 1648.0781,241.5938 Q1646.7656,239.9375 1646.7656,236.8125 Q1646.7656,233.6875 1648.0781,232.0313 Q1649.4063,230.375 1651.9063,230.375 Q1652.6094,230.375 1653.25,230.5313 Q1653.9063,230.6875 1654.4688,230.9844 L1654.4688,233.7031 Q1653.8438,233.125 1653.25,232.8594 Q1652.6563,232.5781 1652.0313,232.5781 Q1650.6875,232.5781 1650,233.6563 Q1649.3125,234.7188 1649.3125,236.8125 Q1649.3125,238.9063 1650,239.9844 Q1650.6875,241.0469 1652.0313,241.0469 Q1652.6563,241.0469 1653.25,240.7813 Q1653.8438,240.5 1654.4688,239.9219 L1654.4688,242.6406 Z " fill="#000000"/><text fill="#000000" font-family="sans-serif" font-size="14" lengthAdjust="spacing" textLength="138" x="1671.5" y="241.8467">Hardware emulators</text><line style="stroke:#181818;stroke-width:0.5;" x1="1610.5" x2="1838.5" y1="253" y2="253"/><ellipse cx="1620.5" cy="266.6484" fill="none" rx="3" ry="3" style="stroke:#038048;stroke-width:1.0;"/><text fill="#000000" font-family="sans-serif" font-size="14" lengthAdjust="spacing" textLength="204" x="1629.5" y="269.9951">Fundamentals : NES emulator</text><line style="stroke:#181818;stroke-width:0.5;" x1="1610.5" x2="1838.5" y1="277.2969" y2="277.2969"/></g><!--MD5=[a2b67d7abd3597ae0a281a8ccfb2556f]
class topic--><g id="elem_topic"><rect codeLine="89" fill="#F1F1F1" height="64.2969" id="topic" rx="2.5" ry="2.5" style="stroke:#181818;stroke-width:0.5;" width="124" x="1874.5" y="221"/><ellipse cx="1913.8" cy="237" fill="#ADD1B2" rx="11" ry="11" style="stroke:#181818;stroke-width:1.0;"/><path d="M1916.7688,242.6406 Q1916.1906,242.9375 1915.55,243.0781 Q1914.9094,243.2344 1914.2063,243.2344 Q1911.7063,243.2344 1910.3781,241.5938 Q1909.0656,239.9375 1909.0656,236.8125 Q1909.0656,233.6875 1910.3781,232.0313 Q1911.7063,230.375 1914.2063,230.375 Q1914.9094,230.375 1915.55,230.5313 Q1916.2063,230.6875 1916.7688,230.9844 L1916.7688,233.7031 Q1916.1438,233.125 1915.55,232.8594 Q1914.9563,232.5781 1914.3313,232.5781 Q1912.9875,232.5781 1912.3,233.6563 Q1911.6125,234.7188 1911.6125,236.8125 Q1911.6125,238.9063 1912.3,239.9844 Q1912.9875,241.0469 1914.3313,241.0469 Q1914.9563,241.0469 1915.55,240.7813 Q1916.1438,240.5 1916.7688,239.9219 L1916.7688,242.6406 Z " fill="#000000"/><text fill="#000000" font-family="sans-serif" font-size="14" lengthAdjust="spacing" textLength="34" x="1933.2" y="241.8467">topic</text><line style="stroke:#181818;stroke-width:0.5;" x1="1875.5" x2="1997.5" y1="253" y2="253"/><ellipse cx="1885.5" cy="266.6484" fill="none" rx="3" ry="3" style="stroke:#038048;stroke-width:1.0;"/><text fill="#000000" font-family="sans-serif" font-size="14" lengthAdjust="spacing" textLength="98" x="1894.5" y="269.9951">Fundamentals</text><line style="stroke:#181818;stroke-width:0.5;" x1="1875.5" x2="1997.5" y1="277.2969" y2="277.2969"/></g><!--MD5=[a0edccbbeaf32f3fb0cce75ced62db95]
class Industries--><g id="elem_Industries"><rect codeLine="96" fill="#F1F1F1" height="48" id="Industries" rx="2.5" ry="2.5" style="stroke:#181818;stroke-width:0.5;" width="100" x="794.5" y="608"/><ellipse cx="809.5" cy="624" fill="#F1F1F1" rx="11" ry="11" style="stroke:#181818;stroke-width:1.0;"/><path d="M808.9844,624.5625 Q807.125,623.8594 806.4688,623.0938 Q805.8281,622.3125 805.8281,621 Q805.8281,619.3125 806.9063,618.3438 Q807.9844,617.375 809.8594,617.375 Q810.7188,617.375 811.5625,617.5781 Q812.4219,617.7656 813.2656,618.1563 L813.2656,620.5469 Q812.4844,619.9844 811.6563,619.7031 Q810.8438,619.4063 810.0469,619.4063 Q809.1719,619.4063 808.6875,619.7656 Q808.2188,620.125 808.2188,620.7813 Q808.2188,621.2969 808.5625,621.6406 Q808.9063,621.9688 810,622.375 L811.0625,622.7813 Q812.5469,623.3281 813.25,624.2344 Q813.9688,625.1406 813.9688,626.5156 Q813.9688,628.3906 812.8594,629.3125 Q811.75,630.2344 809.5,630.2344 Q808.5781,630.2344 807.6563,630.0156 Q806.7344,629.7969 805.875,629.375 L805.875,626.8438 Q806.8438,627.5313 807.7656,627.875 Q808.6875,628.2188 809.5781,628.2188 Q810.4844,628.2188 810.9844,627.8125 Q811.4844,627.3906 811.4844,626.6563 Q811.4844,626.0938 811.1406,625.6875 Q810.8125,625.2656 810.1875,625.0156 L808.9844,624.5625 Z " fill="#000000"/><text fill="#000000" font-family="sans-serif" font-size="14" lengthAdjust="spacing" textLength="68" x="823.5" y="628.8467">Industries</text><line style="stroke:#181818;stroke-width:0.5;" x1="795.5" x2="893.5" y1="640" y2="640"/><line style="stroke:#181818;stroke-width:0.5;" x1="795.5" x2="893.5" y1="648" y2="648"/></g><!--MD5=[45e6db43baa2f5433acd553fd7048985]
class Automotive--><g id="elem_Automotive"><rect codeLine="102" fill="#F1F1F1" height="80.5938" id="Automotive" rx="2.5" ry="2.5" style="stroke:#181818;stroke-width:0.5;" width="110" x="370.5" y="716"/><ellipse cx="385.5" cy="732" fill="#F1F1F1" rx="11" ry="11" style="stroke:#181818;stroke-width:1.0;"/><path d="M384.9844,732.5625 Q383.125,731.8594 382.4688,731.0938 Q381.8281,730.3125 381.8281,729 Q381.8281,727.3125 382.9063,726.3438 Q383.9844,725.375 385.8594,725.375 Q386.7188,725.375 387.5625,725.5781 Q388.4219,725.7656 389.2656,726.1563 L389.2656,728.5469 Q388.4844,727.9844 387.6563,727.7031 Q386.8438,727.4063 386.0469,727.4063 Q385.1719,727.4063 384.6875,727.7656 Q384.2188,728.125 384.2188,728.7813 Q384.2188,729.2969 384.5625,729.6406 Q384.9063,729.9688 386,730.375 L387.0625,730.7813 Q388.5469,731.3281 389.25,732.2344 Q389.9688,733.1406 389.9688,734.5156 Q389.9688,736.3906 388.8594,737.3125 Q387.75,738.2344 385.5,738.2344 Q384.5781,738.2344 383.6563,738.0156 Q382.7344,737.7969 381.875,737.375 L381.875,734.8438 Q382.8438,735.5313 383.7656,735.875 Q384.6875,736.2188 385.5781,736.2188 Q386.4844,736.2188 386.9844,735.8125 Q387.4844,735.3906 387.4844,734.6563 Q387.4844,734.0938 387.1406,733.6875 Q386.8125,733.2656 386.1875,733.0156 L384.9844,732.5625 Z " fill="#000000"/><text fill="#000000" font-family="sans-serif" font-size="14" lengthAdjust="spacing" textLength="78" x="399.5" y="736.8467">Automotive</text><line style="stroke:#181818;stroke-width:0.5;" x1="371.5" x2="479.5" y1="748" y2="748"/><ellipse cx="381.5" cy="761.6484" fill="none" rx="3" ry="3" style="stroke:#038048;stroke-width:1.0;"/><text fill="#000000" font-family="sans-serif" font-size="14" lengthAdjust="spacing" textLength="43" x="390.5" y="764.9951">MISRA</text><ellipse cx="381.5" cy="777.9453" fill="none" rx="3" ry="3" style="stroke:#038048;stroke-width:1.0;"/><text fill="#000000" font-family="sans-serif" font-size="14" lengthAdjust="spacing" textLength="29" x="390.5" y="781.292">CAN</text><line style="stroke:#181818;stroke-width:0.5;" x1="371.5" x2="479.5" y1="788.5938" y2="788.5938"/></g><!--MD5=[4ec69182b6251e906d721d4a4277d128]
class gateways--><g id="elem_gateways"><rect codeLine="110" fill="#F1F1F1" height="48" id="gateways" rx="2.5" ry="2.5" style="stroke:#181818;stroke-width:0.5;" width="99" x="156" y="881.5"/><ellipse cx="171" cy="897.5" fill="#ADD1B2" rx="11" ry="11" style="stroke:#181818;stroke-width:1.0;"/><path d="M173.9688,903.1406 Q173.3906,903.4375 172.75,903.5781 Q172.1094,903.7344 171.4063,903.7344 Q168.9063,903.7344 167.5781,902.0938 Q166.2656,900.4375 166.2656,897.3125 Q166.2656,894.1875 167.5781,892.5313 Q168.9063,890.875 171.4063,890.875 Q172.1094,890.875 172.75,891.0313 Q173.4063,891.1875 173.9688,891.4844 L173.9688,894.2031 Q173.3438,893.625 172.75,893.3594 Q172.1563,893.0781 171.5313,893.0781 Q170.1875,893.0781 169.5,894.1563 Q168.8125,895.2188 168.8125,897.3125 Q168.8125,899.4063 169.5,900.4844 Q170.1875,901.5469 171.5313,901.5469 Q172.1563,901.5469 172.75,901.2813 Q173.3438,901 173.9688,900.4219 L173.9688,903.1406 Z " fill="#000000"/><text fill="#000000" font-family="sans-serif" font-size="14" lengthAdjust="spacing" textLength="67" x="185" y="902.3467">Gateways</text><line style="stroke:#181818;stroke-width:0.5;" x1="157" x2="254" y1="913.5" y2="913.5"/><line style="stroke:#181818;stroke-width:0.5;" x1="157" x2="254" y1="921.5" y2="921.5"/></g><!--MD5=[615c2ccd1649c3c43f8cbd5a4d37cf1e]
class infotaiment--><g id="elem_infotaiment"><rect codeLine="113" fill="#F1F1F1" height="48" id="infotaiment" rx="2.5" ry="2.5" style="stroke:#181818;stroke-width:0.5;" width="109" x="290" y="881.5"/><ellipse cx="305" cy="897.5" fill="#ADD1B2" rx="11" ry="11" style="stroke:#181818;stroke-width:1.0;"/><path d="M307.9688,903.1406 Q307.3906,903.4375 306.75,903.5781 Q306.1094,903.7344 305.4063,903.7344 Q302.9063,903.7344 301.5781,902.0938 Q300.2656,900.4375 300.2656,897.3125 Q300.2656,894.1875 301.5781,892.5313 Q302.9063,890.875 305.4063,890.875 Q306.1094,890.875 306.75,891.0313 Q307.4063,891.1875 307.9688,891.4844 L307.9688,894.2031 Q307.3438,893.625 306.75,893.3594 Q306.1563,893.0781 305.5313,893.0781 Q304.1875,893.0781 303.5,894.1563 Q302.8125,895.2188 302.8125,897.3125 Q302.8125,899.4063 303.5,900.4844 Q304.1875,901.5469 305.5313,901.5469 Q306.1563,901.5469 306.75,901.2813 Q307.3438,901 307.9688,900.4219 L307.9688,903.1406 Z " fill="#000000"/><text fill="#000000" font-family="sans-serif" font-size="14" lengthAdjust="spacing" textLength="77" x="319" y="902.3467">Infotaiment</text><line style="stroke:#181818;stroke-width:0.5;" x1="291" x2="398" y1="913.5" y2="913.5"/><line style="stroke:#181818;stroke-width:0.5;" x1="291" x2="398" y1="921.5" y2="921.5"/></g><!--MD5=[80f4c98420784c84293eea48cb1f84e2]
class driver_assistance--><g id="elem_driver_assistance"><rect codeLine="116" fill="#F1F1F1" height="48" id="driver_assistance" rx="2.5" ry="2.5" style="stroke:#181818;stroke-width:0.5;" width="143" x="434" y="881.5"/><ellipse cx="449" cy="897.5" fill="#ADD1B2" rx="11" ry="11" style="stroke:#181818;stroke-width:1.0;"/><path d="M451.9688,903.1406 Q451.3906,903.4375 450.75,903.5781 Q450.1094,903.7344 449.4063,903.7344 Q446.9063,903.7344 445.5781,902.0938 Q444.2656,900.4375 444.2656,897.3125 Q444.2656,894.1875 445.5781,892.5313 Q446.9063,890.875 449.4063,890.875 Q450.1094,890.875 450.75,891.0313 Q451.4063,891.1875 451.9688,891.4844 L451.9688,894.2031 Q451.3438,893.625 450.75,893.3594 Q450.1563,893.0781 449.5313,893.0781 Q448.1875,893.0781 447.5,894.1563 Q446.8125,895.2188 446.8125,897.3125 Q446.8125,899.4063 447.5,900.4844 Q448.1875,901.5469 449.5313,901.5469 Q450.1563,901.5469 450.75,901.2813 Q451.3438,901 451.9688,900.4219 L451.9688,903.1406 Z " fill="#000000"/><text fill="#000000" font-family="sans-serif" font-size="14" lengthAdjust="spacing" textLength="111" x="463" y="902.3467">Driver Asistance</text><line style="stroke:#181818;stroke-width:0.5;" x1="435" x2="576" y1="913.5" y2="913.5"/><line style="stroke:#181818;stroke-width:0.5;" x1="435" x2="576" y1="921.5" y2="921.5"/></g><!--MD5=[5d2282d317d42898064fa1f748faad5d]
class Aerospace--><g id="elem_Aerospace"><rect codeLine="120" fill="#F1F1F1" height="48" id="Aerospace" rx="2.5" ry="2.5" style="stroke:#181818;stroke-width:0.5;" width="106" x="649.5" y="732.5"/><ellipse cx="664.5" cy="748.5" fill="#F1F1F1" rx="11" ry="11" style="stroke:#181818;stroke-width:1.0;"/><path d="M663.9844,749.0625 Q662.125,748.3594 661.4688,747.5938 Q660.8281,746.8125 660.8281,745.5 Q660.8281,743.8125 661.9063,742.8438 Q662.9844,741.875 664.8594,741.875 Q665.7188,741.875 666.5625,742.0781 Q667.4219,742.2656 668.2656,742.6563 L668.2656,745.0469 Q667.4844,744.4844 666.6563,744.2031 Q665.8438,743.9063 665.0469,743.9063 Q664.1719,743.9063 663.6875,744.2656 Q663.2188,744.625 663.2188,745.2813 Q663.2188,745.7969 663.5625,746.1406 Q663.9063,746.4688 665,746.875 L666.0625,747.2813 Q667.5469,747.8281 668.25,748.7344 Q668.9688,749.6406 668.9688,751.0156 Q668.9688,752.8906 667.8594,753.8125 Q666.75,754.7344 664.5,754.7344 Q663.5781,754.7344 662.6563,754.5156 Q661.7344,754.2969 660.875,753.875 L660.875,751.3438 Q661.8438,752.0313 662.7656,752.375 Q663.6875,752.7188 664.5781,752.7188 Q665.4844,752.7188 665.9844,752.3125 Q666.4844,751.8906 666.4844,751.1563 Q666.4844,750.5938 666.1406,750.1875 Q665.8125,749.7656 665.1875,749.5156 L663.9844,749.0625 Z " fill="#000000"/><text fill="#000000" font-family="sans-serif" font-size="14" lengthAdjust="spacing" textLength="74" x="678.5" y="753.3467">Aerospace</text><line style="stroke:#181818;stroke-width:0.5;" x1="650.5" x2="754.5" y1="764.5" y2="764.5"/><line style="stroke:#181818;stroke-width:0.5;" x1="650.5" x2="754.5" y1="772.5" y2="772.5"/></g><!--MD5=[f9fa48aebf6b560a9768116d09d00838]
class coordinated_systems--><g id="elem_coordinated_systems"><rect codeLine="126" fill="#F1F1F1" height="48" id="coordinated_systems" rx="2.5" ry="2.5" style="stroke:#181818;stroke-width:0.5;" width="180" x="612.5" y="881.5"/><ellipse cx="627.5" cy="897.5" fill="#ADD1B2" rx="11" ry="11" style="stroke:#181818;stroke-width:1.0;"/><path d="M630.4688,903.1406 Q629.8906,903.4375 629.25,903.5781 Q628.6094,903.7344 627.9063,903.7344 Q625.4063,903.7344 624.0781,902.0938 Q622.7656,900.4375 622.7656,897.3125 Q622.7656,894.1875 624.0781,892.5313 Q625.4063,890.875 627.9063,890.875 Q628.6094,890.875 629.25,891.0313 Q629.9063,891.1875 630.4688,891.4844 L630.4688,894.2031 Q629.8438,893.625 629.25,893.3594 Q628.6563,893.0781 628.0313,893.0781 Q626.6875,893.0781 626,894.1563 Q625.3125,895.2188 625.3125,897.3125 Q625.3125,899.4063 626,900.4844 Q626.6875,901.5469 628.0313,901.5469 Q628.6563,901.5469 629.25,901.2813 Q629.8438,901 630.4688,900.4219 L630.4688,903.1406 Z " fill="#000000"/><text fill="#000000" font-family="sans-serif" font-size="14" lengthAdjust="spacing" textLength="148" x="641.5" y="902.3467">Coordinated Systems</text><line style="stroke:#181818;stroke-width:0.5;" x1="613.5" x2="791.5" y1="913.5" y2="913.5"/><line style="stroke:#181818;stroke-width:0.5;" x1="613.5" x2="791.5" y1="921.5" y2="921.5"/></g><!--MD5=[fc45f521f025cc9bae87f02ab4809ed2]
class Biomedical--><g id="elem_Biomedical"><rect codeLine="130" fill="#F1F1F1" height="48" id="Biomedical" rx="2.5" ry="2.5" style="stroke:#181818;stroke-width:0.5;" width="107" x="791" y="732.5"/><ellipse cx="806" cy="748.5" fill="#F1F1F1" rx="11" ry="11" style="stroke:#181818;stroke-width:1.0;"/><path d="M805.4844,749.0625 Q803.625,748.3594 802.9688,747.5938 Q802.3281,746.8125 802.3281,745.5 Q802.3281,743.8125 803.4063,742.8438 Q804.4844,741.875 806.3594,741.875 Q807.2188,741.875 808.0625,742.0781 Q808.9219,742.2656 809.7656,742.6563 L809.7656,745.0469 Q808.9844,744.4844 808.1563,744.2031 Q807.3438,743.9063 806.5469,743.9063 Q805.6719,743.9063 805.1875,744.2656 Q804.7188,744.625 804.7188,745.2813 Q804.7188,745.7969 805.0625,746.1406 Q805.4063,746.4688 806.5,746.875 L807.5625,747.2813 Q809.0469,747.8281 809.75,748.7344 Q810.4688,749.6406 810.4688,751.0156 Q810.4688,752.8906 809.3594,753.8125 Q808.25,754.7344 806,754.7344 Q805.0781,754.7344 804.1563,754.5156 Q803.2344,754.2969 802.375,753.875 L802.375,751.3438 Q803.3438,752.0313 804.2656,752.375 Q805.1875,752.7188 806.0781,752.7188 Q806.9844,752.7188 807.4844,752.3125 Q807.9844,751.8906 807.9844,751.1563 Q807.9844,750.5938 807.6406,750.1875 Q807.3125,749.7656 806.6875,749.5156 L805.4844,749.0625 Z " fill="#000000"/><text fill="#000000" font-family="sans-serif" font-size="14" lengthAdjust="spacing" textLength="75" x="820" y="753.3467">Biomedical</text><line style="stroke:#181818;stroke-width:0.5;" x1="792" x2="897" y1="764.5" y2="764.5"/><line style="stroke:#181818;stroke-width:0.5;" x1="792" x2="897" y1="772.5" y2="772.5"/></g><!--MD5=[08f55119b864267fb31cf866dfc0b8ac]
class medical_devices--><g id="elem_medical_devices"><rect codeLine="136" fill="#F1F1F1" height="96.8906" id="medical_devices" rx="2.5" ry="2.5" style="stroke:#181818;stroke-width:0.5;" width="465" x="828" y="857"/><ellipse cx="979.75" cy="873" fill="#ADD1B2" rx="11" ry="11" style="stroke:#181818;stroke-width:1.0;"/><path d="M982.7188,878.6406 Q982.1406,878.9375 981.5,879.0781 Q980.8594,879.2344 980.1563,879.2344 Q977.6563,879.2344 976.3281,877.5938 Q975.0156,875.9375 975.0156,872.8125 Q975.0156,869.6875 976.3281,868.0313 Q977.6563,866.375 980.1563,866.375 Q980.8594,866.375 981.5,866.5313 Q982.1563,866.6875 982.7188,866.9844 L982.7188,869.7031 Q982.0938,869.125 981.5,868.8594 Q980.9063,868.5781 980.2813,868.5781 Q978.9375,868.5781 978.25,869.6563 Q977.5625,870.7188 977.5625,872.8125 Q977.5625,874.9063 978.25,875.9844 Q978.9375,877.0469 980.2813,877.0469 Q980.9063,877.0469 981.5,876.7813 Q982.0938,876.5 982.7188,875.9219 L982.7188,878.6406 Z " fill="#000000"/><text fill="#000000" font-family="sans-serif" font-size="14" lengthAdjust="spacing" textLength="153" x="1000.25" y="877.8467">Medical grade devices</text><line style="stroke:#181818;stroke-width:0.5;" x1="829" x2="1292" y1="889" y2="889"/><ellipse cx="839" cy="902.6484" fill="none" rx="3" ry="3" style="stroke:#038048;stroke-width:1.0;"/><text fill="#000000" font-family="sans-serif" font-size="14" lengthAdjust="spacing" textLength="92" x="848" y="905.9951">X-ray imaging</text><ellipse cx="839" cy="918.9453" fill="none" rx="3" ry="3" style="stroke:#038048;stroke-width:1.0;"/><text fill="#000000" font-family="sans-serif" font-size="14" lengthAdjust="spacing" textLength="99" x="848" y="922.292">Wearable tech</text><line style="stroke:#181818;stroke-width:0.5;" x1="829" x2="1292" y1="929.5938" y2="929.5938"/><ellipse cx="839" cy="943.2422" fill="#84BE84" rx="3" ry="3" style="stroke:#038048;stroke-width:1.0;"/><text fill="#000000" font-family="sans-serif" font-size="14" lengthAdjust="spacing" textLength="439" x="848" y="946.5889">QNX() : create a medical grade device with real time constraints.</text></g><!--MD5=[65a89217e9d85fd38eff4ada9c8f3317]
class Consumer_Electronics--><g id="elem_Consumer_Electronics"><rect codeLine="144" fill="#F1F1F1" height="64.2969" id="Consumer_Electronics" rx="2.5" ry="2.5" style="stroke:#181818;stroke-width:0.5;" width="184" x="933.5" y="724.5"/><ellipse cx="948.5" cy="740.5" fill="#F1F1F1" rx="11" ry="11" style="stroke:#181818;stroke-width:1.0;"/><path d="M947.9844,741.0625 Q946.125,740.3594 945.4688,739.5938 Q944.8281,738.8125 944.8281,737.5 Q944.8281,735.8125 945.9063,734.8438 Q946.9844,733.875 948.8594,733.875 Q949.7188,733.875 950.5625,734.0781 Q951.4219,734.2656 952.2656,734.6563 L952.2656,737.0469 Q951.4844,736.4844 950.6563,736.2031 Q949.8438,735.9063 949.0469,735.9063 Q948.1719,735.9063 947.6875,736.2656 Q947.2188,736.625 947.2188,737.2813 Q947.2188,737.7969 947.5625,738.1406 Q947.9063,738.4688 949,738.875 L950.0625,739.2813 Q951.5469,739.8281 952.25,740.7344 Q952.9688,741.6406 952.9688,743.0156 Q952.9688,744.8906 951.8594,745.8125 Q950.75,746.7344 948.5,746.7344 Q947.5781,746.7344 946.6563,746.5156 Q945.7344,746.2969 944.875,745.875 L944.875,743.3438 Q945.8438,744.0313 946.7656,744.375 Q947.6875,744.7188 948.5781,744.7188 Q949.4844,744.7188 949.9844,744.3125 Q950.4844,743.8906 950.4844,743.1563 Q950.4844,742.5938 950.1406,742.1875 Q949.8125,741.7656 949.1875,741.5156 L947.9844,741.0625 Z " fill="#000000"/><text fill="#000000" font-family="sans-serif" font-size="14" lengthAdjust="spacing" textLength="152" x="962.5" y="745.3467">Consumer Electronics</text><line style="stroke:#181818;stroke-width:0.5;" x1="934.5" x2="1116.5" y1="756.5" y2="756.5"/><ellipse cx="944.5" cy="770.1484" fill="none" rx="3" ry="3" style="stroke:#038048;stroke-width:1.0;"/><text fill="#000000" font-family="sans-serif" font-size="14" lengthAdjust="spacing" textLength="119" x="953.5" y="773.4951">Home appliances</text><line style="stroke:#181818;stroke-width:0.5;" x1="934.5" x2="1116.5" y1="780.7969" y2="780.7969"/></g><!--MD5=[fca3bd940cfa43daf701fb146735ea0c]
class Communications--><g id="elem_Communications"><rect codeLine="148" fill="#F1F1F1" height="64.2969" id="Communications" rx="2.5" ry="2.5" style="stroke:#181818;stroke-width:0.5;" width="148" x="1152.5" y="724.5"/><ellipse cx="1167.5" cy="740.5" fill="#F1F1F1" rx="11" ry="11" style="stroke:#181818;stroke-width:1.0;"/><path d="M1166.9844,741.0625 Q1165.125,740.3594 1164.4688,739.5938 Q1163.8281,738.8125 1163.8281,737.5 Q1163.8281,735.8125 1164.9063,734.8438 Q1165.9844,733.875 1167.8594,733.875 Q1168.7188,733.875 1169.5625,734.0781 Q1170.4219,734.2656 1171.2656,734.6563 L1171.2656,737.0469 Q1170.4844,736.4844 1169.6563,736.2031 Q1168.8438,735.9063 1168.0469,735.9063 Q1167.1719,735.9063 1166.6875,736.2656 Q1166.2188,736.625 1166.2188,737.2813 Q1166.2188,737.7969 1166.5625,738.1406 Q1166.9063,738.4688 1168,738.875 L1169.0625,739.2813 Q1170.5469,739.8281 1171.25,740.7344 Q1171.9688,741.6406 1171.9688,743.0156 Q1171.9688,744.8906 1170.8594,745.8125 Q1169.75,746.7344 1167.5,746.7344 Q1166.5781,746.7344 1165.6563,746.5156 Q1164.7344,746.2969 1163.875,745.875 L1163.875,743.3438 Q1164.8438,744.0313 1165.7656,744.375 Q1166.6875,744.7188 1167.5781,744.7188 Q1168.4844,744.7188 1168.9844,744.3125 Q1169.4844,743.8906 1169.4844,743.1563 Q1169.4844,742.5938 1169.1406,742.1875 Q1168.8125,741.7656 1168.1875,741.5156 L1166.9844,741.0625 Z " fill="#000000"/><text fill="#000000" font-family="sans-serif" font-size="14" lengthAdjust="spacing" textLength="116" x="1181.5" y="745.3467">Communications</text><line style="stroke:#181818;stroke-width:0.5;" x1="1153.5" x2="1299.5" y1="756.5" y2="756.5"/><ellipse cx="1163.5" cy="770.1484" fill="none" rx="3" ry="3" style="stroke:#038048;stroke-width:1.0;"/><text fill="#000000" font-family="sans-serif" font-size="14" lengthAdjust="spacing" textLength="18" x="1172.5" y="773.4951">RF</text><line style="stroke:#181818;stroke-width:0.5;" x1="1153.5" x2="1299.5" y1="780.7969" y2="780.7969"/></g><!--MD5=[a6e69ebde752962da01903e5afde084a]
reverse link circuits to Fundamentals--><g id="link_circuits_Fundamentals"><path codeLine="64" d="M753.5,125.1 C753.5,125.1 753.5,228.7 753.5,228.7 " fill="none" id="circuits-backto-Fundamentals" style="stroke:#181818;stroke-width:1.0;"/><polygon fill="#181818" points="753.5,120.1,749.5,129.1,753.5,125.1,757.5,129.1,753.5,120.1" style="stroke:#181818;stroke-width:1.0;"/></g><!--MD5=[7a54f239a12d4b756a40b985fca80f34]
reverse link math to Fundamentals--><g id="link_math_Fundamentals"><path codeLine="66" d="M658.59,253 C658.59,253 688.26,253 688.26,253 " fill="none" id="math-backto-Fundamentals" style="stroke:#181818;stroke-width:1.0;"/><polygon fill="#181818" points="653.59,253,662.59,257,658.59,253,662.59,249,653.59,253" style="stroke:#181818;stroke-width:1.0;"/></g><!--MD5=[5e4b160b8ab9d2503c046e37eab76d4e]
link Fundamentals to digital_sys--><g id="link_Fundamentals_digital_sys"><path codeLine="67" d="M818.51,253 C818.51,253 848.32,253 848.32,253 " fill="none" id="Fundamentals-to-digital_sys" style="stroke:#181818;stroke-width:1.0;"/><polygon fill="#181818" points="853.32,253,844.32,249,848.32,253,844.32,257,853.32,253" style="stroke:#181818;stroke-width:1.0;"/></g><!--MD5=[58f3e5a646adcdc32a5f39e1884a7b30]
link Fundamentals to data_algo--><g id="link_Fundamentals_data_algo"><path codeLine="68" d="M729.25,277.13 C729.25,277.13 729.25,380.87 729.25,380.87 " fill="none" id="Fundamentals-to-data_algo" style="stroke:#181818;stroke-width:1.0;"/><polygon fill="#181818" points="729.25,385.87,733.25,376.87,729.25,380.87,725.25,376.87,729.25,385.87" style="stroke:#181818;stroke-width:1.0;"/></g><!--MD5=[f0c3ca8103f0f4de821b9c1284557c42]
link digital_sys to os--><g id="link_digital_sys_os"><path codeLine="69" d="M1353.53,253 C1353.53,253 1383.43,253 1383.43,253 " fill="none" id="digital_sys-to-os" style="stroke:#181818;stroke-width:1.0;"/><polygon fill="#181818" points="1388.43,253,1379.43,249,1383.43,253,1379.43,257,1388.43,253" style="stroke:#181818;stroke-width:1.0;"/></g><!--MD5=[548c82bf7114d6157e5ab6a39ae3700a]
link digital_sys to comp_arch--><g id="link_digital_sys_comp_arch"><path codeLine="70" d="M1103.5,326.05 C1103.5,326.05 1103.5,421.37 1103.5,421.37 " fill="none" id="digital_sys-to-comp_arch" style="stroke:#181818;stroke-width:1.0;"/><polygon fill="#181818" points="1103.5,426.37,1107.5,417.37,1103.5,421.37,1099.5,417.37,1103.5,426.37" style="stroke:#181818;stroke-width:1.0;"/></g><!--MD5=[be37c6b15385b1aaf8486f7571fe3751]
reverse link control_sys to math--><g id="link_control_sys_math"><path codeLine="71" d="M157.23,253 C157.23,253 187.23,253 187.23,253 " fill="none" id="control_sys-backto-math" style="stroke:#181818;stroke-width:1.0;"/><polygon fill="#181818" points="152.23,253,161.23,257,157.23,253,161.23,249,152.23,253" style="stroke:#181818;stroke-width:1.0;"/></g><!--MD5=[ad927ebf699497817d97fc378c80086d]
link Fundamentals to Tracks--><g id="link_Fundamentals_Tracks"><path codeLine="76" d="M812,277.13 C812,277.13 812,437.96 812,437.96 " fill="none" id="Fundamentals-to-Tracks" style="stroke:#181818;stroke-width:1.0;"/><polygon fill="#181818" points="812,442.96,816,433.96,812,437.96,808,433.96,812,442.96" style="stroke:#181818;stroke-width:1.0;"/></g><!--MD5=[3df95c69d4ecd6c8ba0e3fbc05a1dc85]
link Tracks to Industries--><g id="link_Tracks_Industries"><path codeLine="152" d="M844.5,491.35 C844.5,491.35 844.5,602.82 844.5,602.82 " fill="none" id="Tracks-to-Industries" style="stroke:#181818;stroke-width:1.0;"/><polygon fill="#181818" points="844.5,607.82,848.5,598.82,844.5,602.82,840.5,598.82,844.5,607.82" style="stroke:#181818;stroke-width:1.0;"/></g><!--MD5=[f1ff0f57315d33926be5e05eda0977d7]
link Industries to Automotive--><g id="link_Industries_Automotive"><path codeLine="153" d="M819.5,656.32 C819.5,682.67 819.5,721 819.5,721 C819.5,721 485.7,721 485.7,721 " fill="none" id="Industries-to-Automotive" style="stroke:#181818;stroke-width:1.0;"/><polygon fill="#181818" points="480.7,721,489.7,725,485.7,721,489.7,717,480.7,721" style="stroke:#181818;stroke-width:1.0;"/></g><!--MD5=[31eabe72dbfa2e67fe907056432709b6]
link Industries to Aerospace--><g id="link_Industries_Aerospace"><path codeLine="154" d="M794.44,632 C753.55,632 702.5,632 702.5,632 C702.5,632 702.5,727.5 702.5,727.5 " fill="none" id="Industries-to-Aerospace" style="stroke:#181818;stroke-width:1.0;"/><polygon fill="#181818" points="702.5,732.5,706.5,723.5,702.5,727.5,698.5,723.5,702.5,732.5" style="stroke:#181818;stroke-width:1.0;"/></g><!--MD5=[ea6a10bd9b98d1700b264b6d3a787334]
link Industries to Biomedical--><g id="link_Industries_Biomedical"><path codeLine="155" d="M844.5,656 C844.5,656 844.5,727.14 844.5,727.14 " fill="none" id="Industries-to-Biomedical" style="stroke:#181818;stroke-width:1.0;"/><polygon fill="#181818" points="844.5,732.14,848.5,723.14,844.5,727.14,840.5,723.14,844.5,732.14" style="stroke:#181818;stroke-width:1.0;"/></g><!--MD5=[006224d7b3c19f6daed2ced00ea7f578]
link Industries to Consumer_Electronics--><g id="link_Industries_Consumer_Electronics"><path codeLine="156" d="M869.5,656.48 C869.5,685.21 869.5,729 869.5,729 C869.5,729 928.4,729 928.4,729 " fill="none" id="Industries-to-Consumer_Electronics" style="stroke:#181818;stroke-width:1.0;"/><polygon fill="#181818" points="933.4,729,924.4,725,928.4,729,924.4,733,933.4,729" style="stroke:#181818;stroke-width:1.0;"/></g><!--MD5=[99b9090ebc5fa4e87506456561bbedae]
link Industries to Communications--><g id="link_Industries_Communications"><path codeLine="157" d="M894.73,632 C987.26,632 1175.25,632 1175.25,632 C1175.25,632 1175.25,719.44 1175.25,719.44 " fill="none" id="Industries-to-Communications" style="stroke:#181818;stroke-width:1.0;"/><polygon fill="#181818" points="1175.25,724.44,1179.25,715.44,1175.25,719.44,1171.25,715.44,1175.25,724.44" style="stroke:#181818;stroke-width:1.0;"/></g><!--MD5=[ab92c0aff8fc98531f3d43c55c716f7a]
link Aerospace to coordinated_systems--><g id="link_Aerospace_coordinated_systems"><path codeLine="158" d="M702.5,780.77 C702.5,780.77 702.5,876.24 702.5,876.24 " fill="none" id="Aerospace-to-coordinated_systems" style="stroke:#181818;stroke-width:1.0;"/><polygon fill="#181818" points="702.5,881.24,706.5,872.24,702.5,876.24,698.5,872.24,702.5,881.24" style="stroke:#181818;stroke-width:1.0;"/></g><!--MD5=[d293778d9f2e66694b7f751faca6c1c8]
link Automotive to gateways--><g id="link_Automotive_gateways"><path codeLine="159" d="M370.5,757 C310,757 221.25,757 221.25,757 C221.25,757 221.25,876.31 221.25,876.31 " fill="none" id="Automotive-to-gateways" style="stroke:#181818;stroke-width:1.0;"/><polygon fill="#181818" points="221.25,881.31,225.25,872.31,221.25,876.31,217.25,872.31,221.25,881.31" style="stroke:#181818;stroke-width:1.0;"/></g><!--MD5=[e2500c4139c1b6cd53b5db118c32d363]
link Automotive to infotaiment--><g id="link_Automotive_infotaiment"><path codeLine="160" d="M384.75,797.21 C384.75,797.21 384.75,876.15 384.75,876.15 " fill="none" id="Automotive-to-infotaiment" style="stroke:#181818;stroke-width:1.0;"/><polygon fill="#181818" points="384.75,881.15,388.75,872.15,384.75,876.15,380.75,872.15,384.75,881.15" style="stroke:#181818;stroke-width:1.0;"/></g><!--MD5=[6c73b97cf16fdfc4197e0926d544ef6e]
link Automotive to driver_assistance--><g id="link_Automotive_driver_assistance"><path codeLine="161" d="M457.25,797.21 C457.25,797.21 457.25,876.15 457.25,876.15 " fill="none" id="Automotive-to-driver_assistance" style="stroke:#181818;stroke-width:1.0;"/><polygon fill="#181818" points="457.25,881.15,461.25,872.15,457.25,876.15,453.25,872.15,457.25,881.15" style="stroke:#181818;stroke-width:1.0;"/></g><!--MD5=[0634a86b93c9abe008d6d4ddc5bb40c9]
link Biomedical to medical_devices--><g id="link_Biomedical_medical_devices"><path codeLine="162" d="M863,780.77 C863,780.77 863,851.83 863,851.83 " fill="none" id="Biomedical-to-medical_devices" style="stroke:#181818;stroke-width:1.0;"/><polygon fill="#181818" points="863,856.83,867,847.83,863,851.83,859,847.83,863,856.83" style="stroke:#181818;stroke-width:1.0;"/></g></g></svg>