<?xml version="1.0" encoding="UTF-8" standalone="no"?><svg xmlns="http://www.w3.org/2000/svg" xmlns:xlink="http://www.w3.org/1999/xlink" contentStyleType="text/css" height="879px" preserveAspectRatio="none" style="width:1959px;height:879px;background:#FFFFFF;" version="1.1" viewBox="0 0 1959 879" width="1959px" zoomAndPan="magnify"><defs/><g><!--MD5=[cde879ab447b042cc942523712f6004f]
class Fundamentals--><g id="elem_Fundamentals"><rect codeLine="4" fill="#F1F1F1" height="48" id="Fundamentals" rx="2.5" ry="2.5" style="stroke:#181818;stroke-width:0.5;" width="130" x="688.5" y="229"/><ellipse cx="703.5" cy="245" fill="#F1F1F1" rx="11" ry="11" style="stroke:#181818;stroke-width:1.0;"/><path d="M702.9844,245.5625 Q701.125,244.8594 700.4688,244.0938 Q699.8281,243.3125 699.8281,242 Q699.8281,240.3125 700.9063,239.3438 Q701.9844,238.375 703.8594,238.375 Q704.7188,238.375 705.5625,238.5781 Q706.4219,238.7656 707.2656,239.1563 L707.2656,241.5469 Q706.4844,240.9844 705.6563,240.7031 Q704.8438,240.4063 704.0469,240.4063 Q703.1719,240.4063 702.6875,240.7656 Q702.2188,241.125 702.2188,241.7813 Q702.2188,242.2969 702.5625,242.6406 Q702.9063,242.9688 704,243.375 L705.0625,243.7813 Q706.5469,244.3281 707.25,245.2344 Q707.9688,246.1406 707.9688,247.5156 Q707.9688,249.3906 706.8594,250.3125 Q705.75,251.2344 703.5,251.2344 Q702.5781,251.2344 701.6563,251.0156 Q700.7344,250.7969 699.875,250.375 L699.875,247.8438 Q700.8438,248.5313 701.7656,248.875 Q702.6875,249.2188 703.5781,249.2188 Q704.4844,249.2188 704.9844,248.8125 Q705.4844,248.3906 705.4844,247.6563 Q705.4844,247.0938 705.1406,246.6875 Q704.8125,246.2656 704.1875,246.0156 L702.9844,245.5625 Z " fill="#000000"/><text fill="#000000" font-family="sans-serif" font-size="14" lengthAdjust="spacing" textLength="98" x="717.5" y="249.8467">Fundamentals</text><line style="stroke:#181818;stroke-width:0.5;" x1="689.5" x2="817.5" y1="261" y2="261"/><line style="stroke:#181818;stroke-width:0.5;" x1="689.5" x2="817.5" y1="269" y2="269"/></g><!--MD5=[d4dd7553ee4fc946ab868ca435bd290b]
class math--><g id="elem_math"><rect codeLine="9" fill="#F1F1F1" height="129.4844" id="math" rx="2.5" ry="2.5" style="stroke:#181818;stroke-width:0.5;" width="466" x="187.5" y="188.5"/><ellipse cx="372.25" cy="204.5" fill="#ADD1B2" rx="11" ry="11" style="stroke:#181818;stroke-width:1.0;"/><path d="M375.2188,210.1406 Q374.6406,210.4375 374,210.5781 Q373.3594,210.7344 372.6563,210.7344 Q370.1563,210.7344 368.8281,209.0938 Q367.5156,207.4375 367.5156,204.3125 Q367.5156,201.1875 368.8281,199.5313 Q370.1563,197.875 372.6563,197.875 Q373.3594,197.875 374,198.0313 Q374.6563,198.1875 375.2188,198.4844 L375.2188,201.2031 Q374.5938,200.625 374,200.3594 Q373.4063,200.0781 372.7813,200.0781 Q371.4375,200.0781 370.75,201.1563 Q370.0625,202.2188 370.0625,204.3125 Q370.0625,206.4063 370.75,207.4844 Q371.4375,208.5469 372.7813,208.5469 Q373.4063,208.5469 374,208.2813 Q374.5938,208 375.2188,207.4219 L375.2188,210.1406 Z " fill="#000000"/><text fill="#000000" font-family="sans-serif" font-size="14" lengthAdjust="spacing" textLength="88" x="392.75" y="209.3467">Mathematics</text><line style="stroke:#181818;stroke-width:0.5;" x1="188.5" x2="652.5" y1="220.5" y2="220.5"/><ellipse cx="198.5" cy="242.2969" fill="none" rx="3" ry="3" style="stroke:#038048;stroke-width:1.0;"/><text fill="#000000" font-family="sans-serif" font-size="14" lengthAdjust="spacing" textLength="436" x="207.5" y="237.4951">Linear Algebra: Factoring, Quadratic formula, Binomial Theorem,</text><text fill="#000000" font-family="sans-serif" font-size="14" lengthAdjust="spacing" textLength="4" x="207.5" y="253.792"> </text><text fill="#000000" font-family="sans-serif" font-size="14" lengthAdjust="spacing" textLength="82" x="207.5" y="270.0889">Inequalities.</text><ellipse cx="198.5" cy="283.0391" fill="none" rx="3" ry="3" style="stroke:#038048;stroke-width:1.0;"/><text fill="#000000" font-family="sans-serif" font-size="14" lengthAdjust="spacing" textLength="289" x="207.5" y="286.3857">Geometry: Distance formula, circles, lines,</text><ellipse cx="198.5" cy="299.3359" fill="none" rx="3" ry="3" style="stroke:#038048;stroke-width:1.0;"/><text fill="#000000" font-family="sans-serif" font-size="14" lengthAdjust="spacing" textLength="322" x="207.5" y="302.6826">Calculus: limits, functions, derivatives, integrals</text><line style="stroke:#181818;stroke-width:0.5;" x1="188.5" x2="652.5" y1="309.9844" y2="309.9844"/></g><!--MD5=[5662f07f23b655411764d98b0b3552de]
class digital_sys--><g id="elem_digital_sys"><rect codeLine="17" fill="#F1F1F1" height="145.7813" id="digital_sys" rx="2.5" ry="2.5" style="stroke:#181818;stroke-width:0.5;" width="500" x="853.5" y="180"/><ellipse cx="1046.75" cy="196" fill="#ADD1B2" rx="11" ry="11" style="stroke:#181818;stroke-width:1.0;"/><path d="M1049.7188,201.6406 Q1049.1406,201.9375 1048.5,202.0781 Q1047.8594,202.2344 1047.1563,202.2344 Q1044.6563,202.2344 1043.3281,200.5938 Q1042.0156,198.9375 1042.0156,195.8125 Q1042.0156,192.6875 1043.3281,191.0313 Q1044.6563,189.375 1047.1563,189.375 Q1047.8594,189.375 1048.5,189.5313 Q1049.1563,189.6875 1049.7188,189.9844 L1049.7188,192.7031 Q1049.0938,192.125 1048.5,191.8594 Q1047.9063,191.5781 1047.2813,191.5781 Q1045.9375,191.5781 1045.25,192.6563 Q1044.5625,193.7188 1044.5625,195.8125 Q1044.5625,197.9063 1045.25,198.9844 Q1045.9375,200.0469 1047.2813,200.0469 Q1047.9063,200.0469 1048.5,199.7813 Q1049.0938,199.5 1049.7188,198.9219 L1049.7188,201.6406 Z " fill="#000000"/><text fill="#000000" font-family="sans-serif" font-size="14" lengthAdjust="spacing" textLength="105" x="1067.25" y="200.8467">Digital Systems</text><line style="stroke:#181818;stroke-width:0.5;" x1="854.5" x2="1352.5" y1="212" y2="212"/><ellipse cx="864.5" cy="233.7969" fill="none" rx="3" ry="3" style="stroke:#038048;stroke-width:1.0;"/><text fill="#000000" font-family="sans-serif" font-size="14" lengthAdjust="spacing" textLength="447" x="873.5" y="228.9951">Continuous vs discrete systems: Analog vs digital, binary system,</text><text fill="#000000" font-family="sans-serif" font-size="14" lengthAdjust="spacing" textLength="4" x="873.5" y="245.292"> </text><text fill="#000000" font-family="sans-serif" font-size="14" lengthAdjust="spacing" textLength="432" x="873.5" y="261.5889">logic functions, boolean algebra digital waveform, data transfer,</text><text fill="#000000" font-family="sans-serif" font-size="14" lengthAdjust="spacing" textLength="4" x="873.5" y="277.8857"> </text><text fill="#000000" font-family="sans-serif" font-size="14" lengthAdjust="spacing" textLength="474" x="873.5" y="294.1826">combinational and sequential logic, memories, Finite state machines.</text><ellipse cx="864.5" cy="307.1328" fill="none" rx="3" ry="3" style="stroke:#038048;stroke-width:1.0;"/><text fill="#000000" font-family="sans-serif" font-size="14" lengthAdjust="spacing" textLength="322" x="873.5" y="310.4795">Build an 8bit computer on FPGA : memory, ALU</text><line style="stroke:#181818;stroke-width:0.5;" x1="854.5" x2="1352.5" y1="317.7813" y2="317.7813"/></g><!--MD5=[37c5ebfbdb78eee26551d187cc676e1c]
class control_sys--><g id="elem_control_sys"><rect codeLine="25" fill="#F1F1F1" height="64.2969" id="control_sys" rx="2.5" ry="2.5" style="stroke:#181818;stroke-width:0.5;" width="145" x="7" y="221"/><ellipse cx="22" cy="237" fill="#ADD1B2" rx="11" ry="11" style="stroke:#181818;stroke-width:1.0;"/><path d="M24.9688,242.6406 Q24.3906,242.9375 23.75,243.0781 Q23.1094,243.2344 22.4063,243.2344 Q19.9063,243.2344 18.5781,241.5938 Q17.2656,239.9375 17.2656,236.8125 Q17.2656,233.6875 18.5781,232.0313 Q19.9063,230.375 22.4063,230.375 Q23.1094,230.375 23.75,230.5313 Q24.4063,230.6875 24.9688,230.9844 L24.9688,233.7031 Q24.3438,233.125 23.75,232.8594 Q23.1563,232.5781 22.5313,232.5781 Q21.1875,232.5781 20.5,233.6563 Q19.8125,234.7188 19.8125,236.8125 Q19.8125,238.9063 20.5,239.9844 Q21.1875,241.0469 22.5313,241.0469 Q23.1563,241.0469 23.75,240.7813 Q24.3438,240.5 24.9688,239.9219 L24.9688,242.6406 Z " fill="#000000"/><text fill="#000000" font-family="sans-serif" font-size="14" lengthAdjust="spacing" textLength="113" x="36" y="241.8467">Control Systems</text><line style="stroke:#181818;stroke-width:0.5;" x1="8" x2="151" y1="253" y2="253"/><ellipse cx="18" cy="266.6484" fill="none" rx="3" ry="3" style="stroke:#038048;stroke-width:1.0;"/><text fill="#000000" font-family="sans-serif" font-size="14" lengthAdjust="spacing" textLength="98" x="27" y="269.9951">Fundamentals</text><line style="stroke:#181818;stroke-width:0.5;" x1="8" x2="151" y1="277.2969" y2="277.2969"/></g><!--MD5=[5f5150cdc568be1e65b7951573b8a1af]
class computer_org--><g id="elem_computer_org"><rect codeLine="30" fill="#F1F1F1" height="64.2969" id="computer_org" rx="2.5" ry="2.5" style="stroke:#181818;stroke-width:0.5;" width="192" x="492.5" y="31.5"/><ellipse cx="507.5" cy="47.5" fill="#ADD1B2" rx="11" ry="11" style="stroke:#181818;stroke-width:1.0;"/><path d="M510.4688,53.1406 Q509.8906,53.4375 509.25,53.5781 Q508.6094,53.7344 507.9063,53.7344 Q505.4063,53.7344 504.0781,52.0938 Q502.7656,50.4375 502.7656,47.3125 Q502.7656,44.1875 504.0781,42.5313 Q505.4063,40.875 507.9063,40.875 Q508.6094,40.875 509.25,41.0313 Q509.9063,41.1875 510.4688,41.4844 L510.4688,44.2031 Q509.8438,43.625 509.25,43.3594 Q508.6563,43.0781 508.0313,43.0781 Q506.6875,43.0781 506,44.1563 Q505.3125,45.2188 505.3125,47.3125 Q505.3125,49.4063 506,50.4844 Q506.6875,51.5469 508.0313,51.5469 Q508.6563,51.5469 509.25,51.2813 Q509.8438,51 510.4688,50.4219 L510.4688,53.1406 Z " fill="#000000"/><text fill="#000000" font-family="sans-serif" font-size="14" lengthAdjust="spacing" textLength="160" x="521.5" y="52.3467">Computer Organization</text><line style="stroke:#181818;stroke-width:0.5;" x1="493.5" x2="683.5" y1="63.5" y2="63.5"/><ellipse cx="503.5" cy="77.1484" fill="none" rx="3" ry="3" style="stroke:#038048;stroke-width:1.0;"/><text fill="#000000" font-family="sans-serif" font-size="14" lengthAdjust="spacing" textLength="98" x="512.5" y="80.4951">Fundamentals</text><line style="stroke:#181818;stroke-width:0.5;" x1="493.5" x2="683.5" y1="87.7969" y2="87.7969"/></g><!--MD5=[841da8a3cf140ff232746b4ae7422aea]
class comp_arch--><g id="elem_comp_arch"><rect codeLine="35" fill="#F1F1F1" height="80.5938" id="comp_arch" rx="2.5" ry="2.5" style="stroke:#181818;stroke-width:0.5;" width="189" x="467" y="386"/><ellipse cx="482" cy="402" fill="#ADD1B2" rx="11" ry="11" style="stroke:#181818;stroke-width:1.0;"/><path d="M484.9688,407.6406 Q484.3906,407.9375 483.75,408.0781 Q483.1094,408.2344 482.4063,408.2344 Q479.9063,408.2344 478.5781,406.5938 Q477.2656,404.9375 477.2656,401.8125 Q477.2656,398.6875 478.5781,397.0313 Q479.9063,395.375 482.4063,395.375 Q483.1094,395.375 483.75,395.5313 Q484.4063,395.6875 484.9688,395.9844 L484.9688,398.7031 Q484.3438,398.125 483.75,397.8594 Q483.1563,397.5781 482.5313,397.5781 Q481.1875,397.5781 480.5,398.6563 Q479.8125,399.7188 479.8125,401.8125 Q479.8125,403.9063 480.5,404.9844 Q481.1875,406.0469 482.5313,406.0469 Q483.1563,406.0469 483.75,405.7813 Q484.3438,405.5 484.9688,404.9219 L484.9688,407.6406 Z " fill="#000000"/><text fill="#000000" font-family="sans-serif" font-size="14" lengthAdjust="spacing" textLength="157" x="496" y="406.8467">Computer Architecture</text><line style="stroke:#181818;stroke-width:0.5;" x1="468" x2="655" y1="418" y2="418"/><line style="stroke:#181818;stroke-width:0.5;" x1="468" x2="655" y1="426" y2="426"/><ellipse cx="478" cy="439.6484" fill="#84BE84" rx="3" ry="3" style="stroke:#038048;stroke-width:1.0;"/><text fill="#000000" font-family="sans-serif" font-size="14" lengthAdjust="spacing" textLength="114" x="487" y="442.9951">Memory Layout()</text><ellipse cx="478" cy="455.9453" fill="#84BE84" rx="3" ry="3" style="stroke:#038048;stroke-width:1.0;"/><text fill="#000000" font-family="sans-serif" font-size="14" lengthAdjust="spacing" textLength="31" x="487" y="459.292">ISA()</text></g><!--MD5=[9938913ac0b9723d577c1bb4b693d11a]
class os--><g id="elem_os"><rect codeLine="40" fill="#F1F1F1" height="113.1875" id="os" rx="2.5" ry="2.5" style="stroke:#181818;stroke-width:0.5;" width="186" x="1388.5" y="196.5"/><ellipse cx="1413.85" cy="212.5" fill="#ADD1B2" rx="11" ry="11" style="stroke:#181818;stroke-width:1.0;"/><path d="M1416.8188,218.1406 Q1416.2406,218.4375 1415.6,218.5781 Q1414.9594,218.7344 1414.2563,218.7344 Q1411.7563,218.7344 1410.4281,217.0938 Q1409.1156,215.4375 1409.1156,212.3125 Q1409.1156,209.1875 1410.4281,207.5313 Q1411.7563,205.875 1414.2563,205.875 Q1414.9594,205.875 1415.6,206.0313 Q1416.2563,206.1875 1416.8188,206.4844 L1416.8188,209.2031 Q1416.1938,208.625 1415.6,208.3594 Q1415.0063,208.0781 1414.3813,208.0781 Q1413.0375,208.0781 1412.35,209.1563 Q1411.6625,210.2188 1411.6625,212.3125 Q1411.6625,214.4063 1412.35,215.4844 Q1413.0375,216.5469 1414.3813,216.5469 Q1415.0063,216.5469 1415.6,216.2813 Q1416.1938,216 1416.8188,215.4219 L1416.8188,218.1406 Z " fill="#000000"/><text fill="#000000" font-family="sans-serif" font-size="14" lengthAdjust="spacing" textLength="131" x="1430.15" y="217.3467">Operating Systems</text><line style="stroke:#181818;stroke-width:0.5;" x1="1389.5" x2="1573.5" y1="228.5" y2="228.5"/><ellipse cx="1399.5" cy="242.1484" fill="none" rx="3" ry="3" style="stroke:#038048;stroke-width:1.0;"/><text fill="#000000" font-family="sans-serif" font-size="14" lengthAdjust="spacing" textLength="160" x="1408.5" y="245.4951">Programming language</text><ellipse cx="1399.5" cy="258.4453" fill="none" rx="3" ry="3" style="stroke:#038048;stroke-width:1.0;"/><text fill="#000000" font-family="sans-serif" font-size="14" lengthAdjust="spacing" textLength="86" x="1408.5" y="261.792">concurrency</text><line style="stroke:#181818;stroke-width:0.5;" x1="1389.5" x2="1573.5" y1="269.0938" y2="269.0938"/><ellipse cx="1399.5" cy="282.7422" fill="#84BE84" rx="3" ry="3" style="stroke:#038048;stroke-width:1.0;"/><text fill="#000000" font-family="sans-serif" font-size="14" lengthAdjust="spacing" textLength="48" x="1408.5" y="286.0889">pipes()</text><ellipse cx="1399.5" cy="299.0391" fill="#84BE84" rx="3" ry="3" style="stroke:#038048;stroke-width:1.0;"/><text fill="#000000" font-family="sans-serif" font-size="14" lengthAdjust="spacing" textLength="153" x="1408.5" y="302.3857">process and threads()</text></g><!--MD5=[9b92be28fcc82b4724bebf169d1b270c]
class sys_int--><g id="elem_sys_int"><rect codeLine="48" fill="#F1F1F1" height="80.5938" id="sys_int" rx="2.5" ry="2.5" style="stroke:#181818;stroke-width:0.5;" width="155" x="1647" y="23"/><ellipse cx="1662" cy="39" fill="#ADD1B2" rx="11" ry="11" style="stroke:#181818;stroke-width:1.0;"/><path d="M1664.9688,44.6406 Q1664.3906,44.9375 1663.75,45.0781 Q1663.1094,45.2344 1662.4063,45.2344 Q1659.9063,45.2344 1658.5781,43.5938 Q1657.2656,41.9375 1657.2656,38.8125 Q1657.2656,35.6875 1658.5781,34.0313 Q1659.9063,32.375 1662.4063,32.375 Q1663.1094,32.375 1663.75,32.5313 Q1664.4063,32.6875 1664.9688,32.9844 L1664.9688,35.7031 Q1664.3438,35.125 1663.75,34.8594 Q1663.1563,34.5781 1662.5313,34.5781 Q1661.1875,34.5781 1660.5,35.6563 Q1659.8125,36.7188 1659.8125,38.8125 Q1659.8125,40.9063 1660.5,41.9844 Q1661.1875,43.0469 1662.5313,43.0469 Q1663.1563,43.0469 1663.75,42.7813 Q1664.3438,42.5 1664.9688,41.9219 L1664.9688,44.6406 Z " fill="#000000"/><text fill="#000000" font-family="sans-serif" font-size="14" lengthAdjust="spacing" textLength="123" x="1676" y="43.8467">System Interfaces</text><line style="stroke:#181818;stroke-width:0.5;" x1="1648" x2="1801" y1="55" y2="55"/><line style="stroke:#181818;stroke-width:0.5;" x1="1648" x2="1801" y1="63" y2="63"/><ellipse cx="1658" cy="76.6484" fill="#84BE84" rx="3" ry="3" style="stroke:#038048;stroke-width:1.0;"/><text fill="#000000" font-family="sans-serif" font-size="14" lengthAdjust="spacing" textLength="68" x="1667" y="79.9951">Register()</text><ellipse cx="1658" cy="92.9453" fill="#84BE84" rx="3" ry="3" style="stroke:#038048;stroke-width:1.0;"/><text fill="#000000" font-family="sans-serif" font-size="14" lengthAdjust="spacing" textLength="107" x="1667" y="96.292">Memory maps()</text></g><!--MD5=[19e7a66b79e3029c437977be7cd7140c]
class circuits--><g id="elem_circuits"><rect codeLine="53" fill="#F1F1F1" height="113.1875" id="circuits" rx="2.5" ry="2.5" style="stroke:#181818;stroke-width:0.5;" width="398" x="719.5" y="7"/><ellipse cx="888.75" cy="23" fill="#ADD1B2" rx="11" ry="11" style="stroke:#181818;stroke-width:1.0;"/><path d="M891.7188,28.6406 Q891.1406,28.9375 890.5,29.0781 Q889.8594,29.2344 889.1563,29.2344 Q886.6563,29.2344 885.3281,27.5938 Q884.0156,25.9375 884.0156,22.8125 Q884.0156,19.6875 885.3281,18.0313 Q886.6563,16.375 889.1563,16.375 Q889.8594,16.375 890.5,16.5313 Q891.1563,16.6875 891.7188,16.9844 L891.7188,19.7031 Q891.0938,19.125 890.5,18.8594 Q889.9063,18.5781 889.2813,18.5781 Q887.9375,18.5781 887.25,19.6563 Q886.5625,20.7188 886.5625,22.8125 Q886.5625,24.9063 887.25,25.9844 Q887.9375,27.0469 889.2813,27.0469 Q889.9063,27.0469 890.5,26.7813 Q891.0938,26.5 891.7188,25.9219 L891.7188,28.6406 Z " fill="#000000"/><text fill="#000000" font-family="sans-serif" font-size="14" lengthAdjust="spacing" textLength="51" x="909.25" y="27.8467">Circuits</text><line style="stroke:#181818;stroke-width:0.5;" x1="720.5" x2="1116.5" y1="39" y2="39"/><ellipse cx="730.5" cy="60.7969" fill="none" rx="3" ry="3" style="stroke:#038048;stroke-width:1.0;"/><text fill="#000000" font-family="sans-serif" font-size="14" lengthAdjust="spacing" textLength="372" x="739.5" y="55.9951">Circuit analysis : current flow, voltage drop, capacitors,</text><text fill="#000000" font-family="sans-serif" font-size="14" lengthAdjust="spacing" textLength="4" x="739.5" y="72.292"> </text><text fill="#000000" font-family="sans-serif" font-size="14" lengthAdjust="spacing" textLength="201" x="739.5" y="88.5889">op-amps, diodes, transistors.</text><line style="stroke:#181818;stroke-width:0.5;" x1="720.5" x2="1116.5" y1="95.8906" y2="95.8906"/><ellipse cx="730.5" cy="109.5391" fill="#84BE84" rx="3" ry="3" style="stroke:#038048;stroke-width:1.0;"/><text fill="#000000" font-family="sans-serif" font-size="14" lengthAdjust="spacing" textLength="360" x="739.5" y="112.8857">Sound system() : filters and amplifiers, power sypply.</text></g><!--MD5=[a2b67d7abd3597ae0a281a8ccfb2556f]
class topic--><g id="elem_topic"><rect codeLine="88" fill="#F1F1F1" height="64.2969" id="topic" rx="2.5" ry="2.5" style="stroke:#181818;stroke-width:0.5;" width="124" x="691.5" y="394.5"/><ellipse cx="732.6" cy="410.5" fill="#ADD1B2" rx="11" ry="11" style="stroke:#181818;stroke-width:1.0;"/><path d="M735.5688,416.1406 Q734.9906,416.4375 734.35,416.5781 Q733.7094,416.7344 733.0063,416.7344 Q730.5063,416.7344 729.1781,415.0938 Q727.8656,413.4375 727.8656,410.3125 Q727.8656,407.1875 729.1781,405.5313 Q730.5063,403.875 733.0063,403.875 Q733.7094,403.875 734.35,404.0313 Q735.0063,404.1875 735.5688,404.4844 L735.5688,407.2031 Q734.9438,406.625 734.35,406.3594 Q733.7563,406.0781 733.1313,406.0781 Q731.7875,406.0781 731.1,407.1563 Q730.4125,408.2188 730.4125,410.3125 Q730.4125,412.4063 731.1,413.4844 Q731.7875,414.5469 733.1313,414.5469 Q733.7563,414.5469 734.35,414.2813 Q734.9438,414 735.5688,413.4219 L735.5688,416.1406 Z " fill="#000000"/><text fill="#000000" font-family="sans-serif" font-size="14" lengthAdjust="spacing" textLength="34" x="752.4" y="415.3467">topic</text><line style="stroke:#181818;stroke-width:0.5;" x1="692.5" x2="814.5" y1="426.5" y2="426.5"/><ellipse cx="702.5" cy="440.1484" fill="none" rx="3" ry="3" style="stroke:#038048;stroke-width:1.0;"/><text fill="#000000" font-family="sans-serif" font-size="14" lengthAdjust="spacing" textLength="98" x="711.5" y="443.4951">Fundamentals</text><line style="stroke:#181818;stroke-width:0.5;" x1="692.5" x2="814.5" y1="450.7969" y2="450.7969"/></g><!--MD5=[61a1ff1f2e90e4f5d52417cf735e0e13]
class Core--><g id="elem_Core"><rect codeLine="68" fill="#F1F1F1" height="48" id="Core" rx="2.5" ry="2.5" style="stroke:#181818;stroke-width:0.5;" width="65" x="851" y="402.5"/><ellipse cx="866" cy="418.5" fill="#F1F1F1" rx="11" ry="11" style="stroke:#181818;stroke-width:1.0;"/><path d="M865.4844,419.0625 Q863.625,418.3594 862.9688,417.5938 Q862.3281,416.8125 862.3281,415.5 Q862.3281,413.8125 863.4063,412.8438 Q864.4844,411.875 866.3594,411.875 Q867.2188,411.875 868.0625,412.0781 Q868.9219,412.2656 869.7656,412.6563 L869.7656,415.0469 Q868.9844,414.4844 868.1563,414.2031 Q867.3438,413.9063 866.5469,413.9063 Q865.6719,413.9063 865.1875,414.2656 Q864.7188,414.625 864.7188,415.2813 Q864.7188,415.7969 865.0625,416.1406 Q865.4063,416.4688 866.5,416.875 L867.5625,417.2813 Q869.0469,417.8281 869.75,418.7344 Q870.4688,419.6406 870.4688,421.0156 Q870.4688,422.8906 869.3594,423.8125 Q868.25,424.7344 866,424.7344 Q865.0781,424.7344 864.1563,424.5156 Q863.2344,424.2969 862.375,423.875 L862.375,421.3438 Q863.3438,422.0313 864.2656,422.375 Q865.1875,422.7188 866.0781,422.7188 Q866.9844,422.7188 867.4844,422.3125 Q867.9844,421.8906 867.9844,421.1563 Q867.9844,420.5938 867.6406,420.1875 Q867.3125,419.7656 866.6875,419.5156 L865.4844,419.0625 Z " fill="#000000"/><text fill="#000000" font-family="sans-serif" font-size="14" lengthAdjust="spacing" textLength="33" x="880" y="423.3467">Core</text><line style="stroke:#181818;stroke-width:0.5;" x1="852" x2="915" y1="434.5" y2="434.5"/><line style="stroke:#181818;stroke-width:0.5;" x1="852" x2="915" y1="442.5" y2="442.5"/></g><!--MD5=[cc87baed032be68acb8ffcaec3df4de7]
class compiler--><g id="elem_compiler"><rect codeLine="73" fill="#F1F1F1" height="64.2969" id="compiler" rx="2.5" ry="2.5" style="stroke:#181818;stroke-width:0.5;" width="112" x="1837.5" y="31.5"/><ellipse cx="1861.05" cy="47.5" fill="#ADD1B2" rx="11" ry="11" style="stroke:#181818;stroke-width:1.0;"/><path d="M1864.0188,53.1406 Q1863.4406,53.4375 1862.8,53.5781 Q1862.1594,53.7344 1861.4563,53.7344 Q1858.9563,53.7344 1857.6281,52.0938 Q1856.3156,50.4375 1856.3156,47.3125 Q1856.3156,44.1875 1857.6281,42.5313 Q1858.9563,40.875 1861.4563,40.875 Q1862.1594,40.875 1862.8,41.0313 Q1863.4563,41.1875 1864.0188,41.4844 L1864.0188,44.2031 Q1863.3938,43.625 1862.8,43.3594 Q1862.2063,43.0781 1861.5813,43.0781 Q1860.2375,43.0781 1859.55,44.1563 Q1858.8625,45.2188 1858.8625,47.3125 Q1858.8625,49.4063 1859.55,50.4844 Q1860.2375,51.5469 1861.5813,51.5469 Q1862.2063,51.5469 1862.8,51.2813 Q1863.3938,51 1864.0188,50.4219 L1864.0188,53.1406 Z " fill="#000000"/><text fill="#000000" font-family="sans-serif" font-size="14" lengthAdjust="spacing" textLength="61" x="1876.95" y="52.3467">Compiler</text><line style="stroke:#181818;stroke-width:0.5;" x1="1838.5" x2="1948.5" y1="63.5" y2="63.5"/><line style="stroke:#181818;stroke-width:0.5;" x1="1838.5" x2="1948.5" y1="71.5" y2="71.5"/><ellipse cx="1848.5" cy="85.1484" fill="#84BE84" rx="3" ry="3" style="stroke:#038048;stroke-width:1.0;"/><text fill="#000000" font-family="sans-serif" font-size="14" lengthAdjust="spacing" textLength="86" x="1857.5" y="88.4951">Bootloader()</text></g><!--MD5=[f33d155e3c60ec1f824818ad01704336]
class hw_emulator--><g id="elem_hw_emulator"><rect codeLine="78" fill="#F1F1F1" height="64.2969" id="hw_emulator" rx="2.5" ry="2.5" style="stroke:#181818;stroke-width:0.5;" width="230" x="1609.5" y="221"/><ellipse cx="1651.5" cy="237" fill="#ADD1B2" rx="11" ry="11" style="stroke:#181818;stroke-width:1.0;"/><path d="M1654.4688,242.6406 Q1653.8906,242.9375 1653.25,243.0781 Q1652.6094,243.2344 1651.9063,243.2344 Q1649.4063,243.2344 1648.0781,241.5938 Q1646.7656,239.9375 1646.7656,236.8125 Q1646.7656,233.6875 1648.0781,232.0313 Q1649.4063,230.375 1651.9063,230.375 Q1652.6094,230.375 1653.25,230.5313 Q1653.9063,230.6875 1654.4688,230.9844 L1654.4688,233.7031 Q1653.8438,233.125 1653.25,232.8594 Q1652.6563,232.5781 1652.0313,232.5781 Q1650.6875,232.5781 1650,233.6563 Q1649.3125,234.7188 1649.3125,236.8125 Q1649.3125,238.9063 1650,239.9844 Q1650.6875,241.0469 1652.0313,241.0469 Q1652.6563,241.0469 1653.25,240.7813 Q1653.8438,240.5 1654.4688,239.9219 L1654.4688,242.6406 Z " fill="#000000"/><text fill="#000000" font-family="sans-serif" font-size="14" lengthAdjust="spacing" textLength="138" x="1671.5" y="241.8467">Hardware emulators</text><line style="stroke:#181818;stroke-width:0.5;" x1="1610.5" x2="1838.5" y1="253" y2="253"/><ellipse cx="1620.5" cy="266.6484" fill="none" rx="3" ry="3" style="stroke:#038048;stroke-width:1.0;"/><text fill="#000000" font-family="sans-serif" font-size="14" lengthAdjust="spacing" textLength="204" x="1629.5" y="269.9951">Fundamentals : NES emulator</text><line style="stroke:#181818;stroke-width:0.5;" x1="1610.5" x2="1838.5" y1="277.2969" y2="277.2969"/></g><!--MD5=[58a5b792d0a165e9e333eabc38b4cd9a]
class Tracks--><g id="elem_Tracks"><rect codeLine="84" fill="#F1F1F1" height="48" id="Tracks" rx="2.5" ry="2.5" style="stroke:#181818;stroke-width:0.5;" width="78" x="1874.5" y="229"/><ellipse cx="1889.5" cy="245" fill="#F1F1F1" rx="11" ry="11" style="stroke:#181818;stroke-width:1.0;"/><path d="M1888.9844,245.5625 Q1887.125,244.8594 1886.4688,244.0938 Q1885.8281,243.3125 1885.8281,242 Q1885.8281,240.3125 1886.9063,239.3438 Q1887.9844,238.375 1889.8594,238.375 Q1890.7188,238.375 1891.5625,238.5781 Q1892.4219,238.7656 1893.2656,239.1563 L1893.2656,241.5469 Q1892.4844,240.9844 1891.6563,240.7031 Q1890.8438,240.4063 1890.0469,240.4063 Q1889.1719,240.4063 1888.6875,240.7656 Q1888.2188,241.125 1888.2188,241.7813 Q1888.2188,242.2969 1888.5625,242.6406 Q1888.9063,242.9688 1890,243.375 L1891.0625,243.7813 Q1892.5469,244.3281 1893.25,245.2344 Q1893.9688,246.1406 1893.9688,247.5156 Q1893.9688,249.3906 1892.8594,250.3125 Q1891.75,251.2344 1889.5,251.2344 Q1888.5781,251.2344 1887.6563,251.0156 Q1886.7344,250.7969 1885.875,250.375 L1885.875,247.8438 Q1886.8438,248.5313 1887.7656,248.875 Q1888.6875,249.2188 1889.5781,249.2188 Q1890.4844,249.2188 1890.9844,248.8125 Q1891.4844,248.3906 1891.4844,247.6563 Q1891.4844,247.0938 1891.1406,246.6875 Q1890.8125,246.2656 1890.1875,246.0156 L1888.9844,245.5625 Z " fill="#000000"/><text fill="#000000" font-family="sans-serif" font-size="14" lengthAdjust="spacing" textLength="46" x="1903.5" y="249.8467">Tracks</text><line style="stroke:#181818;stroke-width:0.5;" x1="1875.5" x2="1951.5" y1="261" y2="261"/><line style="stroke:#181818;stroke-width:0.5;" x1="1875.5" x2="1951.5" y1="269" y2="269"/></g><!--MD5=[a0edccbbeaf32f3fb0cce75ced62db95]
class Industries--><g id="elem_Industries"><rect codeLine="95" fill="#F1F1F1" height="48" id="Industries" rx="2.5" ry="2.5" style="stroke:#181818;stroke-width:0.5;" width="100" x="833.5" y="527"/><ellipse cx="848.5" cy="543" fill="#F1F1F1" rx="11" ry="11" style="stroke:#181818;stroke-width:1.0;"/><path d="M847.9844,543.5625 Q846.125,542.8594 845.4688,542.0938 Q844.8281,541.3125 844.8281,540 Q844.8281,538.3125 845.9063,537.3438 Q846.9844,536.375 848.8594,536.375 Q849.7188,536.375 850.5625,536.5781 Q851.4219,536.7656 852.2656,537.1563 L852.2656,539.5469 Q851.4844,538.9844 850.6563,538.7031 Q849.8438,538.4063 849.0469,538.4063 Q848.1719,538.4063 847.6875,538.7656 Q847.2188,539.125 847.2188,539.7813 Q847.2188,540.2969 847.5625,540.6406 Q847.9063,540.9688 849,541.375 L850.0625,541.7813 Q851.5469,542.3281 852.25,543.2344 Q852.9688,544.1406 852.9688,545.5156 Q852.9688,547.3906 851.8594,548.3125 Q850.75,549.2344 848.5,549.2344 Q847.5781,549.2344 846.6563,549.0156 Q845.7344,548.7969 844.875,548.375 L844.875,545.8438 Q845.8438,546.5313 846.7656,546.875 Q847.6875,547.2188 848.5781,547.2188 Q849.4844,547.2188 849.9844,546.8125 Q850.4844,546.3906 850.4844,545.6563 Q850.4844,545.0938 850.1406,544.6875 Q849.8125,544.2656 849.1875,544.0156 L847.9844,543.5625 Z " fill="#000000"/><text fill="#000000" font-family="sans-serif" font-size="14" lengthAdjust="spacing" textLength="68" x="862.5" y="547.8467">Industries</text><line style="stroke:#181818;stroke-width:0.5;" x1="834.5" x2="932.5" y1="559" y2="559"/><line style="stroke:#181818;stroke-width:0.5;" x1="834.5" x2="932.5" y1="567" y2="567"/></g><!--MD5=[45e6db43baa2f5433acd553fd7048985]
class Automotive--><g id="elem_Automotive"><rect codeLine="101" fill="#F1F1F1" height="80.5938" id="Automotive" rx="2.5" ry="2.5" style="stroke:#181818;stroke-width:0.5;" width="110" x="409.5" y="635"/><ellipse cx="424.5" cy="651" fill="#F1F1F1" rx="11" ry="11" style="stroke:#181818;stroke-width:1.0;"/><path d="M423.9844,651.5625 Q422.125,650.8594 421.4688,650.0938 Q420.8281,649.3125 420.8281,648 Q420.8281,646.3125 421.9063,645.3438 Q422.9844,644.375 424.8594,644.375 Q425.7188,644.375 426.5625,644.5781 Q427.4219,644.7656 428.2656,645.1563 L428.2656,647.5469 Q427.4844,646.9844 426.6563,646.7031 Q425.8438,646.4063 425.0469,646.4063 Q424.1719,646.4063 423.6875,646.7656 Q423.2188,647.125 423.2188,647.7813 Q423.2188,648.2969 423.5625,648.6406 Q423.9063,648.9688 425,649.375 L426.0625,649.7813 Q427.5469,650.3281 428.25,651.2344 Q428.9688,652.1406 428.9688,653.5156 Q428.9688,655.3906 427.8594,656.3125 Q426.75,657.2344 424.5,657.2344 Q423.5781,657.2344 422.6563,657.0156 Q421.7344,656.7969 420.875,656.375 L420.875,653.8438 Q421.8438,654.5313 422.7656,654.875 Q423.6875,655.2188 424.5781,655.2188 Q425.4844,655.2188 425.9844,654.8125 Q426.4844,654.3906 426.4844,653.6563 Q426.4844,653.0938 426.1406,652.6875 Q425.8125,652.2656 425.1875,652.0156 L423.9844,651.5625 Z " fill="#000000"/><text fill="#000000" font-family="sans-serif" font-size="14" lengthAdjust="spacing" textLength="78" x="438.5" y="655.8467">Automotive</text><line style="stroke:#181818;stroke-width:0.5;" x1="410.5" x2="518.5" y1="667" y2="667"/><ellipse cx="420.5" cy="680.6484" fill="none" rx="3" ry="3" style="stroke:#038048;stroke-width:1.0;"/><text fill="#000000" font-family="sans-serif" font-size="14" lengthAdjust="spacing" textLength="43" x="429.5" y="683.9951">MISRA</text><ellipse cx="420.5" cy="696.9453" fill="none" rx="3" ry="3" style="stroke:#038048;stroke-width:1.0;"/><text fill="#000000" font-family="sans-serif" font-size="14" lengthAdjust="spacing" textLength="29" x="429.5" y="700.292">CAN</text><line style="stroke:#181818;stroke-width:0.5;" x1="410.5" x2="518.5" y1="707.5938" y2="707.5938"/></g><!--MD5=[4ec69182b6251e906d721d4a4277d128]
class gateways--><g id="elem_gateways"><rect codeLine="109" fill="#F1F1F1" height="48" id="gateways" rx="2.5" ry="2.5" style="stroke:#181818;stroke-width:0.5;" width="99" x="195" y="800.5"/><ellipse cx="210" cy="816.5" fill="#ADD1B2" rx="11" ry="11" style="stroke:#181818;stroke-width:1.0;"/><path d="M212.9688,822.1406 Q212.3906,822.4375 211.75,822.5781 Q211.1094,822.7344 210.4063,822.7344 Q207.9063,822.7344 206.5781,821.0938 Q205.2656,819.4375 205.2656,816.3125 Q205.2656,813.1875 206.5781,811.5313 Q207.9063,809.875 210.4063,809.875 Q211.1094,809.875 211.75,810.0313 Q212.4063,810.1875 212.9688,810.4844 L212.9688,813.2031 Q212.3438,812.625 211.75,812.3594 Q211.1563,812.0781 210.5313,812.0781 Q209.1875,812.0781 208.5,813.1563 Q207.8125,814.2188 207.8125,816.3125 Q207.8125,818.4063 208.5,819.4844 Q209.1875,820.5469 210.5313,820.5469 Q211.1563,820.5469 211.75,820.2813 Q212.3438,820 212.9688,819.4219 L212.9688,822.1406 Z " fill="#000000"/><text fill="#000000" font-family="sans-serif" font-size="14" lengthAdjust="spacing" textLength="67" x="224" y="821.3467">Gateways</text><line style="stroke:#181818;stroke-width:0.5;" x1="196" x2="293" y1="832.5" y2="832.5"/><line style="stroke:#181818;stroke-width:0.5;" x1="196" x2="293" y1="840.5" y2="840.5"/></g><!--MD5=[615c2ccd1649c3c43f8cbd5a4d37cf1e]
class infotaiment--><g id="elem_infotaiment"><rect codeLine="112" fill="#F1F1F1" height="48" id="infotaiment" rx="2.5" ry="2.5" style="stroke:#181818;stroke-width:0.5;" width="109" x="329" y="800.5"/><ellipse cx="344" cy="816.5" fill="#ADD1B2" rx="11" ry="11" style="stroke:#181818;stroke-width:1.0;"/><path d="M346.9688,822.1406 Q346.3906,822.4375 345.75,822.5781 Q345.1094,822.7344 344.4063,822.7344 Q341.9063,822.7344 340.5781,821.0938 Q339.2656,819.4375 339.2656,816.3125 Q339.2656,813.1875 340.5781,811.5313 Q341.9063,809.875 344.4063,809.875 Q345.1094,809.875 345.75,810.0313 Q346.4063,810.1875 346.9688,810.4844 L346.9688,813.2031 Q346.3438,812.625 345.75,812.3594 Q345.1563,812.0781 344.5313,812.0781 Q343.1875,812.0781 342.5,813.1563 Q341.8125,814.2188 341.8125,816.3125 Q341.8125,818.4063 342.5,819.4844 Q343.1875,820.5469 344.5313,820.5469 Q345.1563,820.5469 345.75,820.2813 Q346.3438,820 346.9688,819.4219 L346.9688,822.1406 Z " fill="#000000"/><text fill="#000000" font-family="sans-serif" font-size="14" lengthAdjust="spacing" textLength="77" x="358" y="821.3467">Infotaiment</text><line style="stroke:#181818;stroke-width:0.5;" x1="330" x2="437" y1="832.5" y2="832.5"/><line style="stroke:#181818;stroke-width:0.5;" x1="330" x2="437" y1="840.5" y2="840.5"/></g><!--MD5=[80f4c98420784c84293eea48cb1f84e2]
class driver_assistance--><g id="elem_driver_assistance"><rect codeLine="115" fill="#F1F1F1" height="48" id="driver_assistance" rx="2.5" ry="2.5" style="stroke:#181818;stroke-width:0.5;" width="143" x="473" y="800.5"/><ellipse cx="488" cy="816.5" fill="#ADD1B2" rx="11" ry="11" style="stroke:#181818;stroke-width:1.0;"/><path d="M490.9688,822.1406 Q490.3906,822.4375 489.75,822.5781 Q489.1094,822.7344 488.4063,822.7344 Q485.9063,822.7344 484.5781,821.0938 Q483.2656,819.4375 483.2656,816.3125 Q483.2656,813.1875 484.5781,811.5313 Q485.9063,809.875 488.4063,809.875 Q489.1094,809.875 489.75,810.0313 Q490.4063,810.1875 490.9688,810.4844 L490.9688,813.2031 Q490.3438,812.625 489.75,812.3594 Q489.1563,812.0781 488.5313,812.0781 Q487.1875,812.0781 486.5,813.1563 Q485.8125,814.2188 485.8125,816.3125 Q485.8125,818.4063 486.5,819.4844 Q487.1875,820.5469 488.5313,820.5469 Q489.1563,820.5469 489.75,820.2813 Q490.3438,820 490.9688,819.4219 L490.9688,822.1406 Z " fill="#000000"/><text fill="#000000" font-family="sans-serif" font-size="14" lengthAdjust="spacing" textLength="111" x="502" y="821.3467">Driver Asistance</text><line style="stroke:#181818;stroke-width:0.5;" x1="474" x2="615" y1="832.5" y2="832.5"/><line style="stroke:#181818;stroke-width:0.5;" x1="474" x2="615" y1="840.5" y2="840.5"/></g><!--MD5=[5d2282d317d42898064fa1f748faad5d]
class Aerospace--><g id="elem_Aerospace"><rect codeLine="119" fill="#F1F1F1" height="48" id="Aerospace" rx="2.5" ry="2.5" style="stroke:#181818;stroke-width:0.5;" width="106" x="688.5" y="651.5"/><ellipse cx="703.5" cy="667.5" fill="#F1F1F1" rx="11" ry="11" style="stroke:#181818;stroke-width:1.0;"/><path d="M702.9844,668.0625 Q701.125,667.3594 700.4688,666.5938 Q699.8281,665.8125 699.8281,664.5 Q699.8281,662.8125 700.9063,661.8438 Q701.9844,660.875 703.8594,660.875 Q704.7188,660.875 705.5625,661.0781 Q706.4219,661.2656 707.2656,661.6563 L707.2656,664.0469 Q706.4844,663.4844 705.6563,663.2031 Q704.8438,662.9063 704.0469,662.9063 Q703.1719,662.9063 702.6875,663.2656 Q702.2188,663.625 702.2188,664.2813 Q702.2188,664.7969 702.5625,665.1406 Q702.9063,665.4688 704,665.875 L705.0625,666.2813 Q706.5469,666.8281 707.25,667.7344 Q707.9688,668.6406 707.9688,670.0156 Q707.9688,671.8906 706.8594,672.8125 Q705.75,673.7344 703.5,673.7344 Q702.5781,673.7344 701.6563,673.5156 Q700.7344,673.2969 699.875,672.875 L699.875,670.3438 Q700.8438,671.0313 701.7656,671.375 Q702.6875,671.7188 703.5781,671.7188 Q704.4844,671.7188 704.9844,671.3125 Q705.4844,670.8906 705.4844,670.1563 Q705.4844,669.5938 705.1406,669.1875 Q704.8125,668.7656 704.1875,668.5156 L702.9844,668.0625 Z " fill="#000000"/><text fill="#000000" font-family="sans-serif" font-size="14" lengthAdjust="spacing" textLength="74" x="717.5" y="672.3467">Aerospace</text><line style="stroke:#181818;stroke-width:0.5;" x1="689.5" x2="793.5" y1="683.5" y2="683.5"/><line style="stroke:#181818;stroke-width:0.5;" x1="689.5" x2="793.5" y1="691.5" y2="691.5"/></g><!--MD5=[f9fa48aebf6b560a9768116d09d00838]
class coordinated_systems--><g id="elem_coordinated_systems"><rect codeLine="125" fill="#F1F1F1" height="48" id="coordinated_systems" rx="2.5" ry="2.5" style="stroke:#181818;stroke-width:0.5;" width="180" x="651.5" y="800.5"/><ellipse cx="666.5" cy="816.5" fill="#ADD1B2" rx="11" ry="11" style="stroke:#181818;stroke-width:1.0;"/><path d="M669.4688,822.1406 Q668.8906,822.4375 668.25,822.5781 Q667.6094,822.7344 666.9063,822.7344 Q664.4063,822.7344 663.0781,821.0938 Q661.7656,819.4375 661.7656,816.3125 Q661.7656,813.1875 663.0781,811.5313 Q664.4063,809.875 666.9063,809.875 Q667.6094,809.875 668.25,810.0313 Q668.9063,810.1875 669.4688,810.4844 L669.4688,813.2031 Q668.8438,812.625 668.25,812.3594 Q667.6563,812.0781 667.0313,812.0781 Q665.6875,812.0781 665,813.1563 Q664.3125,814.2188 664.3125,816.3125 Q664.3125,818.4063 665,819.4844 Q665.6875,820.5469 667.0313,820.5469 Q667.6563,820.5469 668.25,820.2813 Q668.8438,820 669.4688,819.4219 L669.4688,822.1406 Z " fill="#000000"/><text fill="#000000" font-family="sans-serif" font-size="14" lengthAdjust="spacing" textLength="148" x="680.5" y="821.3467">Coordinated Systems</text><line style="stroke:#181818;stroke-width:0.5;" x1="652.5" x2="830.5" y1="832.5" y2="832.5"/><line style="stroke:#181818;stroke-width:0.5;" x1="652.5" x2="830.5" y1="840.5" y2="840.5"/></g><!--MD5=[fc45f521f025cc9bae87f02ab4809ed2]
class Biomedical--><g id="elem_Biomedical"><rect codeLine="129" fill="#F1F1F1" height="48" id="Biomedical" rx="2.5" ry="2.5" style="stroke:#181818;stroke-width:0.5;" width="107" x="830" y="651.5"/><ellipse cx="845" cy="667.5" fill="#F1F1F1" rx="11" ry="11" style="stroke:#181818;stroke-width:1.0;"/><path d="M844.4844,668.0625 Q842.625,667.3594 841.9688,666.5938 Q841.3281,665.8125 841.3281,664.5 Q841.3281,662.8125 842.4063,661.8438 Q843.4844,660.875 845.3594,660.875 Q846.2188,660.875 847.0625,661.0781 Q847.9219,661.2656 848.7656,661.6563 L848.7656,664.0469 Q847.9844,663.4844 847.1563,663.2031 Q846.3438,662.9063 845.5469,662.9063 Q844.6719,662.9063 844.1875,663.2656 Q843.7188,663.625 843.7188,664.2813 Q843.7188,664.7969 844.0625,665.1406 Q844.4063,665.4688 845.5,665.875 L846.5625,666.2813 Q848.0469,666.8281 848.75,667.7344 Q849.4688,668.6406 849.4688,670.0156 Q849.4688,671.8906 848.3594,672.8125 Q847.25,673.7344 845,673.7344 Q844.0781,673.7344 843.1563,673.5156 Q842.2344,673.2969 841.375,672.875 L841.375,670.3438 Q842.3438,671.0313 843.2656,671.375 Q844.1875,671.7188 845.0781,671.7188 Q845.9844,671.7188 846.4844,671.3125 Q846.9844,670.8906 846.9844,670.1563 Q846.9844,669.5938 846.6406,669.1875 Q846.3125,668.7656 845.6875,668.5156 L844.4844,668.0625 Z " fill="#000000"/><text fill="#000000" font-family="sans-serif" font-size="14" lengthAdjust="spacing" textLength="75" x="859" y="672.3467">Biomedical</text><line style="stroke:#181818;stroke-width:0.5;" x1="831" x2="936" y1="683.5" y2="683.5"/><line style="stroke:#181818;stroke-width:0.5;" x1="831" x2="936" y1="691.5" y2="691.5"/></g><!--MD5=[08f55119b864267fb31cf866dfc0b8ac]
class medical_devices--><g id="elem_medical_devices"><rect codeLine="135" fill="#F1F1F1" height="96.8906" id="medical_devices" rx="2.5" ry="2.5" style="stroke:#181818;stroke-width:0.5;" width="465" x="867" y="776"/><ellipse cx="1018.75" cy="792" fill="#ADD1B2" rx="11" ry="11" style="stroke:#181818;stroke-width:1.0;"/><path d="M1021.7188,797.6406 Q1021.1406,797.9375 1020.5,798.0781 Q1019.8594,798.2344 1019.1563,798.2344 Q1016.6563,798.2344 1015.3281,796.5938 Q1014.0156,794.9375 1014.0156,791.8125 Q1014.0156,788.6875 1015.3281,787.0313 Q1016.6563,785.375 1019.1563,785.375 Q1019.8594,785.375 1020.5,785.5313 Q1021.1563,785.6875 1021.7188,785.9844 L1021.7188,788.7031 Q1021.0938,788.125 1020.5,787.8594 Q1019.9063,787.5781 1019.2813,787.5781 Q1017.9375,787.5781 1017.25,788.6563 Q1016.5625,789.7188 1016.5625,791.8125 Q1016.5625,793.9063 1017.25,794.9844 Q1017.9375,796.0469 1019.2813,796.0469 Q1019.9063,796.0469 1020.5,795.7813 Q1021.0938,795.5 1021.7188,794.9219 L1021.7188,797.6406 Z " fill="#000000"/><text fill="#000000" font-family="sans-serif" font-size="14" lengthAdjust="spacing" textLength="153" x="1039.25" y="796.8467">Medical grade devices</text><line style="stroke:#181818;stroke-width:0.5;" x1="868" x2="1331" y1="808" y2="808"/><ellipse cx="878" cy="821.6484" fill="none" rx="3" ry="3" style="stroke:#038048;stroke-width:1.0;"/><text fill="#000000" font-family="sans-serif" font-size="14" lengthAdjust="spacing" textLength="92" x="887" y="824.9951">X-ray imaging</text><ellipse cx="878" cy="837.9453" fill="none" rx="3" ry="3" style="stroke:#038048;stroke-width:1.0;"/><text fill="#000000" font-family="sans-serif" font-size="14" lengthAdjust="spacing" textLength="99" x="887" y="841.292">Wearable tech</text><line style="stroke:#181818;stroke-width:0.5;" x1="868" x2="1331" y1="848.5938" y2="848.5938"/><ellipse cx="878" cy="862.2422" fill="#84BE84" rx="3" ry="3" style="stroke:#038048;stroke-width:1.0;"/><text fill="#000000" font-family="sans-serif" font-size="14" lengthAdjust="spacing" textLength="439" x="887" y="865.5889">QNX() : create a medical grade device with real time constraints.</text></g><!--MD5=[65a89217e9d85fd38eff4ada9c8f3317]
class Consumer_Electronics--><g id="elem_Consumer_Electronics"><rect codeLine="143" fill="#F1F1F1" height="64.2969" id="Consumer_Electronics" rx="2.5" ry="2.5" style="stroke:#181818;stroke-width:0.5;" width="184" x="972.5" y="643.5"/><ellipse cx="987.5" cy="659.5" fill="#F1F1F1" rx="11" ry="11" style="stroke:#181818;stroke-width:1.0;"/><path d="M986.9844,660.0625 Q985.125,659.3594 984.4688,658.5938 Q983.8281,657.8125 983.8281,656.5 Q983.8281,654.8125 984.9063,653.8438 Q985.9844,652.875 987.8594,652.875 Q988.7188,652.875 989.5625,653.0781 Q990.4219,653.2656 991.2656,653.6563 L991.2656,656.0469 Q990.4844,655.4844 989.6563,655.2031 Q988.8438,654.9063 988.0469,654.9063 Q987.1719,654.9063 986.6875,655.2656 Q986.2188,655.625 986.2188,656.2813 Q986.2188,656.7969 986.5625,657.1406 Q986.9063,657.4688 988,657.875 L989.0625,658.2813 Q990.5469,658.8281 991.25,659.7344 Q991.9688,660.6406 991.9688,662.0156 Q991.9688,663.8906 990.8594,664.8125 Q989.75,665.7344 987.5,665.7344 Q986.5781,665.7344 985.6563,665.5156 Q984.7344,665.2969 983.875,664.875 L983.875,662.3438 Q984.8438,663.0313 985.7656,663.375 Q986.6875,663.7188 987.5781,663.7188 Q988.4844,663.7188 988.9844,663.3125 Q989.4844,662.8906 989.4844,662.1563 Q989.4844,661.5938 989.1406,661.1875 Q988.8125,660.7656 988.1875,660.5156 L986.9844,660.0625 Z " fill="#000000"/><text fill="#000000" font-family="sans-serif" font-size="14" lengthAdjust="spacing" textLength="152" x="1001.5" y="664.3467">Consumer Electronics</text><line style="stroke:#181818;stroke-width:0.5;" x1="973.5" x2="1155.5" y1="675.5" y2="675.5"/><ellipse cx="983.5" cy="689.1484" fill="none" rx="3" ry="3" style="stroke:#038048;stroke-width:1.0;"/><text fill="#000000" font-family="sans-serif" font-size="14" lengthAdjust="spacing" textLength="119" x="992.5" y="692.4951">Home appliances</text><line style="stroke:#181818;stroke-width:0.5;" x1="973.5" x2="1155.5" y1="699.7969" y2="699.7969"/></g><!--MD5=[fca3bd940cfa43daf701fb146735ea0c]
class Communications--><g id="elem_Communications"><rect codeLine="147" fill="#F1F1F1" height="64.2969" id="Communications" rx="2.5" ry="2.5" style="stroke:#181818;stroke-width:0.5;" width="148" x="1191.5" y="643.5"/><ellipse cx="1206.5" cy="659.5" fill="#F1F1F1" rx="11" ry="11" style="stroke:#181818;stroke-width:1.0;"/><path d="M1205.9844,660.0625 Q1204.125,659.3594 1203.4688,658.5938 Q1202.8281,657.8125 1202.8281,656.5 Q1202.8281,654.8125 1203.9063,653.8438 Q1204.9844,652.875 1206.8594,652.875 Q1207.7188,652.875 1208.5625,653.0781 Q1209.4219,653.2656 1210.2656,653.6563 L1210.2656,656.0469 Q1209.4844,655.4844 1208.6563,655.2031 Q1207.8438,654.9063 1207.0469,654.9063 Q1206.1719,654.9063 1205.6875,655.2656 Q1205.2188,655.625 1205.2188,656.2813 Q1205.2188,656.7969 1205.5625,657.1406 Q1205.9063,657.4688 1207,657.875 L1208.0625,658.2813 Q1209.5469,658.8281 1210.25,659.7344 Q1210.9688,660.6406 1210.9688,662.0156 Q1210.9688,663.8906 1209.8594,664.8125 Q1208.75,665.7344 1206.5,665.7344 Q1205.5781,665.7344 1204.6563,665.5156 Q1203.7344,665.2969 1202.875,664.875 L1202.875,662.3438 Q1203.8438,663.0313 1204.7656,663.375 Q1205.6875,663.7188 1206.5781,663.7188 Q1207.4844,663.7188 1207.9844,663.3125 Q1208.4844,662.8906 1208.4844,662.1563 Q1208.4844,661.5938 1208.1406,661.1875 Q1207.8125,660.7656 1207.1875,660.5156 L1205.9844,660.0625 Z " fill="#000000"/><text fill="#000000" font-family="sans-serif" font-size="14" lengthAdjust="spacing" textLength="116" x="1220.5" y="664.3467">Communications</text><line style="stroke:#181818;stroke-width:0.5;" x1="1192.5" x2="1338.5" y1="675.5" y2="675.5"/><ellipse cx="1202.5" cy="689.1484" fill="none" rx="3" ry="3" style="stroke:#038048;stroke-width:1.0;"/><text fill="#000000" font-family="sans-serif" font-size="14" lengthAdjust="spacing" textLength="18" x="1211.5" y="692.4951">RF</text><line style="stroke:#181818;stroke-width:0.5;" x1="1192.5" x2="1338.5" y1="699.7969" y2="699.7969"/></g><!--MD5=[a6e69ebde752962da01903e5afde084a]
reverse link circuits to Fundamentals--><g id="link_circuits_Fundamentals"><path codeLine="59" d="M752.5,125.1 C752.5,125.1 752.5,228.7 752.5,228.7 " fill="none" id="circuits-backto-Fundamentals" style="stroke:#181818;stroke-width:1.0;"/><polygon fill="#181818" points="752.5,120.1,748.5,129.1,752.5,125.1,756.5,129.1,752.5,120.1" style="stroke:#181818;stroke-width:1.0;"/></g><!--MD5=[6e0ab496155b748abc20d3da25692ba1]
link Fundamentals to os--><g id="link_Fundamentals_os"><path codeLine="60" d="M785.5,228.85 C785.5,198.41 785.5,150 785.5,150 C785.5,150 1481.5,150 1481.5,150 C1481.5,150 1481.5,191.38 1481.5,191.38 " fill="none" id="Fundamentals-to-os" style="stroke:#181818;stroke-width:1.0;"/><polygon fill="#181818" points="1481.5,196.38,1485.5,187.38,1481.5,191.38,1477.5,187.38,1481.5,196.38" style="stroke:#181818;stroke-width:1.0;"/></g><!--MD5=[7a54f239a12d4b756a40b985fca80f34]
reverse link math to Fundamentals--><g id="link_math_Fundamentals"><path codeLine="61" d="M658.59,261 C658.59,261 688.26,261 688.26,261 " fill="none" id="math-backto-Fundamentals" style="stroke:#181818;stroke-width:1.0;"/><polygon fill="#181818" points="653.59,261,662.59,265,658.59,261,662.59,257,653.59,261" style="stroke:#181818;stroke-width:1.0;"/></g><!--MD5=[722515f4b142df97c3c7947f30c6def7]
reverse link control_sys to Fundamentals--><g id="link_control_sys_Fundamentals"><path codeLine="62" d="M79.5,215.99 C79.5,215.99 79.5,185 79.5,185 C79.5,185 704,185 704,185 C704,185 704,209.29 704,228.83 " fill="none" id="control_sys-backto-Fundamentals" style="stroke:#181818;stroke-width:1.0;"/><polygon fill="#181818" points="79.5,220.99,83.5,211.99,79.5,215.99,75.5,211.99,79.5,220.99" style="stroke:#181818;stroke-width:1.0;"/></g><!--MD5=[5e4b160b8ab9d2503c046e37eab76d4e]
link Fundamentals to digital_sys--><g id="link_Fundamentals_digital_sys"><path codeLine="63" d="M818.51,245 C818.51,245 848.32,245 848.32,245 " fill="none" id="Fundamentals-to-digital_sys" style="stroke:#181818;stroke-width:1.0;"/><polygon fill="#181818" points="853.32,245,844.32,241,848.32,245,844.32,249,853.32,245" style="stroke:#181818;stroke-width:1.0;"/></g><!--MD5=[29f3204d550c3740cd2fcb0f99ea897c]
reverse link computer_org to Fundamentals--><g id="link_computer_org_Fundamentals"><path codeLine="64" d="M670.25,100.53 C670.25,100.53 670.25,245 670.25,245 C670.25,245 677.78,245 688.31,245 " fill="none" id="computer_org-backto-Fundamentals" style="stroke:#181818;stroke-width:1.0;"/><polygon fill="#181818" points="670.25,95.53,666.25,104.53,670.25,100.53,674.25,104.53,670.25,95.53" style="stroke:#181818;stroke-width:1.0;"/></g><!--MD5=[72f3db91553340c34e78d7146d0a2791]
link Fundamentals to comp_arch--><g id="link_Fundamentals_comp_arch"><path codeLine="65" d="M732.83,277.04 C732.83,316.58 732.83,391 732.83,391 C732.83,391 661.19,391 661.19,391 " fill="none" id="Fundamentals-to-comp_arch" style="stroke:#181818;stroke-width:1.0;"/><polygon fill="#181818" points="656.19,391,665.19,395,661.19,391,665.19,387,656.19,391" style="stroke:#181818;stroke-width:1.0;"/></g><!--MD5=[6ba644331a0c1e9a80e3e50f3f364d0a]
link Fundamentals to topic--><g id="link_Fundamentals_topic"><path codeLine="66" d="M774.17,277.12 C774.17,277.12 774.17,389.32 774.17,389.32 " fill="none" id="Fundamentals-to-topic" style="stroke:#181818;stroke-width:1.0;"/><polygon fill="#181818" points="774.17,394.32,778.17,385.32,774.17,389.32,770.17,385.32,774.17,394.32" style="stroke:#181818;stroke-width:1.0;"/></g><!--MD5=[91961b60776462ef772f0ce79ab282fc]
link Fundamentals to Core--><g id="link_Fundamentals_Core"><path codeLine="71" d="M818.7,261 C822.16,261 824.25,261 824.25,261 C824.25,261 824.25,427 824.25,427 C824.25,427 845.76,427 845.76,427 " fill="none" id="Fundamentals-to-Core" style="stroke:#181818;stroke-width:1.0;"/><polygon fill="#181818" points="850.76,427,841.76,423,845.76,427,841.76,431,850.76,427" style="stroke:#181818;stroke-width:1.0;"/></g><!--MD5=[080114b066f8f505b1680fd3628691f0]
link Core to Industries--><g id="link_Core_Industries"><path codeLine="151" d="M883.5,450.5 C883.5,450.5 883.5,521.64 883.5,521.64 " fill="none" id="Core-to-Industries" style="stroke:#181818;stroke-width:1.0;"/><polygon fill="#181818" points="883.5,526.64,887.5,517.64,883.5,521.64,879.5,517.64,883.5,526.64" style="stroke:#181818;stroke-width:1.0;"/></g><!--MD5=[f1ff0f57315d33926be5e05eda0977d7]
link Industries to Automotive--><g id="link_Industries_Automotive"><path codeLine="152" d="M833.28,543 C727.88,543 493.25,543 493.25,543 C493.25,543 493.25,629.66 493.25,629.66 " fill="none" id="Industries-to-Automotive" style="stroke:#181818;stroke-width:1.0;"/><polygon fill="#181818" points="493.25,634.66,497.25,625.66,493.25,629.66,489.25,625.66,493.25,634.66" style="stroke:#181818;stroke-width:1.0;"/></g><!--MD5=[31eabe72dbfa2e67fe907056432709b6]
link Industries to Aerospace--><g id="link_Industries_Aerospace"><path codeLine="153" d="M833.17,559 C792.86,559 743,559 743,559 C743,559 743,646.36 743,646.36 " fill="none" id="Industries-to-Aerospace" style="stroke:#181818;stroke-width:1.0;"/><polygon fill="#181818" points="743,651.36,747,642.36,743,646.36,739,642.36,743,651.36" style="stroke:#181818;stroke-width:1.0;"/></g><!--MD5=[ea6a10bd9b98d1700b264b6d3a787334]
link Industries to Biomedical--><g id="link_Industries_Biomedical"><path codeLine="154" d="M866.83,575 C866.83,575 866.83,646.14 866.83,646.14 " fill="none" id="Industries-to-Biomedical" style="stroke:#181818;stroke-width:1.0;"/><polygon fill="#181818" points="866.83,651.14,870.83,642.14,866.83,646.14,862.83,642.14,866.83,651.14" style="stroke:#181818;stroke-width:1.0;"/></g><!--MD5=[006224d7b3c19f6daed2ced00ea7f578]
link Industries to Consumer_Electronics--><g id="link_Industries_Consumer_Electronics"><path codeLine="155" d="M900.17,575.48 C900.17,604.21 900.17,648 900.17,648 C900.17,648 967.25,648 967.25,648 " fill="none" id="Industries-to-Consumer_Electronics" style="stroke:#181818;stroke-width:1.0;"/><polygon fill="#181818" points="972.25,648,963.25,644,967.25,648,963.25,652,972.25,648" style="stroke:#181818;stroke-width:1.0;"/></g><!--MD5=[99b9090ebc5fa4e87506456561bbedae]
link Industries to Communications--><g id="link_Industries_Communications"><path codeLine="156" d="M933.83,551 C1037.56,551 1265.5,551 1265.5,551 C1265.5,551 1265.5,638.44 1265.5,638.44 " fill="none" id="Industries-to-Communications" style="stroke:#181818;stroke-width:1.0;"/><polygon fill="#181818" points="1265.5,643.44,1269.5,634.44,1265.5,638.44,1261.5,634.44,1265.5,643.44" style="stroke:#181818;stroke-width:1.0;"/></g><!--MD5=[ab92c0aff8fc98531f3d43c55c716f7a]
link Aerospace to coordinated_systems--><g id="link_Aerospace_coordinated_systems"><path codeLine="157" d="M741.5,699.77 C741.5,699.77 741.5,795.24 741.5,795.24 " fill="none" id="Aerospace-to-coordinated_systems" style="stroke:#181818;stroke-width:1.0;"/><polygon fill="#181818" points="741.5,800.24,745.5,791.24,741.5,795.24,737.5,791.24,741.5,800.24" style="stroke:#181818;stroke-width:1.0;"/></g><!--MD5=[d293778d9f2e66694b7f751faca6c1c8]
link Automotive to gateways--><g id="link_Automotive_gateways"><path codeLine="158" d="M409.27,676 C344.1,676 244.5,676 244.5,676 C244.5,676 244.5,795.31 244.5,795.31 " fill="none" id="Automotive-to-gateways" style="stroke:#181818;stroke-width:1.0;"/><polygon fill="#181818" points="244.5,800.31,248.5,791.31,244.5,795.31,240.5,791.31,244.5,800.31" style="stroke:#181818;stroke-width:1.0;"/></g><!--MD5=[e2500c4139c1b6cd53b5db118c32d363]
link Automotive to infotaiment--><g id="link_Automotive_infotaiment"><path codeLine="159" d="M423.75,716.21 C423.75,716.21 423.75,795.15 423.75,795.15 " fill="none" id="Automotive-to-infotaiment" style="stroke:#181818;stroke-width:1.0;"/><polygon fill="#181818" points="423.75,800.15,427.75,791.15,423.75,795.15,419.75,791.15,423.75,800.15" style="stroke:#181818;stroke-width:1.0;"/></g><!--MD5=[6c73b97cf16fdfc4197e0926d544ef6e]
link Automotive to driver_assistance--><g id="link_Automotive_driver_assistance"><path codeLine="160" d="M496.25,716.21 C496.25,716.21 496.25,795.15 496.25,795.15 " fill="none" id="Automotive-to-driver_assistance" style="stroke:#181818;stroke-width:1.0;"/><polygon fill="#181818" points="496.25,800.15,500.25,791.15,496.25,795.15,492.25,791.15,496.25,800.15" style="stroke:#181818;stroke-width:1.0;"/></g><!--MD5=[0634a86b93c9abe008d6d4ddc5bb40c9]
link Biomedical to medical_devices--><g id="link_Biomedical_medical_devices"><path codeLine="161" d="M902,699.77 C902,699.77 902,770.83 902,770.83 " fill="none" id="Biomedical-to-medical_devices" style="stroke:#181818;stroke-width:1.0;"/><polygon fill="#181818" points="902,775.83,906,766.83,902,770.83,898,766.83,902,775.83" style="stroke:#181818;stroke-width:1.0;"/></g></g></svg>