<?xml version="1.0" encoding="UTF-8" standalone="no"?><svg xmlns="http://www.w3.org/2000/svg" xmlns:xlink="http://www.w3.org/1999/xlink" contentScriptType="application/ecmascript" contentStyleType="text/css" height="252px" preserveAspectRatio="none" style="width:349px;height:252px;" version="1.1" viewBox="0 0 349 252" width="349px" zoomAndPan="magnify"><defs><filter height="300%" id="f9fotcfttbyri" width="300%" x="-1" y="-1"><feGaussianBlur result="blurOut" stdDeviation="2.0"/><feColorMatrix in="blurOut" result="blurOut2" type="matrix" values="0 0 0 0 0 0 0 0 0 0 0 0 0 0 0 0 0 0 .4 0"/><feOffset dx="4.0" dy="4.0" in="blurOut2" result="blurOut3"/><feBlend in="SourceGraphic" in2="blurOut3" mode="normal"/></filter></defs><g><!--MD5=[9938913ac0b9723d577c1bb4b693d11a]
class os--><rect fill="#FEFECE" filter="url(#f9fotcfttbyri)" height="99.2188" id="os" style="stroke: #A80036; stroke-width: 1.5;" width="153" x="6" y="142"/><ellipse cx="22.35" cy="158" fill="#ADD1B2" rx="11" ry="11" style="stroke: #A80036; stroke-width: 1.0;"/><path d="M25.3188,163.6406 Q24.7406,163.9375 24.1,164.0781 Q23.4594,164.2344 22.7563,164.2344 Q20.2563,164.2344 18.9281,162.5938 Q17.6156,160.9375 17.6156,157.8125 Q17.6156,154.6875 18.9281,153.0313 Q20.2563,151.375 22.7563,151.375 Q23.4594,151.375 24.1,151.5313 Q24.7563,151.6875 25.3188,151.9844 L25.3188,154.7031 Q24.6938,154.125 24.1,153.8594 Q23.5063,153.5781 22.8813,153.5781 Q21.5375,153.5781 20.85,154.6563 Q20.1625,155.7188 20.1625,157.8125 Q20.1625,159.9063 20.85,160.9844 Q21.5375,162.0469 22.8813,162.0469 Q23.5063,162.0469 24.1,161.7813 Q24.6938,161.5 25.3188,160.9219 L25.3188,163.6406 Z "/><text fill="#000000" font-family="sans-serif" font-size="12" lengthAdjust="spacingAndGlyphs" textLength="118" x="36.65" y="162.1543">Operating Systems</text><line style="stroke: #A80036; stroke-width: 1.5;" x1="7" x2="158" y1="174" y2="174"/><ellipse cx="17" cy="185" fill="none" rx="3" ry="3" style="stroke: #038048; stroke-width: 1.0;"/><text fill="#000000" font-family="sans-serif" font-size="11" lengthAdjust="spacingAndGlyphs" textLength="80" x="26" y="188.2104">Fundamentals</text><ellipse cx="17" cy="197.8047" fill="none" rx="3" ry="3" style="stroke: #038048; stroke-width: 1.0;"/><text fill="#000000" font-family="sans-serif" font-size="11" lengthAdjust="spacingAndGlyphs" textLength="69" x="26" y="201.0151">concurrency</text><line style="stroke: #A80036; stroke-width: 1.5;" x1="7" x2="158" y1="207.6094" y2="207.6094"/><ellipse cx="17" cy="218.6094" fill="#84BE84" rx="3" ry="3" style="stroke: #038048; stroke-width: 1.0;"/><text fill="#000000" font-family="sans-serif" font-size="11" lengthAdjust="spacingAndGlyphs" textLength="39" x="26" y="221.8198">pipes()</text><ellipse cx="17" cy="231.4141" fill="#84BE84" rx="3" ry="3" style="stroke: #038048; stroke-width: 1.0;"/><text fill="#000000" font-family="sans-serif" font-size="11" lengthAdjust="spacingAndGlyphs" textLength="127" x="26" y="234.6245">process and threads()</text><!--MD5=[841da8a3cf140ff232746b4ae7422aea]
class comp_arch--><rect fill="#FEFECE" filter="url(#f9fotcfttbyri)" height="73.6094" id="comp_arch" style="stroke: #A80036; stroke-width: 1.5;" width="174" x="87.5" y="8"/><ellipse cx="102.5" cy="24" fill="#ADD1B2" rx="11" ry="11" style="stroke: #A80036; stroke-width: 1.0;"/><path d="M105.4688,29.6406 Q104.8906,29.9375 104.25,30.0781 Q103.6094,30.2344 102.9063,30.2344 Q100.4063,30.2344 99.0781,28.5938 Q97.7656,26.9375 97.7656,23.8125 Q97.7656,20.6875 99.0781,19.0313 Q100.4063,17.375 102.9063,17.375 Q103.6094,17.375 104.25,17.5313 Q104.9063,17.6875 105.4688,17.9844 L105.4688,20.7031 Q104.8438,20.125 104.25,19.8594 Q103.6563,19.5781 103.0313,19.5781 Q101.6875,19.5781 101,20.6563 Q100.3125,21.7188 100.3125,23.8125 Q100.3125,25.9063 101,26.9844 Q101.6875,28.0469 103.0313,28.0469 Q103.6563,28.0469 104.25,27.7813 Q104.8438,27.5 105.4688,26.9219 L105.4688,29.6406 Z "/><text fill="#000000" font-family="sans-serif" font-size="12" lengthAdjust="spacingAndGlyphs" textLength="142" x="116.5" y="28.1543">Computer Architecture</text><line style="stroke: #A80036; stroke-width: 1.5;" x1="88.5" x2="260.5" y1="40" y2="40"/><line style="stroke: #A80036; stroke-width: 1.5;" x1="88.5" x2="260.5" y1="48" y2="48"/><ellipse cx="98.5" cy="59" fill="#84BE84" rx="3" ry="3" style="stroke: #038048; stroke-width: 1.0;"/><text fill="#000000" font-family="sans-serif" font-size="11" lengthAdjust="spacingAndGlyphs" textLength="94" x="107.5" y="62.2104">Memory Layout()</text><ellipse cx="98.5" cy="71.8047" fill="#84BE84" rx="3" ry="3" style="stroke: #038048; stroke-width: 1.0;"/><text fill="#000000" font-family="sans-serif" font-size="11" lengthAdjust="spacingAndGlyphs" textLength="26" x="107.5" y="75.0151">ISA()</text><!--MD5=[9b92be28fcc82b4724bebf169d1b270c]
class sys_int--><rect fill="#FEFECE" filter="url(#f9fotcfttbyri)" height="73.6094" id="sys_int" style="stroke: #A80036; stroke-width: 1.5;" width="144" x="194.5" y="154.5"/><ellipse cx="209.5" cy="170.5" fill="#ADD1B2" rx="11" ry="11" style="stroke: #A80036; stroke-width: 1.0;"/><path d="M212.4688,176.1406 Q211.8906,176.4375 211.25,176.5781 Q210.6094,176.7344 209.9063,176.7344 Q207.4063,176.7344 206.0781,175.0938 Q204.7656,173.4375 204.7656,170.3125 Q204.7656,167.1875 206.0781,165.5313 Q207.4063,163.875 209.9063,163.875 Q210.6094,163.875 211.25,164.0313 Q211.9063,164.1875 212.4688,164.4844 L212.4688,167.2031 Q211.8438,166.625 211.25,166.3594 Q210.6563,166.0781 210.0313,166.0781 Q208.6875,166.0781 208,167.1563 Q207.3125,168.2188 207.3125,170.3125 Q207.3125,172.4063 208,173.4844 Q208.6875,174.5469 210.0313,174.5469 Q210.6563,174.5469 211.25,174.2813 Q211.8438,174 212.4688,173.4219 L212.4688,176.1406 Z "/><text fill="#000000" font-family="sans-serif" font-size="12" lengthAdjust="spacingAndGlyphs" textLength="112" x="223.5" y="174.6543">System Interfaces</text><line style="stroke: #A80036; stroke-width: 1.5;" x1="195.5" x2="337.5" y1="186.5" y2="186.5"/><line style="stroke: #A80036; stroke-width: 1.5;" x1="195.5" x2="337.5" y1="194.5" y2="194.5"/><ellipse cx="205.5" cy="205.5" fill="#84BE84" rx="3" ry="3" style="stroke: #038048; stroke-width: 1.0;"/><text fill="#000000" font-family="sans-serif" font-size="11" lengthAdjust="spacingAndGlyphs" textLength="55" x="214.5" y="208.7104">Register()</text><ellipse cx="205.5" cy="218.3047" fill="#84BE84" rx="3" ry="3" style="stroke: #038048; stroke-width: 1.0;"/><text fill="#000000" font-family="sans-serif" font-size="11" lengthAdjust="spacingAndGlyphs" textLength="89" x="214.5" y="221.5151">Memory maps()</text><!--MD5=[1e2de21f45e22cb277a8994810133d4c]
link comp_arch to os--><path d="M151.52,82.09 C140.92,98.74 128.13,118.83 116.45,137.18 " fill="none" id="comp_arch-&gt;os" style="stroke: #A80036; stroke-width: 1.0;"/><polygon fill="#A80036" points="113.51,141.8,121.7201,136.3599,116.1972,137.5835,114.9736,132.0605,113.51,141.8" style="stroke: #A80036; stroke-width: 1.0;"/><!--MD5=[5fa5fa00000784849ea6568a45b1fd5a]
link comp_arch to sys_int--><path d="M197.48,82.09 C210.6,102.69 227.08,128.58 240.65,149.89 " fill="none" id="comp_arch-&gt;sys_int" style="stroke: #A80036; stroke-width: 1.0;"/><polygon fill="#A80036" points="243.5,154.37,242.0513,144.6283,240.8193,150.1493,235.2982,148.9174,243.5,154.37" style="stroke: #A80036; stroke-width: 1.0;"/></g></svg>