<?xml version="1.0" encoding="UTF-8" standalone="no"?><svg xmlns="http://www.w3.org/2000/svg" xmlns:xlink="http://www.w3.org/1999/xlink" contentStyleType="text/css" height="342px" preserveAspectRatio="none" style="width:836px;height:342px;background:#FFFFFF;" version="1.1" viewBox="0 0 836 342" width="836px" zoomAndPan="magnify"><defs/><g><!--MD5=[a0edccbbeaf32f3fb0cce75ced62db95]
class Industries--><g id="elem_Industries"><rect codeLine="2" fill="#F1F1F1" height="48" id="Industries" rx="2.5" ry="2.5" style="stroke:#181818;stroke-width:0.5;" width="100" x="323.5" y="7"/><ellipse cx="338.5" cy="23" fill="#F1F1F1" rx="11" ry="11" style="stroke:#181818;stroke-width:1.0;"/><path d="M337.9844,23.5625 Q336.125,22.8594 335.4688,22.0938 Q334.8281,21.3125 334.8281,20 Q334.8281,18.3125 335.9063,17.3438 Q336.9844,16.375 338.8594,16.375 Q339.7188,16.375 340.5625,16.5781 Q341.4219,16.7656 342.2656,17.1563 L342.2656,19.5469 Q341.4844,18.9844 340.6563,18.7031 Q339.8438,18.4063 339.0469,18.4063 Q338.1719,18.4063 337.6875,18.7656 Q337.2188,19.125 337.2188,19.7813 Q337.2188,20.2969 337.5625,20.6406 Q337.9063,20.9688 339,21.375 L340.0625,21.7813 Q341.5469,22.3281 342.25,23.2344 Q342.9688,24.1406 342.9688,25.5156 Q342.9688,27.3906 341.8594,28.3125 Q340.75,29.2344 338.5,29.2344 Q337.5781,29.2344 336.6563,29.0156 Q335.7344,28.7969 334.875,28.375 L334.875,25.8438 Q335.8438,26.5313 336.7656,26.875 Q337.6875,27.2188 338.5781,27.2188 Q339.4844,27.2188 339.9844,26.8125 Q340.4844,26.3906 340.4844,25.6563 Q340.4844,25.0938 340.1406,24.6875 Q339.8125,24.2656 339.1875,24.0156 L337.9844,23.5625 Z " fill="#000000"/><text fill="#000000" font-family="sans-serif" font-size="14" lengthAdjust="spacing" textLength="68" x="352.5" y="27.8467">Industries</text><line style="stroke:#181818;stroke-width:0.5;" x1="324.5" x2="422.5" y1="39" y2="39"/><line style="stroke:#181818;stroke-width:0.5;" x1="324.5" x2="422.5" y1="47" y2="47"/></g><!--MD5=[45e6db43baa2f5433acd553fd7048985]
class Automotive--><g id="elem_Automotive"><rect codeLine="8" fill="#F1F1F1" height="48" id="Automotive" rx="2.5" ry="2.5" style="stroke:#181818;stroke-width:0.5;" width="110" x="17.5" y="123"/><ellipse cx="32.5" cy="139" fill="#F1F1F1" rx="11" ry="11" style="stroke:#181818;stroke-width:1.0;"/><path d="M31.9844,139.5625 Q30.125,138.8594 29.4688,138.0938 Q28.8281,137.3125 28.8281,136 Q28.8281,134.3125 29.9063,133.3438 Q30.9844,132.375 32.8594,132.375 Q33.7188,132.375 34.5625,132.5781 Q35.4219,132.7656 36.2656,133.1563 L36.2656,135.5469 Q35.4844,134.9844 34.6563,134.7031 Q33.8438,134.4063 33.0469,134.4063 Q32.1719,134.4063 31.6875,134.7656 Q31.2188,135.125 31.2188,135.7813 Q31.2188,136.2969 31.5625,136.6406 Q31.9063,136.9688 33,137.375 L34.0625,137.7813 Q35.5469,138.3281 36.25,139.2344 Q36.9688,140.1406 36.9688,141.5156 Q36.9688,143.3906 35.8594,144.3125 Q34.75,145.2344 32.5,145.2344 Q31.5781,145.2344 30.6563,145.0156 Q29.7344,144.7969 28.875,144.375 L28.875,141.8438 Q29.8438,142.5313 30.7656,142.875 Q31.6875,143.2188 32.5781,143.2188 Q33.4844,143.2188 33.9844,142.8125 Q34.4844,142.3906 34.4844,141.6563 Q34.4844,141.0938 34.1406,140.6875 Q33.8125,140.2656 33.1875,140.0156 L31.9844,139.5625 Z " fill="#000000"/><text fill="#000000" font-family="sans-serif" font-size="14" lengthAdjust="spacing" textLength="78" x="46.5" y="143.8467">Automotive</text><line style="stroke:#181818;stroke-width:0.5;" x1="18.5" x2="126.5" y1="155" y2="155"/><line style="stroke:#181818;stroke-width:0.5;" x1="18.5" x2="126.5" y1="163" y2="163"/></g><!--MD5=[4361822c89400e320e20fbb04d3b2340]
class autosar--><g id="elem_autosar"><rect codeLine="14" fill="#F1F1F1" height="48" id="autosar" rx="2.5" ry="2.5" style="stroke:#181818;stroke-width:0.5;" width="99" x="7" y="263.5"/><ellipse cx="22" cy="279.5" fill="#ADD1B2" rx="11" ry="11" style="stroke:#181818;stroke-width:1.0;"/><path d="M24.9688,285.1406 Q24.3906,285.4375 23.75,285.5781 Q23.1094,285.7344 22.4063,285.7344 Q19.9063,285.7344 18.5781,284.0938 Q17.2656,282.4375 17.2656,279.3125 Q17.2656,276.1875 18.5781,274.5313 Q19.9063,272.875 22.4063,272.875 Q23.1094,272.875 23.75,273.0313 Q24.4063,273.1875 24.9688,273.4844 L24.9688,276.2031 Q24.3438,275.625 23.75,275.3594 Q23.1563,275.0781 22.5313,275.0781 Q21.1875,275.0781 20.5,276.1563 Q19.8125,277.2188 19.8125,279.3125 Q19.8125,281.4063 20.5,282.4844 Q21.1875,283.5469 22.5313,283.5469 Q23.1563,283.5469 23.75,283.2813 Q24.3438,283 24.9688,282.4219 L24.9688,285.1406 Z " fill="#000000"/><text fill="#000000" font-family="sans-serif" font-size="14" lengthAdjust="spacing" textLength="67" x="36" y="284.3467">AUTOSAR</text><line style="stroke:#181818;stroke-width:0.5;" x1="8" x2="105" y1="295.5" y2="295.5"/><line style="stroke:#181818;stroke-width:0.5;" x1="8" x2="105" y1="303.5" y2="303.5"/></g><!--MD5=[5d2282d317d42898064fa1f748faad5d]
class Aerospace--><g id="elem_Aerospace"><rect codeLine="18" fill="#F1F1F1" height="48" id="Aerospace" rx="2.5" ry="2.5" style="stroke:#181818;stroke-width:0.5;" width="106" x="178.5" y="123"/><ellipse cx="193.5" cy="139" fill="#F1F1F1" rx="11" ry="11" style="stroke:#181818;stroke-width:1.0;"/><path d="M192.9844,139.5625 Q191.125,138.8594 190.4688,138.0938 Q189.8281,137.3125 189.8281,136 Q189.8281,134.3125 190.9063,133.3438 Q191.9844,132.375 193.8594,132.375 Q194.7188,132.375 195.5625,132.5781 Q196.4219,132.7656 197.2656,133.1563 L197.2656,135.5469 Q196.4844,134.9844 195.6563,134.7031 Q194.8438,134.4063 194.0469,134.4063 Q193.1719,134.4063 192.6875,134.7656 Q192.2188,135.125 192.2188,135.7813 Q192.2188,136.2969 192.5625,136.6406 Q192.9063,136.9688 194,137.375 L195.0625,137.7813 Q196.5469,138.3281 197.25,139.2344 Q197.9688,140.1406 197.9688,141.5156 Q197.9688,143.3906 196.8594,144.3125 Q195.75,145.2344 193.5,145.2344 Q192.5781,145.2344 191.6563,145.0156 Q190.7344,144.7969 189.875,144.375 L189.875,141.8438 Q190.8438,142.5313 191.7656,142.875 Q192.6875,143.2188 193.5781,143.2188 Q194.4844,143.2188 194.9844,142.8125 Q195.4844,142.3906 195.4844,141.6563 Q195.4844,141.0938 195.1406,140.6875 Q194.8125,140.2656 194.1875,140.0156 L192.9844,139.5625 Z " fill="#000000"/><text fill="#000000" font-family="sans-serif" font-size="14" lengthAdjust="spacing" textLength="74" x="207.5" y="143.8467">Aerospace</text><line style="stroke:#181818;stroke-width:0.5;" x1="179.5" x2="283.5" y1="155" y2="155"/><line style="stroke:#181818;stroke-width:0.5;" x1="179.5" x2="283.5" y1="163" y2="163"/></g><!--MD5=[f9fa48aebf6b560a9768116d09d00838]
class coordinated_systems--><g id="elem_coordinated_systems"><rect codeLine="24" fill="#F1F1F1" height="48" id="coordinated_systems" rx="2.5" ry="2.5" style="stroke:#181818;stroke-width:0.5;" width="180" x="141.5" y="263.5"/><ellipse cx="156.5" cy="279.5" fill="#ADD1B2" rx="11" ry="11" style="stroke:#181818;stroke-width:1.0;"/><path d="M159.4688,285.1406 Q158.8906,285.4375 158.25,285.5781 Q157.6094,285.7344 156.9063,285.7344 Q154.4063,285.7344 153.0781,284.0938 Q151.7656,282.4375 151.7656,279.3125 Q151.7656,276.1875 153.0781,274.5313 Q154.4063,272.875 156.9063,272.875 Q157.6094,272.875 158.25,273.0313 Q158.9063,273.1875 159.4688,273.4844 L159.4688,276.2031 Q158.8438,275.625 158.25,275.3594 Q157.6563,275.0781 157.0313,275.0781 Q155.6875,275.0781 155,276.1563 Q154.3125,277.2188 154.3125,279.3125 Q154.3125,281.4063 155,282.4844 Q155.6875,283.5469 157.0313,283.5469 Q157.6563,283.5469 158.25,283.2813 Q158.8438,283 159.4688,282.4219 L159.4688,285.1406 Z " fill="#000000"/><text fill="#000000" font-family="sans-serif" font-size="14" lengthAdjust="spacing" textLength="148" x="170.5" y="284.3467">Coordinated Systems</text><line style="stroke:#181818;stroke-width:0.5;" x1="142.5" x2="320.5" y1="295.5" y2="295.5"/><line style="stroke:#181818;stroke-width:0.5;" x1="142.5" x2="320.5" y1="303.5" y2="303.5"/></g><!--MD5=[fc45f521f025cc9bae87f02ab4809ed2]
class Biomedical--><g id="elem_Biomedical"><rect codeLine="28" fill="#F1F1F1" height="48" id="Biomedical" rx="2.5" ry="2.5" style="stroke:#181818;stroke-width:0.5;" width="107" x="320" y="123"/><ellipse cx="335" cy="139" fill="#F1F1F1" rx="11" ry="11" style="stroke:#181818;stroke-width:1.0;"/><path d="M334.4844,139.5625 Q332.625,138.8594 331.9688,138.0938 Q331.3281,137.3125 331.3281,136 Q331.3281,134.3125 332.4063,133.3438 Q333.4844,132.375 335.3594,132.375 Q336.2188,132.375 337.0625,132.5781 Q337.9219,132.7656 338.7656,133.1563 L338.7656,135.5469 Q337.9844,134.9844 337.1563,134.7031 Q336.3438,134.4063 335.5469,134.4063 Q334.6719,134.4063 334.1875,134.7656 Q333.7188,135.125 333.7188,135.7813 Q333.7188,136.2969 334.0625,136.6406 Q334.4063,136.9688 335.5,137.375 L336.5625,137.7813 Q338.0469,138.3281 338.75,139.2344 Q339.4688,140.1406 339.4688,141.5156 Q339.4688,143.3906 338.3594,144.3125 Q337.25,145.2344 335,145.2344 Q334.0781,145.2344 333.1563,145.0156 Q332.2344,144.7969 331.375,144.375 L331.375,141.8438 Q332.3438,142.5313 333.2656,142.875 Q334.1875,143.2188 335.0781,143.2188 Q335.9844,143.2188 336.4844,142.8125 Q336.9844,142.3906 336.9844,141.6563 Q336.9844,141.0938 336.6406,140.6875 Q336.3125,140.2656 335.6875,140.0156 L334.4844,139.5625 Z " fill="#000000"/><text fill="#000000" font-family="sans-serif" font-size="14" lengthAdjust="spacing" textLength="75" x="349" y="143.8467">Biomedical</text><line style="stroke:#181818;stroke-width:0.5;" x1="321" x2="426" y1="155" y2="155"/><line style="stroke:#181818;stroke-width:0.5;" x1="321" x2="426" y1="163" y2="163"/></g><!--MD5=[08f55119b864267fb31cf866dfc0b8ac]
class medical_devices--><g id="elem_medical_devices"><rect codeLine="34" fill="#F1F1F1" height="96.8906" id="medical_devices" rx="2.5" ry="2.5" style="stroke:#181818;stroke-width:0.5;" width="465" x="357" y="239"/><ellipse cx="508.75" cy="255" fill="#ADD1B2" rx="11" ry="11" style="stroke:#181818;stroke-width:1.0;"/><path d="M511.7188,260.6406 Q511.1406,260.9375 510.5,261.0781 Q509.8594,261.2344 509.1563,261.2344 Q506.6563,261.2344 505.3281,259.5938 Q504.0156,257.9375 504.0156,254.8125 Q504.0156,251.6875 505.3281,250.0313 Q506.6563,248.375 509.1563,248.375 Q509.8594,248.375 510.5,248.5313 Q511.1563,248.6875 511.7188,248.9844 L511.7188,251.7031 Q511.0938,251.125 510.5,250.8594 Q509.9063,250.5781 509.2813,250.5781 Q507.9375,250.5781 507.25,251.6563 Q506.5625,252.7188 506.5625,254.8125 Q506.5625,256.9063 507.25,257.9844 Q507.9375,259.0469 509.2813,259.0469 Q509.9063,259.0469 510.5,258.7813 Q511.0938,258.5 511.7188,257.9219 L511.7188,260.6406 Z " fill="#000000"/><text fill="#000000" font-family="sans-serif" font-size="14" lengthAdjust="spacing" textLength="153" x="529.25" y="259.8467">Medical grade devices</text><line style="stroke:#181818;stroke-width:0.5;" x1="358" x2="821" y1="271" y2="271"/><ellipse cx="368" cy="284.6484" fill="none" rx="3" ry="3" style="stroke:#038048;stroke-width:1.0;"/><text fill="#000000" font-family="sans-serif" font-size="14" lengthAdjust="spacing" textLength="92" x="377" y="287.9951">X-ray imaging</text><ellipse cx="368" cy="300.9453" fill="none" rx="3" ry="3" style="stroke:#038048;stroke-width:1.0;"/><text fill="#000000" font-family="sans-serif" font-size="14" lengthAdjust="spacing" textLength="99" x="377" y="304.292">Wearable tech</text><line style="stroke:#181818;stroke-width:0.5;" x1="358" x2="821" y1="311.5938" y2="311.5938"/><ellipse cx="368" cy="325.2422" fill="#84BE84" rx="3" ry="3" style="stroke:#038048;stroke-width:1.0;"/><text fill="#000000" font-family="sans-serif" font-size="14" lengthAdjust="spacing" textLength="439" x="377" y="328.5889">QNX() : create a medical grade device with real time constraints.</text></g><!--MD5=[65a89217e9d85fd38eff4ada9c8f3317]
class Consumer_Electronics--><g id="elem_Consumer_Electronics"><rect codeLine="42" fill="#F1F1F1" height="64.2969" id="Consumer_Electronics" rx="2.5" ry="2.5" style="stroke:#181818;stroke-width:0.5;" width="184" x="462.5" y="115"/><ellipse cx="477.5" cy="131" fill="#F1F1F1" rx="11" ry="11" style="stroke:#181818;stroke-width:1.0;"/><path d="M476.9844,131.5625 Q475.125,130.8594 474.4688,130.0938 Q473.8281,129.3125 473.8281,128 Q473.8281,126.3125 474.9063,125.3438 Q475.9844,124.375 477.8594,124.375 Q478.7188,124.375 479.5625,124.5781 Q480.4219,124.7656 481.2656,125.1563 L481.2656,127.5469 Q480.4844,126.9844 479.6563,126.7031 Q478.8438,126.4063 478.0469,126.4063 Q477.1719,126.4063 476.6875,126.7656 Q476.2188,127.125 476.2188,127.7813 Q476.2188,128.2969 476.5625,128.6406 Q476.9063,128.9688 478,129.375 L479.0625,129.7813 Q480.5469,130.3281 481.25,131.2344 Q481.9688,132.1406 481.9688,133.5156 Q481.9688,135.3906 480.8594,136.3125 Q479.75,137.2344 477.5,137.2344 Q476.5781,137.2344 475.6563,137.0156 Q474.7344,136.7969 473.875,136.375 L473.875,133.8438 Q474.8438,134.5313 475.7656,134.875 Q476.6875,135.2188 477.5781,135.2188 Q478.4844,135.2188 478.9844,134.8125 Q479.4844,134.3906 479.4844,133.6563 Q479.4844,133.0938 479.1406,132.6875 Q478.8125,132.2656 478.1875,132.0156 L476.9844,131.5625 Z " fill="#000000"/><text fill="#000000" font-family="sans-serif" font-size="14" lengthAdjust="spacing" textLength="152" x="491.5" y="135.8467">Consumer Electronics</text><line style="stroke:#181818;stroke-width:0.5;" x1="463.5" x2="645.5" y1="147" y2="147"/><ellipse cx="473.5" cy="160.6484" fill="none" rx="3" ry="3" style="stroke:#038048;stroke-width:1.0;"/><text fill="#000000" font-family="sans-serif" font-size="14" lengthAdjust="spacing" textLength="119" x="482.5" y="163.9951">Home appliances</text><line style="stroke:#181818;stroke-width:0.5;" x1="463.5" x2="645.5" y1="171.2969" y2="171.2969"/></g><!--MD5=[fca3bd940cfa43daf701fb146735ea0c]
class Communications--><g id="elem_Communications"><rect codeLine="46" fill="#F1F1F1" height="64.2969" id="Communications" rx="2.5" ry="2.5" style="stroke:#181818;stroke-width:0.5;" width="148" x="681.5" y="115"/><ellipse cx="696.5" cy="131" fill="#F1F1F1" rx="11" ry="11" style="stroke:#181818;stroke-width:1.0;"/><path d="M695.9844,131.5625 Q694.125,130.8594 693.4688,130.0938 Q692.8281,129.3125 692.8281,128 Q692.8281,126.3125 693.9063,125.3438 Q694.9844,124.375 696.8594,124.375 Q697.7188,124.375 698.5625,124.5781 Q699.4219,124.7656 700.2656,125.1563 L700.2656,127.5469 Q699.4844,126.9844 698.6563,126.7031 Q697.8438,126.4063 697.0469,126.4063 Q696.1719,126.4063 695.6875,126.7656 Q695.2188,127.125 695.2188,127.7813 Q695.2188,128.2969 695.5625,128.6406 Q695.9063,128.9688 697,129.375 L698.0625,129.7813 Q699.5469,130.3281 700.25,131.2344 Q700.9688,132.1406 700.9688,133.5156 Q700.9688,135.3906 699.8594,136.3125 Q698.75,137.2344 696.5,137.2344 Q695.5781,137.2344 694.6563,137.0156 Q693.7344,136.7969 692.875,136.375 L692.875,133.8438 Q693.8438,134.5313 694.7656,134.875 Q695.6875,135.2188 696.5781,135.2188 Q697.4844,135.2188 697.9844,134.8125 Q698.4844,134.3906 698.4844,133.6563 Q698.4844,133.0938 698.1406,132.6875 Q697.8125,132.2656 697.1875,132.0156 L695.9844,131.5625 Z " fill="#000000"/><text fill="#000000" font-family="sans-serif" font-size="14" lengthAdjust="spacing" textLength="116" x="710.5" y="135.8467">Communications</text><line style="stroke:#181818;stroke-width:0.5;" x1="682.5" x2="828.5" y1="147" y2="147"/><ellipse cx="692.5" cy="160.6484" fill="none" rx="3" ry="3" style="stroke:#038048;stroke-width:1.0;"/><text fill="#000000" font-family="sans-serif" font-size="14" lengthAdjust="spacing" textLength="18" x="701.5" y="163.9951">RF</text><line style="stroke:#181818;stroke-width:0.5;" x1="682.5" x2="828.5" y1="171.2969" y2="171.2969"/></g><!--MD5=[f1ff0f57315d33926be5e05eda0977d7]
link Industries to Automotive--><g id="link_Industries_Automotive"><path codeLine="51" d="M323.46,50.95 C270.96,70.83 188.46,102.08 132.5,123.27 " fill="none" id="Industries-to-Automotive" style="stroke:#181818;stroke-width:1.0;"/><polygon fill="#181818" points="127.51,125.17,137.3435,125.719,132.1852,123.3972,134.507,118.2388,127.51,125.17" style="stroke:#181818;stroke-width:1.0;"/></g><!--MD5=[31eabe72dbfa2e67fe907056432709b6]
link Industries to Aerospace--><g id="link_Industries_Aerospace"><path codeLine="52" d="M344.76,55.07 C321.48,73.77 288.65,100.12 264.33,119.65 " fill="none" id="Industries-to-Aerospace" style="stroke:#181818;stroke-width:1.0;"/><polygon fill="#181818" points="260.19,122.96,269.7132,120.4485,264.0902,119.8313,264.7073,114.2082,260.19,122.96" style="stroke:#181818;stroke-width:1.0;"/></g><!--MD5=[ea6a10bd9b98d1700b264b6d3a787334]
link Industries to Biomedical--><g id="link_Industries_Biomedical"><path codeLine="53" d="M373.5,55.07 C373.5,73.15 373.5,98.39 373.5,117.69 " fill="none" id="Industries-to-Biomedical" style="stroke:#181818;stroke-width:1.0;"/><polygon fill="#181818" points="373.5,122.96,377.5,113.96,373.5,117.96,369.5,113.96,373.5,122.96" style="stroke:#181818;stroke-width:1.0;"/></g><!--MD5=[006224d7b3c19f6daed2ced00ea7f578]
link Industries to Consumer_Electronics--><g id="link_Industries_Consumer_Electronics"><path codeLine="54" d="M410.13,55.07 C436.22,71.5 471.7,93.85 500.96,112.28 " fill="none" id="Industries-to-Consumer_Electronics" style="stroke:#181818;stroke-width:1.0;"/><polygon fill="#181818" points="505.23,114.97,499.7254,106.803,500.9924,112.3162,495.4793,113.5832,505.23,114.97" style="stroke:#181818;stroke-width:1.0;"/></g><!--MD5=[99b9090ebc5fa4e87506456561bbedae]
link Industries to Communications--><g id="link_Industries_Communications"><path codeLine="55" d="M423.68,45.48 C481.85,61.31 580.51,88.74 664.5,115 C668.31,116.19 672.2,117.43 676.12,118.7 " fill="none" id="Industries-to-Communications" style="stroke:#181818;stroke-width:1.0;"/><polygon fill="#181818" points="681.11,120.32,673.783,113.7386,676.3539,118.7775,671.315,121.3483,681.11,120.32" style="stroke:#181818;stroke-width:1.0;"/></g><!--MD5=[ab92c0aff8fc98531f3d43c55c716f7a]
link Aerospace to coordinated_systems--><g id="link_Aerospace_coordinated_systems"><path codeLine="56" d="M231.5,171.18 C231.5,195.05 231.5,232.28 231.5,257.95 " fill="none" id="Aerospace-to-coordinated_systems" style="stroke:#181818;stroke-width:1.0;"/><polygon fill="#181818" points="231.5,263.24,235.5,254.24,231.5,258.24,227.5,254.24,231.5,263.24" style="stroke:#181818;stroke-width:1.0;"/></g><!--MD5=[4a9838cf65355e380e94557fbf558899]
link Automotive to autosar--><g id="link_Automotive_autosar"><path codeLine="57" d="M69.82,171.18 C67.05,195.15 62.73,232.59 59.76,258.27 " fill="none" id="Automotive-to-autosar" style="stroke:#181818;stroke-width:1.0;"/><polygon fill="#181818" points="59.19,263.24,64.2156,254.7698,59.775,258.2743,56.2705,253.8338,59.19,263.24" style="stroke:#181818;stroke-width:1.0;"/></g><!--MD5=[0634a86b93c9abe008d6d4ddc5bb40c9]
link Biomedical to medical_devices--><g id="link_Biomedical_medical_devices"><path codeLine="58" d="M409.65,171.18 C437.12,188.8 475.94,213.69 510.49,235.84 " fill="none" id="Biomedical-to-medical_devices" style="stroke:#181818;stroke-width:1.0;"/><polygon fill="#181818" points="515.11,238.8,509.6897,230.5768,510.8999,236.1027,505.3741,237.3129,515.11,238.8" style="stroke:#181818;stroke-width:1.0;"/></g></g></svg>