<?xml version="1.0" encoding="UTF-8" standalone="no"?><svg xmlns="http://www.w3.org/2000/svg" xmlns:xlink="http://www.w3.org/1999/xlink" contentStyleType="text/css" height="1209px" preserveAspectRatio="none" style="width:2093px;height:1209px;background:#FFFFFF;" version="1.1" viewBox="0 0 2093 1209" width="2093px" zoomAndPan="magnify"><defs/><g><!--MD5=[cde879ab447b042cc942523712f6004f]
class Fundamentals--><g id="elem_Fundamentals"><rect codeLine="5" fill="#F1F1F1" height="48" id="Fundamentals" rx="2.5" ry="2.5" style="stroke:#181818;stroke-width:0.5;" width="130" x="871.5" y="237"/><ellipse cx="886.5" cy="253" fill="#F1F1F1" rx="11" ry="11" style="stroke:#181818;stroke-width:1.0;"/><path d="M885.9844,253.5625 Q884.125,252.8594 883.4688,252.0938 Q882.8281,251.3125 882.8281,250 Q882.8281,248.3125 883.9063,247.3438 Q884.9844,246.375 886.8594,246.375 Q887.7188,246.375 888.5625,246.5781 Q889.4219,246.7656 890.2656,247.1563 L890.2656,249.5469 Q889.4844,248.9844 888.6563,248.7031 Q887.8438,248.4063 887.0469,248.4063 Q886.1719,248.4063 885.6875,248.7656 Q885.2188,249.125 885.2188,249.7813 Q885.2188,250.2969 885.5625,250.6406 Q885.9063,250.9688 887,251.375 L888.0625,251.7813 Q889.5469,252.3281 890.25,253.2344 Q890.9688,254.1406 890.9688,255.5156 Q890.9688,257.3906 889.8594,258.3125 Q888.75,259.2344 886.5,259.2344 Q885.5781,259.2344 884.6563,259.0156 Q883.7344,258.7969 882.875,258.375 L882.875,255.8438 Q883.8438,256.5313 884.7656,256.875 Q885.6875,257.2188 886.5781,257.2188 Q887.4844,257.2188 887.9844,256.8125 Q888.4844,256.3906 888.4844,255.6563 Q888.4844,255.0938 888.1406,254.6875 Q887.8125,254.2656 887.1875,254.0156 L885.9844,253.5625 Z " fill="#000000"/><text fill="#000000" font-family="sans-serif" font-size="14" lengthAdjust="spacing" textLength="98" x="900.5" y="257.8467">Fundamentals</text><line style="stroke:#181818;stroke-width:0.5;" x1="872.5" x2="1000.5" y1="269" y2="269"/><line style="stroke:#181818;stroke-width:0.5;" x1="872.5" x2="1000.5" y1="277" y2="277"/></g><!--MD5=[95fcf9f26be6eef34015cce5b5fce02b]
class data_algo--><g id="elem_data_algo"><rect codeLine="9" fill="#F1F1F1" height="162.0781" id="data_algo" rx="2.5" ry="2.5" style="stroke:#181818;stroke-width:0.5;" width="293" x="1037" y="180"/><ellipse cx="1073.15" cy="196" fill="#ADD1B2" rx="11" ry="11" style="stroke:#181818;stroke-width:1.0;"/><path d="M1076.1188,201.6406 Q1075.5406,201.9375 1074.9,202.0781 Q1074.2594,202.2344 1073.5563,202.2344 Q1071.0563,202.2344 1069.7281,200.5938 Q1068.4156,198.9375 1068.4156,195.8125 Q1068.4156,192.6875 1069.7281,191.0313 Q1071.0563,189.375 1073.5563,189.375 Q1074.2594,189.375 1074.9,189.5313 Q1075.5563,189.6875 1076.1188,189.9844 L1076.1188,192.7031 Q1075.4938,192.125 1074.9,191.8594 Q1074.3063,191.5781 1073.6813,191.5781 Q1072.3375,191.5781 1071.65,192.6563 Q1070.9625,193.7188 1070.9625,195.8125 Q1070.9625,197.9063 1071.65,198.9844 Q1072.3375,200.0469 1073.6813,200.0469 Q1074.3063,200.0469 1074.9,199.7813 Q1075.4938,199.5 1076.1188,198.9219 L1076.1188,201.6406 Z " fill="#000000"/><text fill="#000000" font-family="sans-serif" font-size="14" lengthAdjust="spacing" textLength="214" x="1091.85" y="200.8467">Data structures and Algorithms</text><line style="stroke:#181818;stroke-width:0.5;" x1="1038" x2="1329" y1="212" y2="212"/><ellipse cx="1048" cy="233.7969" fill="none" rx="3" ry="3" style="stroke:#038048;stroke-width:1.0;"/><text fill="#000000" font-family="sans-serif" font-size="14" lengthAdjust="spacing" textLength="263" x="1057" y="228.9951">Collections: Linked list, stack, queues,</text><text fill="#000000" font-family="sans-serif" font-size="14" lengthAdjust="spacing" textLength="4" x="1057" y="245.292"> </text><text fill="#000000" font-family="sans-serif" font-size="14" lengthAdjust="spacing" textLength="220" x="1057" y="261.5889">hash tables, heaps, binary trees</text><ellipse cx="1048" cy="274.5391" fill="none" rx="3" ry="3" style="stroke:#038048;stroke-width:1.0;"/><text fill="#000000" font-family="sans-serif" font-size="14" lengthAdjust="spacing" textLength="68" x="1057" y="277.8857">Interfaces</text><ellipse cx="1048" cy="290.8359" fill="none" rx="3" ry="3" style="stroke:#038048;stroke-width:1.0;"/><text fill="#000000" font-family="sans-serif" font-size="14" lengthAdjust="spacing" textLength="65" x="1057" y="294.1826">recursion</text><ellipse cx="1048" cy="307.1328" fill="none" rx="3" ry="3" style="stroke:#038048;stroke-width:1.0;"/><text fill="#000000" font-family="sans-serif" font-size="14" lengthAdjust="spacing" textLength="49" x="1057" y="310.4795">Sorting</text><ellipse cx="1048" cy="323.4297" fill="none" rx="3" ry="3" style="stroke:#038048;stroke-width:1.0;"/><text fill="#000000" font-family="sans-serif" font-size="14" lengthAdjust="spacing" textLength="50" x="1057" y="326.7764">Graphs</text><line style="stroke:#181818;stroke-width:0.5;" x1="1038" x2="1329" y1="334.0781" y2="334.0781"/></g><!--MD5=[d4dd7553ee4fc946ab868ca435bd290b]
class math--><g id="elem_math"><rect codeLine="18" fill="#F1F1F1" height="145.7813" id="math" rx="2.5" ry="2.5" style="stroke:#181818;stroke-width:0.5;" width="466" x="370.5" y="188"/><ellipse cx="555.25" cy="204" fill="#ADD1B2" rx="11" ry="11" style="stroke:#181818;stroke-width:1.0;"/><path d="M558.2188,209.6406 Q557.6406,209.9375 557,210.0781 Q556.3594,210.2344 555.6563,210.2344 Q553.1563,210.2344 551.8281,208.5938 Q550.5156,206.9375 550.5156,203.8125 Q550.5156,200.6875 551.8281,199.0313 Q553.1563,197.375 555.6563,197.375 Q556.3594,197.375 557,197.5313 Q557.6563,197.6875 558.2188,197.9844 L558.2188,200.7031 Q557.5938,200.125 557,199.8594 Q556.4063,199.5781 555.7813,199.5781 Q554.4375,199.5781 553.75,200.6563 Q553.0625,201.7188 553.0625,203.8125 Q553.0625,205.9063 553.75,206.9844 Q554.4375,208.0469 555.7813,208.0469 Q556.4063,208.0469 557,207.7813 Q557.5938,207.5 558.2188,206.9219 L558.2188,209.6406 Z " fill="#000000"/><text fill="#000000" font-family="sans-serif" font-size="14" lengthAdjust="spacing" textLength="88" x="575.75" y="208.8467">Mathematics</text><line style="stroke:#181818;stroke-width:0.5;" x1="371.5" x2="835.5" y1="220" y2="220"/><ellipse cx="381.5" cy="241.7969" fill="none" rx="3" ry="3" style="stroke:#038048;stroke-width:1.0;"/><text fill="#000000" font-family="sans-serif" font-size="14" lengthAdjust="spacing" textLength="436" x="390.5" y="236.9951">Linear Algebra: Factoring, Quadratic formula, Binomial Theorem,</text><text fill="#000000" font-family="sans-serif" font-size="14" lengthAdjust="spacing" textLength="4" x="390.5" y="253.292"> </text><text fill="#000000" font-family="sans-serif" font-size="14" lengthAdjust="spacing" textLength="82" x="390.5" y="269.5889">Inequalities.</text><ellipse cx="381.5" cy="282.5391" fill="none" rx="3" ry="3" style="stroke:#038048;stroke-width:1.0;"/><text fill="#000000" font-family="sans-serif" font-size="14" lengthAdjust="spacing" textLength="96" x="390.5" y="285.8857">Trigonometry.</text><ellipse cx="381.5" cy="298.8359" fill="none" rx="3" ry="3" style="stroke:#038048;stroke-width:1.0;"/><text fill="#000000" font-family="sans-serif" font-size="14" lengthAdjust="spacing" textLength="289" x="390.5" y="302.1826">Geometry: Distance formula, circles, lines,</text><ellipse cx="381.5" cy="315.1328" fill="none" rx="3" ry="3" style="stroke:#038048;stroke-width:1.0;"/><text fill="#000000" font-family="sans-serif" font-size="14" lengthAdjust="spacing" textLength="322" x="390.5" y="318.4795">Calculus: limits, functions, derivatives, integrals</text><line style="stroke:#181818;stroke-width:0.5;" x1="371.5" x2="835.5" y1="325.7813" y2="325.7813"/></g><!--MD5=[5662f07f23b655411764d98b0b3552de]
class digital_sys--><g id="elem_digital_sys"><rect codeLine="27" fill="#F1F1F1" height="145.7813" id="digital_sys" rx="2.5" ry="2.5" style="stroke:#181818;stroke-width:0.5;" width="500" x="1365.5" y="188"/><ellipse cx="1558.75" cy="204" fill="#ADD1B2" rx="11" ry="11" style="stroke:#181818;stroke-width:1.0;"/><path d="M1561.7188,209.6406 Q1561.1406,209.9375 1560.5,210.0781 Q1559.8594,210.2344 1559.1563,210.2344 Q1556.6563,210.2344 1555.3281,208.5938 Q1554.0156,206.9375 1554.0156,203.8125 Q1554.0156,200.6875 1555.3281,199.0313 Q1556.6563,197.375 1559.1563,197.375 Q1559.8594,197.375 1560.5,197.5313 Q1561.1563,197.6875 1561.7188,197.9844 L1561.7188,200.7031 Q1561.0938,200.125 1560.5,199.8594 Q1559.9063,199.5781 1559.2813,199.5781 Q1557.9375,199.5781 1557.25,200.6563 Q1556.5625,201.7188 1556.5625,203.8125 Q1556.5625,205.9063 1557.25,206.9844 Q1557.9375,208.0469 1559.2813,208.0469 Q1559.9063,208.0469 1560.5,207.7813 Q1561.0938,207.5 1561.7188,206.9219 L1561.7188,209.6406 Z " fill="#000000"/><text fill="#000000" font-family="sans-serif" font-size="14" lengthAdjust="spacing" textLength="105" x="1579.25" y="208.8467">Digital Systems</text><line style="stroke:#181818;stroke-width:0.5;" x1="1366.5" x2="1864.5" y1="220" y2="220"/><ellipse cx="1376.5" cy="241.7969" fill="none" rx="3" ry="3" style="stroke:#038048;stroke-width:1.0;"/><text fill="#000000" font-family="sans-serif" font-size="14" lengthAdjust="spacing" textLength="447" x="1385.5" y="236.9951">Continuous vs discrete systems: Analog vs digital, binary system,</text><text fill="#000000" font-family="sans-serif" font-size="14" lengthAdjust="spacing" textLength="4" x="1385.5" y="253.292"> </text><text fill="#000000" font-family="sans-serif" font-size="14" lengthAdjust="spacing" textLength="432" x="1385.5" y="269.5889">logic functions, boolean algebra digital waveform, data transfer,</text><text fill="#000000" font-family="sans-serif" font-size="14" lengthAdjust="spacing" textLength="4" x="1385.5" y="285.8857"> </text><text fill="#000000" font-family="sans-serif" font-size="14" lengthAdjust="spacing" textLength="474" x="1385.5" y="302.1826">combinational and sequential logic, memories, Finite state machines.</text><ellipse cx="1376.5" cy="315.1328" fill="none" rx="3" ry="3" style="stroke:#038048;stroke-width:1.0;"/><text fill="#000000" font-family="sans-serif" font-size="14" lengthAdjust="spacing" textLength="322" x="1385.5" y="318.4795">Build an 8bit computer on FPGA : memory, ALU</text><line style="stroke:#181818;stroke-width:0.5;" x1="1366.5" x2="1864.5" y1="325.7813" y2="325.7813"/></g><!--MD5=[4e64d489fe40c3619fae3517a4f095f7]
class control_eng--><g id="elem_control_eng"><rect codeLine="35" fill="#F1F1F1" height="64.2969" id="control_eng" rx="2.5" ry="2.5" style="stroke:#181818;stroke-width:0.5;" width="169" x="167" y="229"/><ellipse cx="182" cy="245" fill="#ADD1B2" rx="11" ry="11" style="stroke:#181818;stroke-width:1.0;"/><path d="M184.9688,250.6406 Q184.3906,250.9375 183.75,251.0781 Q183.1094,251.2344 182.4063,251.2344 Q179.9063,251.2344 178.5781,249.5938 Q177.2656,247.9375 177.2656,244.8125 Q177.2656,241.6875 178.5781,240.0313 Q179.9063,238.375 182.4063,238.375 Q183.1094,238.375 183.75,238.5313 Q184.4063,238.6875 184.9688,238.9844 L184.9688,241.7031 Q184.3438,241.125 183.75,240.8594 Q183.1563,240.5781 182.5313,240.5781 Q181.1875,240.5781 180.5,241.6563 Q179.8125,242.7188 179.8125,244.8125 Q179.8125,246.9063 180.5,247.9844 Q181.1875,249.0469 182.5313,249.0469 Q183.1563,249.0469 183.75,248.7813 Q184.3438,248.5 184.9688,247.9219 L184.9688,250.6406 Z " fill="#000000"/><text fill="#000000" font-family="sans-serif" font-size="14" lengthAdjust="spacing" textLength="137" x="196" y="249.8467">Control Engineering</text><line style="stroke:#181818;stroke-width:0.5;" x1="168" x2="335" y1="261" y2="261"/><ellipse cx="178" cy="274.6484" fill="none" rx="3" ry="3" style="stroke:#038048;stroke-width:1.0;"/><text fill="#000000" font-family="sans-serif" font-size="14" lengthAdjust="spacing" textLength="98" x="187" y="277.9951">Fundamentals</text><line style="stroke:#181818;stroke-width:0.5;" x1="168" x2="335" y1="285.2969" y2="285.2969"/></g><!--MD5=[841da8a3cf140ff232746b4ae7422aea]
class comp_arch--><g id="elem_comp_arch"><rect codeLine="41" fill="#F1F1F1" height="80.5938" id="comp_arch" rx="2.5" ry="2.5" style="stroke:#181818;stroke-width:0.5;" width="189" x="1521" y="402"/><ellipse cx="1536" cy="418" fill="#ADD1B2" rx="11" ry="11" style="stroke:#181818;stroke-width:1.0;"/><path d="M1538.9688,423.6406 Q1538.3906,423.9375 1537.75,424.0781 Q1537.1094,424.2344 1536.4063,424.2344 Q1533.9063,424.2344 1532.5781,422.5938 Q1531.2656,420.9375 1531.2656,417.8125 Q1531.2656,414.6875 1532.5781,413.0313 Q1533.9063,411.375 1536.4063,411.375 Q1537.1094,411.375 1537.75,411.5313 Q1538.4063,411.6875 1538.9688,411.9844 L1538.9688,414.7031 Q1538.3438,414.125 1537.75,413.8594 Q1537.1563,413.5781 1536.5313,413.5781 Q1535.1875,413.5781 1534.5,414.6563 Q1533.8125,415.7188 1533.8125,417.8125 Q1533.8125,419.9063 1534.5,420.9844 Q1535.1875,422.0469 1536.5313,422.0469 Q1537.1563,422.0469 1537.75,421.7813 Q1538.3438,421.5 1538.9688,420.9219 L1538.9688,423.6406 Z " fill="#000000"/><text fill="#000000" font-family="sans-serif" font-size="14" lengthAdjust="spacing" textLength="157" x="1550" y="422.8467">Computer Architecture</text><line style="stroke:#181818;stroke-width:0.5;" x1="1522" x2="1709" y1="434" y2="434"/><line style="stroke:#181818;stroke-width:0.5;" x1="1522" x2="1709" y1="442" y2="442"/><ellipse cx="1532" cy="455.6484" fill="#84BE84" rx="3" ry="3" style="stroke:#038048;stroke-width:1.0;"/><text fill="#000000" font-family="sans-serif" font-size="14" lengthAdjust="spacing" textLength="114" x="1541" y="458.9951">Memory Layout()</text><ellipse cx="1532" cy="471.9453" fill="#84BE84" rx="3" ry="3" style="stroke:#038048;stroke-width:1.0;"/><text fill="#000000" font-family="sans-serif" font-size="14" lengthAdjust="spacing" textLength="31" x="1541" y="475.292">ISA()</text></g><!--MD5=[9938913ac0b9723d577c1bb4b693d11a]
class os--><g id="elem_os"><rect codeLine="46" fill="#F1F1F1" height="113.1875" id="os" rx="2.5" ry="2.5" style="stroke:#181818;stroke-width:0.5;" width="186" x="1900.5" y="204.5"/><ellipse cx="1925.85" cy="220.5" fill="#ADD1B2" rx="11" ry="11" style="stroke:#181818;stroke-width:1.0;"/><path d="M1928.8188,226.1406 Q1928.2406,226.4375 1927.6,226.5781 Q1926.9594,226.7344 1926.2563,226.7344 Q1923.7563,226.7344 1922.4281,225.0938 Q1921.1156,223.4375 1921.1156,220.3125 Q1921.1156,217.1875 1922.4281,215.5313 Q1923.7563,213.875 1926.2563,213.875 Q1926.9594,213.875 1927.6,214.0313 Q1928.2563,214.1875 1928.8188,214.4844 L1928.8188,217.2031 Q1928.1938,216.625 1927.6,216.3594 Q1927.0063,216.0781 1926.3813,216.0781 Q1925.0375,216.0781 1924.35,217.1563 Q1923.6625,218.2188 1923.6625,220.3125 Q1923.6625,222.4063 1924.35,223.4844 Q1925.0375,224.5469 1926.3813,224.5469 Q1927.0063,224.5469 1927.6,224.2813 Q1928.1938,224 1928.8188,223.4219 L1928.8188,226.1406 Z " fill="#000000"/><text fill="#000000" font-family="sans-serif" font-size="14" lengthAdjust="spacing" textLength="131" x="1942.15" y="225.3467">Operating Systems</text><line style="stroke:#181818;stroke-width:0.5;" x1="1901.5" x2="2085.5" y1="236.5" y2="236.5"/><ellipse cx="1911.5" cy="250.1484" fill="none" rx="3" ry="3" style="stroke:#038048;stroke-width:1.0;"/><text fill="#000000" font-family="sans-serif" font-size="14" lengthAdjust="spacing" textLength="160" x="1920.5" y="253.4951">Programming language</text><ellipse cx="1911.5" cy="266.4453" fill="none" rx="3" ry="3" style="stroke:#038048;stroke-width:1.0;"/><text fill="#000000" font-family="sans-serif" font-size="14" lengthAdjust="spacing" textLength="86" x="1920.5" y="269.792">concurrency</text><line style="stroke:#181818;stroke-width:0.5;" x1="1901.5" x2="2085.5" y1="277.0938" y2="277.0938"/><ellipse cx="1911.5" cy="290.7422" fill="#84BE84" rx="3" ry="3" style="stroke:#038048;stroke-width:1.0;"/><text fill="#000000" font-family="sans-serif" font-size="14" lengthAdjust="spacing" textLength="48" x="1920.5" y="294.0889">pipes()</text><ellipse cx="1911.5" cy="307.0391" fill="#84BE84" rx="3" ry="3" style="stroke:#038048;stroke-width:1.0;"/><text fill="#000000" font-family="sans-serif" font-size="14" lengthAdjust="spacing" textLength="153" x="1920.5" y="310.3857">process and threads()</text></g><!--MD5=[9b92be28fcc82b4724bebf169d1b270c]
class sys_int--><g id="elem_sys_int"><rect codeLine="54" fill="#F1F1F1" height="80.5938" id="sys_int" rx="2.5" ry="2.5" style="stroke:#181818;stroke-width:0.5;" width="155" x="1171" y="23"/><ellipse cx="1186" cy="39" fill="#ADD1B2" rx="11" ry="11" style="stroke:#181818;stroke-width:1.0;"/><path d="M1188.9688,44.6406 Q1188.3906,44.9375 1187.75,45.0781 Q1187.1094,45.2344 1186.4063,45.2344 Q1183.9063,45.2344 1182.5781,43.5938 Q1181.2656,41.9375 1181.2656,38.8125 Q1181.2656,35.6875 1182.5781,34.0313 Q1183.9063,32.375 1186.4063,32.375 Q1187.1094,32.375 1187.75,32.5313 Q1188.4063,32.6875 1188.9688,32.9844 L1188.9688,35.7031 Q1188.3438,35.125 1187.75,34.8594 Q1187.1563,34.5781 1186.5313,34.5781 Q1185.1875,34.5781 1184.5,35.6563 Q1183.8125,36.7188 1183.8125,38.8125 Q1183.8125,40.9063 1184.5,41.9844 Q1185.1875,43.0469 1186.5313,43.0469 Q1187.1563,43.0469 1187.75,42.7813 Q1188.3438,42.5 1188.9688,41.9219 L1188.9688,44.6406 Z " fill="#000000"/><text fill="#000000" font-family="sans-serif" font-size="14" lengthAdjust="spacing" textLength="123" x="1200" y="43.8467">System Interfaces</text><line style="stroke:#181818;stroke-width:0.5;" x1="1172" x2="1325" y1="55" y2="55"/><line style="stroke:#181818;stroke-width:0.5;" x1="1172" x2="1325" y1="63" y2="63"/><ellipse cx="1182" cy="76.6484" fill="#84BE84" rx="3" ry="3" style="stroke:#038048;stroke-width:1.0;"/><text fill="#000000" font-family="sans-serif" font-size="14" lengthAdjust="spacing" textLength="68" x="1191" y="79.9951">Register()</text><ellipse cx="1182" cy="92.9453" fill="#84BE84" rx="3" ry="3" style="stroke:#038048;stroke-width:1.0;"/><text fill="#000000" font-family="sans-serif" font-size="14" lengthAdjust="spacing" textLength="107" x="1191" y="96.292">Memory maps()</text></g><!--MD5=[19e7a66b79e3029c437977be7cd7140c]
class circuits--><g id="elem_circuits"><rect codeLine="59" fill="#F1F1F1" height="113.1875" id="circuits" rx="2.5" ry="2.5" style="stroke:#181818;stroke-width:0.5;" width="398" x="737.5" y="7"/><ellipse cx="906.75" cy="23" fill="#ADD1B2" rx="11" ry="11" style="stroke:#181818;stroke-width:1.0;"/><path d="M909.7188,28.6406 Q909.1406,28.9375 908.5,29.0781 Q907.8594,29.2344 907.1563,29.2344 Q904.6563,29.2344 903.3281,27.5938 Q902.0156,25.9375 902.0156,22.8125 Q902.0156,19.6875 903.3281,18.0313 Q904.6563,16.375 907.1563,16.375 Q907.8594,16.375 908.5,16.5313 Q909.1563,16.6875 909.7188,16.9844 L909.7188,19.7031 Q909.0938,19.125 908.5,18.8594 Q907.9063,18.5781 907.2813,18.5781 Q905.9375,18.5781 905.25,19.6563 Q904.5625,20.7188 904.5625,22.8125 Q904.5625,24.9063 905.25,25.9844 Q905.9375,27.0469 907.2813,27.0469 Q907.9063,27.0469 908.5,26.7813 Q909.0938,26.5 909.7188,25.9219 L909.7188,28.6406 Z " fill="#000000"/><text fill="#000000" font-family="sans-serif" font-size="14" lengthAdjust="spacing" textLength="51" x="927.25" y="27.8467">Circuits</text><line style="stroke:#181818;stroke-width:0.5;" x1="738.5" x2="1134.5" y1="39" y2="39"/><ellipse cx="748.5" cy="60.7969" fill="none" rx="3" ry="3" style="stroke:#038048;stroke-width:1.0;"/><text fill="#000000" font-family="sans-serif" font-size="14" lengthAdjust="spacing" textLength="372" x="757.5" y="55.9951">Circuit analysis : current flow, voltage drop, capacitors,</text><text fill="#000000" font-family="sans-serif" font-size="14" lengthAdjust="spacing" textLength="4" x="757.5" y="72.292"> </text><text fill="#000000" font-family="sans-serif" font-size="14" lengthAdjust="spacing" textLength="201" x="757.5" y="88.5889">op-amps, diodes, transistors.</text><line style="stroke:#181818;stroke-width:0.5;" x1="738.5" x2="1134.5" y1="95.8906" y2="95.8906"/><ellipse cx="748.5" cy="109.5391" fill="#84BE84" rx="3" ry="3" style="stroke:#038048;stroke-width:1.0;"/><text fill="#000000" font-family="sans-serif" font-size="14" lengthAdjust="spacing" textLength="360" x="757.5" y="112.8857">Sound system() : filters and amplifiers, power sypply.</text></g><!--MD5=[58a5b792d0a165e9e333eabc38b4cd9a]
class Tracks--><g id="elem_Tracks"><rect codeLine="72" fill="#F1F1F1" height="48" id="Tracks" rx="2.5" ry="2.5" style="stroke:#181818;stroke-width:0.5;" width="78" x="897.5" y="575.5"/><ellipse cx="912.5" cy="591.5" fill="#F1F1F1" rx="11" ry="11" style="stroke:#181818;stroke-width:1.0;"/><path d="M911.9844,592.0625 Q910.125,591.3594 909.4688,590.5938 Q908.8281,589.8125 908.8281,588.5 Q908.8281,586.8125 909.9063,585.8438 Q910.9844,584.875 912.8594,584.875 Q913.7188,584.875 914.5625,585.0781 Q915.4219,585.2656 916.2656,585.6563 L916.2656,588.0469 Q915.4844,587.4844 914.6563,587.2031 Q913.8438,586.9063 913.0469,586.9063 Q912.1719,586.9063 911.6875,587.2656 Q911.2188,587.625 911.2188,588.2813 Q911.2188,588.7969 911.5625,589.1406 Q911.9063,589.4688 913,589.875 L914.0625,590.2813 Q915.5469,590.8281 916.25,591.7344 Q916.9688,592.6406 916.9688,594.0156 Q916.9688,595.8906 915.8594,596.8125 Q914.75,597.7344 912.5,597.7344 Q911.5781,597.7344 910.6563,597.5156 Q909.7344,597.2969 908.875,596.875 L908.875,594.3438 Q909.8438,595.0313 910.7656,595.375 Q911.6875,595.7188 912.5781,595.7188 Q913.4844,595.7188 913.9844,595.3125 Q914.4844,594.8906 914.4844,594.1563 Q914.4844,593.5938 914.1406,593.1875 Q913.8125,592.7656 913.1875,592.5156 L911.9844,592.0625 Z " fill="#000000"/><text fill="#000000" font-family="sans-serif" font-size="14" lengthAdjust="spacing" textLength="46" x="926.5" y="596.3467">Tracks</text><line style="stroke:#181818;stroke-width:0.5;" x1="898.5" x2="974.5" y1="607.5" y2="607.5"/><line style="stroke:#181818;stroke-width:0.5;" x1="898.5" x2="974.5" y1="615.5" y2="615.5"/></g><!--MD5=[634ae3a3a2992b90378b51755d1d1aac]
class machine_learning--><g id="elem_machine_learning"><rect codeLine="78" fill="#F1F1F1" height="113.1875" id="machine_learning" rx="2.5" ry="2.5" style="stroke:#181818;stroke-width:0.5;" width="342" x="1315.5" y="543"/><ellipse cx="1419.75" cy="559" fill="#ADD1B2" rx="11" ry="11" style="stroke:#181818;stroke-width:1.0;"/><path d="M1422.7188,564.6406 Q1422.1406,564.9375 1421.5,565.0781 Q1420.8594,565.2344 1420.1563,565.2344 Q1417.6563,565.2344 1416.3281,563.5938 Q1415.0156,561.9375 1415.0156,558.8125 Q1415.0156,555.6875 1416.3281,554.0313 Q1417.6563,552.375 1420.1563,552.375 Q1420.8594,552.375 1421.5,552.5313 Q1422.1563,552.6875 1422.7188,552.9844 L1422.7188,555.7031 Q1422.0938,555.125 1421.5,554.8594 Q1420.9063,554.5781 1420.2813,554.5781 Q1418.9375,554.5781 1418.25,555.6563 Q1417.5625,556.7188 1417.5625,558.8125 Q1417.5625,560.9063 1418.25,561.9844 Q1418.9375,563.0469 1420.2813,563.0469 Q1420.9063,563.0469 1421.5,562.7813 Q1422.0938,562.5 1422.7188,561.9219 L1422.7188,564.6406 Z " fill="#000000"/><text fill="#000000" font-family="sans-serif" font-size="14" lengthAdjust="spacing" textLength="121" x="1440.25" y="563.8467">Machine Learning</text><line style="stroke:#181818;stroke-width:0.5;" x1="1316.5" x2="1656.5" y1="575" y2="575"/><ellipse cx="1326.5" cy="588.6484" fill="none" rx="3" ry="3" style="stroke:#038048;stroke-width:1.0;"/><text fill="#000000" font-family="sans-serif" font-size="14" lengthAdjust="spacing" textLength="112" x="1335.5" y="591.9951">Neural networks</text><ellipse cx="1326.5" cy="604.9453" fill="none" rx="3" ry="3" style="stroke:#038048;stroke-width:1.0;"/><text fill="#000000" font-family="sans-serif" font-size="14" lengthAdjust="spacing" textLength="188" x="1335.5" y="608.292">Natural langage processing</text><ellipse cx="1326.5" cy="621.2422" fill="none" rx="3" ry="3" style="stroke:#038048;stroke-width:1.0;"/><text fill="#000000" font-family="sans-serif" font-size="14" lengthAdjust="spacing" textLength="120" x="1335.5" y="624.5889">Statistical models</text><ellipse cx="1326.5" cy="637.5391" fill="none" rx="3" ry="3" style="stroke:#038048;stroke-width:1.0;"/><text fill="#000000" font-family="sans-serif" font-size="14" lengthAdjust="spacing" textLength="316" x="1335.5" y="640.8857">Supervised, unsupervised, reinforced learning</text><line style="stroke:#181818;stroke-width:0.5;" x1="1316.5" x2="1656.5" y1="648.1875" y2="648.1875"/></g><!--MD5=[4c33a3c84ae9095521d8aa1a98e8f116]
class cybersecurity--><g id="elem_cybersecurity"><rect codeLine="85" fill="#F1F1F1" height="96.8906" id="cybersecurity" rx="2.5" ry="2.5" style="stroke:#181818;stroke-width:0.5;" width="162" x="517.5" y="551"/><ellipse cx="546.9" cy="567" fill="#ADD1B2" rx="11" ry="11" style="stroke:#181818;stroke-width:1.0;"/><path d="M549.8688,572.6406 Q549.2906,572.9375 548.65,573.0781 Q548.0094,573.2344 547.3063,573.2344 Q544.8063,573.2344 543.4781,571.5938 Q542.1656,569.9375 542.1656,566.8125 Q542.1656,563.6875 543.4781,562.0313 Q544.8063,560.375 547.3063,560.375 Q548.0094,560.375 548.65,560.5313 Q549.3063,560.6875 549.8688,560.9844 L549.8688,563.7031 Q549.2438,563.125 548.65,562.8594 Q548.0563,562.5781 547.4313,562.5781 Q546.0875,562.5781 545.4,563.6563 Q544.7125,564.7188 544.7125,566.8125 Q544.7125,568.9063 545.4,569.9844 Q546.0875,571.0469 547.4313,571.0469 Q548.0563,571.0469 548.65,570.7813 Q549.2438,570.5 549.8688,569.9219 L549.8688,572.6406 Z " fill="#000000"/><text fill="#000000" font-family="sans-serif" font-size="14" lengthAdjust="spacing" textLength="94" x="564.1" y="571.8467">Cybersecurity</text><line style="stroke:#181818;stroke-width:0.5;" x1="518.5" x2="678.5" y1="583" y2="583"/><ellipse cx="528.5" cy="596.6484" fill="none" rx="3" ry="3" style="stroke:#038048;stroke-width:1.0;"/><text fill="#000000" font-family="sans-serif" font-size="14" lengthAdjust="spacing" textLength="125" x="537.5" y="599.9951">Risk management</text><ellipse cx="528.5" cy="612.9453" fill="none" rx="3" ry="3" style="stroke:#038048;stroke-width:1.0;"/><text fill="#000000" font-family="sans-serif" font-size="14" lengthAdjust="spacing" textLength="90" x="537.5" y="616.292">cryptography</text><ellipse cx="528.5" cy="629.2422" fill="none" rx="3" ry="3" style="stroke:#038048;stroke-width:1.0;"/><text fill="#000000" font-family="sans-serif" font-size="14" lengthAdjust="spacing" textLength="136" x="537.5" y="632.5889">Defensive/offensive</text><line style="stroke:#181818;stroke-width:0.5;" x1="518.5" x2="678.5" y1="639.8906" y2="639.8906"/></g><!--MD5=[2e80c468e8c902c8e00fdf90d39643e8]
class firmware--><g id="elem_firmware"><rect codeLine="91" fill="#F1F1F1" height="80.5938" id="firmware" rx="2.5" ry="2.5" style="stroke:#181818;stroke-width:0.5;" width="217" x="7" y="559"/><ellipse cx="78.25" cy="575" fill="#ADD1B2" rx="11" ry="11" style="stroke:#181818;stroke-width:1.0;"/><path d="M81.2188,580.6406 Q80.6406,580.9375 80,581.0781 Q79.3594,581.2344 78.6563,581.2344 Q76.1563,581.2344 74.8281,579.5938 Q73.5156,577.9375 73.5156,574.8125 Q73.5156,571.6875 74.8281,570.0313 Q76.1563,568.375 78.6563,568.375 Q79.3594,568.375 80,568.5313 Q80.6563,568.6875 81.2188,568.9844 L81.2188,571.7031 Q80.5938,571.125 80,570.8594 Q79.4063,570.5781 78.7813,570.5781 Q77.4375,570.5781 76.75,571.6563 Q76.0625,572.7188 76.0625,574.8125 Q76.0625,576.9063 76.75,577.9844 Q77.4375,579.0469 78.7813,579.0469 Q79.4063,579.0469 80,578.7813 Q80.5938,578.5 81.2188,577.9219 L81.2188,580.6406 Z " fill="#000000"/><text fill="#000000" font-family="sans-serif" font-size="14" lengthAdjust="spacing" textLength="62" x="98.75" y="579.8467">Firmware</text><line style="stroke:#181818;stroke-width:0.5;" x1="8" x2="223" y1="591" y2="591"/><ellipse cx="18" cy="604.6484" fill="none" rx="3" ry="3" style="stroke:#038048;stroke-width:1.0;"/><text fill="#000000" font-family="sans-serif" font-size="14" lengthAdjust="spacing" textLength="191" x="27" y="607.9951">hardware-software coupling</text><ellipse cx="18" cy="620.9453" fill="none" rx="3" ry="3" style="stroke:#038048;stroke-width:1.0;"/><text fill="#000000" font-family="sans-serif" font-size="14" lengthAdjust="spacing" textLength="165" x="27" y="624.292">baremetal programming</text><line style="stroke:#181818;stroke-width:0.5;" x1="8" x2="223" y1="631.5938" y2="631.5938"/></g><!--MD5=[6d4a9c7bb4a172a1034497390f076078]
class iot--><g id="elem_iot"><rect codeLine="96" fill="#F1F1F1" height="80.5938" id="iot" rx="2.5" ry="2.5" style="stroke:#181818;stroke-width:0.5;" width="198" x="271.5" y="716"/><ellipse cx="303.6" cy="732" fill="#ADD1B2" rx="11" ry="11" style="stroke:#181818;stroke-width:1.0;"/><path d="M306.5688,737.6406 Q305.9906,737.9375 305.35,738.0781 Q304.7094,738.2344 304.0063,738.2344 Q301.5063,738.2344 300.1781,736.5938 Q298.8656,734.9375 298.8656,731.8125 Q298.8656,728.6875 300.1781,727.0313 Q301.5063,725.375 304.0063,725.375 Q304.7094,725.375 305.35,725.5313 Q306.0063,725.6875 306.5688,725.9844 L306.5688,728.7031 Q305.9438,728.125 305.35,727.8594 Q304.7563,727.5781 304.1313,727.5781 Q302.7875,727.5781 302.1,728.6563 Q301.4125,729.7188 301.4125,731.8125 Q301.4125,733.9063 302.1,734.9844 Q302.7875,736.0469 304.1313,736.0469 Q304.7563,736.0469 305.35,735.7813 Q305.9438,735.5 306.5688,734.9219 L306.5688,737.6406 Z " fill="#000000"/><text fill="#000000" font-family="sans-serif" font-size="14" lengthAdjust="spacing" textLength="124" x="321.4" y="736.8467">Internet Of Things</text><line style="stroke:#181818;stroke-width:0.5;" x1="272.5" x2="468.5" y1="748" y2="748"/><ellipse cx="282.5" cy="761.6484" fill="none" rx="3" ry="3" style="stroke:#038048;stroke-width:1.0;"/><text fill="#000000" font-family="sans-serif" font-size="14" lengthAdjust="spacing" textLength="78" x="291.5" y="764.9951">Networking</text><ellipse cx="282.5" cy="777.9453" fill="none" rx="3" ry="3" style="stroke:#038048;stroke-width:1.0;"/><text fill="#000000" font-family="sans-serif" font-size="14" lengthAdjust="spacing" textLength="172" x="291.5" y="781.292">Cloud base technologies</text><line style="stroke:#181818;stroke-width:0.5;" x1="272.5" x2="468.5" y1="788.5938" y2="788.5938"/></g><!--MD5=[9f7b80dbbeb7f074a486108e388969be]
class sys_control--><g id="elem_sys_control"><rect codeLine="101" fill="#F1F1F1" height="96.8906" id="sys_control" rx="2.5" ry="2.5" style="stroke:#181818;stroke-width:0.5;" width="270" x="1010.5" y="551"/><ellipse cx="1084.75" cy="567" fill="#ADD1B2" rx="11" ry="11" style="stroke:#181818;stroke-width:1.0;"/><path d="M1087.7188,572.6406 Q1087.1406,572.9375 1086.5,573.0781 Q1085.8594,573.2344 1085.1563,573.2344 Q1082.6563,573.2344 1081.3281,571.5938 Q1080.0156,569.9375 1080.0156,566.8125 Q1080.0156,563.6875 1081.3281,562.0313 Q1082.6563,560.375 1085.1563,560.375 Q1085.8594,560.375 1086.5,560.5313 Q1087.1563,560.6875 1087.7188,560.9844 L1087.7188,563.7031 Q1087.0938,563.125 1086.5,562.8594 Q1085.9063,562.5781 1085.2813,562.5781 Q1083.9375,562.5781 1083.25,563.6563 Q1082.5625,564.7188 1082.5625,566.8125 Q1082.5625,568.9063 1083.25,569.9844 Q1083.9375,571.0469 1085.2813,571.0469 Q1085.9063,571.0469 1086.5,570.7813 Q1087.0938,570.5 1087.7188,569.9219 L1087.7188,572.6406 Z " fill="#000000"/><text fill="#000000" font-family="sans-serif" font-size="14" lengthAdjust="spacing" textLength="113" x="1105.25" y="571.8467">Systems Control</text><line style="stroke:#181818;stroke-width:0.5;" x1="1011.5" x2="1279.5" y1="583" y2="583"/><ellipse cx="1021.5" cy="596.6484" fill="none" rx="3" ry="3" style="stroke:#038048;stroke-width:1.0;"/><text fill="#000000" font-family="sans-serif" font-size="14" lengthAdjust="spacing" textLength="244" x="1030.5" y="599.9951">Controllers: Fuzzy, PID, state space</text><ellipse cx="1021.5" cy="612.9453" fill="none" rx="3" ry="3" style="stroke:#038048;stroke-width:1.0;"/><text fill="#000000" font-family="sans-serif" font-size="14" lengthAdjust="spacing" textLength="126" x="1030.5" y="616.292">Systems Modeling</text><line style="stroke:#181818;stroke-width:0.5;" x1="1011.5" x2="1279.5" y1="623.5938" y2="623.5938"/><ellipse cx="1021.5" cy="637.2422" fill="#84BE84" rx="3" ry="3" style="stroke:#038048;stroke-width:1.0;"/><text fill="#000000" font-family="sans-serif" font-size="14" lengthAdjust="spacing" textLength="108" x="1030.5" y="640.5889">Matlab/Octave()</text></g><!--MD5=[c80cc275215ba0955fdd4542fd48feb0]
class embedded_linux--><g id="elem_embedded_linux"><rect codeLine="107" fill="#F1F1F1" height="64.2969" id="embedded_linux" rx="2.5" ry="2.5" style="stroke:#181818;stroke-width:0.5;" width="147" x="715" y="567.5"/><ellipse cx="730" cy="583.5" fill="#ADD1B2" rx="11" ry="11" style="stroke:#181818;stroke-width:1.0;"/><path d="M732.9688,589.1406 Q732.3906,589.4375 731.75,589.5781 Q731.1094,589.7344 730.4063,589.7344 Q727.9063,589.7344 726.5781,588.0938 Q725.2656,586.4375 725.2656,583.3125 Q725.2656,580.1875 726.5781,578.5313 Q727.9063,576.875 730.4063,576.875 Q731.1094,576.875 731.75,577.0313 Q732.4063,577.1875 732.9688,577.4844 L732.9688,580.2031 Q732.3438,579.625 731.75,579.3594 Q731.1563,579.0781 730.5313,579.0781 Q729.1875,579.0781 728.5,580.1563 Q727.8125,581.2188 727.8125,583.3125 Q727.8125,585.4063 728.5,586.4844 Q729.1875,587.5469 730.5313,587.5469 Q731.1563,587.5469 731.75,587.2813 Q732.3438,587 732.9688,586.4219 L732.9688,589.1406 Z " fill="#000000"/><text fill="#000000" font-family="sans-serif" font-size="14" lengthAdjust="spacing" textLength="115" x="744" y="588.3467">Embedded Linux</text><line style="stroke:#181818;stroke-width:0.5;" x1="716" x2="861" y1="599.5" y2="599.5"/><ellipse cx="726" cy="613.1484" fill="none" rx="3" ry="3" style="stroke:#038048;stroke-width:1.0;"/><text fill="#000000" font-family="sans-serif" font-size="14" lengthAdjust="spacing" textLength="99" x="735" y="616.4951">Device Drivers</text><line style="stroke:#181818;stroke-width:0.5;" x1="716" x2="861" y1="623.7969" y2="623.7969"/></g><!--MD5=[1d8be22ded7752054a87f444fa54132d]
class audio--><g id="elem_audio"><rect codeLine="111" fill="#F1F1F1" height="80.5938" id="audio" rx="2.5" ry="2.5" style="stroke:#181818;stroke-width:0.5;" width="148" x="1692.5" y="559"/><ellipse cx="1742.75" cy="575" fill="#ADD1B2" rx="11" ry="11" style="stroke:#181818;stroke-width:1.0;"/><path d="M1745.7188,580.6406 Q1745.1406,580.9375 1744.5,581.0781 Q1743.8594,581.2344 1743.1563,581.2344 Q1740.6563,581.2344 1739.3281,579.5938 Q1738.0156,577.9375 1738.0156,574.8125 Q1738.0156,571.6875 1739.3281,570.0313 Q1740.6563,568.375 1743.1563,568.375 Q1743.8594,568.375 1744.5,568.5313 Q1745.1563,568.6875 1745.7188,568.9844 L1745.7188,571.7031 Q1745.0938,571.125 1744.5,570.8594 Q1743.9063,570.5781 1743.2813,570.5781 Q1741.9375,570.5781 1741.25,571.6563 Q1740.5625,572.7188 1740.5625,574.8125 Q1740.5625,576.9063 1741.25,577.9844 Q1741.9375,579.0469 1743.2813,579.0469 Q1743.9063,579.0469 1744.5,578.7813 Q1745.0938,578.5 1745.7188,577.9219 L1745.7188,580.6406 Z " fill="#000000"/><text fill="#000000" font-family="sans-serif" font-size="14" lengthAdjust="spacing" textLength="39" x="1763.25" y="579.8467">Audio</text><line style="stroke:#181818;stroke-width:0.5;" x1="1693.5" x2="1839.5" y1="591" y2="591"/><ellipse cx="1703.5" cy="604.6484" fill="none" rx="3" ry="3" style="stroke:#038048;stroke-width:1.0;"/><text fill="#000000" font-family="sans-serif" font-size="14" lengthAdjust="spacing" textLength="122" x="1712.5" y="607.9951">Signal processing</text><line style="stroke:#181818;stroke-width:0.5;" x1="1693.5" x2="1839.5" y1="615.2969" y2="615.2969"/><ellipse cx="1703.5" cy="628.9453" fill="#84BE84" rx="3" ry="3" style="stroke:#038048;stroke-width:1.0;"/><text fill="#000000" font-family="sans-serif" font-size="14" lengthAdjust="spacing" textLength="31" x="1712.5" y="632.292">I2S()</text></g><!--MD5=[b14acb90230e224b52809523fbe9ead9]
class radio_frequency--><g id="elem_radio_frequency"><rect codeLine="116" fill="#F1F1F1" height="64.2969" id="radio_frequency" rx="2.5" ry="2.5" style="stroke:#181818;stroke-width:0.5;" width="178" x="42.5" y="724.5"/><ellipse cx="71" cy="740.5" fill="#ADD1B2" rx="11" ry="11" style="stroke:#181818;stroke-width:1.0;"/><path d="M73.9688,746.1406 Q73.3906,746.4375 72.75,746.5781 Q72.1094,746.7344 71.4063,746.7344 Q68.9063,746.7344 67.5781,745.0938 Q66.2656,743.4375 66.2656,740.3125 Q66.2656,737.1875 67.5781,735.5313 Q68.9063,733.875 71.4063,733.875 Q72.1094,733.875 72.75,734.0313 Q73.4063,734.1875 73.9688,734.4844 L73.9688,737.2031 Q73.3438,736.625 72.75,736.3594 Q72.1563,736.0781 71.5313,736.0781 Q70.1875,736.0781 69.5,737.1563 Q68.8125,738.2188 68.8125,740.3125 Q68.8125,742.4063 69.5,743.4844 Q70.1875,744.5469 71.5313,744.5469 Q72.1563,744.5469 72.75,744.2813 Q73.3438,744 73.9688,743.4219 L73.9688,746.1406 Z " fill="#000000"/><text fill="#000000" font-family="sans-serif" font-size="14" lengthAdjust="spacing" textLength="116" x="88" y="745.3467">Radio Frequency</text><line style="stroke:#181818;stroke-width:0.5;" x1="43.5" x2="219.5" y1="756.5" y2="756.5"/><ellipse cx="53.5" cy="770.1484" fill="none" rx="3" ry="3" style="stroke:#038048;stroke-width:1.0;"/><text fill="#000000" font-family="sans-serif" font-size="14" lengthAdjust="spacing" textLength="152" x="62.5" y="773.4951">LoRa communications</text><line style="stroke:#181818;stroke-width:0.5;" x1="43.5" x2="219.5" y1="780.7969" y2="780.7969"/></g><!--MD5=[8a0b9bb0c270f316377319bfc4abd4ac]
class embedded_software--><g id="elem_embedded_software"><rect codeLine="120" fill="#F1F1F1" height="113.1875" id="embedded_software" rx="2.5" ry="2.5" style="stroke:#181818;stroke-width:0.5;" width="223" x="259" y="543"/><ellipse cx="336.25" cy="559" fill="#ADD1B2" rx="11" ry="11" style="stroke:#181818;stroke-width:1.0;"/><path d="M339.2188,564.6406 Q338.6406,564.9375 338,565.0781 Q337.3594,565.2344 336.6563,565.2344 Q334.1563,565.2344 332.8281,563.5938 Q331.5156,561.9375 331.5156,558.8125 Q331.5156,555.6875 332.8281,554.0313 Q334.1563,552.375 336.6563,552.375 Q337.3594,552.375 338,552.5313 Q338.6563,552.6875 339.2188,552.9844 L339.2188,555.7031 Q338.5938,555.125 338,554.8594 Q337.4063,554.5781 336.7813,554.5781 Q335.4375,554.5781 334.75,555.6563 Q334.0625,556.7188 334.0625,558.8125 Q334.0625,560.9063 334.75,561.9844 Q335.4375,563.0469 336.7813,563.0469 Q337.4063,563.0469 338,562.7813 Q338.5938,562.5 339.2188,561.9219 L339.2188,564.6406 Z " fill="#000000"/><text fill="#000000" font-family="sans-serif" font-size="14" lengthAdjust="spacing" textLength="60" x="356.75" y="563.8467">Software</text><line style="stroke:#181818;stroke-width:0.5;" x1="260" x2="481" y1="575" y2="575"/><ellipse cx="270" cy="588.6484" fill="none" rx="3" ry="3" style="stroke:#038048;stroke-width:1.0;"/><text fill="#000000" font-family="sans-serif" font-size="14" lengthAdjust="spacing" textLength="111" x="279" y="591.9951">Design patterns</text><ellipse cx="270" cy="604.9453" fill="none" rx="3" ry="3" style="stroke:#038048;stroke-width:1.0;"/><text fill="#000000" font-family="sans-serif" font-size="14" lengthAdjust="spacing" textLength="197" x="279" y="608.292">Portability and standarization</text><line style="stroke:#181818;stroke-width:0.5;" x1="260" x2="481" y1="615.5938" y2="615.5938"/><ellipse cx="270" cy="629.2422" fill="#84BE84" rx="3" ry="3" style="stroke:#038048;stroke-width:1.0;"/><text fill="#000000" font-family="sans-serif" font-size="14" lengthAdjust="spacing" textLength="106" x="279" y="632.5889">HW emulators()</text><ellipse cx="270" cy="645.5391" fill="#84BE84" rx="3" ry="3" style="stroke:#038048;stroke-width:1.0;"/><text fill="#000000" font-family="sans-serif" font-size="14" lengthAdjust="spacing" textLength="49" x="279" y="648.8857">RTOS()</text></g><!--MD5=[4f126e13281f29ac4ec68ad2ea50a0fb]
class tester--><g id="elem_tester"><rect codeLine="127" fill="#F1F1F1" height="64.2969" id="tester" rx="2.5" ry="2.5" style="stroke:#181818;stroke-width:0.5;" width="120" x="1875.5" y="567.5"/><ellipse cx="1909.85" cy="583.5" fill="#ADD1B2" rx="11" ry="11" style="stroke:#181818;stroke-width:1.0;"/><path d="M1912.8188,589.1406 Q1912.2406,589.4375 1911.6,589.5781 Q1910.9594,589.7344 1910.2563,589.7344 Q1907.7563,589.7344 1906.4281,588.0938 Q1905.1156,586.4375 1905.1156,583.3125 Q1905.1156,580.1875 1906.4281,578.5313 Q1907.7563,576.875 1910.2563,576.875 Q1910.9594,576.875 1911.6,577.0313 Q1912.2563,577.1875 1912.8188,577.4844 L1912.8188,580.2031 Q1912.1938,579.625 1911.6,579.3594 Q1911.0063,579.0781 1910.3813,579.0781 Q1909.0375,579.0781 1908.35,580.1563 Q1907.6625,581.2188 1907.6625,583.3125 Q1907.6625,585.4063 1908.35,586.4844 Q1909.0375,587.5469 1910.3813,587.5469 Q1911.0063,587.5469 1911.6,587.2813 Q1912.1938,587 1912.8188,586.4219 L1912.8188,589.1406 Z " fill="#000000"/><text fill="#000000" font-family="sans-serif" font-size="14" lengthAdjust="spacing" textLength="45" x="1928.15" y="588.3467">Tester</text><line style="stroke:#181818;stroke-width:0.5;" x1="1876.5" x2="1994.5" y1="599.5" y2="599.5"/><ellipse cx="1886.5" cy="613.1484" fill="none" rx="3" ry="3" style="stroke:#038048;stroke-width:1.0;"/><text fill="#000000" font-family="sans-serif" font-size="14" lengthAdjust="spacing" textLength="94" x="1895.5" y="616.4951">breaking stuff</text><line style="stroke:#181818;stroke-width:0.5;" x1="1876.5" x2="1994.5" y1="623.7969" y2="623.7969"/></g><!--MD5=[2e9c6ef7d60df07eb1342d35d85286c0]
class Industry_applications--><g id="elem_Industry_applications"><rect codeLine="140" fill="#F1F1F1" height="48" id="Industry_applications" rx="2.5" ry="2.5" style="stroke:#181818;stroke-width:0.5;" width="173" x="850" y="857"/><ellipse cx="865" cy="873" fill="#F1F1F1" rx="11" ry="11" style="stroke:#181818;stroke-width:1.0;"/><path d="M864.4844,873.5625 Q862.625,872.8594 861.9688,872.0938 Q861.3281,871.3125 861.3281,870 Q861.3281,868.3125 862.4063,867.3438 Q863.4844,866.375 865.3594,866.375 Q866.2188,866.375 867.0625,866.5781 Q867.9219,866.7656 868.7656,867.1563 L868.7656,869.5469 Q867.9844,868.9844 867.1563,868.7031 Q866.3438,868.4063 865.5469,868.4063 Q864.6719,868.4063 864.1875,868.7656 Q863.7188,869.125 863.7188,869.7813 Q863.7188,870.2969 864.0625,870.6406 Q864.4063,870.9688 865.5,871.375 L866.5625,871.7813 Q868.0469,872.3281 868.75,873.2344 Q869.4688,874.1406 869.4688,875.5156 Q869.4688,877.3906 868.3594,878.3125 Q867.25,879.2344 865,879.2344 Q864.0781,879.2344 863.1563,879.0156 Q862.2344,878.7969 861.375,878.375 L861.375,875.8438 Q862.3438,876.5313 863.2656,876.875 Q864.1875,877.2188 865.0781,877.2188 Q865.9844,877.2188 866.4844,876.8125 Q866.9844,876.3906 866.9844,875.6563 Q866.9844,875.0938 866.6406,874.6875 Q866.3125,874.2656 865.6875,874.0156 L864.4844,873.5625 Z " fill="#000000"/><text fill="#000000" font-family="sans-serif" font-size="14" lengthAdjust="spacing" textLength="141" x="879" y="877.8467">Industry applications</text><line style="stroke:#181818;stroke-width:0.5;" x1="851" x2="1022" y1="889" y2="889"/><line style="stroke:#181818;stroke-width:0.5;" x1="851" x2="1022" y1="897" y2="897"/></g><!--MD5=[45e6db43baa2f5433acd553fd7048985]
class Automotive--><g id="elem_Automotive"><rect codeLine="147" fill="#F1F1F1" height="80.5938" id="Automotive" rx="2.5" ry="2.5" style="stroke:#181818;stroke-width:0.5;" width="110" x="393.5" y="965"/><ellipse cx="408.5" cy="981" fill="#F1F1F1" rx="11" ry="11" style="stroke:#181818;stroke-width:1.0;"/><path d="M407.9844,981.5625 Q406.125,980.8594 405.4688,980.0938 Q404.8281,979.3125 404.8281,978 Q404.8281,976.3125 405.9063,975.3438 Q406.9844,974.375 408.8594,974.375 Q409.7188,974.375 410.5625,974.5781 Q411.4219,974.7656 412.2656,975.1563 L412.2656,977.5469 Q411.4844,976.9844 410.6563,976.7031 Q409.8438,976.4063 409.0469,976.4063 Q408.1719,976.4063 407.6875,976.7656 Q407.2188,977.125 407.2188,977.7813 Q407.2188,978.2969 407.5625,978.6406 Q407.9063,978.9688 409,979.375 L410.0625,979.7813 Q411.5469,980.3281 412.25,981.2344 Q412.9688,982.1406 412.9688,983.5156 Q412.9688,985.3906 411.8594,986.3125 Q410.75,987.2344 408.5,987.2344 Q407.5781,987.2344 406.6563,987.0156 Q405.7344,986.7969 404.875,986.375 L404.875,983.8438 Q405.8438,984.5313 406.7656,984.875 Q407.6875,985.2188 408.5781,985.2188 Q409.4844,985.2188 409.9844,984.8125 Q410.4844,984.3906 410.4844,983.6563 Q410.4844,983.0938 410.1406,982.6875 Q409.8125,982.2656 409.1875,982.0156 L407.9844,981.5625 Z " fill="#000000"/><text fill="#000000" font-family="sans-serif" font-size="14" lengthAdjust="spacing" textLength="78" x="422.5" y="985.8467">Automotive</text><line style="stroke:#181818;stroke-width:0.5;" x1="394.5" x2="502.5" y1="997" y2="997"/><ellipse cx="404.5" cy="1010.6484" fill="none" rx="3" ry="3" style="stroke:#038048;stroke-width:1.0;"/><text fill="#000000" font-family="sans-serif" font-size="14" lengthAdjust="spacing" textLength="43" x="413.5" y="1013.9951">MISRA</text><ellipse cx="404.5" cy="1026.9453" fill="none" rx="3" ry="3" style="stroke:#038048;stroke-width:1.0;"/><text fill="#000000" font-family="sans-serif" font-size="14" lengthAdjust="spacing" textLength="29" x="413.5" y="1030.292">CAN</text><line style="stroke:#181818;stroke-width:0.5;" x1="394.5" x2="502.5" y1="1037.5938" y2="1037.5938"/></g><!--MD5=[4ec69182b6251e906d721d4a4277d128]
class gateways--><g id="elem_gateways"><rect codeLine="152" fill="#F1F1F1" height="48" id="gateways" rx="2.5" ry="2.5" style="stroke:#181818;stroke-width:0.5;" width="99" x="12" y="1130.5"/><ellipse cx="27" cy="1146.5" fill="#ADD1B2" rx="11" ry="11" style="stroke:#181818;stroke-width:1.0;"/><path d="M29.9688,1152.1406 Q29.3906,1152.4375 28.75,1152.5781 Q28.1094,1152.7344 27.4063,1152.7344 Q24.9063,1152.7344 23.5781,1151.0938 Q22.2656,1149.4375 22.2656,1146.3125 Q22.2656,1143.1875 23.5781,1141.5313 Q24.9063,1139.875 27.4063,1139.875 Q28.1094,1139.875 28.75,1140.0313 Q29.4063,1140.1875 29.9688,1140.4844 L29.9688,1143.2031 Q29.3438,1142.625 28.75,1142.3594 Q28.1563,1142.0781 27.5313,1142.0781 Q26.1875,1142.0781 25.5,1143.1563 Q24.8125,1144.2188 24.8125,1146.3125 Q24.8125,1148.4063 25.5,1149.4844 Q26.1875,1150.5469 27.5313,1150.5469 Q28.1563,1150.5469 28.75,1150.2813 Q29.3438,1150 29.9688,1149.4219 L29.9688,1152.1406 Z " fill="#000000"/><text fill="#000000" font-family="sans-serif" font-size="14" lengthAdjust="spacing" textLength="67" x="41" y="1151.3467">Gateways</text><line style="stroke:#181818;stroke-width:0.5;" x1="13" x2="110" y1="1162.5" y2="1162.5"/><line style="stroke:#181818;stroke-width:0.5;" x1="13" x2="110" y1="1170.5" y2="1170.5"/></g><!--MD5=[615c2ccd1649c3c43f8cbd5a4d37cf1e]
class infotaiment--><g id="elem_infotaiment"><rect codeLine="156" fill="#F1F1F1" height="48" id="infotaiment" rx="2.5" ry="2.5" style="stroke:#181818;stroke-width:0.5;" width="109" x="146" y="1130.5"/><ellipse cx="161" cy="1146.5" fill="#ADD1B2" rx="11" ry="11" style="stroke:#181818;stroke-width:1.0;"/><path d="M163.9688,1152.1406 Q163.3906,1152.4375 162.75,1152.5781 Q162.1094,1152.7344 161.4063,1152.7344 Q158.9063,1152.7344 157.5781,1151.0938 Q156.2656,1149.4375 156.2656,1146.3125 Q156.2656,1143.1875 157.5781,1141.5313 Q158.9063,1139.875 161.4063,1139.875 Q162.1094,1139.875 162.75,1140.0313 Q163.4063,1140.1875 163.9688,1140.4844 L163.9688,1143.2031 Q163.3438,1142.625 162.75,1142.3594 Q162.1563,1142.0781 161.5313,1142.0781 Q160.1875,1142.0781 159.5,1143.1563 Q158.8125,1144.2188 158.8125,1146.3125 Q158.8125,1148.4063 159.5,1149.4844 Q160.1875,1150.5469 161.5313,1150.5469 Q162.1563,1150.5469 162.75,1150.2813 Q163.3438,1150 163.9688,1149.4219 L163.9688,1152.1406 Z " fill="#000000"/><text fill="#000000" font-family="sans-serif" font-size="14" lengthAdjust="spacing" textLength="77" x="175" y="1151.3467">Infotaiment</text><line style="stroke:#181818;stroke-width:0.5;" x1="147" x2="254" y1="1162.5" y2="1162.5"/><line style="stroke:#181818;stroke-width:0.5;" x1="147" x2="254" y1="1170.5" y2="1170.5"/></g><!--MD5=[80f4c98420784c84293eea48cb1f84e2]
class driver_assistance--><g id="elem_driver_assistance"><rect codeLine="160" fill="#F1F1F1" height="48" id="driver_assistance" rx="2.5" ry="2.5" style="stroke:#181818;stroke-width:0.5;" width="143" x="290" y="1130.5"/><ellipse cx="305" cy="1146.5" fill="#ADD1B2" rx="11" ry="11" style="stroke:#181818;stroke-width:1.0;"/><path d="M307.9688,1152.1406 Q307.3906,1152.4375 306.75,1152.5781 Q306.1094,1152.7344 305.4063,1152.7344 Q302.9063,1152.7344 301.5781,1151.0938 Q300.2656,1149.4375 300.2656,1146.3125 Q300.2656,1143.1875 301.5781,1141.5313 Q302.9063,1139.875 305.4063,1139.875 Q306.1094,1139.875 306.75,1140.0313 Q307.4063,1140.1875 307.9688,1140.4844 L307.9688,1143.2031 Q307.3438,1142.625 306.75,1142.3594 Q306.1563,1142.0781 305.5313,1142.0781 Q304.1875,1142.0781 303.5,1143.1563 Q302.8125,1144.2188 302.8125,1146.3125 Q302.8125,1148.4063 303.5,1149.4844 Q304.1875,1150.5469 305.5313,1150.5469 Q306.1563,1150.5469 306.75,1150.2813 Q307.3438,1150 307.9688,1149.4219 L307.9688,1152.1406 Z " fill="#000000"/><text fill="#000000" font-family="sans-serif" font-size="14" lengthAdjust="spacing" textLength="111" x="319" y="1151.3467">Driver Asistance</text><line style="stroke:#181818;stroke-width:0.5;" x1="291" x2="432" y1="1162.5" y2="1162.5"/><line style="stroke:#181818;stroke-width:0.5;" x1="291" x2="432" y1="1170.5" y2="1170.5"/></g><!--MD5=[5d2282d317d42898064fa1f748faad5d]
class Aerospace--><g id="elem_Aerospace"><rect codeLine="166" fill="#F1F1F1" height="48" id="Aerospace" rx="2.5" ry="2.5" style="stroke:#181818;stroke-width:0.5;" width="106" x="724.5" y="981.5"/><ellipse cx="739.5" cy="997.5" fill="#F1F1F1" rx="11" ry="11" style="stroke:#181818;stroke-width:1.0;"/><path d="M738.9844,998.0625 Q737.125,997.3594 736.4688,996.5938 Q735.8281,995.8125 735.8281,994.5 Q735.8281,992.8125 736.9063,991.8438 Q737.9844,990.875 739.8594,990.875 Q740.7188,990.875 741.5625,991.0781 Q742.4219,991.2656 743.2656,991.6563 L743.2656,994.0469 Q742.4844,993.4844 741.6563,993.2031 Q740.8438,992.9063 740.0469,992.9063 Q739.1719,992.9063 738.6875,993.2656 Q738.2188,993.625 738.2188,994.2813 Q738.2188,994.7969 738.5625,995.1406 Q738.9063,995.4688 740,995.875 L741.0625,996.2813 Q742.5469,996.8281 743.25,997.7344 Q743.9688,998.6406 743.9688,1000.0156 Q743.9688,1001.8906 742.8594,1002.8125 Q741.75,1003.7344 739.5,1003.7344 Q738.5781,1003.7344 737.6563,1003.5156 Q736.7344,1003.2969 735.875,1002.875 L735.875,1000.3438 Q736.8438,1001.0313 737.7656,1001.375 Q738.6875,1001.7188 739.5781,1001.7188 Q740.4844,1001.7188 740.9844,1001.3125 Q741.4844,1000.8906 741.4844,1000.1563 Q741.4844,999.5938 741.1406,999.1875 Q740.8125,998.7656 740.1875,998.5156 L738.9844,998.0625 Z " fill="#000000"/><text fill="#000000" font-family="sans-serif" font-size="14" lengthAdjust="spacing" textLength="74" x="753.5" y="1002.3467">Aerospace</text><line style="stroke:#181818;stroke-width:0.5;" x1="725.5" x2="829.5" y1="1013.5" y2="1013.5"/><line style="stroke:#181818;stroke-width:0.5;" x1="725.5" x2="829.5" y1="1021.5" y2="1021.5"/></g><!--MD5=[54cb7d3df93ca961adcc4aa2c6af2c1b]
class drive_by_wire--><g id="elem_drive_by_wire"><rect codeLine="170" fill="#F1F1F1" height="48" id="drive_by_wire" rx="2.5" ry="2.5" style="stroke:#181818;stroke-width:0.5;" width="121" x="638" y="1130.5"/><ellipse cx="653" cy="1146.5" fill="#ADD1B2" rx="11" ry="11" style="stroke:#181818;stroke-width:1.0;"/><path d="M655.9688,1152.1406 Q655.3906,1152.4375 654.75,1152.5781 Q654.1094,1152.7344 653.4063,1152.7344 Q650.9063,1152.7344 649.5781,1151.0938 Q648.2656,1149.4375 648.2656,1146.3125 Q648.2656,1143.1875 649.5781,1141.5313 Q650.9063,1139.875 653.4063,1139.875 Q654.1094,1139.875 654.75,1140.0313 Q655.4063,1140.1875 655.9688,1140.4844 L655.9688,1143.2031 Q655.3438,1142.625 654.75,1142.3594 Q654.1563,1142.0781 653.5313,1142.0781 Q652.1875,1142.0781 651.5,1143.1563 Q650.8125,1144.2188 650.8125,1146.3125 Q650.8125,1148.4063 651.5,1149.4844 Q652.1875,1150.5469 653.5313,1150.5469 Q654.1563,1150.5469 654.75,1150.2813 Q655.3438,1150 655.9688,1149.4219 L655.9688,1152.1406 Z " fill="#000000"/><text fill="#000000" font-family="sans-serif" font-size="14" lengthAdjust="spacing" textLength="89" x="667" y="1151.3467">Drive by Wire</text><line style="stroke:#181818;stroke-width:0.5;" x1="639" x2="758" y1="1162.5" y2="1162.5"/><line style="stroke:#181818;stroke-width:0.5;" x1="639" x2="758" y1="1170.5" y2="1170.5"/></g><!--MD5=[b5ea8d7d5562349136193ace3bde4666]
class flight_recorder--><g id="elem_flight_recorder"><rect codeLine="174" fill="#F1F1F1" height="48" id="flight_recorder" rx="2.5" ry="2.5" style="stroke:#181818;stroke-width:0.5;" width="137" x="794" y="1130.5"/><ellipse cx="809" cy="1146.5" fill="#ADD1B2" rx="11" ry="11" style="stroke:#181818;stroke-width:1.0;"/><path d="M811.9688,1152.1406 Q811.3906,1152.4375 810.75,1152.5781 Q810.1094,1152.7344 809.4063,1152.7344 Q806.9063,1152.7344 805.5781,1151.0938 Q804.2656,1149.4375 804.2656,1146.3125 Q804.2656,1143.1875 805.5781,1141.5313 Q806.9063,1139.875 809.4063,1139.875 Q810.1094,1139.875 810.75,1140.0313 Q811.4063,1140.1875 811.9688,1140.4844 L811.9688,1143.2031 Q811.3438,1142.625 810.75,1142.3594 Q810.1563,1142.0781 809.5313,1142.0781 Q808.1875,1142.0781 807.5,1143.1563 Q806.8125,1144.2188 806.8125,1146.3125 Q806.8125,1148.4063 807.5,1149.4844 Q808.1875,1150.5469 809.5313,1150.5469 Q810.1563,1150.5469 810.75,1150.2813 Q811.3438,1150 811.9688,1149.4219 L811.9688,1152.1406 Z " fill="#000000"/><text fill="#000000" font-family="sans-serif" font-size="14" lengthAdjust="spacing" textLength="105" x="823" y="1151.3467">Flight Recorder</text><line style="stroke:#181818;stroke-width:0.5;" x1="795" x2="930" y1="1162.5" y2="1162.5"/><line style="stroke:#181818;stroke-width:0.5;" x1="795" x2="930" y1="1170.5" y2="1170.5"/></g><!--MD5=[fc45f521f025cc9bae87f02ab4809ed2]
class Biomedical--><g id="elem_Biomedical"><rect codeLine="180" fill="#F1F1F1" height="48" id="Biomedical" rx="2.5" ry="2.5" style="stroke:#181818;stroke-width:0.5;" width="107" x="963" y="981.5"/><ellipse cx="978" cy="997.5" fill="#F1F1F1" rx="11" ry="11" style="stroke:#181818;stroke-width:1.0;"/><path d="M977.4844,998.0625 Q975.625,997.3594 974.9688,996.5938 Q974.3281,995.8125 974.3281,994.5 Q974.3281,992.8125 975.4063,991.8438 Q976.4844,990.875 978.3594,990.875 Q979.2188,990.875 980.0625,991.0781 Q980.9219,991.2656 981.7656,991.6563 L981.7656,994.0469 Q980.9844,993.4844 980.1563,993.2031 Q979.3438,992.9063 978.5469,992.9063 Q977.6719,992.9063 977.1875,993.2656 Q976.7188,993.625 976.7188,994.2813 Q976.7188,994.7969 977.0625,995.1406 Q977.4063,995.4688 978.5,995.875 L979.5625,996.2813 Q981.0469,996.8281 981.75,997.7344 Q982.4688,998.6406 982.4688,1000.0156 Q982.4688,1001.8906 981.3594,1002.8125 Q980.25,1003.7344 978,1003.7344 Q977.0781,1003.7344 976.1563,1003.5156 Q975.2344,1003.2969 974.375,1002.875 L974.375,1000.3438 Q975.3438,1001.0313 976.2656,1001.375 Q977.1875,1001.7188 978.0781,1001.7188 Q978.9844,1001.7188 979.4844,1001.3125 Q979.9844,1000.8906 979.9844,1000.1563 Q979.9844,999.5938 979.6406,999.1875 Q979.3125,998.7656 978.6875,998.5156 L977.4844,998.0625 Z " fill="#000000"/><text fill="#000000" font-family="sans-serif" font-size="14" lengthAdjust="spacing" textLength="75" x="992" y="1002.3467">Biomedical</text><line style="stroke:#181818;stroke-width:0.5;" x1="964" x2="1069" y1="1013.5" y2="1013.5"/><line style="stroke:#181818;stroke-width:0.5;" x1="964" x2="1069" y1="1021.5" y2="1021.5"/></g><!--MD5=[cac86e0ef7bac1ae4a01d7b42ebacdfe]
class imaging--><g id="elem_imaging"><rect codeLine="184" fill="#F1F1F1" height="96.8906" id="imaging" rx="2.5" ry="2.5" style="stroke:#181818;stroke-width:0.5;" width="101" x="966" y="1106"/><ellipse cx="987.75" cy="1122" fill="#ADD1B2" rx="11" ry="11" style="stroke:#181818;stroke-width:1.0;"/><path d="M990.7188,1127.6406 Q990.1406,1127.9375 989.5,1128.0781 Q988.8594,1128.2344 988.1563,1128.2344 Q985.6563,1128.2344 984.3281,1126.5938 Q983.0156,1124.9375 983.0156,1121.8125 Q983.0156,1118.6875 984.3281,1117.0313 Q985.6563,1115.375 988.1563,1115.375 Q988.8594,1115.375 989.5,1115.5313 Q990.1563,1115.6875 990.7188,1115.9844 L990.7188,1118.7031 Q990.0938,1118.125 989.5,1117.8594 Q988.9063,1117.5781 988.2813,1117.5781 Q986.9375,1117.5781 986.25,1118.6563 Q985.5625,1119.7188 985.5625,1121.8125 Q985.5625,1123.9063 986.25,1124.9844 Q986.9375,1126.0469 988.2813,1126.0469 Q988.9063,1126.0469 989.5,1125.7813 Q990.0938,1125.5 990.7188,1124.9219 L990.7188,1127.6406 Z " fill="#000000"/><text fill="#000000" font-family="sans-serif" font-size="14" lengthAdjust="spacing" textLength="54" x="1003.25" y="1126.8467">Imaging</text><line style="stroke:#181818;stroke-width:0.5;" x1="967" x2="1066" y1="1138" y2="1138"/><ellipse cx="977" cy="1151.6484" fill="none" rx="3" ry="3" style="stroke:#038048;stroke-width:1.0;"/><text fill="#000000" font-family="sans-serif" font-size="14" lengthAdjust="spacing" textLength="34" x="986" y="1154.9951">X-ray</text><ellipse cx="977" cy="1167.9453" fill="none" rx="3" ry="3" style="stroke:#038048;stroke-width:1.0;"/><text fill="#000000" font-family="sans-serif" font-size="14" lengthAdjust="spacing" textLength="75" x="986" y="1171.292">3D models</text><line style="stroke:#181818;stroke-width:0.5;" x1="967" x2="1066" y1="1178.5938" y2="1178.5938"/><ellipse cx="977" cy="1192.2422" fill="#84BE84" rx="3" ry="3" style="stroke:#038048;stroke-width:1.0;"/><text fill="#000000" font-family="sans-serif" font-size="14" lengthAdjust="spacing" textLength="40" x="986" y="1195.5889">QNX()</text></g><!--MD5=[8a3d2de3d8e0e987a50a17a5363da05a]
class smart_prost--><g id="elem_smart_prost"><rect codeLine="190" fill="#F1F1F1" height="96.8906" id="smart_prost" rx="2.5" ry="2.5" style="stroke:#181818;stroke-width:0.5;" width="153" x="1102" y="1106"/><ellipse cx="1117" cy="1122" fill="#ADD1B2" rx="11" ry="11" style="stroke:#181818;stroke-width:1.0;"/><path d="M1119.9688,1127.6406 Q1119.3906,1127.9375 1118.75,1128.0781 Q1118.1094,1128.2344 1117.4063,1128.2344 Q1114.9063,1128.2344 1113.5781,1126.5938 Q1112.2656,1124.9375 1112.2656,1121.8125 Q1112.2656,1118.6875 1113.5781,1117.0313 Q1114.9063,1115.375 1117.4063,1115.375 Q1118.1094,1115.375 1118.75,1115.5313 Q1119.4063,1115.6875 1119.9688,1115.9844 L1119.9688,1118.7031 Q1119.3438,1118.125 1118.75,1117.8594 Q1118.1563,1117.5781 1117.5313,1117.5781 Q1116.1875,1117.5781 1115.5,1118.6563 Q1114.8125,1119.7188 1114.8125,1121.8125 Q1114.8125,1123.9063 1115.5,1124.9844 Q1116.1875,1126.0469 1117.5313,1126.0469 Q1118.1563,1126.0469 1118.75,1125.7813 Q1119.3438,1125.5 1119.9688,1124.9219 L1119.9688,1127.6406 Z " fill="#000000"/><text fill="#000000" font-family="sans-serif" font-size="14" lengthAdjust="spacing" textLength="121" x="1131" y="1126.8467">smart prosthetics</text><line style="stroke:#181818;stroke-width:0.5;" x1="1103" x2="1254" y1="1138" y2="1138"/><ellipse cx="1113" cy="1151.6484" fill="none" rx="3" ry="3" style="stroke:#038048;stroke-width:1.0;"/><text fill="#000000" font-family="sans-serif" font-size="14" lengthAdjust="spacing" textLength="108" x="1122" y="1154.9951">brain-controlled</text><ellipse cx="1113" cy="1167.9453" fill="none" rx="3" ry="3" style="stroke:#038048;stroke-width:1.0;"/><text fill="#000000" font-family="sans-serif" font-size="14" lengthAdjust="spacing" textLength="93" x="1122" y="1171.292">exoskeletons</text><ellipse cx="1113" cy="1184.2422" fill="none" rx="3" ry="3" style="stroke:#038048;stroke-width:1.0;"/><text fill="#000000" font-family="sans-serif" font-size="14" lengthAdjust="spacing" textLength="104" x="1122" y="1187.5889">nerv-controlled</text><line style="stroke:#181818;stroke-width:0.5;" x1="1103" x2="1254" y1="1194.8906" y2="1194.8906"/></g><!--MD5=[f6dbca315aca36dbd4eda6f647092117]
class medical_instrumentation--><g id="elem_medical_instrumentation"><rect codeLine="196" fill="#F1F1F1" height="80.5938" id="medical_instrumentation" rx="2.5" ry="2.5" style="stroke:#181818;stroke-width:0.5;" width="343" x="1290" y="1114"/><ellipse cx="1374.25" cy="1130" fill="#ADD1B2" rx="11" ry="11" style="stroke:#181818;stroke-width:1.0;"/><path d="M1377.2188,1135.6406 Q1376.6406,1135.9375 1376,1136.0781 Q1375.3594,1136.2344 1374.6563,1136.2344 Q1372.1563,1136.2344 1370.8281,1134.5938 Q1369.5156,1132.9375 1369.5156,1129.8125 Q1369.5156,1126.6875 1370.8281,1125.0313 Q1372.1563,1123.375 1374.6563,1123.375 Q1375.3594,1123.375 1376,1123.5313 Q1376.6563,1123.6875 1377.2188,1123.9844 L1377.2188,1126.7031 Q1376.5938,1126.125 1376,1125.8594 Q1375.4063,1125.5781 1374.7813,1125.5781 Q1373.4375,1125.5781 1372.75,1126.6563 Q1372.0625,1127.7188 1372.0625,1129.8125 Q1372.0625,1131.9063 1372.75,1132.9844 Q1373.4375,1134.0469 1374.7813,1134.0469 Q1375.4063,1134.0469 1376,1133.7813 Q1376.5938,1133.5 1377.2188,1132.9219 L1377.2188,1135.6406 Z " fill="#000000"/><text fill="#000000" font-family="sans-serif" font-size="14" lengthAdjust="spacing" textLength="166" x="1394.75" y="1134.8467">medical instrumentation</text><line style="stroke:#181818;stroke-width:0.5;" x1="1291" x2="1632" y1="1146" y2="1146"/><ellipse cx="1301" cy="1159.6484" fill="none" rx="3" ry="3" style="stroke:#038048;stroke-width:1.0;"/><text fill="#000000" font-family="sans-serif" font-size="14" lengthAdjust="spacing" textLength="317" x="1310" y="1162.9951">measurement: blood pressure, hearth rate, /n</text><text fill="#000000" font-family="sans-serif" font-size="14" lengthAdjust="spacing" textLength="173" x="1310" y="1179.292">oxidometer, spirometers.</text><line style="stroke:#181818;stroke-width:0.5;" x1="1291" x2="1632" y1="1186.5938" y2="1186.5938"/></g><!--MD5=[65a89217e9d85fd38eff4ada9c8f3317]
class Consumer_Electronics--><g id="elem_Consumer_Electronics"><rect codeLine="202" fill="#F1F1F1" height="64.2969" id="Consumer_Electronics" rx="2.5" ry="2.5" style="stroke:#181818;stroke-width:0.5;" width="184" x="1105.5" y="973.5"/><ellipse cx="1120.5" cy="989.5" fill="#F1F1F1" rx="11" ry="11" style="stroke:#181818;stroke-width:1.0;"/><path d="M1119.9844,990.0625 Q1118.125,989.3594 1117.4688,988.5938 Q1116.8281,987.8125 1116.8281,986.5 Q1116.8281,984.8125 1117.9063,983.8438 Q1118.9844,982.875 1120.8594,982.875 Q1121.7188,982.875 1122.5625,983.0781 Q1123.4219,983.2656 1124.2656,983.6563 L1124.2656,986.0469 Q1123.4844,985.4844 1122.6563,985.2031 Q1121.8438,984.9063 1121.0469,984.9063 Q1120.1719,984.9063 1119.6875,985.2656 Q1119.2188,985.625 1119.2188,986.2813 Q1119.2188,986.7969 1119.5625,987.1406 Q1119.9063,987.4688 1121,987.875 L1122.0625,988.2813 Q1123.5469,988.8281 1124.25,989.7344 Q1124.9688,990.6406 1124.9688,992.0156 Q1124.9688,993.8906 1123.8594,994.8125 Q1122.75,995.7344 1120.5,995.7344 Q1119.5781,995.7344 1118.6563,995.5156 Q1117.7344,995.2969 1116.875,994.875 L1116.875,992.3438 Q1117.8438,993.0313 1118.7656,993.375 Q1119.6875,993.7188 1120.5781,993.7188 Q1121.4844,993.7188 1121.9844,993.3125 Q1122.4844,992.8906 1122.4844,992.1563 Q1122.4844,991.5938 1122.1406,991.1875 Q1121.8125,990.7656 1121.1875,990.5156 L1119.9844,990.0625 Z " fill="#000000"/><text fill="#000000" font-family="sans-serif" font-size="14" lengthAdjust="spacing" textLength="152" x="1134.5" y="994.3467">Consumer Electronics</text><line style="stroke:#181818;stroke-width:0.5;" x1="1106.5" x2="1288.5" y1="1005.5" y2="1005.5"/><ellipse cx="1116.5" cy="1019.1484" fill="none" rx="3" ry="3" style="stroke:#038048;stroke-width:1.0;"/><text fill="#000000" font-family="sans-serif" font-size="14" lengthAdjust="spacing" textLength="119" x="1125.5" y="1022.4951">Home appliances</text><line style="stroke:#181818;stroke-width:0.5;" x1="1106.5" x2="1288.5" y1="1029.7969" y2="1029.7969"/></g><!--MD5=[5b6f787802d23e69004338fb2c612b31]
class telematics--><g id="elem_telematics"><rect codeLine="206" fill="#F1F1F1" height="80.5938" id="telematics" rx="2.5" ry="2.5" style="stroke:#181818;stroke-width:0.5;" width="134" x="468.5" y="1114"/><ellipse cx="497.45" cy="1130" fill="#ADD1B2" rx="11" ry="11" style="stroke:#181818;stroke-width:1.0;"/><path d="M500.4188,1135.6406 Q499.8406,1135.9375 499.2,1136.0781 Q498.5594,1136.2344 497.8563,1136.2344 Q495.3563,1136.2344 494.0281,1134.5938 Q492.7156,1132.9375 492.7156,1129.8125 Q492.7156,1126.6875 494.0281,1125.0313 Q495.3563,1123.375 497.8563,1123.375 Q498.5594,1123.375 499.2,1123.5313 Q499.8563,1123.6875 500.4188,1123.9844 L500.4188,1126.7031 Q499.7938,1126.125 499.2,1125.8594 Q498.6063,1125.5781 497.9813,1125.5781 Q496.6375,1125.5781 495.95,1126.6563 Q495.2625,1127.7188 495.2625,1129.8125 Q495.2625,1131.9063 495.95,1132.9844 Q496.6375,1134.0469 497.9813,1134.0469 Q498.6063,1134.0469 499.2,1133.7813 Q499.7938,1133.5 500.4188,1132.9219 L500.4188,1135.6406 Z " fill="#000000"/><text fill="#000000" font-family="sans-serif" font-size="14" lengthAdjust="spacing" textLength="71" x="514.55" y="1134.8467">telematics</text><line style="stroke:#181818;stroke-width:0.5;" x1="469.5" x2="601.5" y1="1146" y2="1146"/><ellipse cx="479.5" cy="1159.6484" fill="none" rx="3" ry="3" style="stroke:#038048;stroke-width:1.0;"/><text fill="#000000" font-family="sans-serif" font-size="14" lengthAdjust="spacing" textLength="108" x="488.5" y="1162.9951">RF: 4G, 5G, LTE</text><ellipse cx="479.5" cy="1175.9453" fill="none" rx="3" ry="3" style="stroke:#038048;stroke-width:1.0;"/><text fill="#000000" font-family="sans-serif" font-size="14" lengthAdjust="spacing" textLength="21" x="488.5" y="1179.292">wifi</text><line style="stroke:#181818;stroke-width:0.5;" x1="469.5" x2="601.5" y1="1186.5938" y2="1186.5938"/></g><!--MD5=[a6e69ebde752962da01903e5afde084a]
reverse link circuits to Fundamentals--><g id="link_circuits_Fundamentals"><path codeLine="213" d="M936.5,125.29 C936.5,163.06 936.5,209.47 936.5,236.78 " fill="none" id="circuits-backto-Fundamentals" style="stroke:#181818;stroke-width:1.0;"/><polygon fill="#181818" points="936.5,120.26,932.5,129.26,936.5,125.26,940.5,129.26,936.5,120.26" style="stroke:#181818;stroke-width:1.0;"/></g><!--MD5=[7a54f239a12d4b756a40b985fca80f34]
reverse link math to Fundamentals--><g id="link_math_Fundamentals"><path codeLine="214" d="M841.8,261 C849.96,261 860.42,261 871.4,261 " fill="none" id="math-backto-Fundamentals" style="stroke:#181818;stroke-width:1.0;"/><polygon fill="#181818" points="836.55,261,845.55,265,841.55,261,845.55,257,836.55,261" style="stroke:#181818;stroke-width:1.0;"/></g><!--MD5=[5e4b160b8ab9d2503c046e37eab76d4e]
link Fundamentals to digital_sys--><g id="link_Fundamentals_digital_sys"><path codeLine="215" d="M958.31,236.91 C987.86,204.27 1037,150 1037,150 C1037,150 1330,150 1330,150 C1330,150 1371.46,166.12 1422.78,186.07 " fill="none" id="Fundamentals-to-digital_sys" style="stroke:#181818;stroke-width:1.0;"/><polygon fill="#181818" points="1427.45,187.89,1420.5159,180.8959,1422.7911,186.075,1417.6119,188.3502,1427.45,187.89" style="stroke:#181818;stroke-width:1.0;"/></g><!--MD5=[58f3e5a646adcdc32a5f39e1884a7b30]
link Fundamentals to data_algo--><g id="link_Fundamentals_data_algo"><path codeLine="216" d="M1001.77,261 C1011.77,261 1018.83,261 1018.83,261 C1018.83,261 1023.94,261 1031.61,261 " fill="none" id="Fundamentals-to-data_algo" style="stroke:#181818;stroke-width:1.0;"/><polygon fill="#181818" points="1036.7,261,1027.7,257,1031.7,261,1027.7,265,1036.7,261" style="stroke:#181818;stroke-width:1.0;"/></g><!--MD5=[f0c3ca8103f0f4de821b9c1284557c42]
link digital_sys to os--><g id="link_digital_sys_os"><path codeLine="217" d="M1865.72,261 C1866.88,261 1867.5,261 1867.5,261 C1867.5,261 1879.04,261 1895.14,261 " fill="none" id="digital_sys-to-os" style="stroke:#181818;stroke-width:1.0;"/><polygon fill="#181818" points="1900.28,261,1891.28,257,1895.28,261,1891.28,265,1900.28,261" style="stroke:#181818;stroke-width:1.0;"/></g><!--MD5=[548c82bf7114d6157e5ab6a39ae3700a]
link digital_sys to comp_arch--><g id="link_digital_sys_comp_arch"><path codeLine="218" d="M1615.5,334.23 C1615.5,355.34 1615.5,377.79 1615.5,396.66 " fill="none" id="digital_sys-to-comp_arch" style="stroke:#181818;stroke-width:1.0;"/><polygon fill="#181818" points="1615.5,401.89,1619.5,392.89,1615.5,396.89,1611.5,392.89,1615.5,401.89" style="stroke:#181818;stroke-width:1.0;"/></g><!--MD5=[2fb525b28e1b11b3abf12030fff3688e]
reverse link control_eng to math--><g id="link_control_eng_math"><path codeLine="219" d="M341.23,261 C357.19,261 368.83,261 368.83,261 C368.83,261 369.41,261 370.49,261 " fill="none" id="control_eng-backto-math" style="stroke:#181818;stroke-width:1.0;"/><polygon fill="#181818" points="336.15,261,345.15,265,341.15,261,345.15,257,336.15,261" style="stroke:#181818;stroke-width:1.0;"/></g><!--MD5=[ad927ebf699497817d97fc378c80086d]
link Fundamentals to Tracks--><g id="link_Fundamentals_Tracks"><path codeLine="221" d="M936.5,285.13 C936.5,344.92 936.5,504.5 936.5,569.92 " fill="none" id="Fundamentals-to-Tracks" style="stroke:#181818;stroke-width:1.0;"/><polygon fill="#181818" points="936.5,575.21,940.5,566.21,936.5,570.21,932.5,566.21,936.5,575.21" style="stroke:#181818;stroke-width:1.0;"/></g><!--MD5=[701a2d9d6f07d355c375e22f3bee5cc8]
reverse link cybersecurity to Tracks--><g id="link_cybersecurity_Tracks"><path codeLine="224" d="M667.93,547.95 C692.89,529.42 715,513 715,513 C715,513 862,513 862,513 C862,513 893.7,549.81 915.75,575.4 " fill="none" id="cybersecurity-backto-Tracks" style="stroke:#181818;stroke-width:1.0;"/><polygon fill="#181818" points="663.9,550.94,673.5087,548.7784,667.912,547.956,668.7343,542.3593,663.9,550.94" style="stroke:#181818;stroke-width:1.0;"/></g><!--MD5=[57a39c7ff479ae5fc129123cc70d8cfe]
reverse link embedded_linux to Tracks--><g id="link_embedded_linux_Tracks"><path codeLine="225" d="M867.43,599.5 C877.92,599.5 887.17,599.5 887.17,599.5 C887.17,599.5 891.29,599.5 897.15,599.5 " fill="none" id="embedded_linux-backto-Tracks" style="stroke:#181818;stroke-width:1.0;"/><polygon fill="#181818" points="862.21,599.5,871.21,603.5,867.21,599.5,871.21,595.5,862.21,599.5" style="stroke:#181818;stroke-width:1.0;"/></g><!--MD5=[0954f9e7ecd03192864eeccf59e180f9]
reverse link embedded_software to Tracks--><g id="link_embedded_software_Tracks"><path codeLine="226" d="M471.07,540.12 C496.62,525.03 517,513 517,513 C517,513 862,513 862,513 C862,513 893.7,549.81 915.75,575.4 " fill="none" id="embedded_software-backto-Tracks" style="stroke:#181818;stroke-width:1.0;"/><polygon fill="#181818" points="466.58,542.77,476.3629,541.6319,470.8838,540.2249,472.2907,534.7458,466.58,542.77" style="stroke:#181818;stroke-width:1.0;"/></g><!--MD5=[a8446a1b7ea3e69206895ea6b3e8eb67]
reverse link firmware to Tracks--><g id="link_firmware_Tracks"><path codeLine="227" d="M187.41,556.15 C223.23,534.56 259,513 259,513 C259,513 862,513 862,513 C862,513 893.7,549.81 915.75,575.4 " fill="none" id="firmware-backto-Tracks" style="stroke:#181818;stroke-width:1.0;"/><polygon fill="#181818" points="183.05,558.78,192.8254,557.5795,187.3375,556.2075,188.7095,550.7196,183.05,558.78" style="stroke:#181818;stroke-width:1.0;"/></g><!--MD5=[22e46174688435927ce28a756ef0c0dc]
link Tracks to machine_learning--><g id="link_Tracks_machine_learning"><path codeLine="228" d="M956.97,575.4 C978.72,549.81 1010,513 1010,513 C1010,513 1280,513 1280,513 C1280,513 1309.59,525.39 1346.36,540.8 " fill="none" id="Tracks-to-machine_learning" style="stroke:#181818;stroke-width:1.0;"/><polygon fill="#181818" points="1351.35,542.89,1344.5886,535.7287,1346.7367,540.9619,1341.5036,543.11,1351.35,542.89" style="stroke:#181818;stroke-width:1.0;"/></g><!--MD5=[079e00593e6350efb9b43658c47a9990]
link Tracks to sys_control--><g id="link_Tracks_sys_control"><path codeLine="229" d="M975.81,599.5 C987.42,599.5 998.35,599.5 1004.98,599.5 " fill="none" id="Tracks-to-sys_control" style="stroke:#181818;stroke-width:1.0;"/><polygon fill="#181818" points="1010.32,599.5,1001.32,595.5,1005.32,599.5,1001.32,603.5,1010.32,599.5" style="stroke:#181818;stroke-width:1.0;"/></g><!--MD5=[da09cce28425274804b3302eca4bce94]
link Tracks to tester--><g id="link_Tracks_tester"><path codeLine="230" d="M956.97,575.4 C978.72,549.81 1010,513 1010,513 C1010,513 1841,513 1841,513 C1841,513 1870.47,539.98 1896.5,563.8 " fill="none" id="Tracks-to-tester" style="stroke:#181818;stroke-width:1.0;"/><polygon fill="#181818" points="1900.31,567.29,1896.3706,558.2633,1896.6213,563.9146,1890.97,564.1653,1900.31,567.29" style="stroke:#181818;stroke-width:1.0;"/></g><!--MD5=[f5738cebe975151cce38d8b503709cfa]
link Tracks to audio--><g id="link_Tracks_audio"><path codeLine="231" d="M956.97,575.4 C978.72,549.81 1010,513 1010,513 C1010,513 1658,513 1658,513 C1658,513 1684.6,534.21 1711.47,555.62 " fill="none" id="Tracks-to-audio" style="stroke:#181818;stroke-width:1.0;"/><polygon fill="#181818" points="1715.43,558.78,1710.8931,550.0383,1711.5229,555.66,1705.9012,556.2897,1715.43,558.78" style="stroke:#181818;stroke-width:1.0;"/></g><!--MD5=[1a47b45aa15b1397abdd338fea99c9f6]
link embedded_software to iot--><g id="link_embedded_software_iot"><path codeLine="232" d="M370.5,656.02 C370.5,673.97 370.5,693.63 370.5,710.7 " fill="none" id="embedded_software-to-iot" style="stroke:#181818;stroke-width:1.0;"/><polygon fill="#181818" points="370.5,715.91,374.5,706.91,370.5,710.91,366.5,706.91,370.5,715.91" style="stroke:#181818;stroke-width:1.0;"/></g><!--MD5=[1977e2a912bea19574faf6d0b6f47eb1]
link embedded_software to radio_frequency--><g id="link_embedded_software_radio_frequency"><path codeLine="233" d="M284.89,656.02 C251.06,677.96 213.28,702.46 183.68,721.66 " fill="none" id="embedded_software-to-radio_frequency" style="stroke:#181818;stroke-width:1.0;"/><polygon fill="#181818" points="179.37,724.45,189.0939,722.8861,183.5586,721.7195,184.7251,716.1843,179.37,724.45" style="stroke:#181818;stroke-width:1.0;"/></g><!--MD5=[9806fb8d8edae0e5417e3ebe1a43b2da]
link firmware to radio_frequency--><g id="link_firmware_radio_frequency"><path codeLine="234" d="M119.58,640.01 C122.09,664.36 125.29,695.36 127.74,719.11 " fill="none" id="firmware-to-radio_frequency" style="stroke:#181818;stroke-width:1.0;"/><polygon fill="#181818" points="128.29,724.36,131.3427,714.9962,127.7755,719.3865,123.3851,715.8194,128.29,724.36" style="stroke:#181818;stroke-width:1.0;"/></g><!--MD5=[a1294d39d8c795edaf44f60be6d5bfcc]
link Tracks to Industry_applications--><g id="link_Tracks_Industry_applications"><path codeLine="236" d="M936.5,623.85 C936.5,674.94 936.5,796.51 936.5,851.78 " fill="none" id="Tracks-to-Industry_applications" style="stroke:#181818;stroke-width:1.0;"/><polygon fill="#181818" points="936.5,856.91,940.5,847.91,936.5,851.91,932.5,847.91,936.5,856.91" style="stroke:#181818;stroke-width:1.0;"/></g><!--MD5=[4bf87856bec712e4ac547df378b7ffaa]
link Industry_applications to Automotive--><g id="link_Industry_applications_Automotive"><path codeLine="238" d="M849.82,903.76 C751.67,928.4 594.31,967.9 508.71,989.39 " fill="none" id="Industry_applications-to-Automotive" style="stroke:#181818;stroke-width:1.0;"/><polygon fill="#181818" points="503.68,990.65,513.3861,992.3209,508.5273,989.4239,511.4243,984.5652,503.68,990.65" style="stroke:#181818;stroke-width:1.0;"/></g><!--MD5=[fed98a93e9c0456df391920faae9c36a]
link Industry_applications to Aerospace--><g id="link_Industry_applications_Aerospace"><path codeLine="239" d="M906.59,905.04 C879.58,925.85 839.86,956.45 811.62,978.21 " fill="none" id="Industry_applications-to-Aerospace" style="stroke:#181818;stroke-width:1.0;"/><polygon fill="#181818" points="807.54,981.35,817.1129,979.0348,811.5037,978.3021,812.2363,972.6929,807.54,981.35" style="stroke:#181818;stroke-width:1.0;"/></g><!--MD5=[b51fe47a4f9474c8184aac61251c2012]
link Industry_applications to Biomedical--><g id="link_Industry_applications_Biomedical"><path codeLine="240" d="M951.55,905.04 C964.87,925.44 984.35,955.26 998.49,976.93 " fill="none" id="Industry_applications-to-Biomedical" style="stroke:#181818;stroke-width:1.0;"/><polygon fill="#181818" points="1001.25,981.15,999.6628,971.4299,998.5095,976.9679,992.9715,975.8146,1001.25,981.15" style="stroke:#181818;stroke-width:1.0;"/></g><!--MD5=[a83271c71b9bf516a7790f4de6de5f75]
link Industry_applications to Consumer_Electronics--><g id="link_Industry_applications_Consumer_Electronics"><path codeLine="241" d="M985.59,905.04 C1025.42,923.74 1082.1,950.34 1126.82,971.33 " fill="none" id="Industry_applications-to-Consumer_Electronics" style="stroke:#181818;stroke-width:1.0;"/><polygon fill="#181818" points="1131.38,973.47,1124.9364,966.0215,1126.8549,971.3431,1121.5333,973.2616,1131.38,973.47" style="stroke:#181818;stroke-width:1.0;"/></g><!--MD5=[a41be4540d57c41bf6939e9d575141b5]
link Aerospace to drive_by_wire--><g id="link_Aerospace_drive_by_wire"><path codeLine="242" d="M764.98,1029.79 C751,1055.81 728.37,1097.91 713.47,1125.65 " fill="none" id="Aerospace-to-drive_by_wire" style="stroke:#181818;stroke-width:1.0;"/><polygon fill="#181818" points="710.96,1130.32,718.743,1124.2846,713.3262,1125.9154,711.6955,1120.4986,710.96,1130.32" style="stroke:#181818;stroke-width:1.0;"/></g><!--MD5=[bbe3a1dafe82eb793865bcc29586040b]
link Aerospace to flight_recorder--><g id="link_Aerospace_flight_recorder"><path codeLine="243" d="M790.97,1029.79 C806.01,1055.81 830.36,1097.91 846.4,1125.65 " fill="none" id="Aerospace-to-flight_recorder" style="stroke:#181818;stroke-width:1.0;"/><polygon fill="#181818" points="849.09,1130.32,848.0526,1120.5259,846.5893,1125.9903,841.125,1124.527,849.09,1130.32" style="stroke:#181818;stroke-width:1.0;"/></g><!--MD5=[88a341e1dbe31cde9a97e84679e41212]
link Aerospace to telematics--><g id="link_Aerospace_telematics"><path codeLine="244" d="M739.42,1029.63 C703.52,1051.44 648.85,1084.65 605.15,1111.19 " fill="none" id="Aerospace-to-telematics" style="stroke:#181818;stroke-width:1.0;"/><polygon fill="#181818" points="600.68,1113.9,610.4476,1112.6373,604.951,1111.3003,606.288,1105.8037,600.68,1113.9" style="stroke:#181818;stroke-width:1.0;"/></g><!--MD5=[0681f4e90ebfaaae29a6efe53b1a18ec]
link Automotive to drive_by_wire--><g id="link_Automotive_drive_by_wire"><path codeLine="245" d="M503.55,1038.53 C553.54,1067.62 619.5,1106 619.5,1106 C619.5,1106 636.81,1116.41 655.23,1127.48 " fill="none" id="Automotive-to-drive_by_wire" style="stroke:#181818;stroke-width:1.0;"/><polygon fill="#181818" points="659.93,1130.31,654.2705,1122.2496,655.6425,1127.7375,650.1546,1129.1095,659.93,1130.31" style="stroke:#181818;stroke-width:1.0;"/></g><!--MD5=[d293778d9f2e66694b7f751faca6c1c8]
link Automotive to gateways--><g id="link_Automotive_gateways"><path codeLine="246" d="M393.49,1023.6 C302,1052.05 128.5,1106 128.5,1106 C128.5,1106 114.06,1116.23 98.59,1127.2 " fill="none" id="Automotive-to-gateways" style="stroke:#181818;stroke-width:1.0;"/><polygon fill="#181818" points="94.21,1130.31,103.8612,1128.3466,98.2825,1127.4092,99.2199,1121.8306,94.21,1130.31" style="stroke:#181818;stroke-width:1.0;"/></g><!--MD5=[e2500c4139c1b6cd53b5db118c32d363]
link Automotive to infotaiment--><g id="link_Automotive_infotaiment"><path codeLine="247" d="M393.3,1037.71 C341.68,1066.89 272.5,1106 272.5,1106 C272.5,1106 256.72,1116.41 239.94,1127.48 " fill="none" id="Automotive-to-infotaiment" style="stroke:#181818;stroke-width:1.0;"/><polygon fill="#181818" points="235.66,1130.31,245.3776,1128.7076,239.8378,1127.563,240.9824,1122.0231,235.66,1130.31" style="stroke:#181818;stroke-width:1.0;"/></g><!--MD5=[6c73b97cf16fdfc4197e0926d544ef6e]
link Automotive to driver_assistance--><g id="link_Automotive_driver_assistance"><path codeLine="248" d="M424.96,1046.28 C410.05,1071.47 391.15,1103.41 377.87,1125.85 " fill="none" id="Automotive-to-driver_assistance" style="stroke:#181818;stroke-width:1.0;"/><polygon fill="#181818" points="375.29,1130.2,383.3142,1124.4893,377.8351,1125.8962,376.4281,1120.4171,375.29,1130.2" style="stroke:#181818;stroke-width:1.0;"/></g><!--MD5=[76465b0e292e60b32a00381e9731fd46]
link Automotive to telematics--><g id="link_Automotive_telematics"><path codeLine="249" d="M472.04,1046.28 C483.6,1065.81 497.55,1089.38 509.43,1109.45 " fill="none" id="Automotive-to-telematics" style="stroke:#181818;stroke-width:1.0;"/><polygon fill="#181818" points="512.09,1113.94,510.9519,1104.1571,509.5449,1109.6362,504.0658,1108.2293,512.09,1113.94" style="stroke:#181818;stroke-width:1.0;"/></g><!--MD5=[a89def8db0b58d8e93e02565447bf9c2]
link Biomedical to imaging--><g id="link_Biomedical_imaging"><path codeLine="250" d="M1016.5,1029.79 C1016.5,1048.84 1016.5,1076.5 1016.5,1100.84 " fill="none" id="Biomedical-to-imaging" style="stroke:#181818;stroke-width:1.0;"/><polygon fill="#181818" points="1016.5,1105.98,1020.5,1096.98,1016.5,1100.98,1012.5,1096.98,1016.5,1105.98" style="stroke:#181818;stroke-width:1.0;"/></g><!--MD5=[844e885b891eb0ba74bb168044efa6f8]
link Biomedical to smart_prost--><g id="link_Biomedical_smart_prost"><path codeLine="251" d="M1042.17,1029.79 C1063.6,1049.24 1094.92,1077.66 1122.15,1102.36 " fill="none" id="Biomedical-to-smart_prost" style="stroke:#181818;stroke-width:1.0;"/><polygon fill="#181818" points="1126.13,1105.98,1122.1353,1096.9776,1122.4206,1102.6273,1116.771,1102.9126,1126.13,1105.98" style="stroke:#181818;stroke-width:1.0;"/></g><!--MD5=[f727d74b0ee7cd9737812694fba163f1]
link Biomedical to medical_instrumentation--><g id="link_Biomedical_medical_instrumentation"><path codeLine="252" d="M1058.21,1029.71 C1073.67,1038.3 1087.5,1046 1087.5,1046 C1087.5,1046 1213.17,1082.12 1318.81,1112.49 " fill="none" id="Biomedical-to-medical_instrumentation" style="stroke:#181818;stroke-width:1.0;"/><polygon fill="#181818" points="1323.83,1113.93,1316.2926,1107.5907,1319.0262,1112.5432,1314.0737,1115.2768,1323.83,1113.93" style="stroke:#181818;stroke-width:1.0;"/></g></g></svg>