<?xml version="1.0" encoding="UTF-8" standalone="no"?><svg xmlns="http://www.w3.org/2000/svg" xmlns:xlink="http://www.w3.org/1999/xlink" contentStyleType="text/css" height="473px" preserveAspectRatio="none" style="width:1959px;height:473px;background:#FFFFFF;" version="1.1" viewBox="0 0 1959 473" width="1959px" zoomAndPan="magnify"><defs/><g><!--MD5=[cde879ab447b042cc942523712f6004f]
class Fundamentals--><g id="elem_Fundamentals"><rect codeLine="4" fill="#F1F1F1" height="48" id="Fundamentals" rx="2.5" ry="2.5" style="stroke:#181818;stroke-width:0.5;" width="130" x="688.5" y="229"/><ellipse cx="703.5" cy="245" fill="#F1F1F1" rx="11" ry="11" style="stroke:#181818;stroke-width:1.0;"/><path d="M702.9844,245.5625 Q701.125,244.8594 700.4688,244.0938 Q699.8281,243.3125 699.8281,242 Q699.8281,240.3125 700.9063,239.3438 Q701.9844,238.375 703.8594,238.375 Q704.7188,238.375 705.5625,238.5781 Q706.4219,238.7656 707.2656,239.1563 L707.2656,241.5469 Q706.4844,240.9844 705.6563,240.7031 Q704.8438,240.4063 704.0469,240.4063 Q703.1719,240.4063 702.6875,240.7656 Q702.2188,241.125 702.2188,241.7813 Q702.2188,242.2969 702.5625,242.6406 Q702.9063,242.9688 704,243.375 L705.0625,243.7813 Q706.5469,244.3281 707.25,245.2344 Q707.9688,246.1406 707.9688,247.5156 Q707.9688,249.3906 706.8594,250.3125 Q705.75,251.2344 703.5,251.2344 Q702.5781,251.2344 701.6563,251.0156 Q700.7344,250.7969 699.875,250.375 L699.875,247.8438 Q700.8438,248.5313 701.7656,248.875 Q702.6875,249.2188 703.5781,249.2188 Q704.4844,249.2188 704.9844,248.8125 Q705.4844,248.3906 705.4844,247.6563 Q705.4844,247.0938 705.1406,246.6875 Q704.8125,246.2656 704.1875,246.0156 L702.9844,245.5625 Z " fill="#000000"/><text fill="#000000" font-family="sans-serif" font-size="14" lengthAdjust="spacing" textLength="98" x="717.5" y="249.8467">Fundamentals</text><line style="stroke:#181818;stroke-width:0.5;" x1="689.5" x2="817.5" y1="261" y2="261"/><line style="stroke:#181818;stroke-width:0.5;" x1="689.5" x2="817.5" y1="269" y2="269"/></g><!--MD5=[d4dd7553ee4fc946ab868ca435bd290b]
class math--><g id="elem_math"><rect codeLine="9" fill="#F1F1F1" height="129.4844" id="math" rx="2.5" ry="2.5" style="stroke:#181818;stroke-width:0.5;" width="466" x="187.5" y="188.5"/><ellipse cx="372.25" cy="204.5" fill="#ADD1B2" rx="11" ry="11" style="stroke:#181818;stroke-width:1.0;"/><path d="M375.2188,210.1406 Q374.6406,210.4375 374,210.5781 Q373.3594,210.7344 372.6563,210.7344 Q370.1563,210.7344 368.8281,209.0938 Q367.5156,207.4375 367.5156,204.3125 Q367.5156,201.1875 368.8281,199.5313 Q370.1563,197.875 372.6563,197.875 Q373.3594,197.875 374,198.0313 Q374.6563,198.1875 375.2188,198.4844 L375.2188,201.2031 Q374.5938,200.625 374,200.3594 Q373.4063,200.0781 372.7813,200.0781 Q371.4375,200.0781 370.75,201.1563 Q370.0625,202.2188 370.0625,204.3125 Q370.0625,206.4063 370.75,207.4844 Q371.4375,208.5469 372.7813,208.5469 Q373.4063,208.5469 374,208.2813 Q374.5938,208 375.2188,207.4219 L375.2188,210.1406 Z " fill="#000000"/><text fill="#000000" font-family="sans-serif" font-size="14" lengthAdjust="spacing" textLength="88" x="392.75" y="209.3467">Mathematics</text><line style="stroke:#181818;stroke-width:0.5;" x1="188.5" x2="652.5" y1="220.5" y2="220.5"/><ellipse cx="198.5" cy="242.2969" fill="none" rx="3" ry="3" style="stroke:#038048;stroke-width:1.0;"/><text fill="#000000" font-family="sans-serif" font-size="14" lengthAdjust="spacing" textLength="436" x="207.5" y="237.4951">Linear Algebra: Factoring, Quadratic formula, Binomial Theorem,</text><text fill="#000000" font-family="sans-serif" font-size="14" lengthAdjust="spacing" textLength="4" x="207.5" y="253.792"> </text><text fill="#000000" font-family="sans-serif" font-size="14" lengthAdjust="spacing" textLength="82" x="207.5" y="270.0889">Inequalities.</text><ellipse cx="198.5" cy="283.0391" fill="none" rx="3" ry="3" style="stroke:#038048;stroke-width:1.0;"/><text fill="#000000" font-family="sans-serif" font-size="14" lengthAdjust="spacing" textLength="289" x="207.5" y="286.3857">Geometry: Distance formula, circles, lines,</text><ellipse cx="198.5" cy="299.3359" fill="none" rx="3" ry="3" style="stroke:#038048;stroke-width:1.0;"/><text fill="#000000" font-family="sans-serif" font-size="14" lengthAdjust="spacing" textLength="322" x="207.5" y="302.6826">Calculus: limits, functions, derivatives, integrals</text><line style="stroke:#181818;stroke-width:0.5;" x1="188.5" x2="652.5" y1="309.9844" y2="309.9844"/></g><!--MD5=[5662f07f23b655411764d98b0b3552de]
class digital_sys--><g id="elem_digital_sys"><rect codeLine="17" fill="#F1F1F1" height="145.7813" id="digital_sys" rx="2.5" ry="2.5" style="stroke:#181818;stroke-width:0.5;" width="500" x="853.5" y="180"/><ellipse cx="1046.75" cy="196" fill="#ADD1B2" rx="11" ry="11" style="stroke:#181818;stroke-width:1.0;"/><path d="M1049.7188,201.6406 Q1049.1406,201.9375 1048.5,202.0781 Q1047.8594,202.2344 1047.1563,202.2344 Q1044.6563,202.2344 1043.3281,200.5938 Q1042.0156,198.9375 1042.0156,195.8125 Q1042.0156,192.6875 1043.3281,191.0313 Q1044.6563,189.375 1047.1563,189.375 Q1047.8594,189.375 1048.5,189.5313 Q1049.1563,189.6875 1049.7188,189.9844 L1049.7188,192.7031 Q1049.0938,192.125 1048.5,191.8594 Q1047.9063,191.5781 1047.2813,191.5781 Q1045.9375,191.5781 1045.25,192.6563 Q1044.5625,193.7188 1044.5625,195.8125 Q1044.5625,197.9063 1045.25,198.9844 Q1045.9375,200.0469 1047.2813,200.0469 Q1047.9063,200.0469 1048.5,199.7813 Q1049.0938,199.5 1049.7188,198.9219 L1049.7188,201.6406 Z " fill="#000000"/><text fill="#000000" font-family="sans-serif" font-size="14" lengthAdjust="spacing" textLength="105" x="1067.25" y="200.8467">Digital Systems</text><line style="stroke:#181818;stroke-width:0.5;" x1="854.5" x2="1352.5" y1="212" y2="212"/><ellipse cx="864.5" cy="233.7969" fill="none" rx="3" ry="3" style="stroke:#038048;stroke-width:1.0;"/><text fill="#000000" font-family="sans-serif" font-size="14" lengthAdjust="spacing" textLength="447" x="873.5" y="228.9951">Continuous vs discrete systems: Analog vs digital, binary system,</text><text fill="#000000" font-family="sans-serif" font-size="14" lengthAdjust="spacing" textLength="4" x="873.5" y="245.292"> </text><text fill="#000000" font-family="sans-serif" font-size="14" lengthAdjust="spacing" textLength="432" x="873.5" y="261.5889">logic functions, boolean algebra digital waveform, data transfer,</text><text fill="#000000" font-family="sans-serif" font-size="14" lengthAdjust="spacing" textLength="4" x="873.5" y="277.8857"> </text><text fill="#000000" font-family="sans-serif" font-size="14" lengthAdjust="spacing" textLength="474" x="873.5" y="294.1826">combinational and sequential logic, memories, Finite state machines.</text><ellipse cx="864.5" cy="307.1328" fill="none" rx="3" ry="3" style="stroke:#038048;stroke-width:1.0;"/><text fill="#000000" font-family="sans-serif" font-size="14" lengthAdjust="spacing" textLength="322" x="873.5" y="310.4795">Build an 8bit computer on FPGA : memory, ALU</text><line style="stroke:#181818;stroke-width:0.5;" x1="854.5" x2="1352.5" y1="317.7813" y2="317.7813"/></g><!--MD5=[37c5ebfbdb78eee26551d187cc676e1c]
class control_sys--><g id="elem_control_sys"><rect codeLine="25" fill="#F1F1F1" height="64.2969" id="control_sys" rx="2.5" ry="2.5" style="stroke:#181818;stroke-width:0.5;" width="145" x="7" y="221"/><ellipse cx="22" cy="237" fill="#ADD1B2" rx="11" ry="11" style="stroke:#181818;stroke-width:1.0;"/><path d="M24.9688,242.6406 Q24.3906,242.9375 23.75,243.0781 Q23.1094,243.2344 22.4063,243.2344 Q19.9063,243.2344 18.5781,241.5938 Q17.2656,239.9375 17.2656,236.8125 Q17.2656,233.6875 18.5781,232.0313 Q19.9063,230.375 22.4063,230.375 Q23.1094,230.375 23.75,230.5313 Q24.4063,230.6875 24.9688,230.9844 L24.9688,233.7031 Q24.3438,233.125 23.75,232.8594 Q23.1563,232.5781 22.5313,232.5781 Q21.1875,232.5781 20.5,233.6563 Q19.8125,234.7188 19.8125,236.8125 Q19.8125,238.9063 20.5,239.9844 Q21.1875,241.0469 22.5313,241.0469 Q23.1563,241.0469 23.75,240.7813 Q24.3438,240.5 24.9688,239.9219 L24.9688,242.6406 Z " fill="#000000"/><text fill="#000000" font-family="sans-serif" font-size="14" lengthAdjust="spacing" textLength="113" x="36" y="241.8467">Control Systems</text><line style="stroke:#181818;stroke-width:0.5;" x1="8" x2="151" y1="253" y2="253"/><ellipse cx="18" cy="266.6484" fill="none" rx="3" ry="3" style="stroke:#038048;stroke-width:1.0;"/><text fill="#000000" font-family="sans-serif" font-size="14" lengthAdjust="spacing" textLength="98" x="27" y="269.9951">Fundamentals</text><line style="stroke:#181818;stroke-width:0.5;" x1="8" x2="151" y1="277.2969" y2="277.2969"/></g><!--MD5=[5f5150cdc568be1e65b7951573b8a1af]
class computer_org--><g id="elem_computer_org"><rect codeLine="30" fill="#F1F1F1" height="64.2969" id="computer_org" rx="2.5" ry="2.5" style="stroke:#181818;stroke-width:0.5;" width="192" x="492.5" y="31.5"/><ellipse cx="507.5" cy="47.5" fill="#ADD1B2" rx="11" ry="11" style="stroke:#181818;stroke-width:1.0;"/><path d="M510.4688,53.1406 Q509.8906,53.4375 509.25,53.5781 Q508.6094,53.7344 507.9063,53.7344 Q505.4063,53.7344 504.0781,52.0938 Q502.7656,50.4375 502.7656,47.3125 Q502.7656,44.1875 504.0781,42.5313 Q505.4063,40.875 507.9063,40.875 Q508.6094,40.875 509.25,41.0313 Q509.9063,41.1875 510.4688,41.4844 L510.4688,44.2031 Q509.8438,43.625 509.25,43.3594 Q508.6563,43.0781 508.0313,43.0781 Q506.6875,43.0781 506,44.1563 Q505.3125,45.2188 505.3125,47.3125 Q505.3125,49.4063 506,50.4844 Q506.6875,51.5469 508.0313,51.5469 Q508.6563,51.5469 509.25,51.2813 Q509.8438,51 510.4688,50.4219 L510.4688,53.1406 Z " fill="#000000"/><text fill="#000000" font-family="sans-serif" font-size="14" lengthAdjust="spacing" textLength="160" x="521.5" y="52.3467">Computer Organization</text><line style="stroke:#181818;stroke-width:0.5;" x1="493.5" x2="683.5" y1="63.5" y2="63.5"/><ellipse cx="503.5" cy="77.1484" fill="none" rx="3" ry="3" style="stroke:#038048;stroke-width:1.0;"/><text fill="#000000" font-family="sans-serif" font-size="14" lengthAdjust="spacing" textLength="98" x="512.5" y="80.4951">Fundamentals</text><line style="stroke:#181818;stroke-width:0.5;" x1="493.5" x2="683.5" y1="87.7969" y2="87.7969"/></g><!--MD5=[841da8a3cf140ff232746b4ae7422aea]
class comp_arch--><g id="elem_comp_arch"><rect codeLine="35" fill="#F1F1F1" height="80.5938" id="comp_arch" rx="2.5" ry="2.5" style="stroke:#181818;stroke-width:0.5;" width="189" x="467" y="386"/><ellipse cx="482" cy="402" fill="#ADD1B2" rx="11" ry="11" style="stroke:#181818;stroke-width:1.0;"/><path d="M484.9688,407.6406 Q484.3906,407.9375 483.75,408.0781 Q483.1094,408.2344 482.4063,408.2344 Q479.9063,408.2344 478.5781,406.5938 Q477.2656,404.9375 477.2656,401.8125 Q477.2656,398.6875 478.5781,397.0313 Q479.9063,395.375 482.4063,395.375 Q483.1094,395.375 483.75,395.5313 Q484.4063,395.6875 484.9688,395.9844 L484.9688,398.7031 Q484.3438,398.125 483.75,397.8594 Q483.1563,397.5781 482.5313,397.5781 Q481.1875,397.5781 480.5,398.6563 Q479.8125,399.7188 479.8125,401.8125 Q479.8125,403.9063 480.5,404.9844 Q481.1875,406.0469 482.5313,406.0469 Q483.1563,406.0469 483.75,405.7813 Q484.3438,405.5 484.9688,404.9219 L484.9688,407.6406 Z " fill="#000000"/><text fill="#000000" font-family="sans-serif" font-size="14" lengthAdjust="spacing" textLength="157" x="496" y="406.8467">Computer Architecture</text><line style="stroke:#181818;stroke-width:0.5;" x1="468" x2="655" y1="418" y2="418"/><line style="stroke:#181818;stroke-width:0.5;" x1="468" x2="655" y1="426" y2="426"/><ellipse cx="478" cy="439.6484" fill="#84BE84" rx="3" ry="3" style="stroke:#038048;stroke-width:1.0;"/><text fill="#000000" font-family="sans-serif" font-size="14" lengthAdjust="spacing" textLength="114" x="487" y="442.9951">Memory Layout()</text><ellipse cx="478" cy="455.9453" fill="#84BE84" rx="3" ry="3" style="stroke:#038048;stroke-width:1.0;"/><text fill="#000000" font-family="sans-serif" font-size="14" lengthAdjust="spacing" textLength="31" x="487" y="459.292">ISA()</text></g><!--MD5=[9938913ac0b9723d577c1bb4b693d11a]
class os--><g id="elem_os"><rect codeLine="40" fill="#F1F1F1" height="113.1875" id="os" rx="2.5" ry="2.5" style="stroke:#181818;stroke-width:0.5;" width="186" x="1388.5" y="196.5"/><ellipse cx="1413.85" cy="212.5" fill="#ADD1B2" rx="11" ry="11" style="stroke:#181818;stroke-width:1.0;"/><path d="M1416.8188,218.1406 Q1416.2406,218.4375 1415.6,218.5781 Q1414.9594,218.7344 1414.2563,218.7344 Q1411.7563,218.7344 1410.4281,217.0938 Q1409.1156,215.4375 1409.1156,212.3125 Q1409.1156,209.1875 1410.4281,207.5313 Q1411.7563,205.875 1414.2563,205.875 Q1414.9594,205.875 1415.6,206.0313 Q1416.2563,206.1875 1416.8188,206.4844 L1416.8188,209.2031 Q1416.1938,208.625 1415.6,208.3594 Q1415.0063,208.0781 1414.3813,208.0781 Q1413.0375,208.0781 1412.35,209.1563 Q1411.6625,210.2188 1411.6625,212.3125 Q1411.6625,214.4063 1412.35,215.4844 Q1413.0375,216.5469 1414.3813,216.5469 Q1415.0063,216.5469 1415.6,216.2813 Q1416.1938,216 1416.8188,215.4219 L1416.8188,218.1406 Z " fill="#000000"/><text fill="#000000" font-family="sans-serif" font-size="14" lengthAdjust="spacing" textLength="131" x="1430.15" y="217.3467">Operating Systems</text><line style="stroke:#181818;stroke-width:0.5;" x1="1389.5" x2="1573.5" y1="228.5" y2="228.5"/><ellipse cx="1399.5" cy="242.1484" fill="none" rx="3" ry="3" style="stroke:#038048;stroke-width:1.0;"/><text fill="#000000" font-family="sans-serif" font-size="14" lengthAdjust="spacing" textLength="160" x="1408.5" y="245.4951">Programming language</text><ellipse cx="1399.5" cy="258.4453" fill="none" rx="3" ry="3" style="stroke:#038048;stroke-width:1.0;"/><text fill="#000000" font-family="sans-serif" font-size="14" lengthAdjust="spacing" textLength="86" x="1408.5" y="261.792">concurrency</text><line style="stroke:#181818;stroke-width:0.5;" x1="1389.5" x2="1573.5" y1="269.0938" y2="269.0938"/><ellipse cx="1399.5" cy="282.7422" fill="#84BE84" rx="3" ry="3" style="stroke:#038048;stroke-width:1.0;"/><text fill="#000000" font-family="sans-serif" font-size="14" lengthAdjust="spacing" textLength="48" x="1408.5" y="286.0889">pipes()</text><ellipse cx="1399.5" cy="299.0391" fill="#84BE84" rx="3" ry="3" style="stroke:#038048;stroke-width:1.0;"/><text fill="#000000" font-family="sans-serif" font-size="14" lengthAdjust="spacing" textLength="153" x="1408.5" y="302.3857">process and threads()</text></g><!--MD5=[9b92be28fcc82b4724bebf169d1b270c]
class sys_int--><g id="elem_sys_int"><rect codeLine="48" fill="#F1F1F1" height="80.5938" id="sys_int" rx="2.5" ry="2.5" style="stroke:#181818;stroke-width:0.5;" width="155" x="1647" y="23"/><ellipse cx="1662" cy="39" fill="#ADD1B2" rx="11" ry="11" style="stroke:#181818;stroke-width:1.0;"/><path d="M1664.9688,44.6406 Q1664.3906,44.9375 1663.75,45.0781 Q1663.1094,45.2344 1662.4063,45.2344 Q1659.9063,45.2344 1658.5781,43.5938 Q1657.2656,41.9375 1657.2656,38.8125 Q1657.2656,35.6875 1658.5781,34.0313 Q1659.9063,32.375 1662.4063,32.375 Q1663.1094,32.375 1663.75,32.5313 Q1664.4063,32.6875 1664.9688,32.9844 L1664.9688,35.7031 Q1664.3438,35.125 1663.75,34.8594 Q1663.1563,34.5781 1662.5313,34.5781 Q1661.1875,34.5781 1660.5,35.6563 Q1659.8125,36.7188 1659.8125,38.8125 Q1659.8125,40.9063 1660.5,41.9844 Q1661.1875,43.0469 1662.5313,43.0469 Q1663.1563,43.0469 1663.75,42.7813 Q1664.3438,42.5 1664.9688,41.9219 L1664.9688,44.6406 Z " fill="#000000"/><text fill="#000000" font-family="sans-serif" font-size="14" lengthAdjust="spacing" textLength="123" x="1676" y="43.8467">System Interfaces</text><line style="stroke:#181818;stroke-width:0.5;" x1="1648" x2="1801" y1="55" y2="55"/><line style="stroke:#181818;stroke-width:0.5;" x1="1648" x2="1801" y1="63" y2="63"/><ellipse cx="1658" cy="76.6484" fill="#84BE84" rx="3" ry="3" style="stroke:#038048;stroke-width:1.0;"/><text fill="#000000" font-family="sans-serif" font-size="14" lengthAdjust="spacing" textLength="68" x="1667" y="79.9951">Register()</text><ellipse cx="1658" cy="92.9453" fill="#84BE84" rx="3" ry="3" style="stroke:#038048;stroke-width:1.0;"/><text fill="#000000" font-family="sans-serif" font-size="14" lengthAdjust="spacing" textLength="107" x="1667" y="96.292">Memory maps()</text></g><!--MD5=[19e7a66b79e3029c437977be7cd7140c]
class circuits--><g id="elem_circuits"><rect codeLine="53" fill="#F1F1F1" height="113.1875" id="circuits" rx="2.5" ry="2.5" style="stroke:#181818;stroke-width:0.5;" width="398" x="719.5" y="7"/><ellipse cx="888.75" cy="23" fill="#ADD1B2" rx="11" ry="11" style="stroke:#181818;stroke-width:1.0;"/><path d="M891.7188,28.6406 Q891.1406,28.9375 890.5,29.0781 Q889.8594,29.2344 889.1563,29.2344 Q886.6563,29.2344 885.3281,27.5938 Q884.0156,25.9375 884.0156,22.8125 Q884.0156,19.6875 885.3281,18.0313 Q886.6563,16.375 889.1563,16.375 Q889.8594,16.375 890.5,16.5313 Q891.1563,16.6875 891.7188,16.9844 L891.7188,19.7031 Q891.0938,19.125 890.5,18.8594 Q889.9063,18.5781 889.2813,18.5781 Q887.9375,18.5781 887.25,19.6563 Q886.5625,20.7188 886.5625,22.8125 Q886.5625,24.9063 887.25,25.9844 Q887.9375,27.0469 889.2813,27.0469 Q889.9063,27.0469 890.5,26.7813 Q891.0938,26.5 891.7188,25.9219 L891.7188,28.6406 Z " fill="#000000"/><text fill="#000000" font-family="sans-serif" font-size="14" lengthAdjust="spacing" textLength="51" x="909.25" y="27.8467">Circuits</text><line style="stroke:#181818;stroke-width:0.5;" x1="720.5" x2="1116.5" y1="39" y2="39"/><ellipse cx="730.5" cy="60.7969" fill="none" rx="3" ry="3" style="stroke:#038048;stroke-width:1.0;"/><text fill="#000000" font-family="sans-serif" font-size="14" lengthAdjust="spacing" textLength="372" x="739.5" y="55.9951">Circuit analysis : current flow, voltage drop, capacitors,</text><text fill="#000000" font-family="sans-serif" font-size="14" lengthAdjust="spacing" textLength="4" x="739.5" y="72.292"> </text><text fill="#000000" font-family="sans-serif" font-size="14" lengthAdjust="spacing" textLength="201" x="739.5" y="88.5889">op-amps, diodes, transistors.</text><line style="stroke:#181818;stroke-width:0.5;" x1="720.5" x2="1116.5" y1="95.8906" y2="95.8906"/><ellipse cx="730.5" cy="109.5391" fill="#84BE84" rx="3" ry="3" style="stroke:#038048;stroke-width:1.0;"/><text fill="#000000" font-family="sans-serif" font-size="14" lengthAdjust="spacing" textLength="360" x="739.5" y="112.8857">Sound system() : filters and amplifiers, power sypply.</text></g><!--MD5=[a2b67d7abd3597ae0a281a8ccfb2556f]
class topic--><g id="elem_topic"><rect codeLine="88" fill="#F1F1F1" height="64.2969" id="topic" rx="2.5" ry="2.5" style="stroke:#181818;stroke-width:0.5;" width="124" x="691.5" y="394.5"/><ellipse cx="732.6" cy="410.5" fill="#ADD1B2" rx="11" ry="11" style="stroke:#181818;stroke-width:1.0;"/><path d="M735.5688,416.1406 Q734.9906,416.4375 734.35,416.5781 Q733.7094,416.7344 733.0063,416.7344 Q730.5063,416.7344 729.1781,415.0938 Q727.8656,413.4375 727.8656,410.3125 Q727.8656,407.1875 729.1781,405.5313 Q730.5063,403.875 733.0063,403.875 Q733.7094,403.875 734.35,404.0313 Q735.0063,404.1875 735.5688,404.4844 L735.5688,407.2031 Q734.9438,406.625 734.35,406.3594 Q733.7563,406.0781 733.1313,406.0781 Q731.7875,406.0781 731.1,407.1563 Q730.4125,408.2188 730.4125,410.3125 Q730.4125,412.4063 731.1,413.4844 Q731.7875,414.5469 733.1313,414.5469 Q733.7563,414.5469 734.35,414.2813 Q734.9438,414 735.5688,413.4219 L735.5688,416.1406 Z " fill="#000000"/><text fill="#000000" font-family="sans-serif" font-size="14" lengthAdjust="spacing" textLength="34" x="752.4" y="415.3467">topic</text><line style="stroke:#181818;stroke-width:0.5;" x1="692.5" x2="814.5" y1="426.5" y2="426.5"/><ellipse cx="702.5" cy="440.1484" fill="none" rx="3" ry="3" style="stroke:#038048;stroke-width:1.0;"/><text fill="#000000" font-family="sans-serif" font-size="14" lengthAdjust="spacing" textLength="98" x="711.5" y="443.4951">Fundamentals</text><line style="stroke:#181818;stroke-width:0.5;" x1="692.5" x2="814.5" y1="450.7969" y2="450.7969"/></g><!--MD5=[61a1ff1f2e90e4f5d52417cf735e0e13]
class Core--><g id="elem_Core"><rect codeLine="68" fill="#F1F1F1" height="48" id="Core" rx="2.5" ry="2.5" style="stroke:#181818;stroke-width:0.5;" width="65" x="851" y="402.5"/><ellipse cx="866" cy="418.5" fill="#F1F1F1" rx="11" ry="11" style="stroke:#181818;stroke-width:1.0;"/><path d="M865.4844,419.0625 Q863.625,418.3594 862.9688,417.5938 Q862.3281,416.8125 862.3281,415.5 Q862.3281,413.8125 863.4063,412.8438 Q864.4844,411.875 866.3594,411.875 Q867.2188,411.875 868.0625,412.0781 Q868.9219,412.2656 869.7656,412.6563 L869.7656,415.0469 Q868.9844,414.4844 868.1563,414.2031 Q867.3438,413.9063 866.5469,413.9063 Q865.6719,413.9063 865.1875,414.2656 Q864.7188,414.625 864.7188,415.2813 Q864.7188,415.7969 865.0625,416.1406 Q865.4063,416.4688 866.5,416.875 L867.5625,417.2813 Q869.0469,417.8281 869.75,418.7344 Q870.4688,419.6406 870.4688,421.0156 Q870.4688,422.8906 869.3594,423.8125 Q868.25,424.7344 866,424.7344 Q865.0781,424.7344 864.1563,424.5156 Q863.2344,424.2969 862.375,423.875 L862.375,421.3438 Q863.3438,422.0313 864.2656,422.375 Q865.1875,422.7188 866.0781,422.7188 Q866.9844,422.7188 867.4844,422.3125 Q867.9844,421.8906 867.9844,421.1563 Q867.9844,420.5938 867.6406,420.1875 Q867.3125,419.7656 866.6875,419.5156 L865.4844,419.0625 Z " fill="#000000"/><text fill="#000000" font-family="sans-serif" font-size="14" lengthAdjust="spacing" textLength="33" x="880" y="423.3467">Core</text><line style="stroke:#181818;stroke-width:0.5;" x1="852" x2="915" y1="434.5" y2="434.5"/><line style="stroke:#181818;stroke-width:0.5;" x1="852" x2="915" y1="442.5" y2="442.5"/></g><!--MD5=[cc87baed032be68acb8ffcaec3df4de7]
class compiler--><g id="elem_compiler"><rect codeLine="73" fill="#F1F1F1" height="64.2969" id="compiler" rx="2.5" ry="2.5" style="stroke:#181818;stroke-width:0.5;" width="112" x="1837.5" y="31.5"/><ellipse cx="1861.05" cy="47.5" fill="#ADD1B2" rx="11" ry="11" style="stroke:#181818;stroke-width:1.0;"/><path d="M1864.0188,53.1406 Q1863.4406,53.4375 1862.8,53.5781 Q1862.1594,53.7344 1861.4563,53.7344 Q1858.9563,53.7344 1857.6281,52.0938 Q1856.3156,50.4375 1856.3156,47.3125 Q1856.3156,44.1875 1857.6281,42.5313 Q1858.9563,40.875 1861.4563,40.875 Q1862.1594,40.875 1862.8,41.0313 Q1863.4563,41.1875 1864.0188,41.4844 L1864.0188,44.2031 Q1863.3938,43.625 1862.8,43.3594 Q1862.2063,43.0781 1861.5813,43.0781 Q1860.2375,43.0781 1859.55,44.1563 Q1858.8625,45.2188 1858.8625,47.3125 Q1858.8625,49.4063 1859.55,50.4844 Q1860.2375,51.5469 1861.5813,51.5469 Q1862.2063,51.5469 1862.8,51.2813 Q1863.3938,51 1864.0188,50.4219 L1864.0188,53.1406 Z " fill="#000000"/><text fill="#000000" font-family="sans-serif" font-size="14" lengthAdjust="spacing" textLength="61" x="1876.95" y="52.3467">Compiler</text><line style="stroke:#181818;stroke-width:0.5;" x1="1838.5" x2="1948.5" y1="63.5" y2="63.5"/><line style="stroke:#181818;stroke-width:0.5;" x1="1838.5" x2="1948.5" y1="71.5" y2="71.5"/><ellipse cx="1848.5" cy="85.1484" fill="#84BE84" rx="3" ry="3" style="stroke:#038048;stroke-width:1.0;"/><text fill="#000000" font-family="sans-serif" font-size="14" lengthAdjust="spacing" textLength="86" x="1857.5" y="88.4951">Bootloader()</text></g><!--MD5=[f33d155e3c60ec1f824818ad01704336]
class hw_emulator--><g id="elem_hw_emulator"><rect codeLine="78" fill="#F1F1F1" height="64.2969" id="hw_emulator" rx="2.5" ry="2.5" style="stroke:#181818;stroke-width:0.5;" width="230" x="1609.5" y="221"/><ellipse cx="1651.5" cy="237" fill="#ADD1B2" rx="11" ry="11" style="stroke:#181818;stroke-width:1.0;"/><path d="M1654.4688,242.6406 Q1653.8906,242.9375 1653.25,243.0781 Q1652.6094,243.2344 1651.9063,243.2344 Q1649.4063,243.2344 1648.0781,241.5938 Q1646.7656,239.9375 1646.7656,236.8125 Q1646.7656,233.6875 1648.0781,232.0313 Q1649.4063,230.375 1651.9063,230.375 Q1652.6094,230.375 1653.25,230.5313 Q1653.9063,230.6875 1654.4688,230.9844 L1654.4688,233.7031 Q1653.8438,233.125 1653.25,232.8594 Q1652.6563,232.5781 1652.0313,232.5781 Q1650.6875,232.5781 1650,233.6563 Q1649.3125,234.7188 1649.3125,236.8125 Q1649.3125,238.9063 1650,239.9844 Q1650.6875,241.0469 1652.0313,241.0469 Q1652.6563,241.0469 1653.25,240.7813 Q1653.8438,240.5 1654.4688,239.9219 L1654.4688,242.6406 Z " fill="#000000"/><text fill="#000000" font-family="sans-serif" font-size="14" lengthAdjust="spacing" textLength="138" x="1671.5" y="241.8467">Hardware emulators</text><line style="stroke:#181818;stroke-width:0.5;" x1="1610.5" x2="1838.5" y1="253" y2="253"/><ellipse cx="1620.5" cy="266.6484" fill="none" rx="3" ry="3" style="stroke:#038048;stroke-width:1.0;"/><text fill="#000000" font-family="sans-serif" font-size="14" lengthAdjust="spacing" textLength="204" x="1629.5" y="269.9951">Fundamentals : NES emulator</text><line style="stroke:#181818;stroke-width:0.5;" x1="1610.5" x2="1838.5" y1="277.2969" y2="277.2969"/></g><!--MD5=[58a5b792d0a165e9e333eabc38b4cd9a]
class Tracks--><g id="elem_Tracks"><rect codeLine="84" fill="#F1F1F1" height="48" id="Tracks" rx="2.5" ry="2.5" style="stroke:#181818;stroke-width:0.5;" width="78" x="1874.5" y="229"/><ellipse cx="1889.5" cy="245" fill="#F1F1F1" rx="11" ry="11" style="stroke:#181818;stroke-width:1.0;"/><path d="M1888.9844,245.5625 Q1887.125,244.8594 1886.4688,244.0938 Q1885.8281,243.3125 1885.8281,242 Q1885.8281,240.3125 1886.9063,239.3438 Q1887.9844,238.375 1889.8594,238.375 Q1890.7188,238.375 1891.5625,238.5781 Q1892.4219,238.7656 1893.2656,239.1563 L1893.2656,241.5469 Q1892.4844,240.9844 1891.6563,240.7031 Q1890.8438,240.4063 1890.0469,240.4063 Q1889.1719,240.4063 1888.6875,240.7656 Q1888.2188,241.125 1888.2188,241.7813 Q1888.2188,242.2969 1888.5625,242.6406 Q1888.9063,242.9688 1890,243.375 L1891.0625,243.7813 Q1892.5469,244.3281 1893.25,245.2344 Q1893.9688,246.1406 1893.9688,247.5156 Q1893.9688,249.3906 1892.8594,250.3125 Q1891.75,251.2344 1889.5,251.2344 Q1888.5781,251.2344 1887.6563,251.0156 Q1886.7344,250.7969 1885.875,250.375 L1885.875,247.8438 Q1886.8438,248.5313 1887.7656,248.875 Q1888.6875,249.2188 1889.5781,249.2188 Q1890.4844,249.2188 1890.9844,248.8125 Q1891.4844,248.3906 1891.4844,247.6563 Q1891.4844,247.0938 1891.1406,246.6875 Q1890.8125,246.2656 1890.1875,246.0156 L1888.9844,245.5625 Z " fill="#000000"/><text fill="#000000" font-family="sans-serif" font-size="14" lengthAdjust="spacing" textLength="46" x="1903.5" y="249.8467">Tracks</text><line style="stroke:#181818;stroke-width:0.5;" x1="1875.5" x2="1951.5" y1="261" y2="261"/><line style="stroke:#181818;stroke-width:0.5;" x1="1875.5" x2="1951.5" y1="269" y2="269"/></g><!--MD5=[a6e69ebde752962da01903e5afde084a]
reverse link circuits to Fundamentals--><g id="link_circuits_Fundamentals"><path codeLine="59" d="M752.5,125.1 C752.5,125.1 752.5,228.7 752.5,228.7 " fill="none" id="circuits-backto-Fundamentals" style="stroke:#181818;stroke-width:1.0;"/><polygon fill="#181818" points="752.5,120.1,748.5,129.1,752.5,125.1,756.5,129.1,752.5,120.1" style="stroke:#181818;stroke-width:1.0;"/></g><!--MD5=[6e0ab496155b748abc20d3da25692ba1]
link Fundamentals to os--><g id="link_Fundamentals_os"><path codeLine="60" d="M785.5,228.85 C785.5,198.41 785.5,150 785.5,150 C785.5,150 1481.5,150 1481.5,150 C1481.5,150 1481.5,191.38 1481.5,191.38 " fill="none" id="Fundamentals-to-os" style="stroke:#181818;stroke-width:1.0;"/><polygon fill="#181818" points="1481.5,196.38,1485.5,187.38,1481.5,191.38,1477.5,187.38,1481.5,196.38" style="stroke:#181818;stroke-width:1.0;"/></g><!--MD5=[7a54f239a12d4b756a40b985fca80f34]
reverse link math to Fundamentals--><g id="link_math_Fundamentals"><path codeLine="61" d="M658.59,261 C658.59,261 688.26,261 688.26,261 " fill="none" id="math-backto-Fundamentals" style="stroke:#181818;stroke-width:1.0;"/><polygon fill="#181818" points="653.59,261,662.59,265,658.59,261,662.59,257,653.59,261" style="stroke:#181818;stroke-width:1.0;"/></g><!--MD5=[722515f4b142df97c3c7947f30c6def7]
reverse link control_sys to Fundamentals--><g id="link_control_sys_Fundamentals"><path codeLine="62" d="M79.5,215.99 C79.5,215.99 79.5,185 79.5,185 C79.5,185 704,185 704,185 C704,185 704,209.29 704,228.83 " fill="none" id="control_sys-backto-Fundamentals" style="stroke:#181818;stroke-width:1.0;"/><polygon fill="#181818" points="79.5,220.99,83.5,211.99,79.5,215.99,75.5,211.99,79.5,220.99" style="stroke:#181818;stroke-width:1.0;"/></g><!--MD5=[5e4b160b8ab9d2503c046e37eab76d4e]
link Fundamentals to digital_sys--><g id="link_Fundamentals_digital_sys"><path codeLine="63" d="M818.51,245 C818.51,245 848.32,245 848.32,245 " fill="none" id="Fundamentals-to-digital_sys" style="stroke:#181818;stroke-width:1.0;"/><polygon fill="#181818" points="853.32,245,844.32,241,848.32,245,844.32,249,853.32,245" style="stroke:#181818;stroke-width:1.0;"/></g><!--MD5=[29f3204d550c3740cd2fcb0f99ea897c]
reverse link computer_org to Fundamentals--><g id="link_computer_org_Fundamentals"><path codeLine="64" d="M670.25,100.53 C670.25,100.53 670.25,245 670.25,245 C670.25,245 677.78,245 688.31,245 " fill="none" id="computer_org-backto-Fundamentals" style="stroke:#181818;stroke-width:1.0;"/><polygon fill="#181818" points="670.25,95.53,666.25,104.53,670.25,100.53,674.25,104.53,670.25,95.53" style="stroke:#181818;stroke-width:1.0;"/></g><!--MD5=[72f3db91553340c34e78d7146d0a2791]
link Fundamentals to comp_arch--><g id="link_Fundamentals_comp_arch"><path codeLine="65" d="M732.83,277.04 C732.83,316.58 732.83,391 732.83,391 C732.83,391 661.19,391 661.19,391 " fill="none" id="Fundamentals-to-comp_arch" style="stroke:#181818;stroke-width:1.0;"/><polygon fill="#181818" points="656.19,391,665.19,395,661.19,391,665.19,387,656.19,391" style="stroke:#181818;stroke-width:1.0;"/></g><!--MD5=[6ba644331a0c1e9a80e3e50f3f364d0a]
link Fundamentals to topic--><g id="link_Fundamentals_topic"><path codeLine="66" d="M774.17,277.12 C774.17,277.12 774.17,389.32 774.17,389.32 " fill="none" id="Fundamentals-to-topic" style="stroke:#181818;stroke-width:1.0;"/><polygon fill="#181818" points="774.17,394.32,778.17,385.32,774.17,389.32,770.17,385.32,774.17,394.32" style="stroke:#181818;stroke-width:1.0;"/></g><!--MD5=[91961b60776462ef772f0ce79ab282fc]
link Fundamentals to Core--><g id="link_Fundamentals_Core"><path codeLine="71" d="M818.7,261 C828.14,261 834.75,261 834.75,261 C834.75,261 834.75,427 834.75,427 C834.75,427 845.98,427 845.98,427 " fill="none" id="Fundamentals-to-Core" style="stroke:#181818;stroke-width:1.0;"/><polygon fill="#181818" points="850.98,427,841.98,423,845.98,427,841.98,431,850.98,427" style="stroke:#181818;stroke-width:1.0;"/></g></g></svg>