<?xml version="1.0" encoding="UTF-8" standalone="no"?><svg xmlns="http://www.w3.org/2000/svg" xmlns:xlink="http://www.w3.org/1999/xlink" contentStyleType="text/css" height="1097px" preserveAspectRatio="none" style="width:2160px;height:1097px;background:#FFFFFF;" version="1.1" viewBox="0 0 2160 1097" width="2160px" zoomAndPan="magnify"><defs/><g><!--MD5=[cde879ab447b042cc942523712f6004f]
class Fundamentals--><g id="elem_Fundamentals"><rect codeLine="5" fill="#F1F1F1" height="48" id="Fundamentals" rx="2.5" ry="2.5" style="stroke:#181818;stroke-width:0.5;" width="130" x="938.5" y="237"/><ellipse cx="953.5" cy="253" fill="#F1F1F1" rx="11" ry="11" style="stroke:#181818;stroke-width:1.0;"/><path d="M952.9844,253.5625 Q951.125,252.8594 950.4688,252.0938 Q949.8281,251.3125 949.8281,250 Q949.8281,248.3125 950.9063,247.3438 Q951.9844,246.375 953.8594,246.375 Q954.7188,246.375 955.5625,246.5781 Q956.4219,246.7656 957.2656,247.1563 L957.2656,249.5469 Q956.4844,248.9844 955.6563,248.7031 Q954.8438,248.4063 954.0469,248.4063 Q953.1719,248.4063 952.6875,248.7656 Q952.2188,249.125 952.2188,249.7813 Q952.2188,250.2969 952.5625,250.6406 Q952.9063,250.9688 954,251.375 L955.0625,251.7813 Q956.5469,252.3281 957.25,253.2344 Q957.9688,254.1406 957.9688,255.5156 Q957.9688,257.3906 956.8594,258.3125 Q955.75,259.2344 953.5,259.2344 Q952.5781,259.2344 951.6563,259.0156 Q950.7344,258.7969 949.875,258.375 L949.875,255.8438 Q950.8438,256.5313 951.7656,256.875 Q952.6875,257.2188 953.5781,257.2188 Q954.4844,257.2188 954.9844,256.8125 Q955.4844,256.3906 955.4844,255.6563 Q955.4844,255.0938 955.1406,254.6875 Q954.8125,254.2656 954.1875,254.0156 L952.9844,253.5625 Z " fill="#000000"/><text fill="#000000" font-family="sans-serif" font-size="14" lengthAdjust="spacing" textLength="98" x="967.5" y="257.8467">Fundamentals</text><line style="stroke:#181818;stroke-width:0.5;" x1="939.5" x2="1067.5" y1="269" y2="269"/><line style="stroke:#181818;stroke-width:0.5;" x1="939.5" x2="1067.5" y1="277" y2="277"/></g><!--MD5=[95fcf9f26be6eef34015cce5b5fce02b]
class data_algo--><g id="elem_data_algo"><rect codeLine="9" fill="#F1F1F1" height="162.0781" id="data_algo" rx="2.5" ry="2.5" style="stroke:#181818;stroke-width:0.5;" width="293" x="1104" y="180"/><ellipse cx="1140.15" cy="196" fill="#ADD1B2" rx="11" ry="11" style="stroke:#181818;stroke-width:1.0;"/><path d="M1143.1188,201.6406 Q1142.5406,201.9375 1141.9,202.0781 Q1141.2594,202.2344 1140.5563,202.2344 Q1138.0563,202.2344 1136.7281,200.5938 Q1135.4156,198.9375 1135.4156,195.8125 Q1135.4156,192.6875 1136.7281,191.0313 Q1138.0563,189.375 1140.5563,189.375 Q1141.2594,189.375 1141.9,189.5313 Q1142.5563,189.6875 1143.1188,189.9844 L1143.1188,192.7031 Q1142.4938,192.125 1141.9,191.8594 Q1141.3063,191.5781 1140.6813,191.5781 Q1139.3375,191.5781 1138.65,192.6563 Q1137.9625,193.7188 1137.9625,195.8125 Q1137.9625,197.9063 1138.65,198.9844 Q1139.3375,200.0469 1140.6813,200.0469 Q1141.3063,200.0469 1141.9,199.7813 Q1142.4938,199.5 1143.1188,198.9219 L1143.1188,201.6406 Z " fill="#000000"/><text fill="#000000" font-family="sans-serif" font-size="14" lengthAdjust="spacing" textLength="214" x="1158.85" y="200.8467">Data structures and Algorithms</text><line style="stroke:#181818;stroke-width:0.5;" x1="1105" x2="1396" y1="212" y2="212"/><ellipse cx="1115" cy="233.7969" fill="none" rx="3" ry="3" style="stroke:#038048;stroke-width:1.0;"/><text fill="#000000" font-family="sans-serif" font-size="14" lengthAdjust="spacing" textLength="263" x="1124" y="228.9951">Collections: Linked list, stack, queues,</text><text fill="#000000" font-family="sans-serif" font-size="14" lengthAdjust="spacing" textLength="4" x="1124" y="245.292"> </text><text fill="#000000" font-family="sans-serif" font-size="14" lengthAdjust="spacing" textLength="220" x="1124" y="261.5889">hash tables, heaps, binary trees</text><ellipse cx="1115" cy="274.5391" fill="none" rx="3" ry="3" style="stroke:#038048;stroke-width:1.0;"/><text fill="#000000" font-family="sans-serif" font-size="14" lengthAdjust="spacing" textLength="68" x="1124" y="277.8857">Interfaces</text><ellipse cx="1115" cy="290.8359" fill="none" rx="3" ry="3" style="stroke:#038048;stroke-width:1.0;"/><text fill="#000000" font-family="sans-serif" font-size="14" lengthAdjust="spacing" textLength="65" x="1124" y="294.1826">recursion</text><ellipse cx="1115" cy="307.1328" fill="none" rx="3" ry="3" style="stroke:#038048;stroke-width:1.0;"/><text fill="#000000" font-family="sans-serif" font-size="14" lengthAdjust="spacing" textLength="49" x="1124" y="310.4795">Sorting</text><ellipse cx="1115" cy="323.4297" fill="none" rx="3" ry="3" style="stroke:#038048;stroke-width:1.0;"/><text fill="#000000" font-family="sans-serif" font-size="14" lengthAdjust="spacing" textLength="50" x="1124" y="326.7764">Graphs</text><line style="stroke:#181818;stroke-width:0.5;" x1="1105" x2="1396" y1="334.0781" y2="334.0781"/></g><!--MD5=[d4dd7553ee4fc946ab868ca435bd290b]
class math--><g id="elem_math"><rect codeLine="18" fill="#F1F1F1" height="145.7813" id="math" rx="2.5" ry="2.5" style="stroke:#181818;stroke-width:0.5;" width="466" x="437.5" y="188"/><ellipse cx="622.25" cy="204" fill="#ADD1B2" rx="11" ry="11" style="stroke:#181818;stroke-width:1.0;"/><path d="M625.2188,209.6406 Q624.6406,209.9375 624,210.0781 Q623.3594,210.2344 622.6563,210.2344 Q620.1563,210.2344 618.8281,208.5938 Q617.5156,206.9375 617.5156,203.8125 Q617.5156,200.6875 618.8281,199.0313 Q620.1563,197.375 622.6563,197.375 Q623.3594,197.375 624,197.5313 Q624.6563,197.6875 625.2188,197.9844 L625.2188,200.7031 Q624.5938,200.125 624,199.8594 Q623.4063,199.5781 622.7813,199.5781 Q621.4375,199.5781 620.75,200.6563 Q620.0625,201.7188 620.0625,203.8125 Q620.0625,205.9063 620.75,206.9844 Q621.4375,208.0469 622.7813,208.0469 Q623.4063,208.0469 624,207.7813 Q624.5938,207.5 625.2188,206.9219 L625.2188,209.6406 Z " fill="#000000"/><text fill="#000000" font-family="sans-serif" font-size="14" lengthAdjust="spacing" textLength="88" x="642.75" y="208.8467">Mathematics</text><line style="stroke:#181818;stroke-width:0.5;" x1="438.5" x2="902.5" y1="220" y2="220"/><ellipse cx="448.5" cy="241.7969" fill="none" rx="3" ry="3" style="stroke:#038048;stroke-width:1.0;"/><text fill="#000000" font-family="sans-serif" font-size="14" lengthAdjust="spacing" textLength="436" x="457.5" y="236.9951">Linear Algebra: Factoring, Quadratic formula, Binomial Theorem,</text><text fill="#000000" font-family="sans-serif" font-size="14" lengthAdjust="spacing" textLength="4" x="457.5" y="253.292"> </text><text fill="#000000" font-family="sans-serif" font-size="14" lengthAdjust="spacing" textLength="82" x="457.5" y="269.5889">Inequalities.</text><ellipse cx="448.5" cy="282.5391" fill="none" rx="3" ry="3" style="stroke:#038048;stroke-width:1.0;"/><text fill="#000000" font-family="sans-serif" font-size="14" lengthAdjust="spacing" textLength="96" x="457.5" y="285.8857">Trigonometry.</text><ellipse cx="448.5" cy="298.8359" fill="none" rx="3" ry="3" style="stroke:#038048;stroke-width:1.0;"/><text fill="#000000" font-family="sans-serif" font-size="14" lengthAdjust="spacing" textLength="289" x="457.5" y="302.1826">Geometry: Distance formula, circles, lines,</text><ellipse cx="448.5" cy="315.1328" fill="none" rx="3" ry="3" style="stroke:#038048;stroke-width:1.0;"/><text fill="#000000" font-family="sans-serif" font-size="14" lengthAdjust="spacing" textLength="322" x="457.5" y="318.4795">Calculus: limits, functions, derivatives, integrals</text><line style="stroke:#181818;stroke-width:0.5;" x1="438.5" x2="902.5" y1="325.7813" y2="325.7813"/></g><!--MD5=[5662f07f23b655411764d98b0b3552de]
class digital_sys--><g id="elem_digital_sys"><rect codeLine="27" fill="#F1F1F1" height="145.7813" id="digital_sys" rx="2.5" ry="2.5" style="stroke:#181818;stroke-width:0.5;" width="500" x="1432.5" y="188"/><ellipse cx="1625.75" cy="204" fill="#ADD1B2" rx="11" ry="11" style="stroke:#181818;stroke-width:1.0;"/><path d="M1628.7188,209.6406 Q1628.1406,209.9375 1627.5,210.0781 Q1626.8594,210.2344 1626.1563,210.2344 Q1623.6563,210.2344 1622.3281,208.5938 Q1621.0156,206.9375 1621.0156,203.8125 Q1621.0156,200.6875 1622.3281,199.0313 Q1623.6563,197.375 1626.1563,197.375 Q1626.8594,197.375 1627.5,197.5313 Q1628.1563,197.6875 1628.7188,197.9844 L1628.7188,200.7031 Q1628.0938,200.125 1627.5,199.8594 Q1626.9063,199.5781 1626.2813,199.5781 Q1624.9375,199.5781 1624.25,200.6563 Q1623.5625,201.7188 1623.5625,203.8125 Q1623.5625,205.9063 1624.25,206.9844 Q1624.9375,208.0469 1626.2813,208.0469 Q1626.9063,208.0469 1627.5,207.7813 Q1628.0938,207.5 1628.7188,206.9219 L1628.7188,209.6406 Z " fill="#000000"/><text fill="#000000" font-family="sans-serif" font-size="14" lengthAdjust="spacing" textLength="105" x="1646.25" y="208.8467">Digital Systems</text><line style="stroke:#181818;stroke-width:0.5;" x1="1433.5" x2="1931.5" y1="220" y2="220"/><ellipse cx="1443.5" cy="241.7969" fill="none" rx="3" ry="3" style="stroke:#038048;stroke-width:1.0;"/><text fill="#000000" font-family="sans-serif" font-size="14" lengthAdjust="spacing" textLength="447" x="1452.5" y="236.9951">Continuous vs discrete systems: Analog vs digital, binary system,</text><text fill="#000000" font-family="sans-serif" font-size="14" lengthAdjust="spacing" textLength="4" x="1452.5" y="253.292"> </text><text fill="#000000" font-family="sans-serif" font-size="14" lengthAdjust="spacing" textLength="432" x="1452.5" y="269.5889">logic functions, boolean algebra digital waveform, data transfer,</text><text fill="#000000" font-family="sans-serif" font-size="14" lengthAdjust="spacing" textLength="4" x="1452.5" y="285.8857"> </text><text fill="#000000" font-family="sans-serif" font-size="14" lengthAdjust="spacing" textLength="474" x="1452.5" y="302.1826">combinational and sequential logic, memories, Finite state machines.</text><ellipse cx="1443.5" cy="315.1328" fill="none" rx="3" ry="3" style="stroke:#038048;stroke-width:1.0;"/><text fill="#000000" font-family="sans-serif" font-size="14" lengthAdjust="spacing" textLength="322" x="1452.5" y="318.4795">Build an 8bit computer on FPGA : memory, ALU</text><line style="stroke:#181818;stroke-width:0.5;" x1="1433.5" x2="1931.5" y1="325.7813" y2="325.7813"/></g><!--MD5=[4e64d489fe40c3619fae3517a4f095f7]
class control_eng--><g id="elem_control_eng"><rect codeLine="35" fill="#F1F1F1" height="64.2969" id="control_eng" rx="2.5" ry="2.5" style="stroke:#181818;stroke-width:0.5;" width="169" x="234" y="229"/><ellipse cx="249" cy="245" fill="#ADD1B2" rx="11" ry="11" style="stroke:#181818;stroke-width:1.0;"/><path d="M251.9688,250.6406 Q251.3906,250.9375 250.75,251.0781 Q250.1094,251.2344 249.4063,251.2344 Q246.9063,251.2344 245.5781,249.5938 Q244.2656,247.9375 244.2656,244.8125 Q244.2656,241.6875 245.5781,240.0313 Q246.9063,238.375 249.4063,238.375 Q250.1094,238.375 250.75,238.5313 Q251.4063,238.6875 251.9688,238.9844 L251.9688,241.7031 Q251.3438,241.125 250.75,240.8594 Q250.1563,240.5781 249.5313,240.5781 Q248.1875,240.5781 247.5,241.6563 Q246.8125,242.7188 246.8125,244.8125 Q246.8125,246.9063 247.5,247.9844 Q248.1875,249.0469 249.5313,249.0469 Q250.1563,249.0469 250.75,248.7813 Q251.3438,248.5 251.9688,247.9219 L251.9688,250.6406 Z " fill="#000000"/><text fill="#000000" font-family="sans-serif" font-size="14" lengthAdjust="spacing" textLength="137" x="263" y="249.8467">Control Engineering</text><line style="stroke:#181818;stroke-width:0.5;" x1="235" x2="402" y1="261" y2="261"/><ellipse cx="245" cy="274.6484" fill="none" rx="3" ry="3" style="stroke:#038048;stroke-width:1.0;"/><text fill="#000000" font-family="sans-serif" font-size="14" lengthAdjust="spacing" textLength="98" x="254" y="277.9951">Fundamentals</text><line style="stroke:#181818;stroke-width:0.5;" x1="235" x2="402" y1="285.2969" y2="285.2969"/></g><!--MD5=[841da8a3cf140ff232746b4ae7422aea]
class comp_arch--><g id="elem_comp_arch"><rect codeLine="41" fill="#F1F1F1" height="80.5938" id="comp_arch" rx="2.5" ry="2.5" style="stroke:#181818;stroke-width:0.5;" width="189" x="1588" y="402"/><ellipse cx="1603" cy="418" fill="#ADD1B2" rx="11" ry="11" style="stroke:#181818;stroke-width:1.0;"/><path d="M1605.9688,423.6406 Q1605.3906,423.9375 1604.75,424.0781 Q1604.1094,424.2344 1603.4063,424.2344 Q1600.9063,424.2344 1599.5781,422.5938 Q1598.2656,420.9375 1598.2656,417.8125 Q1598.2656,414.6875 1599.5781,413.0313 Q1600.9063,411.375 1603.4063,411.375 Q1604.1094,411.375 1604.75,411.5313 Q1605.4063,411.6875 1605.9688,411.9844 L1605.9688,414.7031 Q1605.3438,414.125 1604.75,413.8594 Q1604.1563,413.5781 1603.5313,413.5781 Q1602.1875,413.5781 1601.5,414.6563 Q1600.8125,415.7188 1600.8125,417.8125 Q1600.8125,419.9063 1601.5,420.9844 Q1602.1875,422.0469 1603.5313,422.0469 Q1604.1563,422.0469 1604.75,421.7813 Q1605.3438,421.5 1605.9688,420.9219 L1605.9688,423.6406 Z " fill="#000000"/><text fill="#000000" font-family="sans-serif" font-size="14" lengthAdjust="spacing" textLength="157" x="1617" y="422.8467">Computer Architecture</text><line style="stroke:#181818;stroke-width:0.5;" x1="1589" x2="1776" y1="434" y2="434"/><line style="stroke:#181818;stroke-width:0.5;" x1="1589" x2="1776" y1="442" y2="442"/><ellipse cx="1599" cy="455.6484" fill="#84BE84" rx="3" ry="3" style="stroke:#038048;stroke-width:1.0;"/><text fill="#000000" font-family="sans-serif" font-size="14" lengthAdjust="spacing" textLength="114" x="1608" y="458.9951">Memory Layout()</text><ellipse cx="1599" cy="471.9453" fill="#84BE84" rx="3" ry="3" style="stroke:#038048;stroke-width:1.0;"/><text fill="#000000" font-family="sans-serif" font-size="14" lengthAdjust="spacing" textLength="31" x="1608" y="475.292">ISA()</text></g><!--MD5=[9938913ac0b9723d577c1bb4b693d11a]
class os--><g id="elem_os"><rect codeLine="46" fill="#F1F1F1" height="113.1875" id="os" rx="2.5" ry="2.5" style="stroke:#181818;stroke-width:0.5;" width="186" x="1967.5" y="204.5"/><ellipse cx="1992.85" cy="220.5" fill="#ADD1B2" rx="11" ry="11" style="stroke:#181818;stroke-width:1.0;"/><path d="M1995.8188,226.1406 Q1995.2406,226.4375 1994.6,226.5781 Q1993.9594,226.7344 1993.2563,226.7344 Q1990.7563,226.7344 1989.4281,225.0938 Q1988.1156,223.4375 1988.1156,220.3125 Q1988.1156,217.1875 1989.4281,215.5313 Q1990.7563,213.875 1993.2563,213.875 Q1993.9594,213.875 1994.6,214.0313 Q1995.2563,214.1875 1995.8188,214.4844 L1995.8188,217.2031 Q1995.1938,216.625 1994.6,216.3594 Q1994.0063,216.0781 1993.3813,216.0781 Q1992.0375,216.0781 1991.35,217.1563 Q1990.6625,218.2188 1990.6625,220.3125 Q1990.6625,222.4063 1991.35,223.4844 Q1992.0375,224.5469 1993.3813,224.5469 Q1994.0063,224.5469 1994.6,224.2813 Q1995.1938,224 1995.8188,223.4219 L1995.8188,226.1406 Z " fill="#000000"/><text fill="#000000" font-family="sans-serif" font-size="14" lengthAdjust="spacing" textLength="131" x="2009.15" y="225.3467">Operating Systems</text><line style="stroke:#181818;stroke-width:0.5;" x1="1968.5" x2="2152.5" y1="236.5" y2="236.5"/><ellipse cx="1978.5" cy="250.1484" fill="none" rx="3" ry="3" style="stroke:#038048;stroke-width:1.0;"/><text fill="#000000" font-family="sans-serif" font-size="14" lengthAdjust="spacing" textLength="160" x="1987.5" y="253.4951">Programming language</text><ellipse cx="1978.5" cy="266.4453" fill="none" rx="3" ry="3" style="stroke:#038048;stroke-width:1.0;"/><text fill="#000000" font-family="sans-serif" font-size="14" lengthAdjust="spacing" textLength="86" x="1987.5" y="269.792">concurrency</text><line style="stroke:#181818;stroke-width:0.5;" x1="1968.5" x2="2152.5" y1="277.0938" y2="277.0938"/><ellipse cx="1978.5" cy="290.7422" fill="#84BE84" rx="3" ry="3" style="stroke:#038048;stroke-width:1.0;"/><text fill="#000000" font-family="sans-serif" font-size="14" lengthAdjust="spacing" textLength="48" x="1987.5" y="294.0889">pipes()</text><ellipse cx="1978.5" cy="307.0391" fill="#84BE84" rx="3" ry="3" style="stroke:#038048;stroke-width:1.0;"/><text fill="#000000" font-family="sans-serif" font-size="14" lengthAdjust="spacing" textLength="153" x="1987.5" y="310.3857">process and threads()</text></g><!--MD5=[9b92be28fcc82b4724bebf169d1b270c]
class sys_int--><g id="elem_sys_int"><rect codeLine="54" fill="#F1F1F1" height="80.5938" id="sys_int" rx="2.5" ry="2.5" style="stroke:#181818;stroke-width:0.5;" width="155" x="1238" y="23"/><ellipse cx="1253" cy="39" fill="#ADD1B2" rx="11" ry="11" style="stroke:#181818;stroke-width:1.0;"/><path d="M1255.9688,44.6406 Q1255.3906,44.9375 1254.75,45.0781 Q1254.1094,45.2344 1253.4063,45.2344 Q1250.9063,45.2344 1249.5781,43.5938 Q1248.2656,41.9375 1248.2656,38.8125 Q1248.2656,35.6875 1249.5781,34.0313 Q1250.9063,32.375 1253.4063,32.375 Q1254.1094,32.375 1254.75,32.5313 Q1255.4063,32.6875 1255.9688,32.9844 L1255.9688,35.7031 Q1255.3438,35.125 1254.75,34.8594 Q1254.1563,34.5781 1253.5313,34.5781 Q1252.1875,34.5781 1251.5,35.6563 Q1250.8125,36.7188 1250.8125,38.8125 Q1250.8125,40.9063 1251.5,41.9844 Q1252.1875,43.0469 1253.5313,43.0469 Q1254.1563,43.0469 1254.75,42.7813 Q1255.3438,42.5 1255.9688,41.9219 L1255.9688,44.6406 Z " fill="#000000"/><text fill="#000000" font-family="sans-serif" font-size="14" lengthAdjust="spacing" textLength="123" x="1267" y="43.8467">System Interfaces</text><line style="stroke:#181818;stroke-width:0.5;" x1="1239" x2="1392" y1="55" y2="55"/><line style="stroke:#181818;stroke-width:0.5;" x1="1239" x2="1392" y1="63" y2="63"/><ellipse cx="1249" cy="76.6484" fill="#84BE84" rx="3" ry="3" style="stroke:#038048;stroke-width:1.0;"/><text fill="#000000" font-family="sans-serif" font-size="14" lengthAdjust="spacing" textLength="68" x="1258" y="79.9951">Register()</text><ellipse cx="1249" cy="92.9453" fill="#84BE84" rx="3" ry="3" style="stroke:#038048;stroke-width:1.0;"/><text fill="#000000" font-family="sans-serif" font-size="14" lengthAdjust="spacing" textLength="107" x="1258" y="96.292">Memory maps()</text></g><!--MD5=[19e7a66b79e3029c437977be7cd7140c]
class circuits--><g id="elem_circuits"><rect codeLine="59" fill="#F1F1F1" height="113.1875" id="circuits" rx="2.5" ry="2.5" style="stroke:#181818;stroke-width:0.5;" width="398" x="804.5" y="7"/><ellipse cx="973.75" cy="23" fill="#ADD1B2" rx="11" ry="11" style="stroke:#181818;stroke-width:1.0;"/><path d="M976.7188,28.6406 Q976.1406,28.9375 975.5,29.0781 Q974.8594,29.2344 974.1563,29.2344 Q971.6563,29.2344 970.3281,27.5938 Q969.0156,25.9375 969.0156,22.8125 Q969.0156,19.6875 970.3281,18.0313 Q971.6563,16.375 974.1563,16.375 Q974.8594,16.375 975.5,16.5313 Q976.1563,16.6875 976.7188,16.9844 L976.7188,19.7031 Q976.0938,19.125 975.5,18.8594 Q974.9063,18.5781 974.2813,18.5781 Q972.9375,18.5781 972.25,19.6563 Q971.5625,20.7188 971.5625,22.8125 Q971.5625,24.9063 972.25,25.9844 Q972.9375,27.0469 974.2813,27.0469 Q974.9063,27.0469 975.5,26.7813 Q976.0938,26.5 976.7188,25.9219 L976.7188,28.6406 Z " fill="#000000"/><text fill="#000000" font-family="sans-serif" font-size="14" lengthAdjust="spacing" textLength="51" x="994.25" y="27.8467">Circuits</text><line style="stroke:#181818;stroke-width:0.5;" x1="805.5" x2="1201.5" y1="39" y2="39"/><ellipse cx="815.5" cy="60.7969" fill="none" rx="3" ry="3" style="stroke:#038048;stroke-width:1.0;"/><text fill="#000000" font-family="sans-serif" font-size="14" lengthAdjust="spacing" textLength="372" x="824.5" y="55.9951">Circuit analysis : current flow, voltage drop, capacitors,</text><text fill="#000000" font-family="sans-serif" font-size="14" lengthAdjust="spacing" textLength="4" x="824.5" y="72.292"> </text><text fill="#000000" font-family="sans-serif" font-size="14" lengthAdjust="spacing" textLength="201" x="824.5" y="88.5889">op-amps, diodes, transistors.</text><line style="stroke:#181818;stroke-width:0.5;" x1="805.5" x2="1201.5" y1="95.8906" y2="95.8906"/><ellipse cx="815.5" cy="109.5391" fill="#84BE84" rx="3" ry="3" style="stroke:#038048;stroke-width:1.0;"/><text fill="#000000" font-family="sans-serif" font-size="14" lengthAdjust="spacing" textLength="360" x="824.5" y="112.8857">Sound system() : filters and amplifiers, power sypply.</text></g><!--MD5=[58a5b792d0a165e9e333eabc38b4cd9a]
class Tracks--><g id="elem_Tracks"><rect codeLine="72" fill="#F1F1F1" height="48" id="Tracks" rx="2.5" ry="2.5" style="stroke:#181818;stroke-width:0.5;" width="78" x="964.5" y="559.5"/><ellipse cx="979.5" cy="575.5" fill="#F1F1F1" rx="11" ry="11" style="stroke:#181818;stroke-width:1.0;"/><path d="M978.9844,576.0625 Q977.125,575.3594 976.4688,574.5938 Q975.8281,573.8125 975.8281,572.5 Q975.8281,570.8125 976.9063,569.8438 Q977.9844,568.875 979.8594,568.875 Q980.7188,568.875 981.5625,569.0781 Q982.4219,569.2656 983.2656,569.6563 L983.2656,572.0469 Q982.4844,571.4844 981.6563,571.2031 Q980.8438,570.9063 980.0469,570.9063 Q979.1719,570.9063 978.6875,571.2656 Q978.2188,571.625 978.2188,572.2813 Q978.2188,572.7969 978.5625,573.1406 Q978.9063,573.4688 980,573.875 L981.0625,574.2813 Q982.5469,574.8281 983.25,575.7344 Q983.9688,576.6406 983.9688,578.0156 Q983.9688,579.8906 982.8594,580.8125 Q981.75,581.7344 979.5,581.7344 Q978.5781,581.7344 977.6563,581.5156 Q976.7344,581.2969 975.875,580.875 L975.875,578.3438 Q976.8438,579.0313 977.7656,579.375 Q978.6875,579.7188 979.5781,579.7188 Q980.4844,579.7188 980.9844,579.3125 Q981.4844,578.8906 981.4844,578.1563 Q981.4844,577.5938 981.1406,577.1875 Q980.8125,576.7656 980.1875,576.5156 L978.9844,576.0625 Z " fill="#000000"/><text fill="#000000" font-family="sans-serif" font-size="14" lengthAdjust="spacing" textLength="46" x="993.5" y="580.3467">Tracks</text><line style="stroke:#181818;stroke-width:0.5;" x1="965.5" x2="1041.5" y1="591.5" y2="591.5"/><line style="stroke:#181818;stroke-width:0.5;" x1="965.5" x2="1041.5" y1="599.5" y2="599.5"/></g><!--MD5=[634ae3a3a2992b90378b51755d1d1aac]
class machine_learning--><g id="elem_machine_learning"><rect codeLine="78" fill="#F1F1F1" height="64.2969" id="machine_learning" rx="2.5" ry="2.5" style="stroke:#181818;stroke-width:0.5;" width="157" x="1760" y="551.5"/><ellipse cx="1775" cy="567.5" fill="#ADD1B2" rx="11" ry="11" style="stroke:#181818;stroke-width:1.0;"/><path d="M1777.9688,573.1406 Q1777.3906,573.4375 1776.75,573.5781 Q1776.1094,573.7344 1775.4063,573.7344 Q1772.9063,573.7344 1771.5781,572.0938 Q1770.2656,570.4375 1770.2656,567.3125 Q1770.2656,564.1875 1771.5781,562.5313 Q1772.9063,560.875 1775.4063,560.875 Q1776.1094,560.875 1776.75,561.0313 Q1777.4063,561.1875 1777.9688,561.4844 L1777.9688,564.2031 Q1777.3438,563.625 1776.75,563.3594 Q1776.1563,563.0781 1775.5313,563.0781 Q1774.1875,563.0781 1773.5,564.1563 Q1772.8125,565.2188 1772.8125,567.3125 Q1772.8125,569.4063 1773.5,570.4844 Q1774.1875,571.5469 1775.5313,571.5469 Q1776.1563,571.5469 1776.75,571.2813 Q1777.3438,571 1777.9688,570.4219 L1777.9688,573.1406 Z " fill="#000000"/><text fill="#000000" font-family="sans-serif" font-size="14" lengthAdjust="spacing" textLength="121" x="1789" y="572.3467">Machine Learning</text><line style="stroke:#181818;stroke-width:0.5;" x1="1761" x2="1916" y1="583.5" y2="583.5"/><ellipse cx="1771" cy="597.1484" fill="none" rx="3" ry="3" style="stroke:#038048;stroke-width:1.0;"/><text fill="#000000" font-family="sans-serif" font-size="14" lengthAdjust="spacing" textLength="98" x="1780" y="600.4951">Fundamentals</text><line style="stroke:#181818;stroke-width:0.5;" x1="1761" x2="1916" y1="607.7969" y2="607.7969"/></g><!--MD5=[4c33a3c84ae9095521d8aa1a98e8f116]
class cybersecurity--><g id="elem_cybersecurity"><rect codeLine="82" fill="#F1F1F1" height="64.2969" id="cybersecurity" rx="2.5" ry="2.5" style="stroke:#181818;stroke-width:0.5;" width="130" x="640.5" y="551.5"/><ellipse cx="655.5" cy="567.5" fill="#ADD1B2" rx="11" ry="11" style="stroke:#181818;stroke-width:1.0;"/><path d="M658.4688,573.1406 Q657.8906,573.4375 657.25,573.5781 Q656.6094,573.7344 655.9063,573.7344 Q653.4063,573.7344 652.0781,572.0938 Q650.7656,570.4375 650.7656,567.3125 Q650.7656,564.1875 652.0781,562.5313 Q653.4063,560.875 655.9063,560.875 Q656.6094,560.875 657.25,561.0313 Q657.9063,561.1875 658.4688,561.4844 L658.4688,564.2031 Q657.8438,563.625 657.25,563.3594 Q656.6563,563.0781 656.0313,563.0781 Q654.6875,563.0781 654,564.1563 Q653.3125,565.2188 653.3125,567.3125 Q653.3125,569.4063 654,570.4844 Q654.6875,571.5469 656.0313,571.5469 Q656.6563,571.5469 657.25,571.2813 Q657.8438,571 658.4688,570.4219 L658.4688,573.1406 Z " fill="#000000"/><text fill="#000000" font-family="sans-serif" font-size="14" lengthAdjust="spacing" textLength="94" x="669.5" y="572.3467">Cybersecurity</text><line style="stroke:#181818;stroke-width:0.5;" x1="641.5" x2="769.5" y1="583.5" y2="583.5"/><ellipse cx="651.5" cy="597.1484" fill="none" rx="3" ry="3" style="stroke:#038048;stroke-width:1.0;"/><text fill="#000000" font-family="sans-serif" font-size="14" lengthAdjust="spacing" textLength="98" x="660.5" y="600.4951">Fundamentals</text><line style="stroke:#181818;stroke-width:0.5;" x1="641.5" x2="769.5" y1="607.7969" y2="607.7969"/></g><!--MD5=[2e80c468e8c902c8e00fdf90d39643e8]
class firmware--><g id="elem_firmware"><rect codeLine="86" fill="#F1F1F1" height="64.2969" id="firmware" rx="2.5" ry="2.5" style="stroke:#181818;stroke-width:0.5;" width="124" x="141.5" y="551.5"/><ellipse cx="168.2" cy="567.5" fill="#ADD1B2" rx="11" ry="11" style="stroke:#181818;stroke-width:1.0;"/><path d="M171.1688,573.1406 Q170.5906,573.4375 169.95,573.5781 Q169.3094,573.7344 168.6063,573.7344 Q166.1063,573.7344 164.7781,572.0938 Q163.4656,570.4375 163.4656,567.3125 Q163.4656,564.1875 164.7781,562.5313 Q166.1063,560.875 168.6063,560.875 Q169.3094,560.875 169.95,561.0313 Q170.6063,561.1875 171.1688,561.4844 L171.1688,564.2031 Q170.5438,563.625 169.95,563.3594 Q169.3563,563.0781 168.7313,563.0781 Q167.3875,563.0781 166.7,564.1563 Q166.0125,565.2188 166.0125,567.3125 Q166.0125,569.4063 166.7,570.4844 Q167.3875,571.5469 168.7313,571.5469 Q169.3563,571.5469 169.95,571.2813 Q170.5438,571 171.1688,570.4219 L171.1688,573.1406 Z " fill="#000000"/><text fill="#000000" font-family="sans-serif" font-size="14" lengthAdjust="spacing" textLength="62" x="184.8" y="572.3467">Firmware</text><line style="stroke:#181818;stroke-width:0.5;" x1="142.5" x2="264.5" y1="583.5" y2="583.5"/><ellipse cx="152.5" cy="597.1484" fill="none" rx="3" ry="3" style="stroke:#038048;stroke-width:1.0;"/><text fill="#000000" font-family="sans-serif" font-size="14" lengthAdjust="spacing" textLength="98" x="161.5" y="600.4951">Fundamentals</text><line style="stroke:#181818;stroke-width:0.5;" x1="142.5" x2="264.5" y1="607.7969" y2="607.7969"/></g><!--MD5=[6d4a9c7bb4a172a1034497390f076078]
class iot--><g id="elem_iot"><rect codeLine="90" fill="#F1F1F1" height="64.2969" id="iot" rx="2.5" ry="2.5" style="stroke:#181818;stroke-width:0.5;" width="160" x="1952.5" y="551.5"/><ellipse cx="1967.5" cy="567.5" fill="#ADD1B2" rx="11" ry="11" style="stroke:#181818;stroke-width:1.0;"/><path d="M1970.4688,573.1406 Q1969.8906,573.4375 1969.25,573.5781 Q1968.6094,573.7344 1967.9063,573.7344 Q1965.4063,573.7344 1964.0781,572.0938 Q1962.7656,570.4375 1962.7656,567.3125 Q1962.7656,564.1875 1964.0781,562.5313 Q1965.4063,560.875 1967.9063,560.875 Q1968.6094,560.875 1969.25,561.0313 Q1969.9063,561.1875 1970.4688,561.4844 L1970.4688,564.2031 Q1969.8438,563.625 1969.25,563.3594 Q1968.6563,563.0781 1968.0313,563.0781 Q1966.6875,563.0781 1966,564.1563 Q1965.3125,565.2188 1965.3125,567.3125 Q1965.3125,569.4063 1966,570.4844 Q1966.6875,571.5469 1968.0313,571.5469 Q1968.6563,571.5469 1969.25,571.2813 Q1969.8438,571 1970.4688,570.4219 L1970.4688,573.1406 Z " fill="#000000"/><text fill="#000000" font-family="sans-serif" font-size="14" lengthAdjust="spacing" textLength="124" x="1981.5" y="572.3467">Internet Of Things</text><line style="stroke:#181818;stroke-width:0.5;" x1="1953.5" x2="2111.5" y1="583.5" y2="583.5"/><ellipse cx="1963.5" cy="597.1484" fill="none" rx="3" ry="3" style="stroke:#038048;stroke-width:1.0;"/><text fill="#000000" font-family="sans-serif" font-size="14" lengthAdjust="spacing" textLength="98" x="1972.5" y="600.4951">Fundamentals</text><line style="stroke:#181818;stroke-width:0.5;" x1="1953.5" x2="2111.5" y1="607.7969" y2="607.7969"/></g><!--MD5=[9f7b80dbbeb7f074a486108e388969be]
class sys_control--><g id="elem_sys_control"><rect codeLine="94" fill="#F1F1F1" height="64.2969" id="sys_control" rx="2.5" ry="2.5" style="stroke:#181818;stroke-width:0.5;" width="145" x="1396" y="551.5"/><ellipse cx="1411" cy="567.5" fill="#ADD1B2" rx="11" ry="11" style="stroke:#181818;stroke-width:1.0;"/><path d="M1413.9688,573.1406 Q1413.3906,573.4375 1412.75,573.5781 Q1412.1094,573.7344 1411.4063,573.7344 Q1408.9063,573.7344 1407.5781,572.0938 Q1406.2656,570.4375 1406.2656,567.3125 Q1406.2656,564.1875 1407.5781,562.5313 Q1408.9063,560.875 1411.4063,560.875 Q1412.1094,560.875 1412.75,561.0313 Q1413.4063,561.1875 1413.9688,561.4844 L1413.9688,564.2031 Q1413.3438,563.625 1412.75,563.3594 Q1412.1563,563.0781 1411.5313,563.0781 Q1410.1875,563.0781 1409.5,564.1563 Q1408.8125,565.2188 1408.8125,567.3125 Q1408.8125,569.4063 1409.5,570.4844 Q1410.1875,571.5469 1411.5313,571.5469 Q1412.1563,571.5469 1412.75,571.2813 Q1413.3438,571 1413.9688,570.4219 L1413.9688,573.1406 Z " fill="#000000"/><text fill="#000000" font-family="sans-serif" font-size="14" lengthAdjust="spacing" textLength="113" x="1425" y="572.3467">Systems Control</text><line style="stroke:#181818;stroke-width:0.5;" x1="1397" x2="1540" y1="583.5" y2="583.5"/><ellipse cx="1407" cy="597.1484" fill="none" rx="3" ry="3" style="stroke:#038048;stroke-width:1.0;"/><text fill="#000000" font-family="sans-serif" font-size="14" lengthAdjust="spacing" textLength="98" x="1416" y="600.4951">Fundamentals</text><line style="stroke:#181818;stroke-width:0.5;" x1="1397" x2="1540" y1="607.7969" y2="607.7969"/></g><!--MD5=[c80cc275215ba0955fdd4542fd48feb0]
class embedded_linux--><g id="elem_embedded_linux"><rect codeLine="98" fill="#F1F1F1" height="64.2969" id="embedded_linux" rx="2.5" ry="2.5" style="stroke:#181818;stroke-width:0.5;" width="147" x="458" y="551.5"/><ellipse cx="473" cy="567.5" fill="#ADD1B2" rx="11" ry="11" style="stroke:#181818;stroke-width:1.0;"/><path d="M475.9688,573.1406 Q475.3906,573.4375 474.75,573.5781 Q474.1094,573.7344 473.4063,573.7344 Q470.9063,573.7344 469.5781,572.0938 Q468.2656,570.4375 468.2656,567.3125 Q468.2656,564.1875 469.5781,562.5313 Q470.9063,560.875 473.4063,560.875 Q474.1094,560.875 474.75,561.0313 Q475.4063,561.1875 475.9688,561.4844 L475.9688,564.2031 Q475.3438,563.625 474.75,563.3594 Q474.1563,563.0781 473.5313,563.0781 Q472.1875,563.0781 471.5,564.1563 Q470.8125,565.2188 470.8125,567.3125 Q470.8125,569.4063 471.5,570.4844 Q472.1875,571.5469 473.5313,571.5469 Q474.1563,571.5469 474.75,571.2813 Q475.3438,571 475.9688,570.4219 L475.9688,573.1406 Z " fill="#000000"/><text fill="#000000" font-family="sans-serif" font-size="14" lengthAdjust="spacing" textLength="115" x="487" y="572.3467">Embedded Linux</text><line style="stroke:#181818;stroke-width:0.5;" x1="459" x2="604" y1="583.5" y2="583.5"/><ellipse cx="469" cy="597.1484" fill="none" rx="3" ry="3" style="stroke:#038048;stroke-width:1.0;"/><text fill="#000000" font-family="sans-serif" font-size="14" lengthAdjust="spacing" textLength="99" x="478" y="600.4951">Device Drivers</text><line style="stroke:#181818;stroke-width:0.5;" x1="459" x2="604" y1="607.7969" y2="607.7969"/></g><!--MD5=[1d8be22ded7752054a87f444fa54132d]
class audio--><g id="elem_audio"><rect codeLine="102" fill="#F1F1F1" height="64.2969" id="audio" rx="2.5" ry="2.5" style="stroke:#181818;stroke-width:0.5;" width="124" x="805.5" y="551.5"/><ellipse cx="844.35" cy="567.5" fill="#ADD1B2" rx="11" ry="11" style="stroke:#181818;stroke-width:1.0;"/><path d="M847.3188,573.1406 Q846.7406,573.4375 846.1,573.5781 Q845.4594,573.7344 844.7563,573.7344 Q842.2563,573.7344 840.9281,572.0938 Q839.6156,570.4375 839.6156,567.3125 Q839.6156,564.1875 840.9281,562.5313 Q842.2563,560.875 844.7563,560.875 Q845.4594,560.875 846.1,561.0313 Q846.7563,561.1875 847.3188,561.4844 L847.3188,564.2031 Q846.6938,563.625 846.1,563.3594 Q845.5063,563.0781 844.8813,563.0781 Q843.5375,563.0781 842.85,564.1563 Q842.1625,565.2188 842.1625,567.3125 Q842.1625,569.4063 842.85,570.4844 Q843.5375,571.5469 844.8813,571.5469 Q845.5063,571.5469 846.1,571.2813 Q846.6938,571 847.3188,570.4219 L847.3188,573.1406 Z " fill="#000000"/><text fill="#000000" font-family="sans-serif" font-size="14" lengthAdjust="spacing" textLength="39" x="863.65" y="572.3467">Audio</text><line style="stroke:#181818;stroke-width:0.5;" x1="806.5" x2="928.5" y1="583.5" y2="583.5"/><ellipse cx="816.5" cy="597.1484" fill="none" rx="3" ry="3" style="stroke:#038048;stroke-width:1.0;"/><text fill="#000000" font-family="sans-serif" font-size="14" lengthAdjust="spacing" textLength="98" x="825.5" y="600.4951">Fundamentals</text><line style="stroke:#181818;stroke-width:0.5;" x1="806.5" x2="928.5" y1="607.7969" y2="607.7969"/></g><!--MD5=[b14acb90230e224b52809523fbe9ead9]
class radio_frequency--><g id="elem_radio_frequency"><rect codeLine="106" fill="#F1F1F1" height="64.2969" id="radio_frequency" rx="2.5" ry="2.5" style="stroke:#181818;stroke-width:0.5;" width="148" x="1576.5" y="551.5"/><ellipse cx="1591.5" cy="567.5" fill="#ADD1B2" rx="11" ry="11" style="stroke:#181818;stroke-width:1.0;"/><path d="M1594.4688,573.1406 Q1593.8906,573.4375 1593.25,573.5781 Q1592.6094,573.7344 1591.9063,573.7344 Q1589.4063,573.7344 1588.0781,572.0938 Q1586.7656,570.4375 1586.7656,567.3125 Q1586.7656,564.1875 1588.0781,562.5313 Q1589.4063,560.875 1591.9063,560.875 Q1592.6094,560.875 1593.25,561.0313 Q1593.9063,561.1875 1594.4688,561.4844 L1594.4688,564.2031 Q1593.8438,563.625 1593.25,563.3594 Q1592.6563,563.0781 1592.0313,563.0781 Q1590.6875,563.0781 1590,564.1563 Q1589.3125,565.2188 1589.3125,567.3125 Q1589.3125,569.4063 1590,570.4844 Q1590.6875,571.5469 1592.0313,571.5469 Q1592.6563,571.5469 1593.25,571.2813 Q1593.8438,571 1594.4688,570.4219 L1594.4688,573.1406 Z " fill="#000000"/><text fill="#000000" font-family="sans-serif" font-size="14" lengthAdjust="spacing" textLength="116" x="1605.5" y="572.3467">Radio Frequency</text><line style="stroke:#181818;stroke-width:0.5;" x1="1577.5" x2="1723.5" y1="583.5" y2="583.5"/><ellipse cx="1587.5" cy="597.1484" fill="none" rx="3" ry="3" style="stroke:#038048;stroke-width:1.0;"/><text fill="#000000" font-family="sans-serif" font-size="14" lengthAdjust="spacing" textLength="98" x="1596.5" y="600.4951">Fundamentals</text><line style="stroke:#181818;stroke-width:0.5;" x1="1577.5" x2="1723.5" y1="607.7969" y2="607.7969"/></g><!--MD5=[8a0b9bb0c270f316377319bfc4abd4ac]
class embedded_software--><g id="elem_embedded_software"><rect codeLine="110" fill="#F1F1F1" height="80.5938" id="embedded_software" rx="2.5" ry="2.5" style="stroke:#181818;stroke-width:0.5;" width="122" x="300.5" y="543"/><ellipse cx="329" cy="559" fill="#ADD1B2" rx="11" ry="11" style="stroke:#181818;stroke-width:1.0;"/><path d="M331.9688,564.6406 Q331.3906,564.9375 330.75,565.0781 Q330.1094,565.2344 329.4063,565.2344 Q326.9063,565.2344 325.5781,563.5938 Q324.2656,561.9375 324.2656,558.8125 Q324.2656,555.6875 325.5781,554.0313 Q326.9063,552.375 329.4063,552.375 Q330.1094,552.375 330.75,552.5313 Q331.4063,552.6875 331.9688,552.9844 L331.9688,555.7031 Q331.3438,555.125 330.75,554.8594 Q330.1563,554.5781 329.5313,554.5781 Q328.1875,554.5781 327.5,555.6563 Q326.8125,556.7188 326.8125,558.8125 Q326.8125,560.9063 327.5,561.9844 Q328.1875,563.0469 329.5313,563.0469 Q330.1563,563.0469 330.75,562.7813 Q331.3438,562.5 331.9688,561.9219 L331.9688,564.6406 Z " fill="#000000"/><text fill="#000000" font-family="sans-serif" font-size="14" lengthAdjust="spacing" textLength="60" x="346" y="563.8467">Software</text><line style="stroke:#181818;stroke-width:0.5;" x1="301.5" x2="421.5" y1="575" y2="575"/><ellipse cx="311.5" cy="588.6484" fill="none" rx="3" ry="3" style="stroke:#038048;stroke-width:1.0;"/><text fill="#000000" font-family="sans-serif" font-size="14" lengthAdjust="spacing" textLength="96" x="320.5" y="591.9951">HW emulators</text><ellipse cx="311.5" cy="604.9453" fill="none" rx="3" ry="3" style="stroke:#038048;stroke-width:1.0;"/><text fill="#000000" font-family="sans-serif" font-size="14" lengthAdjust="spacing" textLength="39" x="320.5" y="608.292">RTOS</text><line style="stroke:#181818;stroke-width:0.5;" x1="301.5" x2="421.5" y1="615.5938" y2="615.5938"/></g><!--MD5=[4f126e13281f29ac4ec68ad2ea50a0fb]
class tester--><g id="elem_tester"><rect codeLine="115" fill="#F1F1F1" height="64.2969" id="tester" rx="2.5" ry="2.5" style="stroke:#181818;stroke-width:0.5;" width="124" x="1236.5" y="551.5"/><ellipse cx="1272.65" cy="567.5" fill="#ADD1B2" rx="11" ry="11" style="stroke:#181818;stroke-width:1.0;"/><path d="M1275.6188,573.1406 Q1275.0406,573.4375 1274.4,573.5781 Q1273.7594,573.7344 1273.0563,573.7344 Q1270.5563,573.7344 1269.2281,572.0938 Q1267.9156,570.4375 1267.9156,567.3125 Q1267.9156,564.1875 1269.2281,562.5313 Q1270.5563,560.875 1273.0563,560.875 Q1273.7594,560.875 1274.4,561.0313 Q1275.0563,561.1875 1275.6188,561.4844 L1275.6188,564.2031 Q1274.9938,563.625 1274.4,563.3594 Q1273.8063,563.0781 1273.1813,563.0781 Q1271.8375,563.0781 1271.15,564.1563 Q1270.4625,565.2188 1270.4625,567.3125 Q1270.4625,569.4063 1271.15,570.4844 Q1271.8375,571.5469 1273.1813,571.5469 Q1273.8063,571.5469 1274.4,571.2813 Q1274.9938,571 1275.6188,570.4219 L1275.6188,573.1406 Z " fill="#000000"/><text fill="#000000" font-family="sans-serif" font-size="14" lengthAdjust="spacing" textLength="45" x="1291.35" y="572.3467">Tester</text><line style="stroke:#181818;stroke-width:0.5;" x1="1237.5" x2="1359.5" y1="583.5" y2="583.5"/><ellipse cx="1247.5" cy="597.1484" fill="none" rx="3" ry="3" style="stroke:#038048;stroke-width:1.0;"/><text fill="#000000" font-family="sans-serif" font-size="14" lengthAdjust="spacing" textLength="98" x="1256.5" y="600.4951">Fundamentals</text><line style="stroke:#181818;stroke-width:0.5;" x1="1237.5" x2="1359.5" y1="607.7969" y2="607.7969"/></g><!--MD5=[e6a6e2685a5380265e6d787ca29965cc]
class validation--><g id="elem_validation"><rect codeLine="119" fill="#F1F1F1" height="64.2969" id="validation" rx="2.5" ry="2.5" style="stroke:#181818;stroke-width:0.5;" width="124" x="1077.5" y="551.5"/><ellipse cx="1104.2" cy="567.5" fill="#ADD1B2" rx="11" ry="11" style="stroke:#181818;stroke-width:1.0;"/><path d="M1107.1688,573.1406 Q1106.5906,573.4375 1105.95,573.5781 Q1105.3094,573.7344 1104.6063,573.7344 Q1102.1063,573.7344 1100.7781,572.0938 Q1099.4656,570.4375 1099.4656,567.3125 Q1099.4656,564.1875 1100.7781,562.5313 Q1102.1063,560.875 1104.6063,560.875 Q1105.3094,560.875 1105.95,561.0313 Q1106.6063,561.1875 1107.1688,561.4844 L1107.1688,564.2031 Q1106.5438,563.625 1105.95,563.3594 Q1105.3563,563.0781 1104.7313,563.0781 Q1103.3875,563.0781 1102.7,564.1563 Q1102.0125,565.2188 1102.0125,567.3125 Q1102.0125,569.4063 1102.7,570.4844 Q1103.3875,571.5469 1104.7313,571.5469 Q1105.3563,571.5469 1105.95,571.2813 Q1106.5438,571 1107.1688,570.4219 L1107.1688,573.1406 Z " fill="#000000"/><text fill="#000000" font-family="sans-serif" font-size="14" lengthAdjust="spacing" textLength="66" x="1120.8" y="572.3467">Validation</text><line style="stroke:#181818;stroke-width:0.5;" x1="1078.5" x2="1200.5" y1="583.5" y2="583.5"/><ellipse cx="1088.5" cy="597.1484" fill="none" rx="3" ry="3" style="stroke:#038048;stroke-width:1.0;"/><text fill="#000000" font-family="sans-serif" font-size="14" lengthAdjust="spacing" textLength="98" x="1097.5" y="600.4951">Fundamentals</text><line style="stroke:#181818;stroke-width:0.5;" x1="1078.5" x2="1200.5" y1="607.7969" y2="607.7969"/></g><!--MD5=[2e9c6ef7d60df07eb1342d35d85286c0]
class Industry_applications--><g id="elem_Industry_applications"><rect codeLine="130" fill="#F1F1F1" height="48" id="Industry_applications" rx="2.5" ry="2.5" style="stroke:#181818;stroke-width:0.5;" width="173" x="917" y="745"/><ellipse cx="932" cy="761" fill="#F1F1F1" rx="11" ry="11" style="stroke:#181818;stroke-width:1.0;"/><path d="M931.4844,761.5625 Q929.625,760.8594 928.9688,760.0938 Q928.3281,759.3125 928.3281,758 Q928.3281,756.3125 929.4063,755.3438 Q930.4844,754.375 932.3594,754.375 Q933.2188,754.375 934.0625,754.5781 Q934.9219,754.7656 935.7656,755.1563 L935.7656,757.5469 Q934.9844,756.9844 934.1563,756.7031 Q933.3438,756.4063 932.5469,756.4063 Q931.6719,756.4063 931.1875,756.7656 Q930.7188,757.125 930.7188,757.7813 Q930.7188,758.2969 931.0625,758.6406 Q931.4063,758.9688 932.5,759.375 L933.5625,759.7813 Q935.0469,760.3281 935.75,761.2344 Q936.4688,762.1406 936.4688,763.5156 Q936.4688,765.3906 935.3594,766.3125 Q934.25,767.2344 932,767.2344 Q931.0781,767.2344 930.1563,767.0156 Q929.2344,766.7969 928.375,766.375 L928.375,763.8438 Q929.3438,764.5313 930.2656,764.875 Q931.1875,765.2188 932.0781,765.2188 Q932.9844,765.2188 933.4844,764.8125 Q933.9844,764.3906 933.9844,763.6563 Q933.9844,763.0938 933.6406,762.6875 Q933.3125,762.2656 932.6875,762.0156 L931.4844,761.5625 Z " fill="#000000"/><text fill="#000000" font-family="sans-serif" font-size="14" lengthAdjust="spacing" textLength="141" x="946" y="765.8467">Industry applications</text><line style="stroke:#181818;stroke-width:0.5;" x1="918" x2="1089" y1="777" y2="777"/><line style="stroke:#181818;stroke-width:0.5;" x1="918" x2="1089" y1="785" y2="785"/></g><!--MD5=[45e6db43baa2f5433acd553fd7048985]
class Automotive--><g id="elem_Automotive"><rect codeLine="137" fill="#F1F1F1" height="80.5938" id="Automotive" rx="2.5" ry="2.5" style="stroke:#181818;stroke-width:0.5;" width="110" x="406.5" y="853"/><ellipse cx="421.5" cy="869" fill="#F1F1F1" rx="11" ry="11" style="stroke:#181818;stroke-width:1.0;"/><path d="M420.9844,869.5625 Q419.125,868.8594 418.4688,868.0938 Q417.8281,867.3125 417.8281,866 Q417.8281,864.3125 418.9063,863.3438 Q419.9844,862.375 421.8594,862.375 Q422.7188,862.375 423.5625,862.5781 Q424.4219,862.7656 425.2656,863.1563 L425.2656,865.5469 Q424.4844,864.9844 423.6563,864.7031 Q422.8438,864.4063 422.0469,864.4063 Q421.1719,864.4063 420.6875,864.7656 Q420.2188,865.125 420.2188,865.7813 Q420.2188,866.2969 420.5625,866.6406 Q420.9063,866.9688 422,867.375 L423.0625,867.7813 Q424.5469,868.3281 425.25,869.2344 Q425.9688,870.1406 425.9688,871.5156 Q425.9688,873.3906 424.8594,874.3125 Q423.75,875.2344 421.5,875.2344 Q420.5781,875.2344 419.6563,875.0156 Q418.7344,874.7969 417.875,874.375 L417.875,871.8438 Q418.8438,872.5313 419.7656,872.875 Q420.6875,873.2188 421.5781,873.2188 Q422.4844,873.2188 422.9844,872.8125 Q423.4844,872.3906 423.4844,871.6563 Q423.4844,871.0938 423.1406,870.6875 Q422.8125,870.2656 422.1875,870.0156 L420.9844,869.5625 Z " fill="#000000"/><text fill="#000000" font-family="sans-serif" font-size="14" lengthAdjust="spacing" textLength="78" x="435.5" y="873.8467">Automotive</text><line style="stroke:#181818;stroke-width:0.5;" x1="407.5" x2="515.5" y1="885" y2="885"/><ellipse cx="417.5" cy="898.6484" fill="none" rx="3" ry="3" style="stroke:#038048;stroke-width:1.0;"/><text fill="#000000" font-family="sans-serif" font-size="14" lengthAdjust="spacing" textLength="43" x="426.5" y="901.9951">MISRA</text><ellipse cx="417.5" cy="914.9453" fill="none" rx="3" ry="3" style="stroke:#038048;stroke-width:1.0;"/><text fill="#000000" font-family="sans-serif" font-size="14" lengthAdjust="spacing" textLength="29" x="426.5" y="918.292">CAN</text><line style="stroke:#181818;stroke-width:0.5;" x1="407.5" x2="515.5" y1="925.5938" y2="925.5938"/></g><!--MD5=[4ec69182b6251e906d721d4a4277d128]
class gateways--><g id="elem_gateways"><rect codeLine="142" fill="#F1F1F1" height="48" id="gateways" rx="2.5" ry="2.5" style="stroke:#181818;stroke-width:0.5;" width="99" x="7" y="1018.5"/><ellipse cx="22" cy="1034.5" fill="#ADD1B2" rx="11" ry="11" style="stroke:#181818;stroke-width:1.0;"/><path d="M24.9688,1040.1406 Q24.3906,1040.4375 23.75,1040.5781 Q23.1094,1040.7344 22.4063,1040.7344 Q19.9063,1040.7344 18.5781,1039.0938 Q17.2656,1037.4375 17.2656,1034.3125 Q17.2656,1031.1875 18.5781,1029.5313 Q19.9063,1027.875 22.4063,1027.875 Q23.1094,1027.875 23.75,1028.0313 Q24.4063,1028.1875 24.9688,1028.4844 L24.9688,1031.2031 Q24.3438,1030.625 23.75,1030.3594 Q23.1563,1030.0781 22.5313,1030.0781 Q21.1875,1030.0781 20.5,1031.1563 Q19.8125,1032.2188 19.8125,1034.3125 Q19.8125,1036.4063 20.5,1037.4844 Q21.1875,1038.5469 22.5313,1038.5469 Q23.1563,1038.5469 23.75,1038.2813 Q24.3438,1038 24.9688,1037.4219 L24.9688,1040.1406 Z " fill="#000000"/><text fill="#000000" font-family="sans-serif" font-size="14" lengthAdjust="spacing" textLength="67" x="36" y="1039.3467">Gateways</text><line style="stroke:#181818;stroke-width:0.5;" x1="8" x2="105" y1="1050.5" y2="1050.5"/><line style="stroke:#181818;stroke-width:0.5;" x1="8" x2="105" y1="1058.5" y2="1058.5"/></g><!--MD5=[615c2ccd1649c3c43f8cbd5a4d37cf1e]
class infotaiment--><g id="elem_infotaiment"><rect codeLine="146" fill="#F1F1F1" height="48" id="infotaiment" rx="2.5" ry="2.5" style="stroke:#181818;stroke-width:0.5;" width="109" x="141" y="1018.5"/><ellipse cx="156" cy="1034.5" fill="#ADD1B2" rx="11" ry="11" style="stroke:#181818;stroke-width:1.0;"/><path d="M158.9688,1040.1406 Q158.3906,1040.4375 157.75,1040.5781 Q157.1094,1040.7344 156.4063,1040.7344 Q153.9063,1040.7344 152.5781,1039.0938 Q151.2656,1037.4375 151.2656,1034.3125 Q151.2656,1031.1875 152.5781,1029.5313 Q153.9063,1027.875 156.4063,1027.875 Q157.1094,1027.875 157.75,1028.0313 Q158.4063,1028.1875 158.9688,1028.4844 L158.9688,1031.2031 Q158.3438,1030.625 157.75,1030.3594 Q157.1563,1030.0781 156.5313,1030.0781 Q155.1875,1030.0781 154.5,1031.1563 Q153.8125,1032.2188 153.8125,1034.3125 Q153.8125,1036.4063 154.5,1037.4844 Q155.1875,1038.5469 156.5313,1038.5469 Q157.1563,1038.5469 157.75,1038.2813 Q158.3438,1038 158.9688,1037.4219 L158.9688,1040.1406 Z " fill="#000000"/><text fill="#000000" font-family="sans-serif" font-size="14" lengthAdjust="spacing" textLength="77" x="170" y="1039.3467">Infotaiment</text><line style="stroke:#181818;stroke-width:0.5;" x1="142" x2="249" y1="1050.5" y2="1050.5"/><line style="stroke:#181818;stroke-width:0.5;" x1="142" x2="249" y1="1058.5" y2="1058.5"/></g><!--MD5=[80f4c98420784c84293eea48cb1f84e2]
class driver_assistance--><g id="elem_driver_assistance"><rect codeLine="150" fill="#F1F1F1" height="48" id="driver_assistance" rx="2.5" ry="2.5" style="stroke:#181818;stroke-width:0.5;" width="143" x="285" y="1018.5"/><ellipse cx="300" cy="1034.5" fill="#ADD1B2" rx="11" ry="11" style="stroke:#181818;stroke-width:1.0;"/><path d="M302.9688,1040.1406 Q302.3906,1040.4375 301.75,1040.5781 Q301.1094,1040.7344 300.4063,1040.7344 Q297.9063,1040.7344 296.5781,1039.0938 Q295.2656,1037.4375 295.2656,1034.3125 Q295.2656,1031.1875 296.5781,1029.5313 Q297.9063,1027.875 300.4063,1027.875 Q301.1094,1027.875 301.75,1028.0313 Q302.4063,1028.1875 302.9688,1028.4844 L302.9688,1031.2031 Q302.3438,1030.625 301.75,1030.3594 Q301.1563,1030.0781 300.5313,1030.0781 Q299.1875,1030.0781 298.5,1031.1563 Q297.8125,1032.2188 297.8125,1034.3125 Q297.8125,1036.4063 298.5,1037.4844 Q299.1875,1038.5469 300.5313,1038.5469 Q301.1563,1038.5469 301.75,1038.2813 Q302.3438,1038 302.9688,1037.4219 L302.9688,1040.1406 Z " fill="#000000"/><text fill="#000000" font-family="sans-serif" font-size="14" lengthAdjust="spacing" textLength="111" x="314" y="1039.3467">Driver Asistance</text><line style="stroke:#181818;stroke-width:0.5;" x1="286" x2="427" y1="1050.5" y2="1050.5"/><line style="stroke:#181818;stroke-width:0.5;" x1="286" x2="427" y1="1058.5" y2="1058.5"/></g><!--MD5=[5d2282d317d42898064fa1f748faad5d]
class Aerospace--><g id="elem_Aerospace"><rect codeLine="156" fill="#F1F1F1" height="48" id="Aerospace" rx="2.5" ry="2.5" style="stroke:#181818;stroke-width:0.5;" width="106" x="791.5" y="869.5"/><ellipse cx="806.5" cy="885.5" fill="#F1F1F1" rx="11" ry="11" style="stroke:#181818;stroke-width:1.0;"/><path d="M805.9844,886.0625 Q804.125,885.3594 803.4688,884.5938 Q802.8281,883.8125 802.8281,882.5 Q802.8281,880.8125 803.9063,879.8438 Q804.9844,878.875 806.8594,878.875 Q807.7188,878.875 808.5625,879.0781 Q809.4219,879.2656 810.2656,879.6563 L810.2656,882.0469 Q809.4844,881.4844 808.6563,881.2031 Q807.8438,880.9063 807.0469,880.9063 Q806.1719,880.9063 805.6875,881.2656 Q805.2188,881.625 805.2188,882.2813 Q805.2188,882.7969 805.5625,883.1406 Q805.9063,883.4688 807,883.875 L808.0625,884.2813 Q809.5469,884.8281 810.25,885.7344 Q810.9688,886.6406 810.9688,888.0156 Q810.9688,889.8906 809.8594,890.8125 Q808.75,891.7344 806.5,891.7344 Q805.5781,891.7344 804.6563,891.5156 Q803.7344,891.2969 802.875,890.875 L802.875,888.3438 Q803.8438,889.0313 804.7656,889.375 Q805.6875,889.7188 806.5781,889.7188 Q807.4844,889.7188 807.9844,889.3125 Q808.4844,888.8906 808.4844,888.1563 Q808.4844,887.5938 808.1406,887.1875 Q807.8125,886.7656 807.1875,886.5156 L805.9844,886.0625 Z " fill="#000000"/><text fill="#000000" font-family="sans-serif" font-size="14" lengthAdjust="spacing" textLength="74" x="820.5" y="890.3467">Aerospace</text><line style="stroke:#181818;stroke-width:0.5;" x1="792.5" x2="896.5" y1="901.5" y2="901.5"/><line style="stroke:#181818;stroke-width:0.5;" x1="792.5" x2="896.5" y1="909.5" y2="909.5"/></g><!--MD5=[54cb7d3df93ca961adcc4aa2c6af2c1b]
class drive_by_wire--><g id="elem_drive_by_wire"><rect codeLine="160" fill="#F1F1F1" height="48" id="drive_by_wire" rx="2.5" ry="2.5" style="stroke:#181818;stroke-width:0.5;" width="121" x="705" y="1018.5"/><ellipse cx="720" cy="1034.5" fill="#ADD1B2" rx="11" ry="11" style="stroke:#181818;stroke-width:1.0;"/><path d="M722.9688,1040.1406 Q722.3906,1040.4375 721.75,1040.5781 Q721.1094,1040.7344 720.4063,1040.7344 Q717.9063,1040.7344 716.5781,1039.0938 Q715.2656,1037.4375 715.2656,1034.3125 Q715.2656,1031.1875 716.5781,1029.5313 Q717.9063,1027.875 720.4063,1027.875 Q721.1094,1027.875 721.75,1028.0313 Q722.4063,1028.1875 722.9688,1028.4844 L722.9688,1031.2031 Q722.3438,1030.625 721.75,1030.3594 Q721.1563,1030.0781 720.5313,1030.0781 Q719.1875,1030.0781 718.5,1031.1563 Q717.8125,1032.2188 717.8125,1034.3125 Q717.8125,1036.4063 718.5,1037.4844 Q719.1875,1038.5469 720.5313,1038.5469 Q721.1563,1038.5469 721.75,1038.2813 Q722.3438,1038 722.9688,1037.4219 L722.9688,1040.1406 Z " fill="#000000"/><text fill="#000000" font-family="sans-serif" font-size="14" lengthAdjust="spacing" textLength="89" x="734" y="1039.3467">Drive by Wire</text><line style="stroke:#181818;stroke-width:0.5;" x1="706" x2="825" y1="1050.5" y2="1050.5"/><line style="stroke:#181818;stroke-width:0.5;" x1="706" x2="825" y1="1058.5" y2="1058.5"/></g><!--MD5=[b5ea8d7d5562349136193ace3bde4666]
class flight_recorder--><g id="elem_flight_recorder"><rect codeLine="164" fill="#F1F1F1" height="48" id="flight_recorder" rx="2.5" ry="2.5" style="stroke:#181818;stroke-width:0.5;" width="137" x="861" y="1018.5"/><ellipse cx="876" cy="1034.5" fill="#ADD1B2" rx="11" ry="11" style="stroke:#181818;stroke-width:1.0;"/><path d="M878.9688,1040.1406 Q878.3906,1040.4375 877.75,1040.5781 Q877.1094,1040.7344 876.4063,1040.7344 Q873.9063,1040.7344 872.5781,1039.0938 Q871.2656,1037.4375 871.2656,1034.3125 Q871.2656,1031.1875 872.5781,1029.5313 Q873.9063,1027.875 876.4063,1027.875 Q877.1094,1027.875 877.75,1028.0313 Q878.4063,1028.1875 878.9688,1028.4844 L878.9688,1031.2031 Q878.3438,1030.625 877.75,1030.3594 Q877.1563,1030.0781 876.5313,1030.0781 Q875.1875,1030.0781 874.5,1031.1563 Q873.8125,1032.2188 873.8125,1034.3125 Q873.8125,1036.4063 874.5,1037.4844 Q875.1875,1038.5469 876.5313,1038.5469 Q877.1563,1038.5469 877.75,1038.2813 Q878.3438,1038 878.9688,1037.4219 L878.9688,1040.1406 Z " fill="#000000"/><text fill="#000000" font-family="sans-serif" font-size="14" lengthAdjust="spacing" textLength="105" x="890" y="1039.3467">Flight Recorder</text><line style="stroke:#181818;stroke-width:0.5;" x1="862" x2="997" y1="1050.5" y2="1050.5"/><line style="stroke:#181818;stroke-width:0.5;" x1="862" x2="997" y1="1058.5" y2="1058.5"/></g><!--MD5=[fc45f521f025cc9bae87f02ab4809ed2]
class Biomedical--><g id="elem_Biomedical"><rect codeLine="170" fill="#F1F1F1" height="48" id="Biomedical" rx="2.5" ry="2.5" style="stroke:#181818;stroke-width:0.5;" width="107" x="1030" y="869.5"/><ellipse cx="1045" cy="885.5" fill="#F1F1F1" rx="11" ry="11" style="stroke:#181818;stroke-width:1.0;"/><path d="M1044.4844,886.0625 Q1042.625,885.3594 1041.9688,884.5938 Q1041.3281,883.8125 1041.3281,882.5 Q1041.3281,880.8125 1042.4063,879.8438 Q1043.4844,878.875 1045.3594,878.875 Q1046.2188,878.875 1047.0625,879.0781 Q1047.9219,879.2656 1048.7656,879.6563 L1048.7656,882.0469 Q1047.9844,881.4844 1047.1563,881.2031 Q1046.3438,880.9063 1045.5469,880.9063 Q1044.6719,880.9063 1044.1875,881.2656 Q1043.7188,881.625 1043.7188,882.2813 Q1043.7188,882.7969 1044.0625,883.1406 Q1044.4063,883.4688 1045.5,883.875 L1046.5625,884.2813 Q1048.0469,884.8281 1048.75,885.7344 Q1049.4688,886.6406 1049.4688,888.0156 Q1049.4688,889.8906 1048.3594,890.8125 Q1047.25,891.7344 1045,891.7344 Q1044.0781,891.7344 1043.1563,891.5156 Q1042.2344,891.2969 1041.375,890.875 L1041.375,888.3438 Q1042.3438,889.0313 1043.2656,889.375 Q1044.1875,889.7188 1045.0781,889.7188 Q1045.9844,889.7188 1046.4844,889.3125 Q1046.9844,888.8906 1046.9844,888.1563 Q1046.9844,887.5938 1046.6406,887.1875 Q1046.3125,886.7656 1045.6875,886.5156 L1044.4844,886.0625 Z " fill="#000000"/><text fill="#000000" font-family="sans-serif" font-size="14" lengthAdjust="spacing" textLength="75" x="1059" y="890.3467">Biomedical</text><line style="stroke:#181818;stroke-width:0.5;" x1="1031" x2="1136" y1="901.5" y2="901.5"/><line style="stroke:#181818;stroke-width:0.5;" x1="1031" x2="1136" y1="909.5" y2="909.5"/></g><!--MD5=[cac86e0ef7bac1ae4a01d7b42ebacdfe]
class imaging--><g id="elem_imaging"><rect codeLine="174" fill="#F1F1F1" height="96.8906" id="imaging" rx="2.5" ry="2.5" style="stroke:#181818;stroke-width:0.5;" width="101" x="1033" y="994"/><ellipse cx="1054.75" cy="1010" fill="#ADD1B2" rx="11" ry="11" style="stroke:#181818;stroke-width:1.0;"/><path d="M1057.7188,1015.6406 Q1057.1406,1015.9375 1056.5,1016.0781 Q1055.8594,1016.2344 1055.1563,1016.2344 Q1052.6563,1016.2344 1051.3281,1014.5938 Q1050.0156,1012.9375 1050.0156,1009.8125 Q1050.0156,1006.6875 1051.3281,1005.0313 Q1052.6563,1003.375 1055.1563,1003.375 Q1055.8594,1003.375 1056.5,1003.5313 Q1057.1563,1003.6875 1057.7188,1003.9844 L1057.7188,1006.7031 Q1057.0938,1006.125 1056.5,1005.8594 Q1055.9063,1005.5781 1055.2813,1005.5781 Q1053.9375,1005.5781 1053.25,1006.6563 Q1052.5625,1007.7188 1052.5625,1009.8125 Q1052.5625,1011.9063 1053.25,1012.9844 Q1053.9375,1014.0469 1055.2813,1014.0469 Q1055.9063,1014.0469 1056.5,1013.7813 Q1057.0938,1013.5 1057.7188,1012.9219 L1057.7188,1015.6406 Z " fill="#000000"/><text fill="#000000" font-family="sans-serif" font-size="14" lengthAdjust="spacing" textLength="54" x="1070.25" y="1014.8467">Imaging</text><line style="stroke:#181818;stroke-width:0.5;" x1="1034" x2="1133" y1="1026" y2="1026"/><ellipse cx="1044" cy="1039.6484" fill="none" rx="3" ry="3" style="stroke:#038048;stroke-width:1.0;"/><text fill="#000000" font-family="sans-serif" font-size="14" lengthAdjust="spacing" textLength="34" x="1053" y="1042.9951">X-ray</text><ellipse cx="1044" cy="1055.9453" fill="none" rx="3" ry="3" style="stroke:#038048;stroke-width:1.0;"/><text fill="#000000" font-family="sans-serif" font-size="14" lengthAdjust="spacing" textLength="75" x="1053" y="1059.292">3D models</text><line style="stroke:#181818;stroke-width:0.5;" x1="1034" x2="1133" y1="1066.5938" y2="1066.5938"/><ellipse cx="1044" cy="1080.2422" fill="#84BE84" rx="3" ry="3" style="stroke:#038048;stroke-width:1.0;"/><text fill="#000000" font-family="sans-serif" font-size="14" lengthAdjust="spacing" textLength="40" x="1053" y="1083.5889">QNX()</text></g><!--MD5=[8a3d2de3d8e0e987a50a17a5363da05a]
class smart_prost--><g id="elem_smart_prost"><rect codeLine="180" fill="#F1F1F1" height="96.8906" id="smart_prost" rx="2.5" ry="2.5" style="stroke:#181818;stroke-width:0.5;" width="153" x="1169" y="994"/><ellipse cx="1184" cy="1010" fill="#ADD1B2" rx="11" ry="11" style="stroke:#181818;stroke-width:1.0;"/><path d="M1186.9688,1015.6406 Q1186.3906,1015.9375 1185.75,1016.0781 Q1185.1094,1016.2344 1184.4063,1016.2344 Q1181.9063,1016.2344 1180.5781,1014.5938 Q1179.2656,1012.9375 1179.2656,1009.8125 Q1179.2656,1006.6875 1180.5781,1005.0313 Q1181.9063,1003.375 1184.4063,1003.375 Q1185.1094,1003.375 1185.75,1003.5313 Q1186.4063,1003.6875 1186.9688,1003.9844 L1186.9688,1006.7031 Q1186.3438,1006.125 1185.75,1005.8594 Q1185.1563,1005.5781 1184.5313,1005.5781 Q1183.1875,1005.5781 1182.5,1006.6563 Q1181.8125,1007.7188 1181.8125,1009.8125 Q1181.8125,1011.9063 1182.5,1012.9844 Q1183.1875,1014.0469 1184.5313,1014.0469 Q1185.1563,1014.0469 1185.75,1013.7813 Q1186.3438,1013.5 1186.9688,1012.9219 L1186.9688,1015.6406 Z " fill="#000000"/><text fill="#000000" font-family="sans-serif" font-size="14" lengthAdjust="spacing" textLength="121" x="1198" y="1014.8467">smart prosthetics</text><line style="stroke:#181818;stroke-width:0.5;" x1="1170" x2="1321" y1="1026" y2="1026"/><ellipse cx="1180" cy="1039.6484" fill="none" rx="3" ry="3" style="stroke:#038048;stroke-width:1.0;"/><text fill="#000000" font-family="sans-serif" font-size="14" lengthAdjust="spacing" textLength="108" x="1189" y="1042.9951">brain-controlled</text><ellipse cx="1180" cy="1055.9453" fill="none" rx="3" ry="3" style="stroke:#038048;stroke-width:1.0;"/><text fill="#000000" font-family="sans-serif" font-size="14" lengthAdjust="spacing" textLength="93" x="1189" y="1059.292">exoskeletons</text><ellipse cx="1180" cy="1072.2422" fill="none" rx="3" ry="3" style="stroke:#038048;stroke-width:1.0;"/><text fill="#000000" font-family="sans-serif" font-size="14" lengthAdjust="spacing" textLength="104" x="1189" y="1075.5889">nerv-controlled</text><line style="stroke:#181818;stroke-width:0.5;" x1="1170" x2="1321" y1="1082.8906" y2="1082.8906"/></g><!--MD5=[f6dbca315aca36dbd4eda6f647092117]
class medical_instrumentation--><g id="elem_medical_instrumentation"><rect codeLine="186" fill="#F1F1F1" height="80.5938" id="medical_instrumentation" rx="2.5" ry="2.5" style="stroke:#181818;stroke-width:0.5;" width="343" x="1357" y="1002"/><ellipse cx="1441.25" cy="1018" fill="#ADD1B2" rx="11" ry="11" style="stroke:#181818;stroke-width:1.0;"/><path d="M1444.2188,1023.6406 Q1443.6406,1023.9375 1443,1024.0781 Q1442.3594,1024.2344 1441.6563,1024.2344 Q1439.1563,1024.2344 1437.8281,1022.5938 Q1436.5156,1020.9375 1436.5156,1017.8125 Q1436.5156,1014.6875 1437.8281,1013.0313 Q1439.1563,1011.375 1441.6563,1011.375 Q1442.3594,1011.375 1443,1011.5313 Q1443.6563,1011.6875 1444.2188,1011.9844 L1444.2188,1014.7031 Q1443.5938,1014.125 1443,1013.8594 Q1442.4063,1013.5781 1441.7813,1013.5781 Q1440.4375,1013.5781 1439.75,1014.6563 Q1439.0625,1015.7188 1439.0625,1017.8125 Q1439.0625,1019.9063 1439.75,1020.9844 Q1440.4375,1022.0469 1441.7813,1022.0469 Q1442.4063,1022.0469 1443,1021.7813 Q1443.5938,1021.5 1444.2188,1020.9219 L1444.2188,1023.6406 Z " fill="#000000"/><text fill="#000000" font-family="sans-serif" font-size="14" lengthAdjust="spacing" textLength="166" x="1461.75" y="1022.8467">medical instrumentation</text><line style="stroke:#181818;stroke-width:0.5;" x1="1358" x2="1699" y1="1034" y2="1034"/><ellipse cx="1368" cy="1047.6484" fill="none" rx="3" ry="3" style="stroke:#038048;stroke-width:1.0;"/><text fill="#000000" font-family="sans-serif" font-size="14" lengthAdjust="spacing" textLength="317" x="1377" y="1050.9951">measurement: blood pressure, hearth rate, /n</text><text fill="#000000" font-family="sans-serif" font-size="14" lengthAdjust="spacing" textLength="173" x="1377" y="1067.292">oxidometer, spirometers.</text><line style="stroke:#181818;stroke-width:0.5;" x1="1358" x2="1699" y1="1074.5938" y2="1074.5938"/></g><!--MD5=[65a89217e9d85fd38eff4ada9c8f3317]
class Consumer_Electronics--><g id="elem_Consumer_Electronics"><rect codeLine="192" fill="#F1F1F1" height="64.2969" id="Consumer_Electronics" rx="2.5" ry="2.5" style="stroke:#181818;stroke-width:0.5;" width="184" x="1172.5" y="861.5"/><ellipse cx="1187.5" cy="877.5" fill="#F1F1F1" rx="11" ry="11" style="stroke:#181818;stroke-width:1.0;"/><path d="M1186.9844,878.0625 Q1185.125,877.3594 1184.4688,876.5938 Q1183.8281,875.8125 1183.8281,874.5 Q1183.8281,872.8125 1184.9063,871.8438 Q1185.9844,870.875 1187.8594,870.875 Q1188.7188,870.875 1189.5625,871.0781 Q1190.4219,871.2656 1191.2656,871.6563 L1191.2656,874.0469 Q1190.4844,873.4844 1189.6563,873.2031 Q1188.8438,872.9063 1188.0469,872.9063 Q1187.1719,872.9063 1186.6875,873.2656 Q1186.2188,873.625 1186.2188,874.2813 Q1186.2188,874.7969 1186.5625,875.1406 Q1186.9063,875.4688 1188,875.875 L1189.0625,876.2813 Q1190.5469,876.8281 1191.25,877.7344 Q1191.9688,878.6406 1191.9688,880.0156 Q1191.9688,881.8906 1190.8594,882.8125 Q1189.75,883.7344 1187.5,883.7344 Q1186.5781,883.7344 1185.6563,883.5156 Q1184.7344,883.2969 1183.875,882.875 L1183.875,880.3438 Q1184.8438,881.0313 1185.7656,881.375 Q1186.6875,881.7188 1187.5781,881.7188 Q1188.4844,881.7188 1188.9844,881.3125 Q1189.4844,880.8906 1189.4844,880.1563 Q1189.4844,879.5938 1189.1406,879.1875 Q1188.8125,878.7656 1188.1875,878.5156 L1186.9844,878.0625 Z " fill="#000000"/><text fill="#000000" font-family="sans-serif" font-size="14" lengthAdjust="spacing" textLength="152" x="1201.5" y="882.3467">Consumer Electronics</text><line style="stroke:#181818;stroke-width:0.5;" x1="1173.5" x2="1355.5" y1="893.5" y2="893.5"/><ellipse cx="1183.5" cy="907.1484" fill="none" rx="3" ry="3" style="stroke:#038048;stroke-width:1.0;"/><text fill="#000000" font-family="sans-serif" font-size="14" lengthAdjust="spacing" textLength="119" x="1192.5" y="910.4951">Home appliances</text><line style="stroke:#181818;stroke-width:0.5;" x1="1173.5" x2="1355.5" y1="917.7969" y2="917.7969"/></g><!--MD5=[0be1ebe63d35fdc776998915e3150997]
class wireless_comms--><g id="elem_wireless_comms"><rect codeLine="196" fill="#F1F1F1" height="80.5938" id="wireless_comms" rx="2.5" ry="2.5" style="stroke:#181818;stroke-width:0.5;" width="206" x="463.5" y="1002"/><ellipse cx="478.5" cy="1018" fill="#ADD1B2" rx="11" ry="11" style="stroke:#181818;stroke-width:1.0;"/><path d="M481.4688,1023.6406 Q480.8906,1023.9375 480.25,1024.0781 Q479.6094,1024.2344 478.9063,1024.2344 Q476.4063,1024.2344 475.0781,1022.5938 Q473.7656,1020.9375 473.7656,1017.8125 Q473.7656,1014.6875 475.0781,1013.0313 Q476.4063,1011.375 478.9063,1011.375 Q479.6094,1011.375 480.25,1011.5313 Q480.9063,1011.6875 481.4688,1011.9844 L481.4688,1014.7031 Q480.8438,1014.125 480.25,1013.8594 Q479.6563,1013.5781 479.0313,1013.5781 Q477.6875,1013.5781 477,1014.6563 Q476.3125,1015.7188 476.3125,1017.8125 Q476.3125,1019.9063 477,1020.9844 Q477.6875,1022.0469 479.0313,1022.0469 Q479.6563,1022.0469 480.25,1021.7813 Q480.8438,1021.5 481.4688,1020.9219 L481.4688,1023.6406 Z " fill="#000000"/><text fill="#000000" font-family="sans-serif" font-size="14" lengthAdjust="spacing" textLength="174" x="492.5" y="1022.8467">wireless communications</text><line style="stroke:#181818;stroke-width:0.5;" x1="464.5" x2="668.5" y1="1034" y2="1034"/><ellipse cx="474.5" cy="1047.6484" fill="none" rx="3" ry="3" style="stroke:#038048;stroke-width:1.0;"/><text fill="#000000" font-family="sans-serif" font-size="14" lengthAdjust="spacing" textLength="108" x="483.5" y="1050.9951">RF: 4G, 5G, LTE</text><ellipse cx="474.5" cy="1063.9453" fill="none" rx="3" ry="3" style="stroke:#038048;stroke-width:1.0;"/><text fill="#000000" font-family="sans-serif" font-size="14" lengthAdjust="spacing" textLength="21" x="483.5" y="1067.292">wifi</text><line style="stroke:#181818;stroke-width:0.5;" x1="464.5" x2="668.5" y1="1074.5938" y2="1074.5938"/></g><!--MD5=[a6e69ebde752962da01903e5afde084a]
reverse link circuits to Fundamentals--><g id="link_circuits_Fundamentals"><path codeLine="203" d="M1003.5,125.29 C1003.5,163.06 1003.5,209.47 1003.5,236.78 " fill="none" id="circuits-backto-Fundamentals" style="stroke:#181818;stroke-width:1.0;"/><polygon fill="#181818" points="1003.5,120.26,999.5,129.26,1003.5,125.26,1007.5,129.26,1003.5,120.26" style="stroke:#181818;stroke-width:1.0;"/></g><!--MD5=[7a54f239a12d4b756a40b985fca80f34]
reverse link math to Fundamentals--><g id="link_math_Fundamentals"><path codeLine="204" d="M908.8,261 C916.96,261 927.42,261 938.4,261 " fill="none" id="math-backto-Fundamentals" style="stroke:#181818;stroke-width:1.0;"/><polygon fill="#181818" points="903.55,261,912.55,265,908.55,261,912.55,257,903.55,261" style="stroke:#181818;stroke-width:1.0;"/></g><!--MD5=[5e4b160b8ab9d2503c046e37eab76d4e]
link Fundamentals to digital_sys--><g id="link_Fundamentals_digital_sys"><path codeLine="205" d="M1025.31,236.91 C1054.86,204.27 1104,150 1104,150 C1104,150 1397,150 1397,150 C1397,150 1438.46,166.12 1489.78,186.07 " fill="none" id="Fundamentals-to-digital_sys" style="stroke:#181818;stroke-width:1.0;"/><polygon fill="#181818" points="1494.45,187.89,1487.5159,180.8959,1489.7911,186.075,1484.6119,188.3502,1494.45,187.89" style="stroke:#181818;stroke-width:1.0;"/></g><!--MD5=[58f3e5a646adcdc32a5f39e1884a7b30]
link Fundamentals to data_algo--><g id="link_Fundamentals_data_algo"><path codeLine="206" d="M1068.77,261 C1078.77,261 1085.83,261 1085.83,261 C1085.83,261 1090.94,261 1098.61,261 " fill="none" id="Fundamentals-to-data_algo" style="stroke:#181818;stroke-width:1.0;"/><polygon fill="#181818" points="1103.7,261,1094.7,257,1098.7,261,1094.7,265,1103.7,261" style="stroke:#181818;stroke-width:1.0;"/></g><!--MD5=[f0c3ca8103f0f4de821b9c1284557c42]
link digital_sys to os--><g id="link_digital_sys_os"><path codeLine="207" d="M1932.72,261 C1933.88,261 1934.5,261 1934.5,261 C1934.5,261 1946.04,261 1962.14,261 " fill="none" id="digital_sys-to-os" style="stroke:#181818;stroke-width:1.0;"/><polygon fill="#181818" points="1967.28,261,1958.28,257,1962.28,261,1958.28,265,1967.28,261" style="stroke:#181818;stroke-width:1.0;"/></g><!--MD5=[548c82bf7114d6157e5ab6a39ae3700a]
link digital_sys to comp_arch--><g id="link_digital_sys_comp_arch"><path codeLine="208" d="M1682.5,334.23 C1682.5,355.34 1682.5,377.79 1682.5,396.66 " fill="none" id="digital_sys-to-comp_arch" style="stroke:#181818;stroke-width:1.0;"/><polygon fill="#181818" points="1682.5,401.89,1686.5,392.89,1682.5,396.89,1678.5,392.89,1682.5,401.89" style="stroke:#181818;stroke-width:1.0;"/></g><!--MD5=[2fb525b28e1b11b3abf12030fff3688e]
reverse link control_eng to math--><g id="link_control_eng_math"><path codeLine="209" d="M408.23,261 C424.19,261 435.83,261 435.83,261 C435.83,261 436.41,261 437.49,261 " fill="none" id="control_eng-backto-math" style="stroke:#181818;stroke-width:1.0;"/><polygon fill="#181818" points="403.15,261,412.15,265,408.15,261,412.15,257,403.15,261" style="stroke:#181818;stroke-width:1.0;"/></g><!--MD5=[ad927ebf699497817d97fc378c80086d]
link Fundamentals to Tracks--><g id="link_Fundamentals_Tracks"><path codeLine="211" d="M1003.5,285.05 C1003.5,342.43 1003.5,491.54 1003.5,554.16 " fill="none" id="Fundamentals-to-Tracks" style="stroke:#181818;stroke-width:1.0;"/><polygon fill="#181818" points="1003.5,559.23,1007.5,550.23,1003.5,554.23,999.5,550.23,1003.5,559.23" style="stroke:#181818;stroke-width:1.0;"/></g><!--MD5=[a7dd273f9ab7e8e63206ee53860a7d88]
reverse link audio to Tracks--><g id="link_audio_Tracks"><path codeLine="213" d="M934.95,583.5 C946.46,583.5 958.17,583.5 958.17,583.5 C958.17,583.5 960.66,583.5 964.47,583.5 " fill="none" id="audio-backto-Tracks" style="stroke:#181818;stroke-width:1.0;"/><polygon fill="#181818" points="929.71,583.5,938.71,587.5,934.71,583.5,938.71,579.5,929.71,583.5" style="stroke:#181818;stroke-width:1.0;"/></g><!--MD5=[701a2d9d6f07d355c375e22f3bee5cc8]
reverse link cybersecurity to Tracks--><g id="link_cybersecurity_Tracks"><path codeLine="214" d="M755.2,548.29 C780.09,530.65 805,513 805,513 C805,513 929,513 929,513 C929,513 956.31,538.84 977.86,559.24 " fill="none" id="cybersecurity-backto-Tracks" style="stroke:#181818;stroke-width:1.0;"/><polygon fill="#181818" points="750.88,551.34,760.5357,549.3991,754.9593,548.4487,755.9097,542.8723,750.88,551.34" style="stroke:#181818;stroke-width:1.0;"/></g><!--MD5=[57a39c7ff479ae5fc129123cc70d8cfe]
reverse link embedded_linux to Tracks--><g id="link_embedded_linux_Tracks"><path codeLine="215" d="M585.36,548.51 C612.61,530.8 640,513 640,513 C640,513 929,513 929,513 C929,513 956.31,538.84 977.86,559.24 " fill="none" id="embedded_linux-backto-Tracks" style="stroke:#181818;stroke-width:1.0;"/><polygon fill="#181818" points="580.99,551.34,590.72,549.8145,585.1894,548.6261,586.3778,543.0955,580.99,551.34" style="stroke:#181818;stroke-width:1.0;"/></g><!--MD5=[0954f9e7ecd03192864eeccf59e180f9]
reverse link embedded_software to Tracks--><g id="link_embedded_software_Tracks"><path codeLine="216" d="M421.56,539.62 C441.17,525.3 458,513 458,513 C458,513 929,513 929,513 C929,513 956.31,538.84 977.86,559.24 " fill="none" id="embedded_software-backto-Tracks" style="stroke:#181818;stroke-width:1.0;"/><polygon fill="#181818" points="417.08,542.9,426.7021,540.7989,421.1107,539.9413,421.9682,534.3499,417.08,542.9" style="stroke:#181818;stroke-width:1.0;"/></g><!--MD5=[a8446a1b7ea3e69206895ea6b3e8eb67]
reverse link firmware to Tracks--><g id="link_firmware_Tracks"><path codeLine="217" d="M251.7,548.29 C275.84,530.65 300,513 300,513 C300,513 929,513 929,513 C929,513 956.31,538.84 977.86,559.24 " fill="none" id="firmware-backto-Tracks" style="stroke:#181818;stroke-width:1.0;"/><polygon fill="#181818" points="247.51,551.34,257.1404,549.2774,251.5524,548.3974,252.4324,542.8094,247.51,551.34" style="stroke:#181818;stroke-width:1.0;"/></g><!--MD5=[36b2adcde90194628949531846ec27b9]
link Tracks to iot--><g id="link_Tracks_iot"><path codeLine="218" d="M1028.79,559.24 C1050.06,538.84 1077,513 1077,513 C1077,513 1917,513 1917,513 C1917,513 1946.4,530.94 1975.53,548.72 " fill="none" id="Tracks-to-iot" style="stroke:#181818;stroke-width:1.0;"/><polygon fill="#181818" points="1979.82,551.34,1974.2241,543.2353,1975.5529,548.7339,1970.0543,550.0627,1979.82,551.34" style="stroke:#181818;stroke-width:1.0;"/></g><!--MD5=[22e46174688435927ce28a756ef0c0dc]
link Tracks to machine_learning--><g id="link_Tracks_machine_learning"><path codeLine="219" d="M1028.79,559.24 C1050.06,538.84 1077,513 1077,513 C1077,513 1725,513 1725,513 C1725,513 1753.65,530.8 1782.16,548.51 " fill="none" id="Tracks-to-machine_learning" style="stroke:#181818;stroke-width:1.0;"/><polygon fill="#181818" points="1786.73,551.34,1781.2057,543.1864,1782.486,548.6964,1776.9759,549.9768,1786.73,551.34" style="stroke:#181818;stroke-width:1.0;"/></g><!--MD5=[ba40265331025f467f5ef2ca8bdf3bd2]
link Tracks to radio_frequency--><g id="link_Tracks_radio_frequency"><path codeLine="220" d="M1028.79,559.24 C1050.06,538.84 1077,513 1077,513 C1077,513 1541,513 1541,513 C1541,513 1568.64,530.8 1596.15,548.51 " fill="none" id="Tracks-to-radio_frequency" style="stroke:#181818;stroke-width:1.0;"/><polygon fill="#181818" points="1600.56,551.34,1595.1524,543.1085,1596.3541,548.6362,1590.8264,549.8379,1600.56,551.34" style="stroke:#181818;stroke-width:1.0;"/></g><!--MD5=[079e00593e6350efb9b43658c47a9990]
link Tracks to sys_control--><g id="link_Tracks_sys_control"><path codeLine="221" d="M1028.79,559.24 C1050.06,538.84 1077,513 1077,513 C1077,513 1360,513 1360,513 C1360,513 1387.39,530.8 1414.64,548.51 " fill="none" id="Tracks-to-sys_control" style="stroke:#181818;stroke-width:1.0;"/><polygon fill="#181818" points="1419.01,551.34,1413.6222,543.0955,1414.8106,548.6261,1409.28,549.8145,1419.01,551.34" style="stroke:#181818;stroke-width:1.0;"/></g><!--MD5=[da09cce28425274804b3302eca4bce94]
link Tracks to tester--><g id="link_Tracks_tester"><path codeLine="222" d="M1028.79,559.24 C1050.06,538.84 1077,513 1077,513 C1077,513 1201,513 1201,513 C1201,513 1225.41,530.65 1249.8,548.29 " fill="none" id="Tracks-to-tester" style="stroke:#181818;stroke-width:1.0;"/><polygon fill="#181818" points="1254.03,551.34,1249.0879,542.8209,1249.9808,548.4068,1244.3948,549.2996,1254.03,551.34" style="stroke:#181818;stroke-width:1.0;"/></g><!--MD5=[b5ef99b6192556605c55b3a4db2f6e3d]
link Tracks to validation--><g id="link_Tracks_validation"><path codeLine="223" d="M1042.53,583.5 C1046.34,583.5 1048.83,583.5 1048.83,583.5 C1048.83,583.5 1060.54,583.5 1072.05,583.5 " fill="none" id="Tracks-to-validation" style="stroke:#181818;stroke-width:1.0;"/><polygon fill="#181818" points="1077.29,583.5,1068.29,579.5,1072.29,583.5,1068.29,587.5,1077.29,583.5" style="stroke:#181818;stroke-width:1.0;"/></g><!--MD5=[a1294d39d8c795edaf44f60be6d5bfcc]
link Tracks to Industry_applications--><g id="link_Tracks_Industry_applications"><path codeLine="225" d="M1003.5,607.74 C1003.5,641.38 1003.5,703.58 1003.5,739.8 " fill="none" id="Tracks-to-Industry_applications" style="stroke:#181818;stroke-width:1.0;"/><polygon fill="#181818" points="1003.5,744.95,1007.5,735.95,1003.5,739.95,999.5,735.95,1003.5,744.95" style="stroke:#181818;stroke-width:1.0;"/></g><!--MD5=[4bf87856bec712e4ac547df378b7ffaa]
link Industry_applications to Automotive--><g id="link_Industry_applications_Automotive"><path codeLine="227" d="M916.72,789.61 C806.1,814.61 617.73,857.19 521.68,878.9 " fill="none" id="Industry_applications-to-Automotive" style="stroke:#181818;stroke-width:1.0;"/><polygon fill="#181818" points="516.62,880.04,526.2788,881.9655,521.4979,878.9418,524.5216,874.1609,516.62,880.04" style="stroke:#181818;stroke-width:1.0;"/></g><!--MD5=[fed98a93e9c0456df391920faae9c36a]
link Industry_applications to Aerospace--><g id="link_Industry_applications_Aerospace"><path codeLine="228" d="M973.59,793.04 C946.58,813.85 906.86,844.45 878.62,866.21 " fill="none" id="Industry_applications-to-Aerospace" style="stroke:#181818;stroke-width:1.0;"/><polygon fill="#181818" points="874.54,869.35,884.1129,867.0348,878.5037,866.3021,879.2363,860.6929,874.54,869.35" style="stroke:#181818;stroke-width:1.0;"/></g><!--MD5=[b51fe47a4f9474c8184aac61251c2012]
link Industry_applications to Biomedical--><g id="link_Industry_applications_Biomedical"><path codeLine="229" d="M1018.55,793.04 C1031.87,813.44 1051.35,843.26 1065.49,864.93 " fill="none" id="Industry_applications-to-Biomedical" style="stroke:#181818;stroke-width:1.0;"/><polygon fill="#181818" points="1068.25,869.15,1066.6628,859.4299,1065.5095,864.9679,1059.9715,863.8146,1068.25,869.15" style="stroke:#181818;stroke-width:1.0;"/></g><!--MD5=[a83271c71b9bf516a7790f4de6de5f75]
link Industry_applications to Consumer_Electronics--><g id="link_Industry_applications_Consumer_Electronics"><path codeLine="230" d="M1052.59,793.04 C1092.42,811.74 1149.1,838.34 1193.82,859.33 " fill="none" id="Industry_applications-to-Consumer_Electronics" style="stroke:#181818;stroke-width:1.0;"/><polygon fill="#181818" points="1198.38,861.47,1191.9364,854.0215,1193.8549,859.3431,1188.5333,861.2616,1198.38,861.47" style="stroke:#181818;stroke-width:1.0;"/></g><!--MD5=[a41be4540d57c41bf6939e9d575141b5]
link Aerospace to drive_by_wire--><g id="link_Aerospace_drive_by_wire"><path codeLine="231" d="M831.98,917.79 C818,943.81 795.37,985.91 780.47,1013.65 " fill="none" id="Aerospace-to-drive_by_wire" style="stroke:#181818;stroke-width:1.0;"/><polygon fill="#181818" points="777.96,1018.32,785.743,1012.2846,780.3262,1013.9154,778.6955,1008.4986,777.96,1018.32" style="stroke:#181818;stroke-width:1.0;"/></g><!--MD5=[bbe3a1dafe82eb793865bcc29586040b]
link Aerospace to flight_recorder--><g id="link_Aerospace_flight_recorder"><path codeLine="232" d="M857.97,917.79 C873.01,943.81 897.36,985.91 913.4,1013.65 " fill="none" id="Aerospace-to-flight_recorder" style="stroke:#181818;stroke-width:1.0;"/><polygon fill="#181818" points="916.09,1018.32,915.0526,1008.5259,913.5893,1013.9903,908.125,1012.527,916.09,1018.32" style="stroke:#181818;stroke-width:1.0;"/></g><!--MD5=[74785515c1035c195d41a025f61ed8a0]
link Aerospace to wireless_comms--><g id="link_Aerospace_wireless_comms"><path codeLine="233" d="M800.76,917.63 C759.35,939.53 696.2,972.92 645.9,999.52 " fill="none" id="Aerospace-to-wireless_comms" style="stroke:#181818;stroke-width:1.0;"/><polygon fill="#181818" points="641.38,1001.9,651.2049,1001.2139,645.7965,999.556,647.4545,994.1475,641.38,1001.9" style="stroke:#181818;stroke-width:1.0;"/></g><!--MD5=[0681f4e90ebfaaae29a6efe53b1a18ec]
link Automotive to drive_by_wire--><g id="link_Automotive_drive_by_wire"><path codeLine="234" d="M516.54,918.84 C583.15,948.3 686.5,994 686.5,994 C686.5,994 703.81,1004.41 722.23,1015.48 " fill="none" id="Automotive-to-drive_by_wire" style="stroke:#181818;stroke-width:1.0;"/><polygon fill="#181818" points="726.93,1018.31,721.2705,1010.2496,722.6425,1015.7375,717.1546,1017.1095,726.93,1018.31" style="stroke:#181818;stroke-width:1.0;"/></g><!--MD5=[d293778d9f2e66694b7f751faca6c1c8]
link Automotive to gateways--><g id="link_Automotive_gateways"><path codeLine="235" d="M406.44,910.71 C310.67,938.9 123.5,994 123.5,994 C123.5,994 109.06,1004.23 93.59,1015.2 " fill="none" id="Automotive-to-gateways" style="stroke:#181818;stroke-width:1.0;"/><polygon fill="#181818" points="89.21,1018.31,98.8612,1016.3466,93.2825,1015.4092,94.2199,1009.8306,89.21,1018.31" style="stroke:#181818;stroke-width:1.0;"/></g><!--MD5=[e2500c4139c1b6cd53b5db118c32d363]
link Automotive to infotaiment--><g id="link_Automotive_infotaiment"><path codeLine="236" d="M406.43,922.75 C349.07,952.16 267.5,994 267.5,994 C267.5,994 251.72,1004.41 234.94,1015.48 " fill="none" id="Automotive-to-infotaiment" style="stroke:#181818;stroke-width:1.0;"/><polygon fill="#181818" points="230.66,1018.31,240.3776,1016.7076,234.8378,1015.563,235.9824,1010.0231,230.66,1018.31" style="stroke:#181818;stroke-width:1.0;"/></g><!--MD5=[6c73b97cf16fdfc4197e0926d544ef6e]
link Automotive to driver_assistance--><g id="link_Automotive_driver_assistance"><path codeLine="237" d="M433.09,934.28 C415.02,959.58 392.09,991.67 376.05,1014.13 " fill="none" id="Automotive-to-driver_assistance" style="stroke:#181818;stroke-width:1.0;"/><polygon fill="#181818" points="373.14,1018.2,381.6194,1013.1901,376.0408,1014.1275,375.1034,1008.5488,373.14,1018.2" style="stroke:#181818;stroke-width:1.0;"/></g><!--MD5=[9bb8ad0ad74d12c482597c669a407820]
link Automotive to wireless_comms--><g id="link_Automotive_wireless_comms"><path codeLine="238" d="M489.91,934.28 C503.92,953.89 520.84,977.58 535.22,997.71 " fill="none" id="Automotive-to-wireless_comms" style="stroke:#181818;stroke-width:1.0;"/><polygon fill="#181818" points="538.24,1001.94,536.2766,992.2888,535.3392,997.8675,529.7606,996.9301,538.24,1001.94" style="stroke:#181818;stroke-width:1.0;"/></g><!--MD5=[a89def8db0b58d8e93e02565447bf9c2]
link Biomedical to imaging--><g id="link_Biomedical_imaging"><path codeLine="239" d="M1083.5,917.79 C1083.5,936.84 1083.5,964.5 1083.5,988.84 " fill="none" id="Biomedical-to-imaging" style="stroke:#181818;stroke-width:1.0;"/><polygon fill="#181818" points="1083.5,993.98,1087.5,984.98,1083.5,988.98,1079.5,984.98,1083.5,993.98" style="stroke:#181818;stroke-width:1.0;"/></g><!--MD5=[844e885b891eb0ba74bb168044efa6f8]
link Biomedical to smart_prost--><g id="link_Biomedical_smart_prost"><path codeLine="240" d="M1109.17,917.79 C1130.6,937.24 1161.92,965.66 1189.15,990.36 " fill="none" id="Biomedical-to-smart_prost" style="stroke:#181818;stroke-width:1.0;"/><polygon fill="#181818" points="1193.13,993.98,1189.1353,984.9776,1189.4206,990.6273,1183.771,990.9126,1193.13,993.98" style="stroke:#181818;stroke-width:1.0;"/></g><!--MD5=[f727d74b0ee7cd9737812694fba163f1]
link Biomedical to medical_instrumentation--><g id="link_Biomedical_medical_instrumentation"><path codeLine="241" d="M1125.21,917.71 C1140.67,926.3 1154.5,934 1154.5,934 C1154.5,934 1280.17,970.12 1385.81,1000.49 " fill="none" id="Biomedical-to-medical_instrumentation" style="stroke:#181818;stroke-width:1.0;"/><polygon fill="#181818" points="1390.83,1001.93,1383.2926,995.5907,1386.0262,1000.5432,1381.0737,1003.2768,1390.83,1001.93" style="stroke:#181818;stroke-width:1.0;"/></g></g></svg>